<?xml version="1.0" encoding="UTF-8"?>
<svg viewBox="0 0 1078 758" version="1.1" xmlns="http://www.w3.org/2000/svg" xmlns:xlink="http://www.w3.org/1999/xlink">
    <!-- Generator: Sketch 46.2 (44496) - http://www.bohemiancoding.com/sketch -->
    <title>undraw_product_tour_foyt</title>
    <desc>Created with Sketch.</desc>
    <defs>
        <linearGradient x1="50.0473806%" y1="99.997641%" x2="50.0473806%" y2="-0.0142947503%" id="linearGradient-1">
            <stop stop-color="#808080" stop-opacity="0.25" offset="0%"></stop>
            <stop stop-color="#808080" stop-opacity="0.12" offset="54%"></stop>
            <stop stop-color="#808080" stop-opacity="0.1" offset="100%"></stop>
        </linearGradient>
    </defs>
    <g id="Page-1" stroke="none" stroke-width="1" fill="none" fill-rule="evenodd">
        <g id="undraw_product_tour_foyt" transform="translate(0.000000, -1.000000)">
            <path d="M663.83,92.84 C617.58,125.22 557.59,123.13 505.02,106.28 C452.45,89.43 404.16,59.43 352.94,38.11 C310.249406,20.3041918 265.270473,8.5797774 219.32,3.28 C154.04,-4.19 81.14,4.91 35.66,57.28 C-14.99,115.57 -11.1,220.73 43.66,274.28 C71.53,301.5 108.02,314.86 139.84,336.11 C171.66,357.36 201.14,392.63 198.43,433.63 C195.92,471.63 166.75,500.75 136.56,519.04 C113.23,533.17 84.5,548.6 81.69,577.87 C78.97,606.19 103.13,628.38 126.2,641 C201.46,682.18 294.2,681.78 369.2,640 C395.94,625.05 420.5,605.21 448.55,593.63 C522.2,563.11 603.36,593.84 681.35,605.07 C747.618219,614.563703 815.154656,609.648552 879.35,590.66 C917.97,579.25 956.74,561.81 983.87,529.32 C1003.44,505.89 1015.63,476.25 1027.07,446.96 C1039.27,415.74 1051,384.296667 1062.26,352.63 C1069.01,333.63 1075.66,314.25 1077.41,293.91 C1080.57,257.06 1067.25,220.63 1049.11,189.53 C1006.04,115.63 933.5,63.71 854.94,50.52 C776.38,37.33 693.27,63.09 632.34,119.46 L663.83,92.84 Z" id="Shape" fill="#3FA34D" fill-rule="nonzero" opacity="0.1"></path>
            <g id="Group" opacity="0.1" transform="translate(536.000000, 103.000000)" fill-rule="nonzero" fill="#000000">
                <path d="M4.65,1.4 L0.84,222.4 C0.84,222.4 138.76,222.4 256.11,260.5 L258.39,37.24 C258.39,37.24 70.18,-7.75 4.65,1.4 Z" id="Shape"></path>
            </g>
            <path d="M537.65,100.4 L533.84,321.4 C533.84,321.4 671.76,321.4 789.11,359.5 L791.39,136.24 C791.39,136.24 603.18,91.25 537.65,100.4 Z" id="Shape" fill="#F7F7FD" fill-rule="nonzero"></path>
            <g id="Group" opacity="0.1" transform="translate(217.000000, 109.000000)" fill-rule="nonzero" fill="#000000">
                <path d="M254.41,1.73 L258.22,222.73 C258.22,222.73 120.3,222.73 2.96,260.83 L0.67,37.57 C0.67,37.57 188.88,-7.37 254.41,1.73 Z" id="Shape"></path>
            </g>
            <path d="M474.41,105.73 L478.22,326.73 C478.22,326.73 340.3,326.73 222.96,364.83 L220.67,141.57 C220.67,141.57 408.88,96.63 474.41,105.73 Z" id="Shape" fill="#F7F7FD" fill-rule="nonzero"></path>
            <g id="Group" opacity="0.2" transform="translate(276.000000, 130.000000)" fill-rule="nonzero" fill="#3FA34D">
                <path d="M136.46,1.51 L138.51,120.02 C138.51,120.02 64.51,120.02 1.61,140.45 L0.38,20.72 C0.38,20.72 101.32,-3.37 136.46,1.51 Z" id="Shape"></path>
            </g>
            <g id="Group" opacity="0.1" transform="translate(875.000000, 185.000000)" fill-rule="nonzero" fill="#000000">
                <path d="M0.68,0.69 L0.68,219.38 C0.68,219.38 45.68,214.04 140.13,330.63 L148.51,111.94 C148.51,111.94 50.21,6.02 0.68,0.69 Z" id="Shape"></path>
            </g>
            <path d="M873.68,182.69 L873.68,401.38 C873.68,401.38 918.68,396.04 1013.13,512.63 L1021.51,293.94 C1021.51,293.94 923.21,188.02 873.68,182.69 Z" id="Shape" fill="#F7F7FD" fill-rule="nonzero"></path>
            <g id="Group" opacity="0.1" transform="translate(0.000000, 186.000000)" fill-rule="nonzero" fill="#000000">
                <path d="M148.33,0.69 L148.33,219.38 C148.33,219.38 103.37,214.04 8.94,330.63 L0.51,111.94 C0.51,111.94 98.8,6.02 148.33,0.69 Z" id="Shape"></path>
            </g>
            <path d="M151.33,182.69 L151.33,401.38 C151.33,401.38 106.37,396.04 11.94,512.63 L3.51,293.94 C3.51,293.94 101.8,188.02 151.33,182.69 Z" id="Shape" fill="#F7F7FD" fill-rule="nonzero"></path>
            <g id="Group" opacity="0.2" transform="translate(574.000000, 146.000000)" fill-rule="nonzero" fill="#3FA34D">
                <polygon id="Shape" points="0.5 0.37 93.93 17.08 93.93 30.69 0.5 12.75"></polygon>
            </g>
            <polygon id="Shape" fill="#FFFFFF" fill-rule="nonzero" points="394.5 277.87 301.08 294.58 301.08 308.19 394.5 290.25"></polygon>
            <polygon id="Shape" fill="#FFFFFF" fill-rule="nonzero" points="575.74 171.74 746.5 207.01 746.5 220.62 575.74 184.12"></polygon>
            <polygon id="Shape" fill="#FFFFFF" fill-rule="nonzero" points="575.74 197.11 746.5 232.37 746.5 245.99 575.74 209.48"></polygon>
            <g id="Group" opacity="0.2" transform="translate(913.000000, 253.000000)" fill-rule="nonzero" fill="#3FA34D">
                <polygon id="Shape" points="0.5 0.31 0.5 12.32 37.13 42.08 38.85 31.78"></polygon>
            </g>
            <polygon id="Shape" fill="#FFFFFF" fill-rule="nonzero" points="913.5 369.31 913.5 381.32 950.13 411.08 951.85 400.78"></polygon>
            <polygon id="Shape" fill="#FFFFFF" fill-rule="nonzero" points="914.08 273.91 913.5 285.93 982.75 351.16 981.61 337.43"></polygon>
            <polygon id="Shape" fill="#FFFFFF" fill-rule="nonzero" points="913.5 296.23 913.5 307.67 982.75 374.06 982.75 359.18"></polygon>
            <g id="Group" opacity="0.2" transform="translate(42.000000, 255.000000)" fill-rule="nonzero" fill="#3FA34D">
                <polygon id="Shape" points="68.93 0.91 69.5 12.93 0.26 78.16 1.4 64.43"></polygon>
            </g>
            <g id="Group" opacity="0.2" transform="translate(42.000000, 278.000000)" fill-rule="nonzero" fill="#3FA34D">
                <polygon id="Shape" points="69.5 0.23 69.5 11.67 0.26 78.06 0.26 63.18"></polygon>
            </g>
            <ellipse id="Oval" fill="#3FA34D" fill-rule="nonzero" opacity="0.1" cx="204.61" cy="622.88" rx="57" ry="10.26"></ellipse>
            <path d="M69.43,566.47 C69.43,566.47 74.92,573.65 66.89,584.47 C58.86,595.29 52.24,604.47 54.89,611.23 C54.89,611.23 67,591.09 76.89,590.81 C86.78,590.53 80.28,578.63 69.43,566.47 Z" id="Shape" fill="#3FA34D" fill-rule="nonzero"></path>
            <path d="M69.43,566.47 C69.9111307,567.161327 70.2884647,567.919364 70.55,568.72 C80.17,580.02 85.3,590.57 76.05,590.84 C67.44,591.08 57.05,606.49 54.63,610.38 C54.71,610.67 54.81,610.97 54.92,611.26 C54.92,611.26 67.03,591.12 76.92,590.84 C86.81,590.56 80.28,578.63 69.43,566.47 Z" id="Shape" fill="#000000" fill-rule="nonzero" opacity="0.1"></path>
            <path d="M79.64,575.63 C79.64,578.16 79.36,580.21 79.01,580.21 C78.66,580.21 78.37,578.16 78.37,575.63 C78.37,573.1 78.73,574.29 79.08,574.29 C79.43,574.29 79.64,573.09 79.64,575.63 Z" id="Shape" fill="#FFD037" fill-rule="nonzero"></path>
            <path d="M83.15,578.63 C80.93,579.84 78.99,580.57 78.82,580.27 C78.65,579.97 80.32,578.73 82.54,577.52 C84.76,576.31 83.88,577.19 84.05,577.52 C84.22,577.85 85.37,577.43 83.15,578.63 Z" id="Shape" fill="#FFD037" fill-rule="nonzero"></path>
            <path d="M40.41,566.47 C40.41,566.47 34.94,573.63 42.94,584.5 C50.94,595.37 57.59,604.5 54.94,611.26 C54.94,611.26 42.83,591.12 32.94,590.84 C23.05,590.56 29.57,578.63 40.41,566.47 Z" id="Shape" fill="#3FA34D" fill-rule="nonzero"></path>
            <path d="M40.41,566.47 C39.9332662,567.163923 39.5562575,567.921306 39.29,568.72 C29.67,580.02 24.54,590.57 33.79,590.84 C42.41,591.08 52.79,606.49 55.21,610.38 C55.1314649,610.679001 55.0346154,610.972889 54.92,611.26 C54.92,611.26 42.81,591.12 32.92,590.84 C23.03,590.56 29.57,578.63 40.41,566.47 Z" id="Shape" fill="#000000" fill-rule="nonzero" opacity="0.1"></path>
            <path d="M30.2,575.63 C30.2,578.16 30.48,580.21 30.83,580.21 C31.18,580.21 31.47,578.16 31.47,575.63 C31.47,573.1 31.11,574.29 30.76,574.29 C30.41,574.29 30.2,573.09 30.2,575.63 Z" id="Shape" fill="#FFD037" fill-rule="nonzero"></path>
            <path d="M26.7,578.63 C28.92,579.84 30.85,580.57 31.02,580.27 C31.19,579.97 29.52,578.73 27.3,577.52 C25.08,576.31 25.96,577.19 25.79,577.52 C25.62,577.85 24.48,577.43 26.7,578.63 Z" id="Shape" fill="#FFD037" fill-rule="nonzero"></path>
            <path d="M31.94,610.32 C31.94,610.32 47.3,609.85 51.94,606.55 C56.58,603.25 75.56,599.32 76.71,604.61 C77.86,609.9 99.79,630.9 82.45,631.04 C65.11,631.18 42.16,628.34 37.54,625.52 C32.92,622.7 31.94,610.32 31.94,610.32 Z" id="Shape" fill="#A8A8A8" fill-rule="nonzero"></path>
            <path d="M82.76,629.2 C65.42,629.34 42.47,626.5 37.85,623.68 C34.33,621.54 32.93,613.85 32.46,610.3 L31.95,610.3 C31.95,610.3 32.95,622.69 37.54,625.5 C42.13,628.31 65.11,631.16 82.45,631.02 C87.45,631.02 89.19,629.2 89.09,626.56 C88.4,628.17 86.49,629.17 82.76,629.2 Z" id="Shape" fill="#000000" fill-rule="nonzero" opacity="0.2"></path>
            <ellipse id="Oval" fill="#3FA34D" fill-rule="nonzero" opacity="0.1" cx="600.5" cy="471.71" rx="94" ry="16.1"></ellipse>
            <path d="M581.54,254.42 C581.081253,255.398145 580.745366,256.429321 580.54,257.49 C580.48,257.756667 580.42,258.036667 580.36,258.33 C579.76,261.39 579.36,265.24 579.15,267.48 C579.05,268.6 579,269.32 579,269.32 C579,269.32 557.31,267.87 561.07,264.23 C562.039405,263.225096 562.728918,261.983972 563.07,260.63 C563.18,260.24 563.27,259.85 563.35,259.45 C563.529256,258.54239 563.646195,257.623577 563.7,256.7 C563.7,256.47 563.7,256.24 563.7,256 C563.748904,254.500135 563.678683,252.998753 563.49,251.51 C563.49,251.51 570.54,251.51 575.86,252.08 C579.44,252.49 582.23,253.2 581.54,254.42 Z" id="Shape" fill="#8F5F55" fill-rule="nonzero"></path>
            <path d="M543.94,357.63 C536.55,357.39 542,342 542.85,339.93 C543.7,337.86 541.59,332.79 541.59,332.79 C541.59,332.79 539.09,318.13 539.09,317.17 C538.962337,315.17143 538.681513,313.185601 538.25,311.23 C537.98986,309.233567 538.338394,307.205102 539.25,305.41 C540.1,304.08 539.97,298.75 539.97,298.75 L539.97,291.85 L541.62,289.67 L545.83,293.67 L547,294.77 L549.06,302.49 L548.33,313.55 L547.94,324.32 L550.49,339.22 C550.49,339.22 551.38,357.88 543.94,357.63 Z" id="Shape" fill="#8F5F55" fill-rule="nonzero"></path>
            <polygon id="Shape" fill="#000000" fill-rule="nonzero" opacity="0.1" points="546.28 295.5 539.98 292.88 539.98 291.86 541.62 289.68 545.84 293.66"></polygon>
            <path d="M543.38,279.74 C542.570103,281.729008 541.983186,283.801665 541.63,285.92 C541.304475,287.952366 540.750983,289.941581 539.98,291.85 L546.98,294.76 L543.38,279.74 Z" id="Shape" fill="#4C4981" fill-rule="nonzero"></path>
            <path d="M543.38,279.74 C542.570103,281.729008 541.983186,283.801665 541.63,285.92 C541.304475,287.952366 540.750983,289.941581 539.98,291.85 L546.98,294.76 L543.38,279.74 Z" id="Shape" fill="#000000" fill-rule="nonzero" opacity="0.05"></path>
            <path d="M599.14,432.73 L598.56,433.97 C598.56,433.97 597.93,438.08 597.93,438.18 C597.93,438.28 596.11,441.02 596.11,441.02 L591.54,442.02 L589.6,441.78 C589.496698,440.650277 589.323027,439.528098 589.08,438.42 C589.01,438.11 588.94,437.79 588.85,437.47 C588.167038,434.906374 587.090937,432.464063 585.66,430.23 C585.66,430.23 582.27,421.87 581.06,420.78 C579.85,419.69 575.24,408.66 575.73,406 C575.99,404.54 575.78,399.64 575.54,395.56 C575.34,392.23 575.12,389.43 575.12,389.43 L586.63,382.63 L587.97,384.74 L588.77,385.99 C588.77,385.99 588.77,386.23 588.72,386.63 L588.72,386.78 C588.587699,388.480643 588.251969,390.15929 587.72,391.78 C587.72,391.78 586.86,397.96 587.72,399.05 C588.58,400.14 591.32,414.71 591.93,421.45 C591.93,421.66 591.93,421.87 591.93,422.06 C592.17,425.16 594.09,427.92 596.02,429.94 L596.02,429.94 C596.14,430.08 596.27,430.21 596.4,430.34 C597.25728,431.198735 598.172787,431.997298 599.14,432.73 L599.14,432.73 Z" id="Shape" fill="#8F5F55" fill-rule="nonzero"></path>
            <path d="M589.6,441.76 L591.54,442 L596.11,441 C596.11,441 597.93,438.25 597.93,438.16 C597.93,438.07 598.56,433.95 598.56,433.95 L599.14,432.71 L599.21,432.56 C598.092714,431.786038 597.04236,430.919664 596.07,429.97 L596.07,429.97 C595.96,429.87 595.85,429.77 595.75,429.66 C595.65,429.55 596.4,433.66 592.92,435.45 C591.23,436.32 589.84,436.99 588.87,437.45 L589.6,441.76 Z" id="Shape" fill="#000000" fill-rule="nonzero" opacity="0.1"></path>
            <path d="M599.94,433.31 L599.29,434.7 C599.29,434.7 598.66,438.81 598.66,438.91 C598.66,439.01 596.84,441.75 596.84,441.75 L592.27,442.75 L589.64,442.44 C589.64,441.91 589.55,441.16 589.42,440.25 C589.34,439.7 589.23,439.09 589.08,438.43 C590.08,437.98 591.63,437.24 593.62,436.21 C597.11,434.42 596.45,430.42 596.45,430.42 C597.205019,431.17227 598.003025,431.880124 598.84,432.54 C599.32,432.88 599.71,433.15 599.94,433.31 Z" id="Shape" fill="#CEDDF9" fill-rule="nonzero"></path>
            <path d="M599.94,433.31 L599.29,434.7 C599.29,434.7 598.66,438.81 598.66,438.91 C598.66,439.01 596.84,441.75 596.84,441.75 L592.27,442.75 L589.64,442.44 C589.64,441.91 589.55,441.16 589.42,440.25 C589.979225,440.275501 590.534909,440.352493 591.08,440.48 C591.08,440.48 597.32,441.81 597.62,436.87 C597.8,434.07 598.38,432.97 598.84,432.54 C599.32,432.88 599.71,433.15 599.94,433.31 Z" id="Shape" fill="#000000" fill-rule="nonzero" opacity="0.1"></path>
            <path d="M599.48,432.98 C599.48,432.98 597.93,432.64 597.62,437.57 C597.31,442.5 591.08,441.18 591.08,441.18 C591.08,441.18 588.02,440.42 587.99,441.69 C588.092143,442.864369 588.368504,444.016996 588.81,445.11 C588.81,445.11 588.99,448.05 589.57,448.75 C590.15,449.45 589.78,452.05 589.78,452.05 C589.78,452.05 590.02,453.99 594.84,452.05 C594.84,452.05 599.14,451.16 602.71,445.81 C602.83,445.63 602.29,445.08 605.41,443.96 C608.53,442.84 617.41,435.66 616.77,432.15 C616.628737,430.962551 615.795754,429.972402 614.65,429.63 C613.706608,429.37841 612.701744,429.515273 611.86,430.01 C611.016958,430.466205 610.145115,430.867052 609.25,431.21 C608.061529,431.691166 606.807553,431.991176 605.53,432.1 C604.55033,432.183562 603.58188,432.367869 602.64,432.65 C601.635457,433.041954 600.54385,433.155951 599.48,432.98 Z" id="Shape" fill="#CC8294" fill-rule="nonzero"></path>
            <path d="M564.16,399.04 C563.471621,399.609771 562.877626,400.284766 562.4,401.04 C560.64,403.73 559.58,407.49 558.4,409.11 C556.86,411.21 556.4,415.29 556.4,415.29 C555.99,417.97 550.31,432.29 548.77,434.83 C547.23,437.37 545.09,444.28 545.09,444.28 C543.78,445.92 543.86,448.36 543.99,449.52 C543.99,449.72 543.99,449.88 544.05,449.99 C544.11,450.1 544.05,450.18 544.05,450.18 L544.05,450.25 L541.95,453.82 L535.27,452.89 L531.82,450.55 C532.102523,450.091111 532.353116,449.613315 532.57,449.12 C534.42,445 535.73,437.64 535.73,437.64 C535.73,437.64 537.59,429.24 537.45,427.28 C537.496905,424.605704 537.680478,421.935554 538,419.28 C538,419.28 543.26,403.23 544.94,400.63 C545.640202,399.602591 546.073256,398.416846 546.2,397.18 C546.232464,396.931054 546.232464,396.678946 546.2,396.43 L548.46,394.18 C548.46,394.18 567.06,396.73 564.16,399.04 Z" id="Shape" fill="#8F5F55" fill-rule="nonzero"></path>
            <path d="M544.12,449.48 C544.12,449.48 544.12,449.68 544.12,450.01 L544.12,450.27 L542.02,453.84 L535.34,452.91 L531.89,450.57 C532.172523,450.111111 532.423116,449.633315 532.64,449.14 C534.32,448.66 538.16,450.02 538.16,450.02 C538.16,450.02 542.31,450.81 544.06,449.54 C544.06,449.53 544.08,449.5 544.12,449.48 Z" id="Shape" fill="#000000" fill-rule="nonzero" opacity="0.1"></path>
            <path d="M542.49,459.01 L535.71,460.63 L529.49,456.03 L529.81,453.44 C530.244181,453.174027 530.629728,452.835828 530.95,452.44 C531.403875,451.907004 531.713714,451.266668 531.85,450.58 C532.21,448.67 538.12,450.76 538.12,450.76 C538.12,450.76 542.44,451.58 544.12,450.21 C544.002028,451.465771 544.110413,452.732522 544.44,453.95 C544.600158,454.543236 544.951681,455.067006 545.44,455.44 C547.17,456.63 542.49,459.01 542.49,459.01 Z" id="Shape" fill="#CEDDF9" fill-rule="nonzero"></path>
            <path d="M542.49,459.01 L535.71,460.63 L529.49,456.03 L529.81,453.44 C530.244181,453.174027 530.629728,452.835828 530.95,452.44 C531.4,452.44 531.89,452.44 532.31,452.44 C533.31,452.54 535.81,456.99 535.81,456.99 C541.95,457.4 543.81,455.39 544.44,453.91 C544.600158,454.503236 544.951681,455.027006 545.44,455.4 C547.17,456.63 542.49,459.01 542.49,459.01 Z" id="Shape" fill="#000000" fill-rule="nonzero" opacity="0.1"></path>
            <path d="M535.81,457.74 C535.81,457.74 533.35,453.29 532.31,453.2 C531.430693,453.150615 530.549307,453.150615 529.67,453.2 C529.67,453.2 526.95,459.65 525.95,460.2 C524.95,460.75 523.49,463.84 523.49,463.84 C523.49,463.84 530.69,470.84 537.65,469.47 C539.870688,469.501966 542.054029,470.04609 544.03,471.06 C547.25,472.74 560.7,471.47 562.34,468.52 C563.56,466.3 564.05,464.69 562.97,463.52 C562.315001,462.841635 561.372724,462.521335 560.44,462.66 C558.75,462.89 554.95,462.85 551.62,458.76 C551.62,458.76 545.48,453.14 544.98,453.13 C544.48,453.12 545.39,458.38 535.81,457.74 Z" id="Shape" fill="#CC8294" fill-rule="nonzero"></path>
            <path d="M588.78,386.72 L588.73,386.78 C588.31,387.24 585.35,390.49 584.45,390.72 C582.961894,391.281721 581.506297,391.926057 580.09,392.65 C580.09,392.65 578.27,395.08 576.82,395.2 C576.38159,395.263301 575.952035,395.377402 575.54,395.54 C575.34,392.21 575.12,389.41 575.12,389.41 L586.63,382.63 L587.97,384.74 C588.27,385.59 588.61,386.38 588.72,386.63 L588.78,386.72 Z" id="Shape" fill="#000000" fill-rule="nonzero" opacity="0.1"></path>
            <path d="M546.94,339.93 C546.94,339.93 542.46,345.77 546.94,353.52 C549.349594,357.876739 552.461367,361.806155 556.15,365.15 L571.41,396.77 C571.41,396.77 575.41,394.59 576.87,394.47 C578.33,394.35 580.14,391.93 580.14,391.93 C581.555724,391.201918 583.011367,390.554224 584.5,389.99 C585.5,389.75 588.83,385.99 588.83,385.99 C588.83,385.99 587.16,382.36 587.53,381.39 C587.9,380.42 586.44,377.99 586.44,377.99 C585.985885,376.775374 585.650976,375.519463 585.44,374.24 C585.44,373.24 583.86,370.97 583.86,370.97 C583.86,370.97 582.29,368.54 582.29,367.21 C582.29,365.88 579.94,360.63 579.94,360.63 L579.33,337.63 L546.94,339.93 Z" id="Shape" fill="#CEDDF9" fill-rule="nonzero"></path>
            <path d="M588.78,385.99 C588.78,385.99 585.42,389.74 584.45,389.99 C582.961367,390.554224 581.505724,391.201918 580.09,391.93 C580.09,391.93 578.27,394.35 576.82,394.47 C575.775558,394.687028 574.766044,395.047088 573.82,395.54 C572.52,396.13 571.35,396.77 571.35,396.77 L556.08,365.15 C554.743461,363.984841 553.502795,362.714078 552.37,361.35 C550.302011,358.912964 548.461025,356.292068 546.87,353.52 C545.119982,350.709179 544.498361,347.340278 545.13,344.09 C545.413607,342.600269 546.006354,341.186534 546.87,339.94 L557.73,339.17 L579.36,337.63 L579.54,344.44 L579.94,360.63 C579.94,360.63 580.29,361.44 580.73,362.51 C581.417331,363.997573 581.924265,365.562018 582.24,367.17 C582.24,368.51 583.81,370.93 583.81,370.93 C583.81,370.93 585.39,373.23 585.39,374.2 C585.602059,375.482486 585.936934,376.741612 586.39,377.96 C586.39,377.96 587.85,380.38 587.49,381.34 C587.13,382.3 588.78,385.99 588.78,385.99 Z" id="Shape" fill="#000000" fill-rule="nonzero" opacity="0.05"></path>
            <path d="M564.16,399.04 C563.471621,399.609771 562.877626,400.284766 562.4,401.04 C555.81,401.52 548.15,398.04 546.16,397.12 C546.192464,396.871054 546.192464,396.618946 546.16,396.37 L548.42,394.12 C548.42,394.12 567.06,396.73 564.16,399.04 Z" id="Shape" fill="#000000" fill-rule="nonzero" opacity="0.1"></path>
            <path d="M583.6,347.1 C583.6,347.1 582.6,350.49 582.27,351.94 C581.94,353.39 581.18,360.55 581.18,360.55 L580.76,362.55 L573.84,395.55 L572.33,402.72 C569.67,404.18 563.01,400.29 563.01,400.29 C555.25,401.15 545.68,396.18 545.68,396.18 C545.68,396.18 547.25,391.09 546.89,388.55 C546.53,386.01 549.07,383.94 549.07,383.94 C548.47,381.64 550.64,371.58 550.64,371.58 C550.64,371.58 551.13,367.83 552.95,366.86 C554.77,365.89 552.71,364.44 552.22,363.58 C552.048043,362.840048 552.107383,362.065143 552.39,361.36 C552.547368,360.800488 552.734297,360.249714 552.95,359.71 C548.33,355.09 547.62,347.87 547.61,343.86 C547.597349,342.881652 547.640754,341.903383 547.74,340.93 L557.74,339.18 L579.59,335.36 L581.82,342.22 L581.82,342.22 L582.38,343.94 L583.6,347.1 Z" id="Shape" fill="#CEDDF9" fill-rule="nonzero"></path>
            <path d="M581.54,254.42 C581.081253,255.398145 580.745366,256.429321 580.54,257.49 C580.48,257.756667 580.42,258.036667 580.36,258.33 C578.25,259.7 576.95,259.71 574.25,259.71 C573.32,259.71 572.8,257.93 571.92,257.71 C571.92,257.71 570.6,252.95 570.23,256.96 C567.69,256.44 565.5,258.42 563.7,256.69 L563.7,256.69 C563.7,256.46 563.7,256.23 563.7,255.99 C563.748904,254.490135 563.678683,252.988753 563.49,251.5 C563.49,251.5 570.54,251.5 575.86,252.07 C579.44,252.49 582.23,253.2 581.54,254.42 Z" id="Shape" fill="#000000" fill-rule="nonzero" opacity="0.1"></path>
            <path d="M586.54,246.26 C586.534097,250.313929 584.709392,254.151268 581.568716,256.714572 C578.428039,259.277875 574.302881,260.296593 570.33,259.49 L570.33,259.49 C564.233677,258.23378 559.78646,252.972269 559.563273,246.751865 C559.340086,240.531461 563.398789,234.964759 569.389406,233.274862 C575.380023,231.584965 581.749529,234.209967 584.81,239.63 C585.957568,241.650266 586.554153,243.9366 586.54,246.26 Z" id="Shape" fill="#8F5F55" fill-rule="nonzero"></path>
            <path d="M579.15,267.48 C579.05,268.6 579,269.32 579,269.32 C579,269.32 557.31,267.87 561.07,264.23 C562.039405,263.225096 562.728918,261.983972 563.07,260.63 L572.48,262.17 C572.48,262.17 575.14,264.23 577.2,266.17 C577.78663,266.694308 578.442822,267.135135 579.15,267.48 Z" id="Shape" fill="#000000" fill-rule="nonzero" opacity="0.1"></path>
            <path d="M582.39,344.63 C581.435667,344.756725 580.465452,344.685236 579.54,344.42 C579.139253,344.292347 578.753636,344.121334 578.39,343.91 C576.57,342.82 570.52,344.16 570.52,344.16 C570.52,344.16 554.04,345.25 553.31,344.16 C552.9,343.53 549.99,343.62 547.61,343.81 C546.61,343.89 545.76,343.99 545.15,344.05 C545.433607,342.560269 546.026354,341.146534 546.89,339.9 L557.75,339.13 L579.6,335.31 L581.83,342.17 L581.83,342.17 C581.974519,342.999028 582.161431,343.820105 582.39,344.63 L582.39,344.63 Z" id="Shape" fill="#000000" fill-rule="nonzero" opacity="0.1"></path>
            <path d="M572.45,262.9 L560.63,260.96 C560.207331,261.902549 559.391981,262.611867 558.4,262.9 C556.83,263.26 549.8,266.9 546.65,271.26 L543.5,275.63 C543.5,275.63 540.95,278.78 541.8,281.32 C542.65,283.86 543.62,292.47 543.62,292.47 L544.83,302.04 C544.83,302.04 547.13,308.95 546.41,311.98 C545.69,315.01 546.77,327.73 546.77,327.73 L544.35,343.48 C544.35,343.48 552.58,342.39 553.35,343.48 C554.12,344.57 570.56,343.48 570.56,343.48 C570.56,343.48 576.56,342.14 578.43,343.23 C579.652828,343.889524 581.053035,344.145062 582.43,343.96 C582.43,343.96 580.98,338.96 581.82,336.21 C582.66,333.46 582.43,328.33 582.43,328.33 C582.43,328.33 583.64,320.94 583.03,319.61 C582.42,318.28 584.37,313.43 584.37,313.43 L590.79,279.63 C590.79,279.63 590.01,273.57 586.58,271.51 C583.15,269.45 579.28,268.84 577.22,266.91 C575.16,264.98 572.45,262.9 572.45,262.9 Z" id="Shape" fill="#4C4981" fill-rule="nonzero"></path>
            <path d="M577.94,296.22 L577.94,300.22 L581.67,310.28 L583.02,319.61 C583.02,319.61 585.45,326.27 585.45,328.61 C585.45,330.95 591.38,342.06 591.38,342.06 C591.38,342.06 593,345.82 592.19,346.54 C591.38,347.26 584.36,363.26 593.19,362.78 C602.02,362.3 599.25,345.58 599.25,345.58 L598.04,338.31 C598.04,338.31 596.34,320.13 596.34,318.8 C596.34,318.8 594.16,311.05 593.92,309.35 C593.68,307.65 592.1,299.05 592.1,299.05 L590.77,293.48 L577.94,296.22 Z" id="Shape" fill="#8F5F55" fill-rule="nonzero"></path>
            <polygon id="Shape" fill="#000000" fill-rule="nonzero" opacity="0.1" points="573.69 308.82 560.52 316.36 556.43 322.54 561.88 317"></polygon>
            <path d="M569.7,323.26 C569.7,323.26 563.7,327.17 560.88,327.17 C558.06,327.17 551.52,333.89 551.52,333.89 C551.52,333.89 560.79,327.89 561.52,328.08 C562.25,328.27 569.7,323.26 569.7,323.26 Z" id="Shape" fill="#000000" fill-rule="nonzero" opacity="0.1"></path>
            <path d="M554.34,325.35 C554.34,325.35 548.71,330.44 550.16,330.99 C551.61,331.54 559.16,325.35 559.16,325.35 L554.34,325.35 Z" id="Shape" fill="#000000" fill-rule="nonzero" opacity="0.1"></path>
            <path d="M579.24,307.18 C579.24,307.18 574.88,313.09 576.06,313 C577.24,312.91 580.6,309.54 580.6,309.54 L579.24,307.18 Z" id="Shape" fill="#000000" fill-rule="nonzero" opacity="0.1"></path>
            <path d="M579.87,313 C579.87,313 575.15,318.36 575.33,319.72 C575.51,321.08 579.87,313 579.87,313 Z" id="Shape" fill="#000000" fill-rule="nonzero" opacity="0.1"></path>
            <path d="M581.06,315.68 C581.06,315.68 577.88,321.36 579.24,322.54 C580.6,323.72 581.06,315.68 581.06,315.68 Z" id="Shape" fill="#000000" fill-rule="nonzero" opacity="0.1"></path>
            <path d="M576.94,301.09 C576.94,301.09 574.57,305.09 576.3,305.36 C578.03,305.63 578.2,305.36 578.2,305.36 L576.94,301.09 Z" id="Shape" fill="#000000" fill-rule="nonzero" opacity="0.1"></path>
            <path d="M577.6,286.46 C577.009677,288.904689 576.199719,291.291053 575.18,293.59 C574.800418,292.418437 574.486596,291.226579 574.24,290.02 C575.237624,288.723524 576.363306,287.530837 577.6,286.46 L577.6,286.46 Z" id="Shape" fill="#000000" fill-rule="nonzero" opacity="0.1"></path>
            <path d="M584.81,239.63 C584.575641,240.141091 584.269187,240.615926 583.9,241.04 C583.280154,241.598862 582.729557,242.230034 582.26,242.92 C581.890436,243.950892 581.691163,245.035072 581.67,246.13 C581.49,247.21 580.81,248.41 579.67,248.44 C579.109161,248.392633 578.564297,248.229174 578.07,247.96 C577.567294,247.699354 576.965336,247.718283 576.48,248.01 C576.164343,248.331097 575.982105,248.759893 575.97,249.21 C575.831764,250.149969 575.778216,251.100452 575.81,252.05 C575.81,252.43 575.81,252.8 575.87,253.18 C576.149366,254.375079 576.076425,255.625509 575.66,256.78 C575.138193,257.615888 574.34862,258.250367 573.42,258.58 C572.411638,258.995959 571.357668,259.291339 570.28,259.46 L570.28,259.46 C568.226827,259.711997 566.155158,259.778933 564.09,259.66 C563.899356,259.665164 563.709426,259.63464 563.53,259.57 C563.441623,259.534855 563.360318,259.484039 563.29,259.42 C563.51869,258.283752 563.642544,257.128902 563.66,255.97 C559.868821,252.289349 558.57348,246.735228 560.345263,241.757175 C562.117046,236.779122 566.630209,233.292357 571.894308,232.83465 C577.158407,232.376944 582.205631,235.032447 584.81,239.63 Z" id="Shape" fill="#000000" fill-rule="nonzero" opacity="0.1"></path>
            <path d="M579.17,228.2 C577.93,228.07 576.76,228.73 575.54,229 C573.03,229.55 570.46,228.41 567.88,228.42 C565.661975,228.545937 563.504311,229.189811 561.58,230.3 C560.023733,231.035296 558.603564,232.029415 557.38,233.24 C556.151084,234.470315 555.436084,236.121966 555.38,237.86 C555.550527,238.855984 555.519926,239.876029 555.29,240.86 C555.030463,241.355988 554.722283,241.824959 554.37,242.26 C553.723929,243.297355 553.56668,244.566323 553.94,245.73 C554.456979,246.868942 555.156146,247.916003 556.01,248.83 C557.67,250.96 558.71,253.51 560.2,255.77 C560.849987,256.751184 561.579081,257.677601 562.38,258.54 C562.510978,258.692866 562.670656,258.818571 562.85,258.91 C563.026399,258.972129 563.213211,258.999302 563.4,258.99 C566.56,259.08 569.83,259.15 572.74,257.91 C573.672199,257.586808 574.463713,256.95077 574.98,256.11 C575.399747,254.956487 575.476163,253.70604 575.2,252.51 C575.067534,251.177956 575.097757,249.834738 575.29,248.51 C575.302629,248.062943 575.484979,247.637461 575.8,247.32 C576.286062,247.018558 576.896065,246.999495 577.4,247.27 C577.894348,247.530402 578.43414,247.693358 578.99,247.75 C580.08,247.75 580.77,246.51 580.99,245.43 C580.74531,243.453008 581.60078,241.500387 583.22,240.34 C584.739263,238.411866 585.248144,235.87489 584.59,233.51 C583.87,231.26 581.67,228.45 579.17,228.2 Z" id="Shape" fill="#1E1637" fill-rule="nonzero"></path>
            <path d="M592.14,285.63 C591.873591,287.286021 591.873591,288.973979 592.14,290.63 C592.02,291.97 592.14,299.36 592.14,299.36 C588.14,298.14 577.97,300.57 577.97,300.57 L576.76,296.94 C576.069336,296.044389 575.553668,295.026623 575.24,293.94 C574.860438,292.765046 574.546619,291.569861 574.3,290.36 C573.771939,287.84563 573.374738,285.305547 573.11,282.75 C572.6,278.9 578.33,274.75 582.67,272.45 C587.01,270.15 590.81,279.96 590.81,279.96 C590.81,279.96 592.62,283.73 592.14,285.63 Z" id="Shape" fill="#000000" fill-rule="nonzero" opacity="0.1"></path>
            <path d="M592.14,284.94 C591.874445,286.596089 591.874445,288.283911 592.14,289.94 C592.02,291.27 592.14,298.66 592.14,298.66 C588.14,297.45 577.97,299.87 577.97,299.87 L576.76,296.24 C576.067283,295.345686 575.551408,294.327511 575.24,293.24 C574.860418,292.068437 574.546596,290.876579 574.3,289.67 C573.772712,287.155489 573.375517,284.615445 573.11,282.06 C572.6,278.2 578.33,274.06 582.67,271.75 C587.01,269.44 590.81,279.26 590.81,279.26 C590.81,279.26 592.62,283 592.14,284.94 Z" id="Shape" fill="#4C4981" fill-rule="nonzero"></path>
            <path d="M584.45,233.51 C584.242151,232.823019 583.942797,232.167133 583.56,231.56 C583.62,231.73 583.68,231.89 583.73,232.06 C584.388144,234.42489 583.879263,236.961866 582.36,238.89 C580.74078,240.050387 579.88531,242.003008 580.13,243.98 C579.96,245.06 579.27,246.25 578.13,246.29 C577.569161,246.242633 577.024297,246.079174 576.53,245.81 C576.027294,245.549354 575.425336,245.568283 574.94,245.86 C574.624343,246.181097 574.442105,246.609893 574.43,247.06 C574.23686,248.384663 574.206635,249.727991 574.34,251.06 C574.45,252.28 574.69,253.59 574.12,254.67 C573.592936,255.501205 572.805178,256.134225 571.88,256.47 C568.97,257.71 565.7,257.64 562.54,257.55 C562.352572,257.555846 562.165789,257.525282 561.99,257.46 C561.806508,257.375194 561.645513,257.248454 561.52,257.09 C560.710781,256.234734 559.981103,255.307574 559.34,254.32 C557.85,252.06 556.81,249.52 555.15,247.38 C554.7,246.8 554.15,246.23 553.78,245.62 L553.78,245.74 C554.289812,246.882911 554.989733,247.931102 555.85,248.84 C557.5,250.97 558.55,253.52 560.03,255.78 C560.68028,256.763656 561.412912,257.690318 562.22,258.55 C562.34731,258.702586 562.503671,258.828355 562.68,258.92 C562.856578,258.981397 563.043248,259.008549 563.23,259 C566.39,259.09 569.67,259.16 572.57,257.92 C573.502199,257.596808 574.293713,256.96077 574.81,256.12 C575.229747,254.966487 575.306163,253.71604 575.03,252.52 C574.907682,251.187586 574.937877,249.845564 575.12,248.52 C575.141121,248.074854 575.322219,247.652292 575.63,247.33 C576.116062,247.028558 576.726065,247.009495 577.23,247.28 C577.724348,247.540402 578.26414,247.703358 578.82,247.76 C579.92,247.76 580.6,246.52 580.82,245.44 C580.836233,244.34458 581.035653,243.259598 581.41,242.23 C581.876544,241.537714 582.427446,240.906192 583.05,240.35 C584.579896,238.423324 585.099881,235.882829 584.45,233.51 Z" id="Shape" fill="#000000" fill-rule="nonzero" opacity="0.2"></path>
            <path d="M681.94,236.14 L673.3,254.5 C673.3,254.5 672.03,257.95 671.21,258.59 C670.39,259.23 666.76,270.13 666.76,270.13 L657.49,284.41 L657.49,284.41 L656.86,285.41 L653.23,284.41 L650.68,274.89 L650.83,272.13 L650.83,271.78 C650.83,271.78 656.55,265.78 657.83,265.33 C657.83,265.33 658.83,265.45 660.73,260.8 C662.63,256.15 664.37,255.15 664.37,255.15 L665.37,251.79 L676.1,234.7 C676.1,234.7 685.1,221.81 687.55,227.53 C690,233.25 681.94,236.14 681.94,236.14 Z" id="Shape" fill="#704A43" fill-rule="nonzero"></path>
            <path d="M646.06,366.56 C646.031068,366.871478 645.931918,367.172347 645.77,367.44 C644.77,368.9 639.14,398.61 639.14,398.61 C639.59,400.61 638.32,404.61 637.5,406.43 C636.68,408.25 634.86,417.69 634.86,417.69 C634.86,417.69 634.41,438.05 633.24,441.23 C632.07,444.41 633.61,451.23 633.61,451.23 C633.5,454.36 635.38,457.68 636.5,459.36 L636.72,459.68 C637.08,460.2 637.32,460.5 637.32,460.5 C637.628237,461.106807 638.060988,461.641782 638.59,462.07 L638.85,462.27 C640.395281,463.302391 642.122538,464.031979 643.94,464.42 L644.12,464.42 C644.84,464.58 645.32,464.65 645.32,464.65 L645.77,467.11 L640.96,468.11 L631.78,468.74 C631.78,468.74 620.96,469.57 623.42,464.74 C623.590312,464.417579 623.737353,464.083394 623.86,463.74 L623.86,463.74 C623.955307,463.504326 624.038745,463.264025 624.11,463.02 C625.59,458.39 624.59,452.76 624.59,452.76 L622.5,436.32 C619.05,421.05 625.21,404.06 625.21,404.06 C625.21,404.06 624.68,402.7 625.86,399.25 C627.04,395.8 625.86,388.25 625.86,388.25 C625.86,388.25 625.23,378.53 624.41,373.72 C624.086824,371.693735 623.976224,369.63925 624.08,367.59 C624.119534,366.391217 624.229726,365.195809 624.41,364.01 L645.12,361.26 C645.12,361.26 646.31,364.63 646.06,366.56 Z" id="Shape" fill="#704A43" fill-rule="nonzero"></path>
            <path d="M645.77,467.13 L640.96,468.13 L631.78,468.76 C631.78,468.76 620.96,469.59 623.42,464.76 C623.590312,464.437579 623.737353,464.103394 623.86,463.76 L623.86,463.76 C623.955307,463.524326 624.038745,463.284025 624.11,463.04 C625.984846,463.10181 627.836534,463.473499 629.59,464.14 C632.67,465.33 634.99,462.23 634.99,462.23 L636.49,459.37 L636.71,458.96 C637.07,459.48 637.31,459.78 637.31,459.78 C637.672843,460.482697 638.197197,461.089302 638.84,461.55 L638.58,462.08 L637.13,465.14 C637.13,465.14 638.99,465.33 641.53,465.74 C642.550182,466.00375 643.600007,465.43072 643.93,464.43 L644.11,464.43 C644.83,464.59 645.31,464.66 645.31,464.66 L645.77,467.13 Z" id="Shape" fill="#000000" fill-rule="nonzero" opacity="0.1"></path>
            <path d="M650.22,469.39 C649.86,471.03 639.73,471.53 639.73,471.53 C639.73,471.53 634.09,470.99 632.51,472.3 C630.93,473.61 626.28,473.3 626.1,473.3 C625.92,473.3 623.47,473.21 622.51,468.81 C621.55,464.41 623.76,463.81 623.86,463.74 L623.86,463.74 C625.820588,463.768474 627.760604,464.144289 629.59,464.85 C632.67,466.04 634.99,462.94 634.99,462.94 L636.71,459.67 C637.07,460.19 637.31,460.49 637.31,460.49 C637.672843,461.192697 638.197197,461.799302 638.84,462.26 L637.13,465.85 C637.13,465.85 638.99,466.04 641.53,466.44 C642.146452,466.581094 642.793687,466.438253 643.293493,466.050806 C643.793299,465.66336 644.092972,465.072164 644.11,464.44 C644.115045,464.350071 644.115045,464.259929 644.11,464.17 C644.11,464.17 645.69,464.63 647.65,465.17 C649.473269,465.694904 650.590348,467.529173 650.22,469.39 L650.22,469.39 Z" id="Shape" fill="#626696" fill-rule="nonzero"></path>
            <path d="M669.31,388.22 C669.07,389.67 668.82,393.43 668.82,393.43 C669.67,396.58 667.49,404.06 667.49,404.06 L666.4,408.33 C666.88,413.78 663.4,427.11 663.4,427.11 C663.4,427.11 661.07,439.47 659.86,444.8 C659.13604,447.763055 659.35631,450.878294 660.49,453.71 L660.58,453.93 C660.58,454.03 660.63,454.13 660.65,454.23 C660.686102,454.37656 660.732894,454.520278 660.79,454.66 C661.060898,455.393889 661.464253,456.071796 661.98,456.66 C662.1786,456.900178 662.395949,457.124215 662.63,457.33 L662.63,457.33 C663.769861,458.339898 665.075766,459.145093 666.49,459.71 L666.49,459.71 L667.1,459.95 C667.732141,460.18437 668.3764,460.384658 669.03,460.55 L669.03,460.55 L669.25,460.55 L668.76,463.41 L662.34,461.76 L653.74,458.97 L649.57,456.63 C649.57,456.63 649.57,456.4 649.7,455.96 C649.704889,455.933557 649.704889,455.906443 649.7,455.88 C649.7,455.69 649.78,455.47 649.83,455.21 C650.49,451.46 652.13,440.97 651.31,433.21 C650.31,423.64 654.31,410.43 655.24,407.29 C655.818066,405.489292 656.065387,403.598812 655.97,401.71 C654.39,399.41 654.03,390.2 654.03,390.2 C654.03,390.2 651.12,384.26 648.72,377.96 C647.920215,375.903647 647.340318,373.768421 646.99,371.59 C646.705795,370.057182 646.588444,368.49809 646.64,366.94 C646.64,366.94 666.15,349.13 668.29,366.37 C668.36,366.96 668.43,367.51 668.5,368.06 C670.4,383.91 669.54,386.81 669.31,388.22 Z" id="Shape" fill="#704A43" fill-rule="nonzero"></path>
            <path d="M669.31,460.63 L668.82,463.49 L662.4,461.84 L653.8,459.05 L649.57,456.63 C649.57,456.63 649.57,456.4 649.7,455.96 C649.704889,455.933557 649.704889,455.906443 649.7,455.88 C649.7,455.69 649.78,455.47 649.83,455.21 L650.43,455.21 L650.43,455.21 C651.651772,455.091429 652.884365,455.259199 654.03,455.7 C655.43,456.22 657.27,456.82 657.64,456.57 C658.289508,456.292041 658.994717,456.168801 659.7,456.21 L660.59,454.21 L660.73,453.91 C660.998596,454.644985 661.402192,455.323296 661.92,455.91 C662.134551,456.161205 662.365027,456.39836 662.61,456.62 L662.61,457.31 L662.56,458.31 C663.520624,458.921665 664.560211,459.399404 665.65,459.73 C665.932358,459.800292 666.227642,459.800292 666.51,459.73 L666.51,459.73 L667.12,459.97 C667.752141,460.20437 668.3964,460.404658 669.05,460.57 L669.05,460.57 L669.31,460.63 Z" id="Shape" fill="#000000" fill-rule="nonzero" opacity="0.1"></path>
            <path d="M666.09,466.76 C664.3,466.25 659.98,465.42 659.28,466.06 C658.58,466.7 652.59,466.06 652.59,466.06 C651.313916,466.040087 650.14147,465.353314 649.5,464.25 C648.25,462.31 649.26,456.04 649.26,456.04 L649.7,456.04 L650.44,455.96 L650.44,455.96 C651.66093,455.841893 652.892668,456.006124 654.04,456.44 C655.44,456.97 657.28,457.57 657.65,457.32 C658.29771,457.035382 659.003728,456.908573 659.71,456.95 L660.71,454.7 C660.980898,455.433889 661.384253,456.111796 661.9,456.7 C662.11206,456.950362 662.342715,457.18436 662.59,457.4 L662.5,459.07 C663.461666,459.682248 664.500872,460.163175 665.59,460.5 C666.132622,460.705915 666.745601,460.511253 667.07,460.03 C667.11614,459.951165 667.15305,459.867279 667.18,459.78 L667.18,459.78 C667.989558,460.161745 668.842463,460.443808 669.72,460.62 L669.72,460.62 C672.045583,460.377352 674.188387,461.903028 674.72,464.18 C675.67,466.97 667.88,467.27 666.09,466.76 Z" id="Shape" fill="#626696" fill-rule="nonzero"></path>
            <path d="M646.06,366.56 L644.95,366.9 C644.078189,367.164779 643.184729,367.352171 642.28,367.46 C636.54,368.27 627.09,367.78 624.09,367.59 C624.129534,366.391217 624.239726,365.195809 624.42,364.01 L645.13,361.26 C645.13,361.26 646.31,364.63 646.06,366.56 Z" id="Shape" fill="#000000" fill-rule="nonzero" opacity="0.1"></path>
            <path d="M664.13,361.53 C664.13,361.53 656.53,362.71 650.34,364.06 C648.28,364.51 646.34,364.99 644.95,365.44 C644.077355,365.703744 643.184272,365.894403 642.28,366.01 C635.39,367.01 623.15,366.08 623.15,366.08 C619.79,355.18 627.23,341.45 627.23,341.45 C627.06,340.36 628.78,337.01 628.78,337.01 L628.78,336.9 L629.84,333.01 L658.09,333.01 L658.44,334.68 L659.16,338.08 L663.6,359.15 L664.13,361.53 Z" id="Shape" fill="#626696" fill-rule="nonzero"></path>
            <path d="M668.51,368.14 L668.34,368.21 L665.03,369.68 C661.45,371.33 650.74,371.68 647.03,371.68 C646.745795,370.147182 646.628444,368.58809 646.68,367.03 C646.68,367.03 666.19,349.22 668.33,366.46 C668.37,367.04 668.44,367.63 668.51,368.14 Z" id="Shape" fill="#000000" fill-rule="nonzero" opacity="0.1"></path>
            <path d="M669.03,366.45 L668.34,366.76 L665.03,368.23 C661.39,369.91 650.33,370.23 646.79,370.23 L645.86,370.23 C644.23,370.18 642.59,368.65 642.59,368.23 C642.59,368.01 642.42,366.93 642.28,366.01 C642.15,365.27 642.05,364.63 642.05,364.63 C638.253471,362.995676 634.577589,361.094243 631.05,358.94 C628.28,357.05 628.98,343.62 629.51,336.87 C629.7,334.54 629.87,333.01 629.87,333.01 L658.47,334.68 L662.47,334.91 L664.76,335.42 L665.37,335.55 C665.37,335.55 667.02,347.55 667.83,348.55 C668.64,349.55 668.11,352.91 668.01,354.83 C668.008654,355.654016 667.918127,356.475466 667.74,357.28 C667.74,357.28 668.92,360.64 668.65,362.52 C668.526279,363.842244 668.655238,365.175955 669.03,366.45 L669.03,366.45 Z" id="Shape" fill="#626696" fill-rule="nonzero"></path>
            <circle id="Oval" fill="#704A43" fill-rule="nonzero" cx="638.41" cy="255.14" r="11.72"></circle>
            <path d="M632.69,260.02 C632.69,260.02 633.5,271.12 631.23,273.67 C628.635925,276.266809 625.905392,278.723622 623.05,281.03 L624.87,288.57 L635.14,289.75 L647.14,276.94 L644.41,273.63 C644.41,273.63 642.32,266.54 644.04,263 C645.76,259.46 632.69,260.02 632.69,260.02 Z" id="Shape" fill="#FFD2C6" fill-rule="nonzero"></path>
            <path d="M657.49,284.41 L657.49,284.41 L656.86,285.41 L653.23,284.41 L650.68,274.89 L650.83,272.13 L651.58,271.05 C651.58,271.05 655.58,271.14 655.41,274.78 C655.24,277.96 657.06,283.2 657.49,284.41 Z" id="Shape" fill="#000000" fill-rule="nonzero" opacity="0.1"></path>
            <path d="M665.39,337.01 C665.39,337.01 662.5,337.65 659.19,338.08 C655.88,338.51 652.06,338.74 650.49,337.82 C647.86,336.26 633.61,336.71 629.49,336.87 L628.79,336.87 L629.85,332.98 L658.1,332.98 L658.45,334.65 L662.45,334.88 L664.74,335.39 C665.16,336.37 665.39,337.01 665.39,337.01 Z" id="Shape" fill="#000000" fill-rule="nonzero" opacity="0.1"></path>
            <path d="M650.86,271.76 C650.86,271.76 654.86,271.85 654.68,275.49 C654.5,279.13 656.86,285.39 656.86,285.39 L655.95,287.48 C655.95,287.48 654.68,292.57 655.68,293.84 C656.68,295.11 660.31,295.11 658.22,305.56 C658.22,305.56 657.77,313.38 658.86,315.92 C659.95,318.46 659.95,324.55 661.58,327.1 C663.068243,329.814488 664.345349,332.639498 665.4,335.55 C665.4,335.55 653.59,338.18 650.5,336.37 C647.41,334.56 628.42,335.46 628.42,335.46 C628.42,335.46 628.51,332.28 628.42,331.91 C628.241828,331.110931 628.404914,330.273759 628.87,329.6 C629.51,328.73 630.51,327.28 629.96,326.01 C629.41,324.74 631.32,322.86 630.32,320.89 C629.32,318.92 628.11,318.53 628.32,317.45 C628.428639,316.198894 628.024407,314.957324 627.2,314.01 C626.48,313.1 621.57,303.5 621.57,303.5 L620.75,299.02 C620.75,299.02 614.43,294.39 614.55,292.21 C614.67,290.03 616.94,287 616.94,287 L623.02,281 C623.02,281 626.39,284.63 629.66,283.36 C632.93,282.09 639.96,276 639.96,276 C639.96,276 642.47,274.64 642.65,273.64 C642.83,272.64 644.38,273.55 644.38,273.55 C644.38,273.55 646.65,272.3 647.1,272.74 C647.870562,273.141822 648.701448,273.415407 649.56,273.55 L650.86,271.76 Z" id="Shape" fill="#FFCDE5" fill-rule="nonzero"></path>
            <path d="M616.51,290.69 L614.58,292.21 C613.113228,295.313272 612.286781,298.680275 612.15,302.11 C611.638503,307.267426 610.820389,312.389822 609.7,317.45 L605.88,324.28 C605.88,324.28 599.61,337.45 598.79,340.95 C597.97,344.45 594.25,350.36 594.25,350.36 C594.25,350.36 581.62,361.71 590.43,363.76 C599.24,365.81 599.52,354.76 599.52,354.76 C599.52,354.76 601.52,352.49 601.91,350.94 C602.3,349.39 613.42,329.63 613.42,329.63 C613.42,329.63 617.33,324.31 616.51,321.49 C616.51,321.49 621.6,309.49 621.6,306.49 C621.505216,303.980315 621.231184,301.480614 620.78,299.01 L621.6,292.74 L616.51,290.69 Z" id="Shape" fill="#704A43" fill-rule="nonzero"></path>
            <path d="M642.68,315.74 C642.68,315.74 633.78,320.4 632.05,320.65 C630.32,320.9 639.59,319.65 639.59,319.65 L642.68,315.74 Z" id="Shape" fill="#000000" fill-rule="nonzero" opacity="0.1"></path>
            <path d="M649.94,319.37 C649.94,319.37 638.13,323.37 632.94,322.65 C632.94,322.63 645.86,325.1 649.94,319.37 Z" id="Shape" fill="#000000" fill-rule="nonzero" opacity="0.1"></path>
            <path d="M650.68,320.68 C650.68,320.68 640.04,327.37 633.78,326.28 C633.78,326.28 648.41,329.19 650.68,327.64 L644.14,325.83 C644.14,325.83 651.4,321.98 650.68,320.68 Z" id="Shape" fill="#000000" fill-rule="nonzero" opacity="0.1"></path>
            <path d="M638.43,234.51 C635.32673,233.746601 632.044944,234.362848 629.43,236.2 C627.61,237.63 626.43,239.82 624.35,240.89 C623.269747,241.35125 622.16076,241.742068 621.03,242.06 C616.931067,243.73662 614.513247,248.001902 615.18,252.38 C615.5,254.18 616.34,255.84 616.76,257.62 C617.5,260.79 616.84,264.11 616.04,267.27 C613.801695,276.031799 610.405099,284.45603 605.94,292.32 C605.588313,292.807426 605.412073,293.399593 605.44,294 C605.552593,294.403469 605.765947,294.771676 606.06,295.07 C610.26,299.92 617.06,301.59 623.51,301.81 C625.877735,302.044089 628.265245,301.647321 630.43,300.66 C631.767064,299.890583 632.91778,298.835476 633.8,297.57 C636.031538,294.516643 637.140669,290.78657 636.94,287.01 C636.77,283.96 635.75,280.88 636.52,277.93 C636.59646,277.518025 636.783065,277.134447 637.06,276.82 C637.75,276.11 638.9,276.3 639.88,276.18 C642.55,275.87 644.27,273.06 644.59,270.39 C644.91,267.72 644.24,265.04 644.22,262.39 C644.20969,258.841902 645.319003,255.380985 647.39,252.5 C648.28,251.28 649.39,250.08 649.71,248.55 C650.09,246.63 648.98,245.22 648.02,243.71 C646.53,241.35 645.8,238.6 643.53,236.8 C642.031874,235.649344 640.285339,234.865116 638.43,234.51 Z" id="Shape" fill="#000000" fill-rule="nonzero" opacity="0.1"></path>
            <path d="M637.7,233.78 C634.615751,233.026775 631.35647,233.642903 628.76,235.47 C626.94,236.91 625.76,239.1 623.67,240.17 C622.587819,240.623475 621.479115,241.010854 620.35,241.33 C616.259248,243.004806 613.843172,247.258753 614.5,251.63 C614.82,253.43 615.66,255.09 616.08,256.87 C616.82,260.04 616.17,263.36 615.36,266.52 C613.122805,275.264767 609.729571,283.672184 605.27,291.52 C604.910838,292.003718 604.733786,292.598611 604.77,293.2 C604.872748,293.6053 605.083576,293.975113 605.38,294.27 C609.58,299.13 616.38,300.79 622.83,301.01 C625.19674,301.243877 627.58335,300.850707 629.75,299.87 C631.085387,299.094012 632.235449,298.036091 633.12,296.77 C635.347242,293.714966 636.452727,289.98528 636.25,286.21 C636.07,283.21 635.05,280.08 635.82,277.13 C635.904795,276.720818 636.090408,276.339281 636.36,276.02 C637.06,275.31 638.2,275.5 639.19,275.39 C641.85,275.08 643.57,272.26 643.89,269.6 C644.21,266.94 643.54,264.25 643.53,261.6 C643.514948,258.054256 644.624821,254.595093 646.7,251.72 C647.58,250.49 648.7,249.29 649.02,247.72 C649.39,245.8 648.28,244.4 647.32,242.88 C645.83,240.53 645.1,237.77 642.83,235.97 C641.313707,234.850764 639.557114,234.100874 637.7,233.78 Z" id="Shape" fill="#1E1637" fill-rule="nonzero"></path>
            <path d="M633.78,347.39 C633.78,347.39 636.11,358.3 639.99,361.26 L633.78,347.39 Z" id="Shape" fill="#000000" fill-rule="nonzero" opacity="0.1"></path>
            <g id="Group" opacity="0.1" transform="translate(604.000000, 244.000000)" fill-rule="nonzero" fill="#000000">
                <path d="M11.19,10.09 C11.07,9.67 10.93,9.24 10.78,8.82 C10.94,9.25 11.04,9.63 11.19,10.09 Z" id="Shape"></path>
                <path d="M44.34,0.63 C44.3818307,0.962020977 44.3818307,1.29797902 44.34,1.63 C44.04,3.16 42.91,4.36 42.02,5.58 C39.9508476,8.46191404 38.8417307,11.9222188 38.85,15.47 C38.85,18.16 39.53,20.84 39.21,23.47 C38.89,26.1 37.21,28.95 34.51,29.25 C33.51,29.37 32.38,29.18 31.69,29.89 C31.4175163,30.208706 31.2285177,30.5901396 31.14,31 C30.37,33.95 31.4,37 31.57,40.08 C31.7559893,43.8578705 30.6327876,47.5842158 28.39,50.63 C27.5105519,51.8978986 26.3592376,52.9535547 25.02,53.72 C22.8589568,54.7078661 20.4745092,55.1046989 18.11,54.87 C11.8,54.66 5.11,53.03 0.87,48.36 C0.757586359,48.6388639 0.723022778,48.9430235 0.77,49.24 C0.872748468,49.6453001 1.08357629,50.0151129 1.38,50.31 C5.58,55.17 12.38,56.83 18.83,57.05 C21.1967404,57.2838769 23.58335,56.8907071 25.75,55.91 C27.0853874,55.1340119 28.2354494,54.0760914 29.12,52.81 C31.3472425,49.7549662 32.452727,46.0252804 32.25,42.25 C32.07,39.25 31.05,36.12 31.82,33.17 C31.9047948,32.7608178 32.0904075,32.3792806 32.36,32.06 C33.06,31.35 34.2,31.54 35.19,31.43 C37.85,31.12 39.57,28.3 39.89,25.64 C40.21,22.98 39.54,20.29 39.53,17.64 C39.5149481,14.0942561 40.6248213,10.6350929 42.7,7.76 C43.58,6.53 44.7,5.33 45.02,3.76 C45.1858355,2.66854842 44.9437529,1.55425666 44.34,0.63 L44.34,0.63 Z" id="Shape"></path>
            </g>
            <ellipse id="Oval" fill="#3FA34D" fill-rule="nonzero" opacity="0.1" cx="129.18" cy="501.1" rx="21.16" ry="2.14"></ellipse>
            <path d="M136.58,465.72 C136.58,465.72 108.98,479.98 123.24,496.72 C124.063369,498.860302 126.16984,500.228297 128.46,500.11 C128.46,500.11 127.68,498.7 130.65,497.57 C131.708616,497.163057 132.715565,496.63273 133.65,495.99 C134.905273,495.122774 135.842839,493.869175 136.32,492.42 L136.32,492.42 C136.32,492.42 141.97,484.87 137.59,470.9 C137.59,470.9 138.16,466.9 137.66,466.31 L134.31,470.9 C134.31,470.9 137.78,473.23 138.18,476.65 C138.18,476.65 134.57,470.91 133.78,471.57 C133.62,471.7 132.12,474.08 132.12,474.08 C132.12,474.08 138.12,478.16 138.57,483.45 C138.57,483.45 135.19,476.04 131.57,474.98 L129.51,478.71 C129.51,478.71 136.07,482.71 136.81,488.71 C136.81,488.71 133,481.09 129.11,479.56 L127.58,483.5 C127.58,483.5 133.9,487.5 134.48,492.5 C134.48,492.5 129.19,484.14 127.29,484.41 C127.29,484.41 126.1,488.11 126.29,489.25 C126.29,489.25 130.77,492.25 130.85,495.18 C130.85,495.18 126.72,489.96 126.08,490.31 C126.08,490.31 125.82,495.55 127.08,498.31 C125.780465,495.849412 125.149446,493.090858 125.25,490.31 C123.970738,491.439922 123.052547,492.92155 122.61,494.57 C122.61,494.57 121.42,491.68 125.33,489.04 C125.33,489.04 125.7,484.96 126.15,484.46 C126.15,484.46 121.92,486.52 120.15,489.06 C120.15,489.06 120.81,485.28 126.55,483.4 L128.01,479.4 C128.01,479.4 122.27,481.83 120.49,483.97 C120.49,483.97 121.77,480.22 128.49,478.42 L130.49,474.74 C130.49,474.74 125.39,476.46 122.9,478.42 C122.9,478.42 124.83,475.19 131.1,473.71 L132.72,471.4 C132.72,471.4 129.01,472.73 127.98,473.2 C126.95,473.67 126.74,473.44 126.74,473.44 C128.630348,471.840494 130.930257,470.801379 133.38,470.44 C133.38,470.44 136.83,465.97 136.58,465.72 Z" id="Shape" fill="#3FA34D" fill-rule="nonzero"></path>
            <path d="M163.77,491.1 C166.66,492.81 171.18,493.92 176.87,490.25 L176.81,498.36 C177.22,503.93 184.09,524.19 184.09,524.19 L188.94,540.87 C192.418713,552.648298 194.216467,564.858888 194.28,577.14 C194.155739,581.006492 194.679647,584.866507 195.83,588.56 C198.41,595.56 194.83,604.56 193.25,607.89 C190.37,608.89 187.4,609.64 185.25,610.14 C185.00524,610.196741 184.764673,610.270248 184.53,610.36 L184.53,610.31 C184.53,610.31 177.25,613.2 174.01,612.8 C171.6,612.5 170.09,615.51 172.01,617.72 C170.44055,618.203287 168.801093,618.419627 167.16,618.36 C163.92,617.96 162.31,623.53 168.37,625.12 C174.43,626.71 208.83,625.12 208.83,625.12 C210.821972,624.124686 211.887538,621.907157 211.42,619.73 C214.06,619.63 215.71,619.55 215.71,619.55 C215.71,619.55 221.78,616.77 215.71,609.22 L215.39,609.47 L214.09,605.65 L214.09,600.48 C214.09,600.48 221.78,563.48 219.35,559.16 C216.92,554.84 215.71,532.54 215.71,532.54 L216.52,508.3 C218.71,503.77 219.84,496.68 220.41,491.13 C221.234052,488.480901 221.754062,485.746655 221.96,482.98 C222.05,481.68 222.13,480.31 222.18,478.89 C222.212114,475.778731 221.715031,472.684646 220.71,469.74 C223.445734,465.660974 226.509198,461.811578 229.87,458.23 C232.706136,455.593385 234.066722,451.732162 233.51,447.9 L231.51,434.39 L226.65,411.39 C227.26,404.99 225.93,401.31 224.45,399.23 C224.8,397.17 225.13,395.1 225.38,393.03 C226.45475,384.015037 225.974446,374.882494 223.96,366.03 C223.26,362.94 222.3,359.77 220.14,357.43 C217.68,354.78 213.7,353.16 212.79,349.69 C212.649557,348.810721 212.462629,347.9395 212.23,347.08 C211.34,344.8 208.53,343.98 206.07,343.68 C201.69,343.15 195.36,342.74 191.15,344.46 C188.22,345.67 184.15,348.97 182.56,352.52 C181.601437,353.998238 181.243725,355.786795 181.56,357.52 C181.713261,358.113261 181.948884,358.682123 182.26,359.21 C181.610283,360.912478 181.271574,362.717795 181.26,364.54 C181.292848,370.91186 185.219443,376.615339 191.16,378.92 C191.25,379.22 191.34,379.52 191.42,379.82 C191.602574,380.52951 191.732923,381.251442 191.81,381.98 C191.74,383.39 191.65,384.8 191.58,386.2 C191.541873,386.392928 191.491776,386.583296 191.43,386.77 C187.947339,388.312084 184.552203,390.044705 181.26,391.96 C183.69,395.53 180.86,410.63 180.86,410.63 C174.79,414.21 168.72,423.35 175.19,432.88 C181.66,442.41 178.02,452.63 178.02,452.63 L177.02,468.17 L177.02,468.17 L177.02,468.17 L176.82,471.27 L176.9,471.27 L176.82,472.45 L176.99,472.45 L176.99,473.72 C174.14,474.72 169.99,476.86 167.52,480.72 C166.345947,482.635414 164.919855,484.384394 163.28,485.92 C162.465482,486.577448 162.034923,487.599535 162.1335,488.641628 C162.232076,489.683722 162.846651,490.606945 163.77,491.1 L163.77,491.1 Z M212.62,449.82 C212.376954,447.133975 212.875008,444.432725 214.06,442.01 C215.01,442.01 215.97,442.01 216.92,442.01 C217.02,442.68 217.13,443.32 217.27,443.9 C218.09,447.44 214.81,449.11 212.62,449.82 Z" id="Shape" fill="url(#linearGradient-1)" fill-rule="nonzero"></path>
            <path d="M213.42,603.83 L214.98,608.5 L209.94,613.56 L193.2,617.45 L181.13,616.28 L181.91,612 C182.377788,610.124031 183.856879,608.668111 185.74,608.23 C190.74,607.06 200.16,604.41 202.15,600.71 L213.42,603.83 Z" id="Shape" fill="#704A43" fill-rule="nonzero"></path>
            <path d="M213.42,603.83 L214.98,608.5 L209.94,613.56 L193.2,617.45 L181.13,616.28 L181.91,612 C182.377788,610.124031 183.856879,608.668111 185.74,608.23 C190.74,607.06 200.16,604.41 202.15,600.71 L213.42,603.83 Z" id="Shape" fill="#000000" fill-rule="nonzero" opacity="0.1"></path>
            <path d="M185,615.12 L187.34,612 L185,608.4 C185,608.4 178,611.22 174.88,610.83 C171.76,610.44 170.21,615.9 176.05,617.45 C181.89,619 214.98,617.45 214.98,617.45 C214.98,617.45 220.82,614.73 214.98,607.33 L209.94,611.22 C209.94,611.22 201.37,615.9 197.09,615.12 L185,615.12 Z" id="Shape" fill="#2E3037" fill-rule="nonzero"></path>
            <path d="M174.49,621.74 L186.56,622.9 L203.3,619.01 L208.36,613.95 L207.95,612.71 L207.37,610.97 L206.81,609.28 L195.52,606.16 C194.9474,607.095487 194.162983,607.883329 193.23,608.46 C189.56,610.96 182.97,612.77 179.11,613.68 L178.62,613.82 C177.8697,614.065356 177.185548,614.479268 176.62,615.03 C175.941517,615.692392 175.460306,616.530184 175.23,617.45 L174.49,621.74 Z" id="Shape" fill="#704A43" fill-rule="nonzero"></path>
            <path d="M174.49,621.74 L186.56,622.9 L203.3,619.01 L208.36,613.95 L207.95,612.71 L203.3,616.28 C203.3,616.28 194.74,620.96 190.45,620.18 L178.39,620.18 L180.72,617.06 L178.62,613.82 C177.8697,614.065356 177.185548,614.479268 176.62,615.03 C175.941517,615.692392 175.460306,616.530184 175.23,617.45 L174.49,621.74 Z" id="Shape" fill="#000000" fill-rule="nonzero" opacity="0.1"></path>
            <path d="M178.39,620.57 L180.72,617.45 L178.39,613.85 C178.39,613.85 171.39,616.67 168.26,616.28 C165.13,615.89 163.59,621.35 169.43,622.9 C175.27,624.45 208.36,622.9 208.36,622.9 C208.36,622.9 214.2,620.18 208.36,612.78 L203.3,616.63 C203.3,616.63 194.74,621.31 190.45,620.53 L178.39,620.57 Z" id="Shape" fill="#2E3037" fill-rule="nonzero"></path>
            <path d="M188.12,394.77 C188.12,394.77 206.81,396.71 204.12,388.93 C203.36154,386.719739 203.162275,384.356044 203.54,382.05 C204.028467,379.193154 205.160352,376.484838 206.85,374.13 L189.33,376.86 C190.375952,378.614791 191.173546,380.506132 191.7,382.48 C193.75,390.74 188.12,394.77 188.12,394.77 Z" id="Shape" fill="#DB8B8B" fill-rule="nonzero"></path>
            <path d="M220.04,483.53 C220.04,483.53 219.65,500.27 215.76,508.45 L214.94,532.19 C214.94,532.19 216.11,553.99 218.44,558.28 C220.77,562.57 213.38,598.77 213.38,598.77 L213.38,604.99 C213.38,604.99 200.93,609.67 197.38,604.22 L200.94,557.89 L199.41,493.63 L220.04,483.53 Z" id="Shape" fill="#474463" fill-rule="nonzero"></path>
            <path d="M220.04,483.53 C220.04,483.53 219.65,500.27 215.76,508.45 L214.94,532.19 C214.94,532.19 216.11,553.99 218.44,558.28 C220.77,562.57 213.38,598.77 213.38,598.77 L213.38,604.99 C213.38,604.99 200.93,609.67 197.38,604.22 L200.94,557.89 L199.41,493.63 L220.04,483.53 Z" id="Shape" fill="#000000" fill-rule="nonzero" opacity="0.1"></path>
            <path d="M227.83,429.8 L230.16,436.03 L232.11,449.27 C232.646048,453.010607 231.34247,456.77981 228.61,459.39 C223.94,464.06 217.71,473.8 217.71,473.8 L210.31,451.63 C210.31,451.63 217.71,450.46 216.54,445.4 C215.37,440.34 215.76,430.99 215.76,430.99 L227.83,429.8 Z" id="Shape" fill="#FC6681" fill-rule="nonzero"></path>
            <path d="M227.83,429.8 L230.16,436.03 L232.11,449.27 C232.646048,453.010607 231.34247,456.77981 228.61,459.39 C223.94,464.06 217.71,473.8 217.71,473.8 L210.31,451.63 C210.31,451.63 217.71,450.46 216.54,445.4 C215.37,440.34 215.76,430.99 215.76,430.99 L227.83,429.8 Z" id="Shape" fill="#000000" fill-rule="nonzero" opacity="0.05"></path>
            <path d="M193.23,608.46 C198.23,616.32 205.99,611.86 207.37,610.97 L206.81,609.28 L195.52,606.16 C194.9474,607.095487 194.162983,607.883329 193.23,608.46 L193.23,608.46 Z" id="Shape" fill="#000000" fill-rule="nonzero" opacity="0.1"></path>
            <path d="M177.61,498.71 C178,504.16 184.61,524.02 184.61,524.02 L189.28,540.36 C192.631229,551.911149 194.357805,563.872654 194.41,575.9 C194.310854,579.688232 194.82758,583.467424 195.94,587.09 C199.06,595.65 192.83,607.33 192.83,607.33 C198.28,617.06 207.62,610.45 207.62,610.45 L207.62,604.22 C207.62,604.22 215.02,570.35 213.07,563.73 C211.12,557.11 210.35,539.2 210.35,539.2 L210.35,506.89 C216.569687,500.662406 220.345592,492.407937 220.99,483.63 C221.09,482.36 221.16,481.02 221.21,479.63 C221.53,470.84 215.52,460.55 213.21,456.87 C212.65,455.99 212.3,455.49 212.3,455.49 L177.88,469.13 L177.8,469.13 L177.8,470.46 L177.8,473.41 L177.61,498.71 Z" id="Shape" fill="#474463" fill-rule="nonzero"></path>
            <path d="M189.29,376.86 C190.335952,378.614791 191.133546,380.506132 191.66,382.48 C195.501413,383.949801 199.775326,383.794583 203.5,382.05 C203.988467,379.193154 205.120352,376.484838 206.81,374.13 L189.29,376.86 Z" id="Shape" fill="#000000" fill-rule="nonzero" opacity="0.1"></path>
            <circle id="Oval" fill="#704A43" fill-rule="nonzero" cx="197.07" cy="367.52" r="15.18"></circle>
            <path d="M177.61,473.41 L177.77,473.41 C194.1,476.76 214.59,459.75 214.59,459.75 C214.042484,458.821456 213.56773,457.851888 213.17,456.85 C212.61,455.97 212.26,455.47 212.26,455.47 L177.88,469.13 L177.79,470.49 L177.61,473.41 Z" id="Shape" fill="#000000" fill-rule="nonzero" opacity="0.1"></path>
            <path d="M181.94,394.38 C181.94,394.38 203.74,381.14 210.75,386.59 L220.48,399.05 C220.48,399.05 226.71,400.99 225.54,413.45 L230.21,436.03 L216.21,439.54 C216.21,439.54 207.94,447.32 214.59,458.63 C214.59,458.63 193.96,475.76 177.59,472.26 L178.75,453.96 C178.75,453.96 182.26,443.84 176.03,434.5 C169.8,425.16 175.64,416.2 181.48,412.69 C181.5,412.63 184.23,397.88 181.94,394.38 Z" id="Shape" fill="#FC6681" fill-rule="nonzero"></path>
            <path d="M180.72,473.8 C180.72,473.8 172.55,475.35 168.65,481.58 C167.530566,483.453476 166.161331,485.16586 164.58,486.67 C163.858459,487.326246 163.489107,488.284632 163.583622,489.255378 C163.678137,490.226123 164.225422,491.095262 165.06,491.6 C168.15,493.45 173.19,494.6 179.55,489.37 C190.45,480.41 180.72,473.8 180.72,473.8 Z" id="Shape" fill="#704A43" fill-rule="nonzero"></path>
            <path d="M192.79,401.77 C192.79,401.77 200.58,400.99 202.52,421.24 C204.46,441.49 207.58,446.16 207.58,446.16 C207.58,446.16 209.53,456.67 204.86,462.9 C200.19,469.13 191.23,482.36 191.23,482.36 C191.23,482.36 181.5,485.09 179.55,475.36 L191.62,452.78 C191.62,452.78 193.57,445 188.9,439.55 C184.23,434.1 180.72,397.88 192.79,401.77 Z" id="Shape" fill="#000000" fill-rule="nonzero" opacity="0.1"></path>
            <path d="M192.01,400.63 C192.01,400.63 199.8,399.85 201.74,420.09 C203.68,440.33 206.81,445.01 206.81,445.01 C206.81,445.01 208.75,455.52 204.08,461.75 C199.41,467.98 190.45,481.21 190.45,481.21 C190.45,481.21 180.72,483.94 178.77,474.21 L190.84,451.63 C190.84,451.63 192.79,443.84 188.12,438.39 C183.45,432.94 179.94,396.71 192.01,400.63 Z" id="Shape" fill="#FC6681" fill-rule="nonzero"></path>
            <path d="M185.59,415.2 C185.59,415.2 184.81,427.27 188.31,433.89 C191.81,440.51 191.82,449.07 188.31,453.75" id="Shape" fill="#000000" fill-rule="nonzero" opacity="0.1"></path>
            <path d="M183.64,400.41 C183.64,400.41 186.76,397.3 195.71,396.91 C204.66,396.52 208.56,393.79 208.56,393.79" id="Shape" fill="#000000" fill-rule="nonzero" opacity="0.1"></path>
            <path d="M205.3,347.89 C207.66,348.18 210.37,348.99 211.22,351.22 C211.444972,352.063225 211.625224,352.91775 211.76,353.78 C212.64,357.18 216.47,358.78 218.83,361.37 C220.92,363.66 221.83,366.77 222.51,369.79 C224.44827,378.467241 224.911413,387.408941 223.88,396.24 C223.12,402.7 221.57,409.06 221.13,415.54 C220.69,422.02 221.49,428.85 225.04,434.3 C226.56,436.64 228.57,438.7 229.65,441.3 C227.42,443.11 224.34,443.37 221.47,443.47 C218.136667,443.576667 214.803333,443.576667 211.47,443.47 C209.705286,443.543838 207.949738,443.179674 206.36,442.41 C205.235555,441.694408 204.312952,440.702954 203.68,439.53 C201.77,436.28 201.28,432.38 201.36,428.6 C201.44,424.82 202.04,421.08 202.11,417.31 C202.11,415.25 201.99,413.07 200.81,411.39 C199.839681,410.26691 198.742346,409.26018 197.54,408.39 C193.38,404.7 191.95,398.77 191.81,393.21 C191.67,387.65 192.58,382.07 192.11,376.52 C191.93,374.35 191.11,371.74 188.98,371.32 C188.307807,371.283063 187.639294,371.196157 186.98,371.06 C185.26,370.4 185.43,367.98 184.98,366.21 C184.43,364.21 182.74,362.69 182.26,360.68 C181.14,355.97 187.13,350.35 191.06,348.68 C194.99,347.01 201.08,347.37 205.3,347.89 Z" id="Shape" fill="#000000" fill-rule="nonzero" opacity="0.1"></path>
            <path d="M205.69,347.11 C208.05,347.41 210.75,348.22 211.61,350.44 C211.835985,351.286357 212.016245,352.144264 212.15,353.01 C213.03,356.41 216.86,358.01 219.22,360.59 C221.31,362.88 222.22,365.99 222.9,369.01 C224.83827,377.687241 225.301413,386.628941 224.27,395.46 C223.51,401.92 221.96,408.28 221.52,414.76 C221.08,421.24 221.88,428.07 225.43,433.52 C226.95,435.86 228.96,437.92 230.04,440.52 C227.81,442.33 224.73,442.59 221.86,442.69 C218.526667,442.796667 215.176667,442.796667 211.81,442.69 C210.045286,442.763838 208.289738,442.399674 206.7,441.63 C205.578237,440.915483 204.656129,439.928001 204.02,438.76 C202.1,435.5 201.62,431.6 201.7,427.82 C201.78,424.04 202.38,420.3 202.45,416.53 C202.45,414.48 202.33,412.29 201.15,410.61 C200.177086,409.489432 199.080056,408.482983 197.88,407.61 C193.72,403.92 192.28,398 192.14,392.43 C192,386.86 192.92,381.29 192.45,375.74 C192.27,373.57 191.45,370.96 189.32,370.54 C188.647807,370.503063 187.979294,370.416157 187.32,370.28 C185.6,369.62 185.77,367.2 185.32,365.43 C184.77,363.43 183.08,361.91 182.6,359.9 C181.48,355.2 187.47,349.57 191.4,347.9 C195.33,346.23 201.47,346.63 205.69,347.11 Z" id="Shape" fill="#472727" fill-rule="nonzero"></path>
            <ellipse id="Oval" fill="#3FA34D" fill-rule="nonzero" opacity="0.1" cx="961.14" cy="693.67" rx="24" ry="3.3"></ellipse>
            <ellipse id="Oval" fill="#3FA34D" fill-rule="nonzero" opacity="0.1" cx="869.2" cy="703" rx="24" ry="3.3"></ellipse>
            <ellipse id="Oval" fill="#3FA34D" fill-rule="nonzero" opacity="0.1" cx="760.91" cy="690.38" rx="24" ry="3.3"></ellipse>
            <ellipse id="Oval" fill="#3FA34D" fill-rule="nonzero" opacity="0.1" cx="906" cy="729.54" rx="17.06" ry="2.34"></ellipse>
            <ellipse id="Oval" fill="#3FA34D" fill-rule="nonzero" opacity="0.1" cx="810.58" cy="727.19" rx="17.06" ry="2.34"></ellipse>
            <path d="M868.69,702.25 C868.69,702.25 902.35,591.91 863.42,547.71 C834.3,514.65 801.25,518.6 786.42,522.71 C778.665862,524.777679 772.209855,530.14428 768.76,537.39 C763.59,548.55 764.52,566.68 801.06,587.83 C862.23,623.24 866.06,671.83 866.06,671.83 L868.69,702.25 Z" id="Shape" fill="#3FA34D" fill-rule="nonzero"></path>
            <path d="M791.71,538.34 C791.71,538.34 890.94,569.34 868.71,702.25" id="Shape" stroke="#565987"></path>
            <path d="M849.67,549.47 C849.67,549.47 836,558.67 840.35,572.47" id="Shape" stroke="#565987"></path>
            <path d="M801.66,557.63 C801.66,557.63 810.02,549.13 820.18,553.82" id="Shape" stroke="#565987"></path>
            <path d="M840.94,600.39 C840.94,600.39 855.6,592.95 859.39,602.27" id="Shape" stroke="#565987"></path>
            <path d="M877.18,615.91 C877.18,615.91 866.18,615.03 865.97,620.3" id="Shape" stroke="#565987"></path>
            <path d="M870.05,703.13 C870.05,703.13 830.63,622.93 819.8,624.69 C814.66,625.52 812.29,630.58 811.21,635.69 C809.881355,642.26202 810.632829,649.084702 813.36,655.21 C818.94,668.02 833.94,692.39 870.05,703.13 Z" id="Shape" fill="#3FA34D" fill-rule="nonzero"></path>
            <path d="M820.09,639.91 C820.09,639.91 861.47,699.91 869.47,702.55" id="Shape" stroke="#565987"></path>
            <path d="M816.28,649.28 L825.94,649.28" id="Shape" stroke="#565987"></path>
            <path d="M827.85,671.23 L842.99,671.88" id="Shape" stroke="#565987"></path>
            <path d="M837.06,653.67 L835.42,661.56" id="Shape" stroke="#565987"></path>
            <path d="M853.16,677.67 L852.87,684.84" id="Shape" stroke="#565987"></path>
            <path d="M868.88,703.13 C868.88,703.13 908.3,622.93 919.13,624.69 C924.28,625.52 926.65,630.58 927.72,635.69 C929.048645,642.26202 928.297171,649.084702 925.57,655.21 C919.94,668.02 904.94,692.39 868.88,703.13 Z" id="Shape" fill="#3FA34D" fill-rule="nonzero"></path>
            <path d="M918.84,639.91 C918.84,639.91 877.46,699.91 869.47,702.55" id="Shape" stroke="#565987"></path>
            <path d="M922.64,649.28 L912.98,649.28" id="Shape" stroke="#565987"></path>
            <path d="M911.07,671.23 L895.93,671.88" id="Shape" stroke="#565987"></path>
            <path d="M901.86,653.67 L903.5,661.56" id="Shape" stroke="#565987"></path>
            <path d="M885.76,677.67 L886.05,684.84" id="Shape" stroke="#565987"></path>
            <path d="M801.19,721.86 C800.115766,720.984268 799.334307,719.801613 798.95,718.47 C798.588547,717.093162 799.244436,715.651877 800.52,715.02 C801.96,714.47 803.52,715.47 804.66,716.48 C805.8,717.49 807.16,718.64 808.66,718.43 C807.064942,716.977329 806.344496,714.79703 806.76,712.68 C806.829769,712.2529 807.012792,711.852322 807.29,711.52 C808.09,710.66 809.54,711.03 810.5,711.7 C813.5,713.84 814.39,717.98 814.41,721.7 C814.560213,720.330774 814.560213,718.949226 814.41,717.58 C814.292459,716.184926 814.872798,714.822066 815.96,713.94 C816.683272,713.547837 817.497644,713.354596 818.32,713.38 C819.693402,713.184812 821.08518,713.580905 822.15,714.47 C823.31,715.71 823.01,717.8 822,719.17 C820.862418,720.452572 819.508543,721.525517 818,722.34 C816.868124,723.019012 815.901449,723.941282 815.17,725.04 C815.088038,725.194496 815.017839,725.35495 814.96,725.52 L806.39,725.52 C804.499999,724.539337 802.750899,723.30824 801.19,721.86 L801.19,721.86 Z" id="Shape" fill="#3FA34D" fill-rule="nonzero"></path>
            <path d="M951.41,689.56 C950.335766,688.684268 949.554307,687.501613 949.17,686.17 C948.812271,684.798807 949.4628,683.364307 950.73,682.73 C952.17,682.17 953.73,683.17 954.88,684.18 C956.03,685.19 957.38,686.34 958.88,686.18 C957.284942,684.727329 956.564496,682.54703 956.98,680.43 C957.049769,680.0029 957.232792,679.602322 957.51,679.27 C958.31,678.41 959.76,678.78 960.72,679.45 C963.72,681.59 964.61,685.73 964.63,689.45 C964.780213,688.080774 964.780213,686.699226 964.63,685.33 C964.512459,683.934926 965.092798,682.572066 966.18,681.69 C966.903272,681.297837 967.717644,681.104596 968.54,681.13 C969.910467,680.932586 971.300074,681.329097 972.36,682.22 C973.53,683.46 973.22,685.55 972.21,686.92 C971.073134,688.203329 969.719116,689.276388 968.21,690.09 C967.078124,690.769012 966.111449,691.691282 965.38,692.79 C965.298038,692.944496 965.227839,693.10495 965.17,693.27 L956.6,693.27 C954.710571,692.273103 952.964731,691.025113 951.41,689.56 L951.41,689.56 Z" id="Shape" fill="#3FA34D" fill-rule="nonzero"></path>
            <path d="M901.35,721.86 C900.273021,720.984821 899.488189,719.80234 899.1,718.47 C898.738547,717.093162 899.394436,715.651877 900.67,715.02 C902.11,714.47 903.67,715.47 904.82,716.48 C905.97,717.49 907.32,718.64 908.82,718.43 C907.218058,716.981805 906.4963,714.797537 906.92,712.68 C906.985347,712.251567 907.16889,711.849851 907.45,711.52 C908.25,710.66 909.69,711.03 910.65,711.7 C913.65,713.84 914.55,717.98 914.56,721.7 C914.730169,720.332963 914.750289,718.951413 914.62,717.58 C914.498292,716.186416 915.075084,714.823089 916.16,713.94 C916.883784,713.549179 917.69779,713.356026 918.52,713.38 C919.893489,713.183525 921.285783,713.579765 922.35,714.47 C923.51,715.71 923.21,717.8 922.2,719.17 C921.061,720.451072 919.707407,721.523794 918.2,722.34 C917.063959,723.013531 916.09617,723.936864 915.37,725.04 C915.283893,725.19246 915.213531,725.353289 915.16,725.52 L906.58,725.52 C904.679082,724.542279 902.919686,723.311038 901.35,721.86 L901.35,721.86 Z" id="Shape" fill="#3FA34D" fill-rule="nonzero"></path>
            <path d="M759.36,656.57 C759.36,656.57 756.14,660.77 760.84,667.12 C765.54,673.47 769.42,678.83 767.84,682.79 C767.84,682.79 760.75,671 754.98,670.79 C749.21,670.58 753.01,663.63 759.36,656.57 Z" id="Shape" fill="#3FA34D" fill-rule="nonzero"></path>
            <path d="M759.36,656.57 C759.075918,656.974931 758.853496,657.419776 758.7,657.89 C753.07,664.5 750.07,670.68 755.48,670.83 C760.53,670.98 766.58,680 768.02,682.27 C767.978472,682.447922 767.921593,682.621907 767.85,682.79 C767.85,682.79 760.76,671 754.99,670.79 C749.22,670.58 753.01,663.63 759.36,656.57 Z" id="Shape" fill="#000000" fill-rule="nonzero" opacity="0.1"></path>
            <path d="M753.38,661.93 C753.38,663.41 753.55,664.61 753.75,664.61 C753.95,664.61 754.12,663.41 754.12,661.93 C754.12,660.45 753.92,661.15 753.71,661.15 C753.5,661.15 753.38,660.45 753.38,661.93 Z" id="Shape" fill="#FFD037" fill-rule="nonzero"></path>
            <path d="M751.33,663.7 C752.63,664.4 753.76,664.83 753.86,664.65 C753.96,664.47 752.99,663.75 751.69,663.04 C750.39,662.33 750.9,662.85 750.8,663.04 C750.7,663.23 750.03,662.99 751.33,663.7 Z" id="Shape" fill="#FFD037" fill-rule="nonzero"></path>
            <path d="M776.35,656.57 C776.35,656.57 779.56,660.77 774.86,667.12 C770.16,673.47 766.29,678.83 767.86,682.79 C767.86,682.79 774.95,671 780.73,670.79 C786.51,670.58 782.7,663.63 776.35,656.57 Z" id="Shape" fill="#3FA34D" fill-rule="nonzero"></path>
            <path d="M776.35,656.57 C776.628609,656.976691 776.8475,657.421209 777,657.89 C782.64,664.5 785.64,670.68 780.22,670.83 C775.22,670.98 769.13,680 767.68,682.27 C767.68,682.45 767.79,682.62 767.85,682.79 C767.85,682.79 774.94,671 780.72,670.79 C786.5,670.58 782.7,663.63 776.35,656.57 Z" id="Shape" fill="#000000" fill-rule="nonzero" opacity="0.1"></path>
            <path d="M782.32,661.93 C782.32,663.41 782.16,664.61 781.95,664.61 C781.74,664.61 781.58,663.41 781.58,661.93 C781.58,660.45 781.79,661.15 781.99,661.15 C782.19,661.15 782.32,660.45 782.32,661.93 Z" id="Shape" fill="#FFD037" fill-rule="nonzero"></path>
            <path d="M784.38,663.7 C783.08,664.4 781.94,664.83 781.85,664.65 C781.76,664.47 782.72,663.75 784.02,663.04 C785.32,662.33 784.81,662.85 784.91,663.04 C785.01,663.23 785.68,662.99 784.38,663.7 Z" id="Shape" fill="#FFD037" fill-rule="nonzero"></path>
            <path d="M781.3,682.24 C781.3,682.24 772.3,681.96 769.6,680.03 C766.9,678.1 755.77,675.8 755.1,678.9 C754.43,682 741.58,694.29 751.74,694.37 C761.9,694.45 775.32,692.79 778.03,691.14 C780.74,689.49 781.3,682.24 781.3,682.24 Z" id="Shape" fill="#A8A8A8" fill-rule="nonzero"></path>
            <path d="M751.55,693.29 C761.71,693.37 775.14,691.71 777.85,690.06 C779.9,688.81 780.73,684.31 781,682.23 L781.3,682.23 C781.3,682.23 780.73,689.48 778.03,691.13 C775.33,692.78 761.89,694.44 751.74,694.36 C748.81,694.36 747.79,693.29 747.85,691.75 C748.26,692.69 749.37,693.27 751.55,693.29 Z" id="Shape" fill="#000000" fill-rule="nonzero" opacity="0.2"></path>
            <ellipse id="Oval" fill="#3FA34D" fill-rule="nonzero" opacity="0.1" cx="167.29" cy="707.09" rx="34.72" ry="5.13"></ellipse>
            <ellipse id="Oval" fill="#3FA34D" fill-rule="nonzero" opacity="0.1" cx="251.36" cy="753.14" rx="34.72" ry="5.13"></ellipse>
            <ellipse id="Oval" fill="#3FA34D" fill-rule="nonzero" opacity="0.1" cx="622.26" cy="633.15" rx="22.99" ry="2.57"></ellipse>
            <ellipse id="Oval" fill="#3FA34D" fill-rule="nonzero" opacity="0.1" cx="514.79" cy="707.09" rx="22.99" ry="2.57"></ellipse>
            <ellipse id="Oval" fill="#3FA34D" fill-rule="nonzero" opacity="0.1" cx="466.34" cy="753.14" rx="22.99" ry="2.57"></ellipse>
        </g>
    </g>
</svg>