<?xml version="1.0" encoding="utf-8"?>
<!-- Generator: Adobe Illustrator 17.0.0, SVG Export Plug-In . SVG Version: 6.00 Build 0)  -->
<!DOCTYPE svg PUBLIC "-//W3C//DTD SVG 1.1//EN" "http://www.w3.org/Graphics/SVG/1.1/DTD/svg11.dtd">
<svg version="1.1" id="Layer_1" xmlns:figma="http://www.figma.com/figma/ns"
	 xmlns="http://www.w3.org/2000/svg" xmlns:xlink="http://www.w3.org/1999/xlink" x="0px" y="0px" width="1280px" height="700px"
	 viewBox="0 0 1280 700" enable-background="new 0 0 1280 700" xml:space="preserve">
<title>background</title>
<desc>Created using Figma</desc>
<g figma:type="frame">
	<g figma:type="rounded-rectangle">
		
			<linearGradient id="a_1_" gradientUnits="userSpaceOnUse" x1="334.7471" y1="745.6934" x2="335.7471" y2="745.6934" gradientTransform="matrix(-204 654.5 1196.8 373.029 -823448.8125 -497127.375)">
			<stop  offset="0" style="stop-color:#212223"/>
			<stop  offset="0.955" style="stop-color:#0E1011"/>
		</linearGradient>
		<path id="a" fill="url(#a_1_)" d="M0,0h1280v700H0V0z"/>
	</g>
	<g transform="translate(14 37)" figma:type="ellipse">
		
			<radialGradient id="c_2_" cx="335.1126" cy="745.4521" r="0.5" gradientTransform="matrix(0 626 626 0 -466326 -209430.5)" gradientUnits="userSpaceOnUse">
			<stop  offset="0" style="stop-color:#FFFFFF;stop-opacity:0.03"/>
			<stop  offset="1" style="stop-color:#1F2428;stop-opacity:0"/>
		</radialGradient>
		<path id="c" fill="url(#c_2_)" d="M640,350c0,172.865-140.135,313-313,313S14,522.865,14,350S154.135,37,327,37
			S640,177.135,640,350z"/>
	</g>
	<g transform="translate(589 14)" figma:type="ellipse">
		
			<radialGradient id="c_3_" cx="335.1126" cy="745.4521" r="0.5" gradientTransform="matrix(0 626 626 0 -465751 -209453.5)" gradientUnits="userSpaceOnUse">
			<stop  offset="0" style="stop-color:#FFFFFF;stop-opacity:0.03"/>
			<stop  offset="0.49" style="stop-color:#FFFFFF;stop-opacity:0.02"/>
			<stop  offset="1" style="stop-color:#1F2428;stop-opacity:0"/>
		</radialGradient>
		<path id="c_1_" fill="url(#c_3_)" d="M1215,327c0,172.865-140.135,313-313,313S589,499.865,589,327S729.135,14,902,14
			S1215,154.135,1215,327z"/>
	</g>
</g>
</svg>
