<?xml version="1.0" encoding="UTF-8"?>
<svg viewBox="0 0 1024 838" version="1.1" xmlns="http://www.w3.org/2000/svg" xmlns:xlink="http://www.w3.org/1999/xlink">
    <!-- Generator: Sketch 46.2 (44496) - http://www.bohemiancoding.com/sketch -->
    <title>Group 2</title>
    <desc>Created with Sketch.</desc>
    <defs>
        <linearGradient x1="49.9984429%" y1="100%" x2="49.9984429%" y2="0%" id="linearGradient-1">
            <stop stop-color="#808080" stop-opacity="0.25" offset="0%"></stop>
            <stop stop-color="#808080" stop-opacity="0.12" offset="54%"></stop>
            <stop stop-color="#808080" stop-opacity="0.1" offset="100%"></stop>
        </linearGradient>
        <linearGradient x1="56983%" y1="55149%" x2="56983%" y2="38082%" id="linearGradient-2">
            <stop stop-color="#808080" stop-opacity="0.25" offset="0%"></stop>
            <stop stop-color="#808080" stop-opacity="0.12" offset="54%"></stop>
            <stop stop-color="#808080" stop-opacity="0.1" offset="100%"></stop>
        </linearGradient>
        <linearGradient x1="17150%" y1="31920%" x2="17150%" y2="31902%" id="linearGradient-3">
            <stop stop-color="#808080" stop-opacity="0.25" offset="0%"></stop>
            <stop stop-color="#808080" stop-opacity="0.12" offset="54%"></stop>
            <stop stop-color="#808080" stop-opacity="0.1" offset="100%"></stop>
        </linearGradient>
        <linearGradient x1="22801%" y1="85375%" x2="22801%" y2="25026%" id="linearGradient-4">
            <stop stop-color="#808080" stop-opacity="0.25" offset="0%"></stop>
            <stop stop-color="#808080" stop-opacity="0.12" offset="54%"></stop>
            <stop stop-color="#808080" stop-opacity="0.1" offset="100%"></stop>
        </linearGradient>
        <linearGradient x1="94405%" y1="84994%" x2="94405%" y2="26842%" id="linearGradient-5">
            <stop stop-color="#808080" stop-opacity="0.25" offset="0%"></stop>
            <stop stop-color="#808080" stop-opacity="0.12" offset="54%"></stop>
            <stop stop-color="#808080" stop-opacity="0.1" offset="100%"></stop>
        </linearGradient>
    </defs>
    <g id="Page-1" stroke="none" stroke-width="1" fill="none" fill-rule="evenodd">
        <g id="costs" fill-rule="nonzero">
            <g id="Group-2">
                <ellipse id="Oval" fill="#3FA34D" opacity="0.1" cx="176" cy="807.85" rx="176" ry="29.99"></ellipse>
                <ellipse id="Oval" fill="#3FA34D" opacity="0.1" cx="847.47" cy="800.75" rx="176" ry="29.99"></ellipse>
                <path d="M274.41,0.46 C228.41,2.92 181.93,16.36 146.04,45.25 C114.55,70.61 91.84,110.48 97.38,150.54 C103.92,197.83 146.11,232.23 161.76,277.34 C171.83,306.34 170.26,338.34 163.67,368.34 C159.43,387.67 152.91,407.02 140.38,422.34 C117.81,449.9 77.08,463.2 65.99,497.05 C53.93,533.86 84.32,569.96 112.87,596.14 C135.66,617.03 159.53,637.82 188.25,649.27 C209.25,657.65 232.04,660.66 254.63,661.86 C317.009738,665.132959 379.375971,655.167994 437.63,632.62 C465.54,621.79 492.54,608.06 521.75,601.53 C584,587.61 648.05,607.68 711.14,617.08 C765.221788,625.114105 820.181881,625.275782 874.31,617.56 C908.37,612.7 943.56,603.93 969.21,581.01 C995.21,557.74 1008.21,521.72 1006.77,486.82 C1005.33,451.92 990.61,418.32 968.93,390.92 C940.93,355.53 902.31,330.35 868.71,300.19 C834.496979,269.463158 805.392876,233.486409 782.49,193.61 C769.29,170.61 758.06,146.2 740.96,125.95 C714.29,94.39 675.61,75.62 636.96,61.12 C547.8,27.72 455.32,20.92 362.36,6.16 C333.31,1.53 303.84,-1.08 274.41,0.46 Z" id="Shape" fill="#3FA34D" opacity="0.1"></path>
                <g id="Group" opacity="0.7" transform="translate(258.000000, 72.000000)">
                    <rect id="Rectangle-path" fill="#F6F7F9" x="0.54" y="295.11" width="190.96" height="106.71"></rect>
                    <g opacity="0.2" transform="translate(16.000000, 322.000000)" id="Oval" fill="#3FA34D">
                        <circle cx="20.49" cy="20.48" r="19.88"></circle>
                    </g>
                    <g opacity="0.2" transform="translate(80.000000, 318.000000)" id="Rectangle-path" fill="#3FA34D">
                        <rect x="0.61" y="0.92" width="86.62" height="5.45"></rect>
                    </g>
                    <g opacity="0.2" transform="translate(80.000000, 332.000000)" id="Rectangle-path" fill="#3FA34D">
                        <rect x="0.61" y="0.81" width="44.13" height="5.45"></rect>
                    </g>
                    <g opacity="0.2" transform="translate(80.000000, 346.000000)" id="Rectangle-path" fill="#3FA34D">
                        <rect x="0.61" y="0.7" width="71.37" height="5.45"></rect>
                    </g>
                    <g opacity="0.2" transform="translate(80.000000, 360.000000)" id="Rectangle-path" fill="#3FA34D">
                        <rect x="0.61" y="0.59" width="86.62" height="5.45"></rect>
                    </g>
                    <g opacity="0.2" transform="translate(143.000000, 380.000000)" id="Rectangle-path" fill="#3FA34D">
                        <rect x="0.27" y="0.64" width="23.97" height="10.53"></rect>
                    </g>
                    <rect id="Rectangle-path" fill="#F6F7F9" x="161.31" y="0.2" width="190.96" height="106.71"></rect>
                    <g opacity="0.2" transform="translate(177.000000, 27.000000)" id="Oval" fill="#3FA34D">
                        <circle cx="20.27" cy="20.57" r="19.88"></circle>
                    </g>
                    <g opacity="0.2" transform="translate(241.000000, 24.000000)" id="Rectangle-path" fill="#3FA34D">
                        <rect x="0.39" y="0.01" width="86.62" height="5.45"></rect>
                    </g>
                    <g opacity="0.2" transform="translate(241.000000, 37.000000)" id="Rectangle-path" fill="#3FA34D">
                        <rect x="0.39" y="0.9" width="44.13" height="5.45"></rect>
                    </g>
                    <g opacity="0.2" transform="translate(241.000000, 51.000000)" id="Rectangle-path" fill="#3FA34D">
                        <rect x="0.39" y="0.79" width="71.37" height="5.45"></rect>
                    </g>
                    <g opacity="0.2" transform="translate(241.000000, 65.000000)" id="Rectangle-path" fill="#3FA34D">
                        <rect x="0.39" y="0.69" width="86.62" height="5.45"></rect>
                    </g>
                    <g opacity="0.2" transform="translate(304.000000, 85.000000)" id="Rectangle-path" fill="#3FA34D">
                        <rect x="0.04" y="0.73" width="23.97" height="10.53"></rect>
                    </g>
                    <rect id="Rectangle-path" fill="#F6F7F9" x="224.87" y="179.36" width="190.96" height="106.71"></rect>
                    <g opacity="0.2" transform="translate(240.000000, 206.000000)" id="Oval" fill="#3FA34D">
                        <circle cx="20.82" cy="20.74" r="19.88"></circle>
                    </g>
                    <g opacity="0.2" transform="translate(304.000000, 203.000000)" id="Rectangle-path" fill="#3FA34D">
                        <rect x="0.95" y="0.18" width="86.62" height="5.45"></rect>
                    </g>
                    <g opacity="0.2" transform="translate(304.000000, 217.000000)" id="Rectangle-path" fill="#3FA34D">
                        <rect x="0.95" y="0.07" width="44.13" height="5.45"></rect>
                    </g>
                    <g opacity="0.2" transform="translate(304.000000, 230.000000)" id="Rectangle-path" fill="#3FA34D">
                        <rect x="0.95" y="0.96" width="71.37" height="5.45"></rect>
                    </g>
                    <g opacity="0.2" transform="translate(304.000000, 244.000000)" id="Rectangle-path" fill="#3FA34D">
                        <rect x="0.95" y="0.85" width="86.62" height="5.45"></rect>
                    </g>
                    <g opacity="0.2" transform="translate(367.000000, 264.000000)" id="Rectangle-path" fill="#3FA34D">
                        <rect x="0.6" y="0.9" width="23.97" height="10.53"></rect>
                    </g>
                </g>
                <rect id="Rectangle-path" fill="url(#linearGradient-1)" x="191.88" y="135.71" width="321.11" height="181.44"></rect>
                <rect id="Rectangle-path" fill="#F6F7F9" x="194.15" y="137.96" width="316.6" height="176.93"></rect>
                <g id="Group" opacity="0.2" transform="translate(220.000000, 183.000000)" fill="#3FA34D">
                    <circle id="Oval" cx="33.75" cy="33.51" r="32.96"></circle>
                </g>
                <g id="Group" opacity="0.2" transform="translate(326.000000, 177.000000)" fill="#3FA34D">
                    <rect id="Rectangle-path" x="0.92" y="0.44" width="143.62" height="9.03"></rect>
                </g>
                <g id="Group" opacity="0.2" transform="translate(326.000000, 200.000000)" fill="#3FA34D">
                    <rect id="Rectangle-path" x="0.92" y="0.48" width="73.16" height="9.03"></rect>
                </g>
                <g id="Group" opacity="0.2" transform="translate(326.000000, 223.000000)" fill="#3FA34D">
                    <rect id="Rectangle-path" x="0.92" y="0.51" width="118.33" height="9.03"></rect>
                </g>
                <g id="Group" opacity="0.2" transform="translate(326.000000, 246.000000)" fill="#3FA34D">
                    <rect id="Rectangle-path" x="0.92" y="0.54" width="143.62" height="9.03"></rect>
                </g>
                <rect id="Rectangle-path" fill="#3FA34D" x="430.79" y="279.78" width="39.74" height="17.46"></rect>
                <rect id="Rectangle-path" fill="url(#linearGradient-2)" x="417.12" y="380.82" width="305.42" height="170.67"></rect>
                <rect id="Rectangle-path" fill="#F6F7F9" x="419.23" y="381.99" width="301.2" height="168.32"></rect>
                <g id="Group" opacity="0.2" transform="translate(444.000000, 425.000000)" fill="#3FA34D">
                    <circle id="Oval" cx="31.94" cy="31.72" r="31.36"></circle>
                </g>
                <g id="Group" opacity="0.2" transform="translate(545.000000, 419.000000)" fill="#3FA34D">
                    <rect id="Rectangle-path" x="0.54" y="0.55" width="136.63" height="8.59"></rect>
                </g>
                <g id="Group" opacity="0.2" transform="translate(545.000000, 441.000000)" fill="#3FA34D">
                    <rect id="Rectangle-path" x="0.54" y="0.47" width="69.6" height="8.59"></rect>
                </g>
                <g id="Group" opacity="0.2" transform="translate(545.000000, 463.000000)" fill="#3FA34D">
                    <rect id="Rectangle-path" x="0.54" y="0.38" width="112.57" height="8.59"></rect>
                </g>
                <g id="Group" opacity="0.2" transform="translate(545.000000, 485.000000)" fill="#3FA34D">
                    <rect id="Rectangle-path" x="0.54" y="0.29" width="136.63" height="8.59"></rect>
                </g>
                <g id="Group" opacity="0.5" transform="translate(644.000000, 516.000000)" fill="#3FA34D">
                    <rect id="Rectangle-path" x="0.36" y="0.91" width="37.81" height="16.61"></rect>
                </g>
                <g id="Group" opacity="0.1" transform="translate(82.000000, 287.000000)" fill="url(#linearGradient-3)">
                    <path d="M0.86,0.92 L1.6,1.08 C1.38383601,0.931743494 1.11810318,0.874287749 0.86,0.92 Z" id="Shape"></path>
                </g>
                <path d="M237.58,404.09 C235.37,389.25 221.89,354.63 221.89,354.63 L221.89,354.63 C221.65,353.63 221.39,352.57 221.09,351.55 C211.52,318.66 198.28,315.75 198.28,315.75 L150.85,305.64 C151.241462,305.885098 151.581179,306.204432 151.85,306.58 L151.1,306.7 C148.923278,304.132472 147.485355,301.021582 146.94,297.7 C146.85,297.21 146.77,296.7 146.71,296.18 C153.606556,289.463603 157.264449,280.094719 156.743195,270.482187 C156.221942,260.869655 151.572394,251.951254 143.99,246.02 C143.5,245.63 142.99,245.26 142.47,244.89 C144.71,242.52 144.78,239.21 143.11,235.89 C139.37,228.12 131.25,223.21 122.89,220.82 C116.51,218.99 109.59,218.4 103.27,220.4 C99.66,221.54 96.38,223.47 93,225.16 C86.7,228.31 79.76,230.8 75,235.97 C73.89,237.18 72.88,238.72 73.2,240.31 C73.45,241.5 74.38,242.41 74.99,243.47 C76.34,245.83 75.99,248.8 75.08,251.37 C74.17,253.94 72.79,256.37 72.14,258.97 C71.49,261.57 71.75,264.71 73.73,266.59 C74.6919721,267.342813 75.6933931,268.043808 76.73,268.69 C77.8164697,269.609602 78.7690244,270.676598 79.56,271.86 L85.18,279.45 C87.8033525,282.81476 90.1446273,286.390221 92.18,290.14 C93.57,292.89 94.66,295.84 96.53,298.3 C97.0801499,299.031511 97.7070578,299.702 98.4,300.3 C98.22,300.23 98.03,300.17 97.85,300.09 C99.5235463,301.721667 101.794532,302.593176 104.13,302.5 L104.41,302.5 C104.8387,302.493046 105.249145,302.325299 105.56,302.03 L105.56,303.03 C105.66,306.68 105.65,310.56 105.39,314.2 L104.95,313.98 C103.619725,313.312054 102.022276,313.480001 100.86,314.41 L57.17,349.41 C57.17,349.41 47.68,362.41 49,384.81 L41.35,418.43 C41.35,418.43 31.78,446.96 39.14,467.33 C46.5,487.7 50.77,499.33 50.77,499.33 C50.77,499.33 53.71,522.47 58.13,524.33 C62.55,526.19 64.46,527.25 64.46,527.25 L65.34,532.78 L65.34,532.78 C65.34,532.78 65.63,533.31 66.15,534.23 C69.37,539.82 81.28,559.56 88.21,557.46 C89.0756009,562.8181 89.4538145,568.243625 89.34,573.67 L96.18,619.67 C96.18,619.67 100.96,632.18 100.67,638.73 C100.38,645.28 106.26,654.6 106.26,654.6 C102.690338,661.128296 101.644032,668.740706 103.32,675.99 C106.12,688.22 109.65,744.68 109.65,744.68 L114.8,758.36 L114.65,774.36 C114.22356,776.958673 113.135303,779.403806 111.49,781.46 C108.17,785.06 108.39,789.22 100.49,794.13 C92.59,799.04 87.49,800.89 87.49,807.44 C87.4808633,808.344898 87.4006161,809.247678 87.25,810.14 C86.51,814.93 85.08,817.51 99.75,818.91 C116.97,820.54 128.45,809.3 128.45,809.3 C128.45,809.3 130.98,804.71 142.91,802.86 C142.91,802.86 146.98,802.64 147.21,799.03 C147.29,797.79 147.27,795.41 147.16,792.79 C146.97,787.79 146.49,781.97 145.86,781.68 C145.07,781.33 143.67,776.3 143.19,774.48 L146.51,774.48 C146.51,774.48 149.6,751.34 146.51,736.34 C143.42,721.34 146.22,710.73 146.22,710.73 L145.63,671.15 C145.63,671.15 141.46,666.92 144.73,659.22 C148,651.52 144.73,613.38 144.73,613.38 C144.73,613.38 145.92,599.7 149.3,596.5 C152.68,593.3 149.47,576.45 149.3,575.57 L155.3,595.77 C155.3,595.77 157.95,635.94 163.55,643.22 L165.17,661.4 C165.17,661.4 176.65,678.14 174.44,687.17 C172.23,696.2 176.8,728.79 176.8,728.79 L176.8,762.12 C176.8,762.12 171.64,775.51 178.86,780.31 L181.97,780.19 C180.91,781.19 180.15,782.58 178.97,783.81 C177.59,785.23 176.81,790.63 176.37,795.27 C176,799.2 175.88,802.58 175.88,802.58 C175.88,802.58 178.97,807.49 184.71,807.82 C190.45,808.15 209.44,822.67 209.44,822.67 C209.44,822.67 228.22,822.67 233.07,821.67 L233.36,821.6 C234.917995,821.103445 236.227314,820.030233 237.02,818.6 C237.99841,816.944057 238.31623,814.980003 237.91,813.1 C237.3,810.23 235.03,807.1 229.98,804.41 C217.39,797.76 215.52,791.54 215.52,791.54 L207.27,779.18 L208.45,779.18 C208.45,779.18 207.72,766.08 216.69,751.38 L216.11,686.62 C216.11,686.62 219.78,664.35 213.46,652.27 C213.46,652.27 212.94,639.46 217.17,635.53 C221.4,631.6 211.54,591.87 211.54,591.87 C211.54,591.87 209.54,570.55 207.1,551.09 L207.1,551.09 C217.03,560.51 227.34,526.58 229.1,520.55 L229.36,520.55 C229.36,520.55 229.31,520.39 229.24,520.11 C229.17,519.83 229.36,519.68 229.36,519.68 L229.36,519.68 C229.36,519.63 227.16,511.83 228.77,513.42 C230.38,515.01 234.37,509.06 234.37,509.06 C234.37,509.06 233.78,476.6 240.7,460.24 C247.62,443.88 237.58,404.09 237.58,404.09 Z M207.99,424.74 L208.04,424.65 C209.04,444.47 207.84,486.76 207.84,486.76 C207.84,486.76 206.48,492.18 205.02,498.56 L203.97,458.38 L203.97,458.38 L202.97,420.54 L207.99,424.74 Z M81.26,411.08 C81.26,411.08 86.26,473.66 81.26,482.68 C79.83,485.25 78.64,489.82 77.65,495.05 C76,490.71 72.5,480.52 73.75,475.12 C75.37,468.12 70.51,449.79 70.51,449.36 C70.51,448.93 70.07,439.17 73.6,431.67 C77.13,424.17 74.78,420.97 74.78,420.97 C74.78,420.97 77.73,408.75 81.26,411.08 Z" id="Shape" fill="url(#linearGradient-4)"></path>
                <path d="M93.44,552.02 C89.09,571.18 71.75,542.2 67.8,535.25 L67,533.81 L68.88,525 L78.82,520.95 C80.3901272,521.771103 81.8770645,522.7423 83.26,523.85 C88.73,528.09 96.8,537.18 93.44,552.02 Z" id="Shape" fill="#EFB7B9"></path>
                <path d="M227.94,520.66 L227.83,521.09 C227.83,521.22 227.74,521.37 227.69,521.56 C225.99,527.56 215.88,561.22 206.12,551.87 C195.44,541.61 200.63,518.05 200.63,518.05 L200.73,518.05 L223.2,515.75 L227.65,520.33 L227.65,520.33 L227.94,520.66 Z" id="Shape" fill="#EFB7B9"></path>
                <path d="M214.94,686.37 L215.51,750.65 C206.71,765.25 207.42,778.25 207.42,778.25 L178.42,779.4 C171.34,774.64 176.42,761.35 176.42,761.35 L176.42,728.26 C176.42,728.26 171.89,695.92 174.05,686.92 C176.21,677.92 164.95,661.35 164.95,661.35 L163.37,643.3 C157.87,636.08 155.27,596.2 155.27,596.2 L149.36,576.2 C149.51,577.07 152.58,593.88 149.36,596.97 C146.14,600.06 144.88,613.73 144.88,613.73 C144.88,613.73 148.06,651.58 144.88,659.23 C141.7,666.88 145.74,671.23 145.74,671.23 L146.33,710.52 C146.33,710.52 143.58,721.07 146.61,735.95 C149.64,750.83 146.61,773.8 146.61,773.8 L115.41,773.8 L115.55,757.8 L110.5,744.22 C110.5,744.22 107.03,688.17 104.29,676.04 C102.643113,668.844986 103.666614,661.296672 107.17,654.8 C107.17,654.8 101.4,645.55 101.69,639.05 C101.98,632.55 97.28,620.13 97.28,620.13 L90.56,574.48 C90.749245,565.696625 89.6303232,556.933984 87.24,548.48 C83.33,535.48 77.56,518.43 77.56,518.43 L84.08,519.01 L117,521.94 C117,521.94 197,516.56 200.61,521.03 C201.369934,522.488986 201.88352,524.063535 202.13,525.69 C205.72,541.84 210.47,592.4 210.47,592.4 C210.47,592.4 220.15,631.84 215.99,635.74 C211.83,639.64 212.35,652.35 212.35,652.35 C218.55,664.27 214.94,686.37 214.94,686.37 Z" id="Shape" fill="#444053"></path>
                <path d="M147.29,798.14 C147.06,801.72 143.06,801.94 143.06,801.94 C131.36,803.78 128.88,808.34 128.88,808.34 C128.88,808.34 117.61,819.49 100.73,817.92 C86.34,816.54 87.73,813.92 88.47,809.22 C88.6173318,808.334144 88.6942391,807.438006 88.7,806.54 C88.7,800.04 93.7,798.19 101.49,793.32 C109.28,788.45 109.07,784.32 112.32,780.75 C115.57,777.18 115.9,770.25 115.9,770.25 C119.58,763.85 128.9,771.25 128.9,771.25 C129.33,773.52 143.2,773.25 143.2,773.25 C143.2,773.25 145.04,780.62 145.98,781.05 C146.6,781.34 147.07,787.12 147.26,792.05 C147.35,794.55 147.36,796.92 147.29,798.14 Z" id="Shape" fill="#000000"></path>
                <path d="M147.29,798.14 C147.06,801.72 143.06,801.94 143.06,801.94 C131.36,803.78 128.88,808.34 128.88,808.34 C128.88,808.34 117.61,819.49 100.73,817.92 C86.34,816.54 87.73,813.92 88.47,809.22 C94.9,810.82 107.2,813.04 114.38,809.14 C124.38,803.72 131.51,799.93 131.51,799.93 L147.24,791.92 C147.35,794.55 147.36,796.92 147.29,798.14 Z" id="Shape" fill="#000000" opacity="0.1"></path>
                <path d="M235.47,817.43 C234.702025,818.857035 233.412128,819.931949 231.87,820.43 C231.779266,820.462716 231.685455,820.486169 231.59,820.5 C226.82,821.5 208.4,821.5 208.4,821.5 C208.4,821.5 189.73,807.04 184.13,806.71 C178.53,806.38 175.46,801.51 175.46,801.51 C175.46,801.51 175.57,798.15 175.93,794.25 C176.37,789.64 177.14,784.25 178.49,782.87 C180.99,780.27 181.49,776.7 187.16,778.97 C187.16,778.97 195.16,764.86 204.6,775.76 L214.36,790.57 C214.36,790.57 216.2,796.74 228.56,803.35 C233.51,806 235.74,809.12 236.33,811.97 C236.735797,813.833519 236.428981,815.781446 235.47,817.43 Z" id="Shape" fill="#000000"></path>
                <path d="M235.47,817.43 C234.37,818.36 233.14,819.36 231.87,820.43 C231.779266,820.462716 231.685455,820.486169 231.59,820.5 C226.82,821.5 208.4,821.5 208.4,821.5 C208.4,821.5 189.73,807.04 184.13,806.71 C178.53,806.38 175.46,801.51 175.46,801.51 C175.46,801.51 175.57,798.15 175.93,794.25 C181.66,795.97 190.36,799 192.69,802.25 C196.26,807.25 207.11,814.16 207.11,814.16 C207.11,814.16 227.34,812.22 236.33,811.95 C236.741002,813.81987 236.434031,815.77592 235.47,817.43 Z" id="Shape" fill="#000000" opacity="0.1"></path>
                <path d="M156.73,313.28 L130.07,341.45 C130.07,341.45 97.78,339.07 103.42,329.53 C106.29,324.68 106.74,314.53 106.49,305.67 C106.25,297.14 105.37,289.88 105.37,289.88 C105.37,289.88 150.66,267.34 147.19,288.36 C146.453509,292.32243 146.409524,296.382545 147.06,300.36 C149.03,310.98 156.73,313.28 156.73,313.28 Z" id="Shape" fill="#EFB7B9"></path>
                <path d="M147.18,288.36 C146.443509,292.32243 146.399524,296.382545 147.05,300.36 C140.793898,306.698492 132.255907,310.261392 123.35,310.25 C117.19,310.25 110.6,305.25 105.65,302.3 C105.41,293.77 105.36,289.88 105.36,289.88 C105.36,289.88 150.65,267.34 147.18,288.36 Z" id="Shape" fill="#000000" opacity="0.1"></path>
                <path d="M156.73,275.14 C156.735238,290.715552 145.967922,304.224442 130.783493,307.693009 C115.599064,311.161575 100.034114,303.667741 93.2759018,289.634765 C86.5176896,275.601789 90.3628022,258.760165 102.54165,249.050711 C114.720499,239.341257 131.995486,239.345112 144.17,249.06 C152.104353,255.39137 156.726586,264.989129 156.73,275.14 Z" id="Shape" fill="#EFB7B9"></path>
                <path d="M202.12,525.61 C193.81,545.39 140.35,545.8 140.35,545.8 L140.35,524.24 L137.11,524.03 C138.51,530.2 135.11,545.26 135.11,545.26 C92.86,551.26 82.57,527.17 82.57,527.17 L84.03,518.93 L116.95,521.86 C116.95,521.86 196.95,516.48 200.56,520.95 C201.333824,522.406505 201.860963,523.981163 202.12,525.61 L202.12,525.61 Z" id="Shape" fill="#000000" opacity="0.1"></path>
                <path d="M140.35,543.2 L140.35,521.63 L137.11,521.43 C138.51,527.6 135.11,542.66 135.11,542.66 C103.32,547.14 89.61,534.66 84.78,528.16 C83.9161147,527.042898 83.1751678,525.835926 82.57,524.56 L95.46,451.97 L98.46,345.14 L103.11,326.4 L104.19,317.4 L107.58,318.76 L127.26,327.26 L149.73,310.39 L151.17,309.3 L153.02,310.79 L157.61,314.47 L172.35,409.61 C172.35,409.61 197.91,482.87 202.65,512.44 C202.84,513.62 203,514.72 203.12,515.75 C206.23,542.7 140.35,543.2 140.35,543.2 Z" id="Shape" fill="#67647E"></path>
                <circle id="Oval" fill="#67647E" cx="129.73" cy="329.32" r="1.9"></circle>
                <circle id="Oval" fill="#67647E" cx="130.61" cy="346.65" r="1.9"></circle>
                <circle id="Oval" fill="#67647E" cx="132.5" cy="374.72" r="1.9"></circle>
                <circle id="Oval" fill="#67647E" cx="135.65" cy="404.94" r="1.9"></circle>
                <circle id="Oval" fill="#67647E" cx="137.54" cy="433.33" r="1.9"></circle>
                <circle id="Oval" fill="#67647E" cx="139.44" cy="463.56" r="1.9"></circle>
                <circle id="Oval" fill="#67647E" cx="138.68" cy="493.47" r="1.9"></circle>
                <path d="M105.53,462.53 C105.53,462.53 103.41,490.33 99.53,498.41 C95.65,506.49 93.89,529.18 93.89,529.18 L84.89,528.18 C84.0261147,527.062898 83.2851678,525.855926 82.68,524.58 L95.57,451.99 L98.57,345.16 L103.22,326.42 L104.3,317.42 C104.335121,317.393441 104.376411,317.376236 104.42,317.37 C105.443064,316.886671 106.632436,316.905139 107.64,317.42 L108.08,317.64 C107.95,318.01 107.82,318.39 107.7,318.78 C104.18,329.83 102.86,350.21 102.86,350.21 C102.86,350.21 107.92,387.48 108.49,404.82 C109.06,422.16 105.53,462.53 105.53,462.53 Z" id="Shape" fill="#000000" opacity="0.1"></path>
                <path d="M83.26,523.85 C83.1607748,524.080217 83.0472189,524.303989 82.92,524.52 C79.41,530.45 70.51,534.22 67.8,535.25 L67,533.81 L68.88,525 L78.82,520.95 C80.3901272,521.771103 81.8770645,522.7423 83.26,523.85 L83.26,523.85 Z" id="Shape" fill="#000000" opacity="0.1"></path>
                <path d="M59.2,381.98 L50.97,386.92 L43.45,420.29 C43.45,420.29 34.06,448.61 41.29,468.83 C48.52,489.05 52.73,500.58 52.73,500.58 C52.73,500.58 55.62,523.58 59.95,525.43 C64.28,527.28 66.17,528.32 66.17,528.32 L67.03,533.81 C67.03,533.81 78.79,529.81 82.95,522.81 C87.11,515.81 79.89,498.3 79.89,498.3 C79.89,498.3 73.68,483.42 75.27,476.49 C76.86,469.56 72.09,451.35 72.09,450.92 C72.09,450.49 71.66,440.8 75.09,433.36 C78.52,425.92 76.25,422.75 76.25,422.75 L74.08,401.51 L59.2,381.98 Z" id="Shape" fill="#67647E"></path>
                <path d="M202.8,519.36 C202.8,519.36 180.99,527.6 174.05,520.36 C167.11,513.12 167.84,479.36 167.84,479.36 C167.84,479.36 161.2,416.95 157,406.7 C152.8,396.45 155,322.47 155,322.47 C155,322.47 152.16,312.92 149.73,310.39 C149.577153,310.223554 149.402187,310.078871 149.21,309.96 L150.06,310.14 L153.06,310.79 L157.65,314.47 L172.39,409.61 C172.39,409.61 197.95,482.87 202.69,512.44 L202.8,519.36 Z" id="Shape" fill="#000000" opacity="0.1"></path>
                <path d="M227.94,521.53 L227.69,521.53 C224.95,521.88 200.69,524.81 200.6,519.77 C200.600424,519.185251 200.63381,518.600991 200.7,518.02 L223.17,515.72 L227.62,520.3 L227.62,520.3 C227.7,520.6 227.77,520.86 227.83,521.06 L227.94,521.53 Z" id="Shape" fill="#000000" opacity="0.1"></path>
                <path d="M204.73,348.55 L220.68,356.86 C220.68,356.86 233.91,391.22 236.08,405.96 C236.08,405.96 245.9,445.43 239.08,461.66 C232.26,477.89 232.87,510.12 232.87,510.12 C232.87,510.12 228.97,516.04 227.38,514.45 C225.79,512.86 227.96,520.66 227.96,520.66 C227.96,520.66 200.73,524.28 200.6,518.92 C200.47,513.56 206.85,488 206.85,488 C206.85,488 208.58,427.18 206.12,417.65 C203.66,408.12 204.73,348.55 204.73,348.55 Z" id="Shape" fill="#67647E"></path>
                <path d="M157.15,413.33 C157.15,413.33 148.15,435.28 145.3,436.73 C142.45,438.18 145.88,443.95 145.88,443.95 C145.88,443.95 162.21,421.13 157.15,413.33 Z" id="Shape" fill="#000000" opacity="0.1"></path>
                <path d="M151.81,336.32 C151.91,335.9 141.11,346.91 138.23,348.55 C135.35,350.19 148.73,348.46 151.81,336.32 Z" id="Shape" fill="#000000" opacity="0.1"></path>
                <path d="M121.73,411.59 C121.73,411.59 105.26,422.25 107.42,426.45 C109.58,430.65 121.73,411.59 121.73,411.59 Z" id="Shape" fill="#000000" opacity="0.1"></path>
                <path d="M151.66,567.04 C151.66,567.04 165.66,576.04 187.49,578.31 L151.66,567.04 Z" id="Shape" fill="#000000" opacity="0.1"></path>
                <path d="M118,588.71 C118,588.71 131,605.03 136.93,605.47 C142.86,605.91 118,588.71 118,588.71 Z" id="Shape" fill="#000000" opacity="0.1"></path>
                <path d="M136.2,652.71 C135.62,653 128.83,667.44 121.9,667.88 C114.97,668.32 136.2,652.71 136.2,652.71 Z" id="Shape" fill="#000000" opacity="0.1"></path>
                <path d="M196.45,684.34 C196.45,684.34 209.33,681.46 212.19,690.7 C212.19,690.7 211.33,687.81 196.45,684.34 Z" id="Shape" fill="#000000" opacity="0.1"></path>
                <path d="M187.78,737.22 C187.78,737.22 203.38,734.04 206.7,738.38 C210.02,742.72 187.78,737.22 187.78,737.22 Z" id="Shape" fill="#000000" opacity="0.1"></path>
                <path d="M143.62,744.59 C143.62,744.73 127.73,747.77 128.36,749.79 C128.99,751.81 145.3,751.52 145.88,748.34 C146.105689,747.541774 145.990796,746.685729 145.562621,745.975261 C145.134445,745.264792 144.431208,744.763322 143.62,744.59 L143.62,744.59 Z" id="Shape" fill="#000000" opacity="0.1"></path>
                <path d="M182.58,758.31 C182.58,758.31 208.68,755.13 207.04,760.62 C205.4,766.11 182.58,758.31 182.58,758.31 Z" id="Shape" fill="#000000" opacity="0.1"></path>
                <path d="M45.91,436.73 C46.06,437.16 63.1,439.47 65.41,444.96 C65.41,444.96 48.66,437.16 46.06,437.16" id="Shape" fill="#000000" opacity="0.1"></path>
                <path d="M69.89,481.37 C69.89,481.37 55.73,485.85 56.73,492.64 C57.73,499.43 55.3,489.47 69.89,481.37 Z" id="Shape" fill="#000000" opacity="0.1"></path>
                <path d="M63.29,515.75 C63.29,515.75 68.45,508.67 73.36,509.97 C78.27,511.27 63.29,515.75 63.29,515.75 Z" id="Shape" fill="#000000" opacity="0.1"></path>
                <path d="M144.16,249.06 C143.660908,249.541371 143.103187,249.957982 142.5,250.3 C138.39,252.68 137.29,256.3 135.32,260.57 C133.52,264.44 131.53,268.57 127.88,270.73 C123.18,273.56 116.98,272.52 112.09,275 C107.65712,277.322887 105.071766,282.098282 105.55,287.08 C105.867823,288.95785 106.335996,290.807132 106.95,292.61 C108.053272,296.511105 108.555704,300.557539 108.44,304.61 C108.454773,304.732891 108.454773,304.857109 108.44,304.98 C97.0107083,299.277492 89.8376508,287.552788 89.9642474,274.780503 C90.0908439,262.008217 97.4948956,250.427999 109.034975,244.953159 C120.575055,239.478319 134.227584,241.068884 144.2,249.05 L144.16,249.06 Z" id="Shape" fill="#000000" opacity="0.1"></path>
                <path d="M143.29,239.02 C139.62,231.31 131.65,226.44 123.45,224.02 C117.19,222.21 110.4,221.62 104.19,223.61 C100.65,224.74 97.42,226.61 94.11,228.33 C87.92,231.46 81.11,233.93 76.46,239.07 C75.38,240.26 74.38,241.8 74.7,243.38 C74.94,244.56 75.86,245.46 76.45,246.51 C77.78,248.85 77.45,251.8 76.54,254.35 C75.63,256.9 74.3,259.28 73.66,261.9 C73.02,264.52 73.27,267.59 75.21,269.46 C76.1472875,270.202593 77.1218903,270.896831 78.13,271.54 C79.1898212,272.461628 80.1214358,273.521045 80.9,274.69 L86.41,282.22 C89.001462,285.561864 91.3094734,289.114195 93.31,292.84 C94.69,295.57 95.75,298.49 97.58,300.93 C99.41,303.37 102.28,305.33 105.32,305.06 C105.796678,305.076032 106.251506,304.859802 106.54,304.48 C106.659515,304.241659 106.71467,303.976223 106.7,303.71 C106.824405,299.65713 106.321808,295.609373 105.21,291.71 C104.595996,289.907132 104.127823,288.05785 103.81,286.18 C103.334563,281.19885 105.919125,276.424918 110.35,274.1 C115.25,271.63 121.45,272.67 126.15,269.84 C129.8,267.63 131.79,263.54 133.59,259.67 C135.59,255.44 136.66,251.78 140.77,249.4 C144.88,247.02 145.32,243.07 143.29,239.02 Z" id="Shape" fill="#585268"></path>
                <path d="M128.34,784.5 C128.34,784.5 133.42,791 132.12,794.68 C130.82,798.36 128.34,784.5 128.34,784.5 Z" id="Shape" fill="#000000" opacity="0.1"></path>
                <path d="M197.41,800.75 C197.41,800.75 198.54,792.03 203.09,791.95 C207.64,791.87 207.86,791.48 211.33,792.81 C214.8,794.14 218.05,796.22 217.02,796.54 C215.99,796.86 211.02,791.54 206.02,794.25 C202.843399,795.977482 199.941607,798.168149 197.41,800.75 Z" id="Shape" fill="#000000" opacity="0.1"></path>
                <path d="M113.11,338.15 L127.35,328.15 C127.35,328.15 106.44,315.79 103.95,317.53 C101.46,319.27 99.75,334.87 99.75,334.87 L113.11,338.15 Z" id="Shape" fill="#000000" opacity="0.1"></path>
                <path d="M113.05,337.5 L127.35,327.26 C127.35,327.26 106.44,314.91 103.95,316.64 C101.46,318.37 99.75,334.85 99.75,334.85 L113.05,337.5 Z" id="Shape" fill="#E1E7EF"></path>
                <path d="M113.05,337.5 L127.35,327.26 C127.35,327.26 106.44,314.91 103.95,316.64 C101.46,318.37 99.75,334.85 99.75,334.85 L113.05,337.5 Z" id="Shape" fill="#000000" opacity="0.03"></path>
                <path d="M106.31,316.76 L105.88,316.54 C104.580831,315.877196 103.013163,316.041801 101.88,316.96 L59,351.75 C59,351.75 49.68,364.64 51,386.89 L76.28,422.72 C76.28,422.72 79.17,410.58 82.64,412.89 C82.64,412.89 87.55,475.01 82.64,483.97 C77.73,492.93 75.56,526.44 75.56,526.44 L92.17,528.32 C92.17,528.32 93.9,505.64 97.8,497.55 C101.7,489.46 103.8,461.66 103.8,461.66 C103.8,461.66 107.31,421.27 106.73,403.92 C106.15,386.57 101.1,349.32 101.1,349.32 C101.1,349.32 102.51,327.48 106.31,316.76 Z" id="Shape" fill="#C2405B"></path>
                <path d="M149.02,331.81 L131.21,325.21 C131.21,325.21 153.9,300.37 156.72,314.15 L149.02,331.81 Z" id="Shape" fill="#000000" opacity="0.1"></path>
                <path d="M149.02,330.92 L131.21,324.33 C131.21,324.33 153.9,299.48 156.72,313.26 L149.02,330.92 Z" id="Shape" fill="#E1E7EF"></path>
                <path d="M149.02,330.92 L131.21,324.33 C131.21,324.33 153.9,299.48 156.72,313.26 L149.02,330.92 Z" id="Shape" fill="#000000" opacity="0.03"></path>
                <path d="M148.45,309.81 C148.703571,309.764073 148.965083,309.817808 149.18,309.96 L148.45,309.81 Z" id="Shape" fill="#000000" opacity="0.1"></path>
                <path d="M150.18,308.07 L197.46,318.27 C197.46,318.27 210.46,321.16 219.85,353.8 C229.24,386.44 206.99,426.45 206.99,426.45 L202.08,422.28 L204.54,517.63 C204.54,517.63 182.72,525.86 175.79,518.63 C168.86,511.4 169.57,477.63 169.57,477.63 C169.57,477.63 162.93,415.2 158.73,404.92 C154.53,394.64 156.73,320.69 156.73,320.69 C156.73,320.69 152.82,307.5 150.18,308.07 Z" id="Shape" fill="#C2405B"></path>
                <path d="M193.41,368.83 C192.74,369.45 191.97,398.3 194.86,420.26 C196.633433,433.633322 199.370556,446.861075 203.05,459.84 L198.76,371.84 C198.76,371.84 195.43,366.92 193.41,368.83 Z" id="Shape" fill="#000000" opacity="0.1"></path>
                <path d="M187.63,343.98 C188.79,344.7 193.85,356.69 191.53,361.61 C189.21,366.53 187.63,343.98 187.63,343.98 Z" id="Shape" fill="#000000" opacity="0.1"></path>
                <path d="M143.01,239.02 C140.694497,234.448703 137.079819,230.663554 132.62,228.14 C135.931166,230.501282 138.607221,233.644529 140.41,237.29 C142.41,241.34 141.85,245.4 137.88,247.7 C133.91,250 132.67,253.7 130.71,257.97 C128.91,261.84 126.91,265.97 123.26,268.13 C118.56,270.97 112.37,269.93 107.47,272.39 C103.037518,274.718371 100.453122,279.495946 100.93,284.48 C101.243076,286.358848 101.711346,288.208514 102.33,290.01 C103.439852,293.909613 103.939101,297.957582 103.81,302.01 C103.827307,302.275312 103.775631,302.540585 103.66,302.78 C103.371506,303.159802 102.916678,303.376032 102.44,303.36 C101.215987,303.456012 99.9882511,303.228398 98.88,302.7 C100.513408,304.315887 102.744186,305.1814 105.04,305.09 C105.516678,305.106032 105.971506,304.889802 106.26,304.51 C106.374996,304.270109 106.429908,304.005845 106.42,303.74 C106.539471,299.687361 106.036967,295.640356 104.93,291.74 C104.311346,289.938514 103.843076,288.088848 103.53,286.21 C103.054563,281.22885 105.639125,276.454918 110.07,274.13 C114.97,271.66 121.16,272.7 125.86,269.87 C129.51,267.66 131.51,263.57 133.31,259.7 C135.31,255.47 136.37,251.81 140.48,249.43 C144.59,247.05 145.03,243.07 143.01,239.02 Z" id="Shape" fill="#000000" opacity="0.1"></path>
                <ellipse id="Oval" fill="#3FA34D" opacity="0.1" cx="968.23" cy="761.73" rx="41" ry="5.63"></ellipse>
                <ellipse id="Oval" fill="#3FA34D" opacity="0.1" cx="646.82" cy="814.56" rx="29.14" ry="4"></ellipse>
                <ellipse id="Oval" fill="#3FA34D" opacity="0.1" cx="386.08" cy="784.91" rx="29.14" ry="4"></ellipse>
                <path d="M402.13,775.81 C403.965873,774.314492 405.301976,772.294639 405.96,770.02 C406.46,767.73 405.48,764.97 403.28,764.13 C400.82,763.19 398.19,764.9 396.2,766.62 C394.21,768.34 391.92,770.31 389.32,769.94 C392.045285,767.464241 393.274683,763.741895 392.56,760.13 C392.441966,759.395528 392.131429,758.705445 391.66,758.13 C390.29,756.67 387.81,757.3 386.18,758.45 C380.98,762.1 379.53,769.17 379.5,775.52 C378.98,773.23 379.42,770.84 379.4,768.52 C379.38,766.2 378.75,763.52 376.76,762.3 C375.536943,761.622898 374.157804,761.278114 372.76,761.3 C370.43,761.21 367.82,761.45 366.23,763.16 C364.23,765.28 364.76,768.84 366.48,771.16 C368.2,773.48 370.83,774.97 373.25,776.58 C375.185902,777.734273 376.836796,779.309971 378.08,781.19 C378.229817,781.452756 378.350531,781.731069 378.44,782.02 L393.1,782.02 C396.372865,780.360942 399.409673,778.272506 402.13,775.81 L402.13,775.81 Z" id="Shape" fill="#3FA34D"></path>
                <path d="M984.86,754.71 C986.707341,753.217139 988.057046,751.197814 988.73,748.92 C989.23,746.63 988.25,743.92 986.05,743.03 C983.59,742.09 980.96,743.8 978.97,745.52 C976.98,747.24 974.69,749.21 972.08,748.84 C974.813924,746.369862 976.044971,742.642525 975.32,739.03 C975.212193,738.292503 974.900475,737.599796 974.42,737.03 C973.06,735.57 970.58,736.2 968.95,737.35 C963.75,741 962.3,748.07 962.27,754.42 C961.74,752.13 962.19,749.74 962.17,747.42 C962.15,745.1 961.51,742.42 959.53,741.2 C958.306943,740.522898 956.927804,740.178114 955.53,740.2 C953.19,740.11 950.59,740.35 948.99,742.06 C946.99,744.18 947.52,747.74 949.25,750.06 C950.98,752.38 953.6,753.87 956.02,755.48 C957.955902,756.634273 959.606796,758.209971 960.85,760.09 C960.995704,760.354794 961.116233,760.632679 961.21,760.92 L975.86,760.92 C979.123443,759.260503 982.150276,757.171989 984.86,754.71 L984.86,754.71 Z" id="Shape" fill="#3FA34D"></path>
                <path d="M654.73,801.46 C656.565312,799.962048 657.904048,797.943486 658.57,795.67 C659.06,793.37 658.08,790.67 655.89,789.78 C653.43,788.84 650.8,790.54 648.81,792.27 C646.82,794 644.53,795.95 641.92,795.59 C644.650456,793.117604 645.880841,789.392274 645.16,785.78 C645.046694,785.04412 644.735618,784.35284 644.26,783.78 C642.89,782.32 640.42,782.95 638.78,784.1 C633.58,787.76 632.13,794.82 632.1,801.18 C631.58,798.89 632.02,796.5 632.01,794.18 C632,791.86 631.35,789.18 629.37,787.96 C628.145749,787.285932 626.76743,786.941352 625.37,786.96 C623.03,786.88 620.43,787.11 618.83,788.82 C616.83,790.95 617.36,794.51 619.09,796.82 C620.82,799.13 623.44,800.62 625.85,802.24 C627.811643,803.408273 629.480708,805.008933 630.73,806.92 C630.873906,807.182202 630.994374,807.456602 631.09,807.74 L645.73,807.74 C648.999572,806.062269 652.027047,803.949764 654.73,801.46 L654.73,801.46 Z" id="Shape" fill="#3FA34D"></path>
                <path d="M948.59,345.16 C935.47,344.9 923.89,335.6 917.33,324.32 C915.611726,321.625814 914.530955,318.575029 914.17,315.4 C914.215909,314.676164 914.336551,313.959016 914.53,313.26 C914.951153,312.202238 915.285589,311.111978 915.53,310 C915.585019,309.555028 915.585019,309.104972 915.53,308.66 C915.53,308.66 915.53,308.66 915.53,308.6 C915.85,306.18 914.43,303.85 912.65,302.18 C910.87,300.51 908.7,299.3 906.87,297.69 C901.23,292.74 899.52,284.8 899.41,277.24 C899.41,277.11 899.41,276.98 899.41,276.84 C899.47,273.61 899.73,270.36 899.7,267.12 C899.745079,265.280016 899.664893,263.439096 899.46,261.61 C898.92,257.03 897.18,252.37 893.58,249.45 C884.19,241.84 868.4,249.76 858.69,242.56 C856.32,240.81 854.41,238.2 851.55,237.56 C849.38,237.04 847.13,237.74 845.02,238.44 C837.86,240.8 829.88,243.91 827.08,250.87 C825.48,254.87 825.93,259.36 824.46,263.38 C823.46,266.07 821.69,268.38 820.37,270.94 C819.281482,272.859474 818.75152,275.045137 818.84,277.25 C818.729098,278.391401 818.890162,279.542839 819.31,280.61 C819.804521,281.884584 820.600575,283.020333 821.63,283.92 C821.253603,284.71322 820.783592,285.458524 820.23,286.14 C818.4,288.38 815.59,289.98 813.69,292.14 C810.17,296.22 810.3,301.77 812.04,306.57 C813.78,311.37 816.9,315.74 819.04,320.41 C819.97,322.41 820.72,324.71 819.75,326.73 C819.08,328.13 817.68,329.19 816.59,330.4 C814.993468,332.191309 813.993926,334.435038 813.73,336.82 C792.3,341.71 792.29,358.92 792.29,358.92 L792.29,358.92 L780.73,388.06 C780.73,388.06 778.88,392.96 776.73,399.43 L763.03,396.98 L772.49,412.92 C770.68,419.41 769.41,425.43 769.83,428.45 C769.83,428.45 765.58,448.45 773.14,451.94 L789.84,459.45 C790.560605,459.887482 791.337863,460.223957 792.15,460.45 L792.83,460.75 C793.321958,460.99151 793.898042,460.99151 794.39,460.75 L794.48,460.75 L794.66,460.75 C794.999744,460.784556 795.342808,460.736527 795.66,460.61 C796.035067,460.413705 796.328949,460.091497 796.49,459.7 C796.493765,459.670118 796.493765,459.639882 796.49,459.61 L801.49,458.16 L805.73,463.16 C807.64,464.5 809.51,465.67 811.34,466.72 L804.82,531.92 C804.82,531.92 803.76,618.58 800.57,638.31 C799.38,645.62 799.37,650.6 799.82,653.99 L799.7,654.21 C800.49,659.78 802.54,660.88 802.54,660.88 L802.54,660.8 L802.66,660.88 C803.625932,658.351059 804.772213,655.894742 806.09,653.53 C806.09,653.99 806.09,654.46 806.09,654.95 C806.03,662.31 805.8,672.6 805.09,679.29 C803.79,690.67 808.4,728.37 808.4,728.37 L809.99,762.67 C810.248005,768.489163 808.898687,774.267011 806.09,779.37 C802.32,786.22 797.41,795.85 797.09,800.12 C797.075324,800.353103 797.075324,800.586897 797.09,800.82 L797.09,800.82 L788.73,810.55 C788.73,810.55 785.53,815.48 792.73,817.47 C796.6,818.55 803.29,817.47 808.65,816.2 C813.476288,815.09238 816.900504,810.801746 816.91,805.85 C818.290974,801.12534 820.610541,796.727686 823.73,792.92 L825.08,800.81 L834.08,803.04 L835.23,781.41 C835.697416,780.19292 835.908489,778.892436 835.85,777.59 L835.85,777.59 C837.62,762.21 831.68,763.59 831.68,763.59 C831.830808,763.735206 831.932241,763.924082 831.97,764.13 C831.87,763.96 831.77,763.78 831.68,763.6 L831.68,763.6 C828.03,756.4 829.82,744.6 829.82,744.6 C829.82,744.6 834.55,710.32 836.21,701.27 C837.38,694.88 836.9,673.94 836.51,662.21 C836.51,661.72 836.51,661.21 836.46,660.8 C850.39,660.62 867.46,660.14 879.46,658.98 L879.46,660.4 L877.24,741.4 C877.090907,746.561181 876.045327,751.65711 874.15,756.46 C874.15,756.55 874.07,756.64 874.04,756.73 C871.384875,763.496911 869.870982,770.657489 869.56,777.92 L868.56,803.66 L868.56,804.37 L868.56,804.37 C866.77,805.06 863.95,807.05 863.87,812.82 C863.75,821.27 878.64,818.45 878.64,818.45 C893.53,818.45 893.64,802.95 893.64,802.95 C893.64,802.95 894.12,788.74 894.82,779.23 C895.52,769.72 892.58,771.82 892.58,771.82 L892.36,798.82 C892.36,798.89 892.36,798.96 892.36,799.03 L892.36,775.32 L892.59,771.88 L892.59,771.78 L892.59,771.78 L892.64,771.05 L894.49,743.15 C894.49,743.15 908.2,696.65 910.33,687.73 C911.84,681.4 911.21,662.3 910.71,651.73 C910.71,651.24 910.71,650.78 910.65,650.33 C914.89,649.95 918.65,649.91 920.16,649.91 L920.85,649.91 C920.85,649.91 920.14,575.23 918.37,547.05 C916.6,518.87 913.76,493.15 906.66,485.4 C902.38,480.72 896.41,466.26 892.35,455.55 C900.817205,459.217043 909.604369,462.095885 918.6,464.15 C941.06,468.85 937.99,449.35 937.99,449.35 L935.71,412.48 L935.86,412.48 C935.778138,402.82042 934.948997,393.181654 933.38,383.65 C932.2,376.34 930.38,368.78 927.6,362.65 C930.04,361.72 932.44,360.65 934.8,359.65 C940.9,356.96 947.8,353.14 948.66,346.56 L948.36,346.56 C948.472746,346.099981 948.549643,345.631911 948.59,345.16 Z M809.37,398.5 L809.37,398.5 C809.43,402.31 809.28,408.91 809.06,416.22 L801.93,406.7 L809.08,395.1 L809.37,398.5 Z M907.93,432.21 L896.05,428.39 C898.158928,425.105229 900.620177,422.060524 903.39,419.31 L904.39,418.31 L904.02,418.39 L904.6,417.87 L904.94,417.79 L904.39,418.31 L905.04,418.18 C905.757533,421.16452 907.142224,423.947579 909.09,426.32 C913.33,431.04 907.89,432.21 907.89,432.21 L907.93,432.21 Z" id="Shape" fill="url(#linearGradient-5)"></path>
                <polygon id="Shape" fill="#A27772" points="835.72 774.95 834.32 801.29 825.46 799.08 823.59 788.12"></polygon>
                <polygon id="Shape" fill="#000000" opacity="0.1" points="835.72 774.95 834.32 801.29 825.46 799.08 823.59 788.12"></polygon>
                <path d="M868.24,804.79 L881.76,807.59 L891.76,798.73 L891.76,773.78 L891.98,770.37 L891.98,770.27 L891.98,770.27 L892.03,769.55 L893.85,741.85 C893.85,741.85 907.37,695.68 909.47,686.85 C910.96,680.56 910.34,661.59 909.85,651.11 C909.65,646.81 909.47,643.94 909.47,643.94 L879.63,636.71 L879,659.71 L876.82,740.11 C876.671232,745.232679 875.635917,750.290838 873.76,755.06 L873.66,755.33 C871.061511,762.065584 869.598319,769.185554 869.33,776.4 L868.33,801.95 L868.33,802.66 L868.24,804.79 Z" id="Shape" fill="#8F5F55"></path>
                <polygon id="Shape" fill="#000000" opacity="0.1" points="892.02 769.56 892.02 770.27 892.02 770.27 892.07 769.55"></polygon>
                <path d="M868.24,804.79 L881.76,807.59 L891.76,798.73 L891.76,796.61 C891.697715,797.567594 891.156062,798.428973 890.32,798.9 L890.18,798.98 C885.523228,801.445712 880.244642,802.488911 875,801.98 L869.72,801.53 C869.243897,801.582654 868.776653,801.696944 868.33,801.87 L868.33,802.58 L868.24,804.79 Z" id="Shape" fill="#000000" opacity="0.1"></path>
                <path d="M890.21,799.68 L890.35,799.6 C891.248177,799.09834 891.803367,798.148773 891.8,797.12 L892.02,770.26 C892.02,770.26 894.94,768.19 894.24,777.63 C893.54,787.07 893.07,801.18 893.07,801.18 C893.07,801.18 892.96,816.57 878.27,816.57 C878.27,816.57 863.58,819.36 863.69,810.97 C863.8,802.58 869.76,802.23 869.76,802.23 L875.03,802.69 C880.275305,803.18934 885.552093,802.14302 890.21,799.68 Z" id="Shape" fill="#B07473"></path>
                <path d="M797.83,799.08 C798.18,805.14 816.01,801.64 816.01,801.64 L828.01,778.33 C828.01,778.33 838.01,770.63 833.01,763.87 C832.738082,763.503516 832.490868,763.119333 832.27,762.72 L832.27,762.66 L832.27,762.66 C832.16,762.48 832.07,762.3 831.97,762.11 L831.97,762.11 C828.37,754.97 830.14,743.26 830.14,743.26 C830.14,743.26 834.8,709.26 836.44,700.26 C837.59,693.91 837.12,673.12 836.73,661.48 C836.58,656.65 836.44,653.39 836.44,653.39 L806.82,645.47 C806.82,645.47 806.82,649.16 806.82,654.3 C806.76,661.6 806.54,671.82 805.82,678.46 C804.54,689.77 809.09,727.19 809.09,727.19 L810.66,761.25 C810.88366,767.015458 809.524527,772.732115 806.73,777.78 C803.01,784.58 798.17,794.15 797.83,798.39 C797.810125,798.619571 797.810125,798.850429 797.83,799.08 L797.83,799.08 Z" id="Shape" fill="#8F5F55"></path>
                <path d="M797.83,799.08 C798.18,805.14 816.01,801.64 816.01,801.64 L828.01,778.33 C828.01,778.33 838.01,770.63 833.01,763.87 C832.738082,763.503516 832.490868,763.119333 832.27,762.72 C832.11,766.25 828.27,775.06 828.27,775.06 C828.27,775.06 818.36,794.89 815.27,799.43 C812.18,803.97 798.42,798.59 797.91,798.43 C797.865611,798.644116 797.838855,798.861511 797.83,799.08 Z" id="Shape" fill="#000000" opacity="0.1"></path>
                <path d="M831.95,762.09 C831.95,762.09 837.81,760.73 836.07,776 L836.07,776 C836.199363,779.533704 834.424637,782.865609 831.42,784.73 C827.23,787.37 820.75,793.04 817.48,804.07 L817.48,804.07 C817.485122,808.973989 814.113484,813.236171 809.34,814.36 C804.05,815.59 797.45,816.68 793.63,815.61 C786.52,813.61 789.63,808.74 789.63,808.74 L797.79,799.06 C797.79,799.06 812.01,804.66 815.16,800.11 C818.31,795.56 828.16,775.74 828.16,775.74 C828.16,775.74 833.73,763.37 831.95,762.09 Z" id="Shape" fill="#B07473"></path>
                <path d="M879.67,639.48 L879.04,662.48 C887.04,661.71 892.68,660.63 893.66,659.12 C895.75,655.87 903.39,654.49 909.89,653.93 C909.69,649.63 909.51,646.76 909.51,646.76 L879.67,639.48 Z" id="Shape" fill="#000000" opacity="0.1"></path>
                <path d="M806.79,657.06 C807.557121,655.50917 808.677076,654.159745 810.06,653.12 C813.21,651.37 812.87,664.31 812.87,664.31 C812.87,664.31 823.32,664.41 836.71,664.24 C836.56,659.4 836.42,656.15 836.42,656.15 L806.8,648.23 C806.8,648.23 806.84,651.92 806.79,657.06 Z" id="Shape" fill="#000000" opacity="0.1"></path>
                <path d="M803.42,660.14 C803.42,660.14 806.92,650.67 810.06,648.93 C813.2,647.19 812.87,660.12 812.87,660.12 C812.87,660.12 889.81,660.82 893.66,654.87 C897.51,648.92 919.89,649.28 919.89,649.28 C919.89,649.28 919.19,575.13 917.44,547.15 C915.69,519.17 912.89,493.64 905.9,485.95 C901.37,480.95 894.9,464.86 890.96,454.12 C888.79,448.25 887.36,443.98 887.36,443.98 L813.92,448.18 L813.32,454.12 L805.52,532.12 C805.52,532.12 804.52,618.12 801.32,637.74 C798.12,657.36 803.42,660.14 803.42,660.14 Z" id="Shape" fill="#444053"></path>
                <g id="Group" opacity="0.1" transform="translate(800.000000, 444.000000)" fill="#000000">
                    <path d="M87.73,210.92 C91.57,204.98 113.96,205.33 113.96,205.33 C113.96,205.33 113.26,131.18 111.51,103.2 C109.76,75.22 106.96,49.69 99.97,42 C95.44,37 88.97,20.91 85.03,10.17 C83.21,5.24 81.91,1.44 81.54,0.35 L87.24,0.03 C87.24,0.03 88.67,4.3 90.84,10.17 C94.84,20.91 101.25,37.02 105.78,42 C112.78,49.69 115.57,75.22 117.32,103.2 C119.07,131.18 119.73,205.28 119.73,205.28 C119.73,205.28 97.35,204.92 93.51,210.92 C90.22,216 33.6,216.23 17.16,216.19 C38.24,216.09 84.73,215.46 87.73,210.92 Z" id="Shape"></path>
                    <path d="M4.1,204.92 C5.52,204.13 6.23,206.32 6.58,208.92 C5.3115847,211.22683 4.20556899,213.619299 3.27,216.08 C3.27,216.08 1.27,214.99 0.47,209.46 C1.58,207.49 2.87,205.61 4.1,204.92 Z" id="Shape"></path>
                </g>
                <path d="M826.11,264.58 C821.03,271.52 826.17,281.37 820.72,288.11 C818.92,290.34 816.15,291.93 814.27,294.11 C810.79,298.17 810.93,303.67 812.64,308.44 C814.35,313.21 817.44,317.54 819.56,322.18 C820.48,324.18 821.22,326.45 820.27,328.45 C819.61,329.84 818.27,330.89 817.15,332.1 C813.65,336.01 813.55,341.45 815.43,346.05 C817.31,350.65 820.92,354.64 824.43,358.52 C825.83,360.06 827.6,361.75 829.93,361.71 C831.15753,361.610316 832.34363,361.219521 833.39,360.57 C841.684755,356.202834 847.977447,348.80704 850.96,339.92 C853.481075,331.559381 852.949453,322.574966 849.46,314.57 C846.46,307.5 841.58,300.72 841.54,293.24 C841.54,287.31 844.59,281.65 845.13,275.74 C845.79,268.57 841.54,257.17 832.88,254.04 C833.45,258.67 828.73,261.06 826.11,264.58 Z" id="Shape" fill="#2B2A2D"></path>
                <path d="M826.11,264.58 C821.03,271.52 826.17,281.37 820.72,288.11 C818.92,290.34 816.15,291.93 814.27,294.11 C810.79,298.17 810.93,303.67 812.64,308.44 C814.35,313.21 817.44,317.54 819.56,322.18 C820.48,324.18 821.22,326.45 820.27,328.45 C819.61,329.84 818.27,330.89 817.15,332.1 C813.65,336.01 813.55,341.45 815.43,346.05 C817.31,350.65 820.92,354.64 824.43,358.52 C825.83,360.06 827.6,361.75 829.93,361.71 C831.15753,361.610316 832.34363,361.219521 833.39,360.57 C841.684755,356.202834 847.977447,348.80704 850.96,339.92 C853.481075,331.559381 852.949453,322.574966 849.46,314.57 C846.46,307.5 841.58,300.72 841.54,293.24 C841.54,287.31 844.59,281.65 845.13,275.74 C845.79,268.57 841.54,257.17 832.88,254.04 C833.45,258.67 828.73,261.06 826.11,264.58 Z" id="Shape" fill="#2B2A2D" opacity="0.1"></path>
                <path d="M882.5,516.7 C872.32,517.24 862.74,521.61 853.83,526.56 C844.92,531.51 836.3,537.16 826.71,540.64" id="Shape" fill="#000000" opacity="0.1"></path>
                <path d="M876.17,540.68 C866.098685,541.6463 856.712441,546.208071 849.73,553.53 C847.26,556.15 845.13,559.09 842.55,561.6 C838.594915,565.443112 833.713767,568.198877 828.38,569.6" id="Shape" fill="#000000" opacity="0.1"></path>
                <path d="M878.26,558.92 C870.141299,561.172891 862.793049,565.602589 857.01,571.73 C855.45,573.41 854.01,575.22 852.47,576.89 C844.04,585.89 832.14,590.74 820.65,595.28" id="Shape" fill="#000000" opacity="0.1"></path>
                <path d="M877.39,305.83 C877.617788,313.963892 878.318974,322.077622 879.49,330.13 C880.43,335.87 881.77,340.98 883.69,343.25 C889.28,349.9 856.41,358.82 856.41,358.82 L837,343.82 C837,343.82 852.39,329.65 845.22,315.82 C838.05,301.99 877.39,305.83 877.39,305.83 Z" id="Shape" fill="#8F5F55"></path>
                <path d="M813.32,454.12 L890.96,454.12 C888.79,448.25 887.36,443.98 887.36,443.98 L813.92,448.18 L813.32,454.12 Z" id="Shape" fill="#000000" opacity="0.1"></path>
                <path d="M808.32,452.72 L891.32,452.72 C888.99,444.38 891.32,436.65 894.65,430.72 C896.977031,426.553667 899.905131,422.752866 903.34,419.44 L903.91,418.93 L932.91,412.5 L934.47,412.16 C934.47,412.16 934.7,359.47 916.05,352.24 C897.4,345.01 886.2,335.24 886.2,335.24 L860.56,343.16 L841.67,333.61 C835.61,340.14 819.52,337.61 819.52,337.61 C793.17,340.61 793.17,360.46 793.17,360.46 C793.17,360.46 808.56,396.37 809.73,396.37 C810.9,396.37 808.32,452.72 808.32,452.72 Z" id="Shape" fill="#030DC5"></path>
                <path d="M836.98,419.22 C836.98,419.22 820.05,415.47 814.29,408.91" id="Shape" fill="#000000" opacity="0.1"></path>
                <path d="M922.33,399.56 L902.73,415.65 C902.872271,416.921668 903.089313,418.183853 903.38,419.43 L903.95,418.92 L932.95,412.49 L922.33,399.56 Z" id="Shape" fill="#000000" opacity="0.1"></path>
                <path d="M869.17,447.13 C869.17,447.13 873.47,449.55 880.05,452.72 L891.33,452.72 C889,444.38 891.33,436.65 894.66,430.72 L874.73,424.27 C881.53,430.57 869.17,447.13 869.17,447.13 Z" id="Shape" fill="#000000" opacity="0.1"></path>
                <path d="M804.82,354.1 L793.16,360.39 L781.73,389.3 C781.73,389.3 769.84,421.01 771,429.41 C771,429.41 766.81,449.22 774.27,452.72 L793.73,461.52 C794.432835,461.83893 795.260773,461.674289 795.78812,461.110731 C796.315466,460.547172 796.424838,459.710137 796.06,459.03 C793.29,453.78 790.25,445.58 795.06,441.03 L789.46,429.38 L809.73,396.3 L816.48,384.92 L804.82,354.1 Z" id="Shape" fill="#100F12"></path>
                <path d="M830.73,412.6 C831.73,416.72 835.15,423.05 846.43,425.44 L858.85,435.58 L872.02,441.58 L877.38,444.01 L879.66,427.57 L874.49,424.74 L868.49,421.45 C868.49,421.45 854.9,396.81 833.37,407.22 C831.332694,408.167701 830.233018,410.408708 830.73,412.6 L830.73,412.6 Z" id="Shape" fill="#000000" opacity="0.1"></path>
                <path d="M831.44,411.2 C832.44,415.32 835.86,421.65 847.14,424.04 L859.56,434.19 L872.73,440.19 L878.09,442.62 L880.37,426.18 L875.2,423.36 L869.2,420.06 C869.2,420.06 855.61,395.43 834.08,405.83 C832.04706,406.776839 830.948228,409.011962 831.44,411.2 L831.44,411.2 Z" id="Shape" fill="#8F5F55"></path>
                <circle id="Oval" fill="#000000" opacity="0.1" cx="855.7" cy="297.09" r="30.08"></circle>
                <circle id="Oval" fill="#8F5F55" cx="855.7" cy="296.39" r="30.08"></circle>
                <path d="M874.33,360.65 L865.33,343.07 C865.33,343.07 878.57,337.73 879.53,331.53 C880.49,325.33 892.21,338.79 889.67,343.25 C887.13,347.71 874.33,360.65 874.33,360.65 Z" id="Shape" fill="#000000" opacity="0.1"></path>
                <path d="M874.33,359.25 L865.33,341.67 C865.33,341.67 878.57,336.33 879.53,330.13 C880.49,323.93 892.21,337.4 889.67,341.85 C887.13,346.3 874.33,359.25 874.33,359.25 Z" id="Shape" fill="#67647E"></path>
                <path d="M800.32,404.65 L850.32,471.84 C850.32,471.84 831.9,481.84 806.48,463.91 L795.48,450.86 L764.23,398.16 L800.32,404.65 Z" id="Shape" fill="#F6F8FB"></path>
                <path d="M790.48,441.18 L795.03,441.06 C795.03,441.06 822.83,414.06 829.65,427.72 C836.47,441.38 812.34,454.12 812.34,454.12 L805,458.12 L795.38,460.92 L789.26,452.7 L790.48,441.18 Z" id="Shape" fill="#8F5F55"></path>
                <path d="M797.19,455.76 C797.61,457.31 798.01,459.02 797.31,460.46 C797.148453,460.848703 796.85438,461.167577 796.48,461.36 C796.164128,461.49143 795.819821,461.539633 795.48,461.5 C793.071746,461.294132 790.831135,460.18276 789.21,458.39 C787.609988,456.610118 786.24239,454.634325 785.14,452.51 C783.9,450.36 782.61,447.96 783.06,445.51 C783.55,442.83 785.94,440.97 788.22,439.51 C792.83,436.46 792.94,440.01 793.99,443.93 L797.19,455.76 Z" id="Shape" fill="#000000" opacity="0.1"></path>
                <path d="M796.49,455.76 C796.91,457.31 797.31,459.02 796.61,460.46 C796.448453,460.848703 796.15438,461.167577 795.78,461.36 C795.464128,461.49143 795.119821,461.539633 794.78,461.5 C792.371746,461.294132 790.131135,460.18276 788.51,458.39 C786.909988,456.610118 785.54239,454.634325 784.44,452.51 C783.2,450.36 781.91,447.96 782.36,445.51 C782.85,442.83 785.24,440.97 787.52,439.51 C792.13,436.46 792.24,440.01 793.29,443.93 L796.49,455.76 Z" id="Shape" fill="#67647E"></path>
                <polygon id="Shape" fill="#000000" opacity="0.1" points="809.72 396.3 812.05 392.37 810.01 399.67"></polygon>
                <path d="M872.73,440.15 L878.09,442.58 L880.37,426.14 L875.2,423.32 C878.73,427.38 875.64,434.92 872.73,440.15 Z" id="Shape" fill="#000000" opacity="0.1"></path>
                <path d="M894.24,421.07 C894.24,421.07 876.93,422.12 869.59,417.4" id="Shape" fill="#000000" opacity="0.1"></path>
                <g id="Group" opacity="0.1" transform="translate(818.000000, 335.000000)" fill="#000000">
                    <path d="M74.09,97.11 C76.4230021,92.9449296 79.3541863,89.1444977 82.79,85.83 C83.6141498,85.3118451 84.4690626,84.8443146 85.35,84.43 L112.35,78.89 L113.91,78.55 C113.91,78.55 114.15,25.86 95.49,18.63 C85.0330696,14.6418909 75.228751,9.11790395 66.4,2.24 L68.45,1.61 C68.45,1.61 79.64,11.4 98.29,18.61 C116.94,25.82 116.73,78.55 116.73,78.55 L113.93,78.55 L86.29,83.84 L84.73,85.33 C81.264393,88.7957641 78.2930919,92.7227271 75.9,97 C72.2517391,103.782862 71.421845,111.729727 73.59,119.12 L70.73,119.12 C68.43,110.78 70.8,103.05 74.09,97.11 Z" id="Shape"></path>
                    <path d="M0.4,4.12 C0.85,4.06 1.28,3.99 1.74,3.94 C3.63259791,4.20735872 5.53915772,4.36429097 7.45,4.41 C5.09613302,4.47471616 2.74059946,4.37782188 0.4,4.12 L0.4,4.12 Z" id="Shape"></path>
                    <path d="M39.98,9.53 L22.9,0.92 C23.2544144,0.640673644 23.588585,0.336578383 23.9,0.01 L41.72,9.01 L39.98,9.53 Z" id="Shape"></path>
                </g>
                <path d="M923.03,398.16 L934.46,412.16 L936.79,450.16 C936.79,450.16 939.79,469.51 917.67,464.85 C895.55,460.19 869.87,445.73 869.87,445.73 C869.87,445.73 882.23,429.17 875.47,422.88 L907.18,433.14 C907.18,433.14 912.54,431.97 908.34,427.31 C904.14,422.65 903.4,414.25 903.4,414.25 L923.03,398.16 Z" id="Shape" fill="#100F12"></path>
                <path d="M928.16,438.27 L934.46,445.49 C931.156343,444.47956 928.713588,441.680085 928.16,438.27 L928.16,438.27 Z" id="Shape" fill="#000000" opacity="0.1"></path>
                <polygon id="Shape" fill="#000000" opacity="0.1" points="917.44 437.1 927.23 449.69 922.34 450.86"></polygon>
                <path d="M819.79,282.58 C818.71,279.95 819.53,276.91 820.79,274.38 C822.05,271.85 823.86,269.55 824.79,266.87 C826.24,262.87 825.79,258.39 827.37,254.45 C830.14,247.55 838.01,244.45 845.07,242.12 C847.15,241.43 849.37,240.73 851.51,241.24 C854.33,241.92 856.22,244.51 858.51,246.24 C868.09,253.38 883.66,245.52 892.92,253.08 C896.47,255.97 898.19,260.61 898.72,265.15 C899.25,269.69 898.72,274.3 898.67,278.88 C898.52,286.88 900.01,295.66 906.02,300.97 C907.83,302.57 909.96,303.78 911.72,305.43 C913.48,307.08 914.87,309.43 914.56,311.8 C914.311184,312.901037 913.976836,313.980981 913.56,315.03 C912.36,319.21 914.14,323.64 916.31,327.41 C922.79,338.61 934.2,347.84 947.15,348.1 C946.28,354.63 939.5,358.42 933.48,361.1 C925.81,364.51 917.75,367.86 909.37,367.43 C900.99,367 892.25,361.64 890.76,353.43 C890.25,350.6 890.32,347.13 887.86,345.64 C886.38,344.74 884.46,344.97 882.86,344.29 C880.55,343.29 879.4,340.75 878.64,338.35 C877.078608,333.41685 876.239903,328.28357 876.15,323.11 C876.05,316.98 876.87,310.29 873.39,305.24 C870.17,300.57 864.45,298.24 860.74,293.9 C857.32,289.9 853.59,285.12 847.98,284.36 C840.44,283.27 824.38,293.82 819.79,282.58 Z" id="Shape" fill="#000000" opacity="0.1"></path>
                <path d="M819.79,281.18 C818.71,278.55 819.53,275.51 820.79,272.98 C822.05,270.45 823.86,268.15 824.79,265.47 C826.24,261.47 825.79,256.99 827.37,253.05 C830.14,246.15 838.01,243.05 845.07,240.72 C847.15,240.03 849.37,239.33 851.51,239.84 C854.33,240.52 856.22,243.11 858.51,244.84 C868.09,251.99 883.66,244.12 892.92,251.68 C896.47,254.58 898.19,259.21 898.72,263.75 C899.25,268.29 898.72,272.9 898.67,277.48 C898.52,285.48 900.01,294.26 906.02,299.57 C907.83,301.17 909.96,302.38 911.72,304.03 C913.48,305.68 914.87,308.03 914.56,310.4 C914.30983,311.503935 913.97552,312.587099 913.56,313.64 C912.36,317.81 914.14,322.25 916.31,326.01 C922.79,337.21 934.2,346.44 947.15,346.7 C946.28,353.23 939.5,357.02 933.48,359.7 C925.81,363.12 917.75,366.46 909.37,366.03 C900.99,365.6 892.25,360.24 890.76,351.98 C890.25,349.15 890.32,345.68 887.86,344.19 C886.38,343.29 884.46,343.52 882.86,342.84 C880.55,341.84 879.4,339.3 878.64,336.9 C877.078608,331.96685 876.239903,326.83357 876.15,321.66 C876.05,315.53 876.87,308.84 873.39,303.79 C870.17,299.12 864.45,296.79 860.74,292.45 C857.32,288.45 853.59,283.67 847.98,282.91 C840.44,281.92 824.38,292.42 819.79,281.18 Z" id="Shape" fill="#2B2A2D"></path>
                <path d="M841.11,358.47 L858.35,344.47 C858.35,344.47 846.55,338.07 845.14,332.61 C843.73,327.15 834.29,335.2 835.25,340.1 C836.21,345 841.11,358.47 841.11,358.47 Z" id="Shape" fill="#000000" opacity="0.1"></path>
                <path d="M841.81,356.37 L859.05,342.37 C859.05,342.37 847.25,335.97 845.84,330.51 C844.43,325.05 834.99,333.1 835.95,338 C836.91,342.9 841.81,356.37 841.81,356.37 Z" id="Shape" fill="#67647E"></path>
                <circle id="Oval" fill="#000000" opacity="0.1" cx="859.72" cy="354.09" r="1.37"></circle>
                <circle id="Oval" fill="#000000" opacity="0.1" cx="859.72" cy="361.71" r="1.37"></circle>
                <circle id="Oval" fill="#000000" opacity="0.1" cx="859.72" cy="369.32" r="1.37"></circle>
                <g id="Group" opacity="0.1" transform="translate(850.000000, 255.000000)" fill="#000000">
                    <path d="M7.73365617,11.4602347 C9.05084746,7.79335072 8.76997579,3.68644068 10,0 C9.43584601,0.817488088 8.96475299,1.69657017 8.59564165,2.62059974 C7.0653753,6.47327249 7.49152542,10.8735332 6.0968523,14.7750978 C6.0968523,14.8435463 6.02905569,14.9217731 6,15 C6.68348641,13.8758636 7.26378516,12.6910142 7.73365617,11.4602347 L7.73365617,11.4602347 Z" id="Shape"></path>
                    <path d="M116.312376,106.231768 C108.624205,109.659078 100.54511,113.006216 92.1352334,112.575297 C83.7253565,112.144378 74.9846979,106.772923 73.491168,98.4952693 C72.9799597,95.659221 73.0501256,92.181805 70.5842976,90.6886205 C69.1007913,89.7866971 67.1762426,90.0171886 65.572452,89.3357353 C63.2469557,88.3335981 62.1042549,85.7881697 61.3424544,83.3830404 C59.7754527,78.4329262 58.934738,73.2817866 58.8465553,68.0904268 C58.7463184,61.9473258 59.5582374,55.243028 56.0800166,50.1822351 C52.8523881,45.5022544 47.1188368,43.1672748 43.4000474,38.8179993 C39.9619213,34.8094505 36.2331083,30.0192348 30.5997939,29.2576105 C22.8815518,28.2554733 6.77348021,38.7779138 2.1826297,27.5138918 C1.44666876,25.3847557 1.55062898,23.055152 2.47331674,21 C2.14253493,21.5611968 1.82177682,22.1223937 1.53108978,22.6936119 C0.22800994,25.229019 -0.593932728,28.275516 0.528720672,30.9111369 C5.12959487,42.1751589 21.2276427,31.6026115 28.9559085,32.6548556 C34.5791992,33.4164798 38.318036,38.2367598 41.756162,42.2152444 C45.4749514,46.5244344 51.198479,48.8994995 54.4261076,53.5895016 C57.914352,58.6001876 57.1024331,65.3545923 57.20267,71.4876719 C57.2851778,76.6754765 58.1225824,81.8236476 59.6885454,86.7702641 C60.4503459,89.165372 61.6030704,91.7809501 63.918543,92.722959 C65.5223336,93.394391 67.4468823,93.1739208 68.9303885,94.0758443 C71.3861928,95.5590073 71.3260507,99.0865302 71.8272352,101.872472 C73.3207652,110.150125 82.0814712,115.531602 90.4813243,115.962521 C98.8811774,116.39344 106.970296,113.03628 114.648443,109.608971 C120.181521,107.153735 126.346091,103.736447 128,98.1445213 C125.313651,101.822365 120.622563,104.317686 116.312376,106.231768 Z" id="Shape"></path>
                </g>
            </g>
        </g>
    </g>
</svg>