<?xml version="1.0" encoding="UTF-8"?>
<svg viewBox="0 0 1085 806" version="1.1" xmlns="http://www.w3.org/2000/svg" xmlns:xlink="http://www.w3.org/1999/xlink">
    <!-- Generator: Sketch 46.2 (44496) - http://www.bohemiancoding.com/sketch -->
    <title>undraw_smiley_face_lmgm</title>
    <desc>Created with Sketch.</desc>
    <defs>
        <linearGradient x1="50.0011437%" y1="99.9899263%" x2="50.0011437%" y2="-0.0315573264%" id="linearGradient-1">
            <stop stop-color="#808080" stop-opacity="0.25" offset="0%"></stop>
            <stop stop-color="#808080" stop-opacity="0.12" offset="54%"></stop>
            <stop stop-color="#808080" stop-opacity="0.1" offset="100%"></stop>
        </linearGradient>
        <linearGradient x1="25873%" y1="79435%" x2="25873%" y2="30301%" id="linearGradient-2">
            <stop stop-color="#808080" stop-opacity="0.25" offset="0%"></stop>
            <stop stop-color="#808080" stop-opacity="0.12" offset="54%"></stop>
            <stop stop-color="#808080" stop-opacity="0.1" offset="100%"></stop>
        </linearGradient>
        <linearGradient x1="25559%" y1="32337%" x2="25559%" y2="32254%" id="linearGradient-3">
            <stop stop-color="#808080" stop-opacity="0.25" offset="0%"></stop>
            <stop stop-color="#808080" stop-opacity="0.12" offset="54%"></stop>
            <stop stop-color="#808080" stop-opacity="0.1" offset="100%"></stop>
        </linearGradient>
        <linearGradient x1="25351%" y1="32246%" x2="25351%" y2="32118%" id="linearGradient-4">
            <stop stop-color="#808080" stop-opacity="0.25" offset="0%"></stop>
            <stop stop-color="#808080" stop-opacity="0.12" offset="54%"></stop>
            <stop stop-color="#808080" stop-opacity="0.1" offset="100%"></stop>
        </linearGradient>
    </defs>
    <g id="Page-1" stroke="none" stroke-width="1" fill="none" fill-rule="evenodd">
        <g id="undraw_smiley_face_lmgm" transform="translate(0.000000, -1.000000)" fill-rule="nonzero">
            <path d="M598.97,112.4 C534.25,110.16 472.61,89.26 413.75,66.4 C354.89,43.54 296.59,18.22 233.38,6.1 C192.75,-1.69 146.28,-2.79 113.55,19 C82.04,40 71.86,76.14 66.39,109.72 C62.27,134.98 59.85,161.57 71.13,185.22 C78.97,201.64 92.88,215.44 102.49,231.16 C135.96,285.89 112.3,353.36 76.04,406.8 C59.04,431.86 39.29,455.8 26.16,482.45 C13.03,509.1 7,539.7 18.49,566.97 C29.87,593.97 57,614.21 86.39,628.46 C146.08,657.41 216.39,665.69 285,670.39 C436.83,680.77 589.46,676.28 741.69,671.77 C798.03,670.1 854.61,668.42 910.03,659.7 C940.81,654.87 972.58,647.19 994.93,628.7 C1023.29,605.17 1030.32,565.33 1011.31,535.82 C979.43,486.33 891.31,474.04 869,420.93 C856.74,391.69 869.33,359.13 887.16,332.02 C925.4,273.85 989.49,222.82 992.87,156.34 C995.18,110.68 964.37,64.95 916.73,43.34 C866.8,20.7 797.55,23.55 760.73,61.03 C722.78,99.53 656.12,114.39 598.97,112.4 Z" id="Shape" fill="#3FA34D" opacity="0.1"></path>
            <path d="M103.94,685.07 C103.94,685.07 124.94,681.71 137.54,696.55 C137.54,696.55 128.3,703.83 108.42,693.75 L103.94,685.07 Z" id="Shape" fill="#3FA34D"></path>
            <path d="M101.69,684.75 C101.69,684.75 88.3,701.27 94.87,719.59 C94.87,719.59 105.79,715.22 106.98,692.96 L101.69,684.75 Z" id="Shape" fill="#3FA34D"></path>
            <path d="M89.66,657.63 C89.66,657.63 98.06,642.23 131.66,663.79 C131.66,663.79 127.18,674.15 112.34,673.31 C97.5,672.47 93.58,665.75 89.66,657.63 Z" id="Shape" fill="#3FA34D"></path>
            <path d="M87.49,656.52 C87.49,656.52 70.06,654.52 68.37,694.42 C68.37,694.42 79.37,696.72 87.27,684.1 C95.17,671.48 91.88,664.4 87.49,656.52 Z" id="Shape" fill="#3FA34D"></path>
            <path d="M77.38,624.7 C77.38,624.7 87.18,597.53 122.74,616.86 C122.74,616.86 114.62,641.78 81.02,633.94 L77.38,624.7 Z" id="Shape" fill="#3FA34D"></path>
            <path d="M66.38,584.09 C66.38,584.09 84.87,556.65 117.63,582.09 C117.63,582.09 106.15,607.86 69.18,593.85 L66.38,584.09 Z" id="Shape" fill="#3FA34D"></path>
            <path d="M62.49,545.45 C62.49,545.45 84.06,520.25 116.54,545.45 C116.54,545.45 96.1,567.57 62.54,551.89 L62.49,545.45 Z" id="Shape" fill="#3FA34D"></path>
            <path d="M59.13,507.97 C59.13,507.97 80.98,481.65 112.06,506.57 C112.06,506.57 87.42,529.81 59.13,514.13 L59.13,507.97 Z" id="Shape" fill="#3FA34D"></path>
            <path d="M61.09,474.61 C61.09,474.61 84.09,440.72 113.18,463.68 C113.18,463.68 88.54,492.81 61.09,481.05 L61.09,474.61 Z" id="Shape" fill="#3FA34D"></path>
            <path d="M66.38,435.68 C66.38,435.68 90.75,402.08 119.03,427.84 C119.03,427.84 90.19,456.96 66.38,441.84 L66.38,435.68 Z" id="Shape" fill="#3FA34D"></path>
            <path d="M74.54,400.89 C74.54,400.89 103.38,369.32 128.54,381.89 C128.54,381.89 98.48,415.42 73.28,409.26 L74.54,400.89 Z" id="Shape" fill="#3FA34D"></path>
            <path d="M84.62,367.97 C84.62,367.97 117.94,329.32 137.26,342.21 C137.26,342.21 112.74,372.21 82.26,375.21 L84.62,367.97 Z" id="Shape" fill="#3FA34D"></path>
            <path d="M99.17,329.66 C99.17,329.66 128.3,298.08 149.58,305.97 C149.58,305.97 124.66,338.74 95.26,339.58 L99.17,329.66 Z" id="Shape" fill="#3FA34D"></path>
            <path d="M112.38,293.88 C112.38,293.88 144.58,263.64 158.58,268.96 C158.58,268.96 135.34,302.56 110.98,300.6 L112.38,293.88 Z" id="Shape" fill="#3FA34D"></path>
            <path d="M125.22,260.84 C125.22,260.84 152.94,224.72 168.06,227.52 C168.06,227.52 151.26,259.72 125.22,264.52 L125.22,260.84 Z" id="Shape" fill="#3FA34D"></path>
            <path d="M139.2,216.3 C139.2,216.3 163.7,188.6 176.93,188.67 C176.93,188.67 157.59,225.67 138.19,225.33 L139.2,216.3 Z" id="Shape" fill="#3FA34D"></path>
            <path d="M147.48,186.64 L171.14,128.97 C171.14,128.97 172.33,181.11 144.47,197.36 L147.48,186.64 Z" id="Shape" fill="#3FA34D"></path>
            <path d="M157.09,123.02 C157.09,123.02 161.01,74.86 158.49,70.94 C158.49,70.94 175.41,110.94 156.92,144.3 L157.09,123.02 Z" id="Shape" fill="#3FA34D"></path>
            <path d="M76.38,624.05 C76.38,624.05 51.84,608.84 35.95,646.05 C35.95,646.05 57.79,660.54 79.26,633.54 L76.38,624.05 Z" id="Shape" fill="#3FA34D"></path>
            <path d="M65.63,582.55 C65.63,582.55 35.53,568.81 20.92,607.67 C20.92,607.67 44.18,623.62 68.37,592.36 L65.63,582.55 Z" id="Shape" fill="#3FA34D"></path>
            <path d="M61.09,547.76 C61.09,547.76 39.53,522.56 7.09,547.76 C7.09,547.76 27.53,569.88 61.09,554.2 L61.09,547.76 Z" id="Shape" fill="#3FA34D"></path>
            <path d="M58.38,507.97 C58.38,507.97 36.54,481.65 5.45,506.57 C5.45,506.57 30.1,529.81 58.38,514.13 L58.38,507.97 Z" id="Shape" fill="#3FA34D"></path>
            <path d="M61.09,475.56 C61.09,475.56 45.77,437.56 12.47,453.93 C12.47,453.93 30.47,487.59 59.74,481.86 L61.09,475.56 Z" id="Shape" fill="#3FA34D"></path>
            <path d="M68.38,435.49 C68.38,435.49 53.16,396.88 19.38,414.79 C19.38,414.79 40.06,450.17 66.88,441.46 L68.38,435.49 Z" id="Shape" fill="#3FA34D"></path>
            <path d="M77.78,401.09 C77.78,401.09 71.78,358.76 43.83,354.97 C43.83,354.97 49.76,399.61 74.05,408.72 L77.78,401.09 Z" id="Shape" fill="#3FA34D"></path>
            <path d="M85.38,367.97 C85.38,367.97 83.04,316.97 59.89,315.2 C59.89,315.2 60.67,353.91 82.77,375.2 L85.38,367.97 Z" id="Shape" fill="#3FA34D"></path>
            <path d="M101.57,328.21 C101.57,328.21 94.66,285.8 72.57,280.61 C72.57,280.61 75.31,321.69 99.39,338.61 L101.57,328.21 Z" id="Shape" fill="#3FA34D"></path>
            <path d="M114.96,294.19 C114.96,294.19 114.72,250.01 101.23,243.52 C101.23,243.52 92.85,283.52 111.05,299.83 L114.96,294.19 Z" id="Shape" fill="#3FA34D"></path>
            <path d="M126.25,260.35 C126.25,260.35 124.38,214.85 110.38,208.44 C110.38,208.44 105.59,244.44 124.15,263.33 L126.25,260.35 Z" id="Shape" fill="#3FA34D"></path>
            <path d="M141.15,219.97 C141.15,219.97 141.06,182.97 131.09,174.3 C131.09,174.3 121.16,214.83 135.94,227.41 L141.15,219.97 Z" id="Shape" fill="#3FA34D"></path>
            <path d="M146.3,184.81 L136.6,123.23 C136.6,123.23 123.38,173.69 146.77,195.97 L146.3,184.81 Z" id="Shape" fill="#3FA34D"></path>
            <path d="M148.2,123.61 C148.2,123.61 123.28,82.21 123.79,77.61 C123.79,77.61 126.44,121 157.79,142.61 L148.2,123.61 Z" id="Shape" fill="#3FA34D"></path>
            <path d="M151.12,111.38 C151.12,111.38 127.6,52.58 116.96,47.81 C116.96,47.81 150.56,64.9 153.08,109.7 L151.12,111.38 Z" id="Shape" fill="#3FA34D"></path>
            <path d="M138.06,225.68 L136.46,225.18 C156.31,160.45 161.26,119.18 150.4,108.84 L151.56,107.62 C163.07,118.53 158.38,159.36 138.06,225.68 Z" id="Shape" fill="#444053"></path>
            <path d="M83.38,377.19 L81,376.35 C83.1,370.42 85.38,364.4 87.76,358.46 C108.48,306.83 126.11,258.79 137.43,221.91 L139.49,220.91 C128.16,257.91 110.84,307.74 90.1,359.44 C87.76,365.31 85.5,371.29 83.38,377.19 Z" id="Shape" fill="#444053"></path>
            <path d="M133.49,733.52 C133.17,733.16 100.99,696.94 78.57,635.08 C65.4220769,598.873123 58.0978226,560.810627 56.87,522.31 C55.34,474.18 65.43,420.43 82.74,371.62 L84.62,373.82 C45.78,483.38 61.21,577.27 81.68,633.82 C103.87,695.11 135.68,730.95 135.99,731.3 L133.49,733.52 Z" id="Shape" fill="#444053"></path>
            <ellipse id="Oval" fill="#3FA34D" opacity="0.1" cx="529.83" cy="735.49" rx="446.98" ry="41.12"></ellipse>
            <circle id="Oval" fill="#3FA34D" cx="503.74" cy="450.31" r="308.5"></circle>
            <ellipse id="Oval" fill="#444053" cx="421.09" cy="390.51" rx="31.99" ry="41.9"></ellipse>
            <ellipse id="Oval" fill="#444053" cx="586.39" cy="390.51" rx="31.99" ry="41.9"></ellipse>
            <path d="M702.55,522.3 C702.55,582.45 602.07,683.78 500.69,683.78 C399.31,683.78 302.69,580.17 302.69,520.01 C302.69,459.85 397.26,514.87 498.69,514.87 C600.12,514.87 702.55,462.14 702.55,522.3 Z" id="Shape" fill="#444053"></path>
            <path d="M334.59,532.58 C334.59,532.58 516.83,573.14 669.94,533.72 C669.94,533.72 688.68,533.72 675.88,555.38 C672.549673,560.993161 667.695001,565.546149 661.88,568.51 C632.38,583.59 523.09,628.16 348.38,571.32 C337.407829,567.861747 328.894406,559.14187 325.7,548.09 C323.68,540.65 324.56,533.61 334.59,532.58 Z" id="Shape" fill="#F6F8FB"></path>
            <path d="M352.15,220.65 C352.15,220.65 259.22,280.07 259.98,372.97 C260.74,465.87 352.15,220.65 352.15,220.65 Z" id="Shape" fill="#000000" opacity="0.05"></path>
            <path d="M918.99,729.13 C917.39,722.76 913.51,722.65 913.51,722.65 L913.45,722.01 L912.02,706.28 C911.965406,706.360579 911.897821,706.431542 911.82,706.49 L911.74,704.49 C911.726976,704.111811 911.693594,703.734598 911.64,703.36 C913.923619,701.699211 915.610501,699.345993 916.45,696.65 C915.86,695.9 916.3,696.05 916.3,696.05 C916.3,696.05 906.59,686.11 907.56,680.93 C908.53,675.75 900.25,670.12 900.25,670.12 C900.25,670.12 897.25,660.86 897.25,658.05 C897.25,655.24 885.91,636.79 885.91,636.79 C885.91,636.79 875.91,613.32 867.13,603.24 C858.35,593.16 859.13,587.67 859.13,587.67 C858.362397,586.604745 857.708811,585.461808 857.18,584.26 C856.793227,583.428518 856.459232,582.57349 856.18,581.7 C857.98,581.47 859.18,581.43 859.18,581.43 C859.18,581.43 866.37,580.2 866.69,578.72 C867.087406,577.05046 867.934762,575.52176 869.14,574.3 C870.51,572.83 865.24,544.83 868.04,537.59 C870.84,530.35 864.45,497.13 864.45,497.13 C864.761398,495.093531 865.91095,493.280357 867.62,492.13 L871.86,490.46 L871.86,490.46 L874.01,489.94 L874.3,489.87 L874.74,489.76 L875.74,489.51 L876.03,489.43 L876.65,489.26 L876.88,489.2 L877.88,488.89 L878.21,488.78 L878.68,488.62 L879.04,488.48 L879.52,488.29 L880.05,488.04 L880.36,487.88 L880.69,487.69 L880.95,487.52 C881.086193,487.424708 881.216436,487.321181 881.34,487.21 L881.54,487.01 C881.621878,486.928087 881.698687,486.84126 881.77,486.75 C881.819066,486.68724 881.862564,486.62032 881.9,486.55 L881.96,486.47 L881.96,486.47 C882.315077,485.742937 882.234027,484.878397 881.75,484.23 C880.701009,482.731485 879.417979,481.411315 877.95,480.32 L875.64,476.77 C875.634479,476.746993 875.634479,476.723007 875.64,476.7 C875.64,476.52 875.71,476.32 875.76,476.12 C875.926814,475.371887 875.96402,474.600697 875.87,473.84 L875.87,473.84 C875.875335,473.796831 875.875335,473.753169 875.87,473.71 C875.901572,473.471268 875.918271,473.230804 875.92,472.99 L875.92,472.68 C875.92,472.45 875.92,472.22 875.87,471.99 C875.82,471.76 875.87,471.76 875.87,471.64 C875.87,471.52 875.79,471.2 875.74,470.98 C875.69,470.76 875.68,470.72 875.64,470.59 C875.6,470.46 875.53,470.18 875.46,469.97 L875.31,469.56 C875.24,469.37 875.16,469.17 875.08,468.98 C875,468.79 874.96,468.69 874.89,468.55 C874.82,468.41 874.73,468.19 874.64,468.01 C874.55,467.83 874.49,467.72 874.42,467.58 C874.35,467.44 874.24,467.24 874.14,467.07 L873.9,466.65 L873.62,466.19 L873.35,465.77 L873.08,465.36 L872.81,464.97 C872.72,464.85 872.63,464.72 872.54,464.61 L872.28,464.25 L872.04,463.94 L871.79,463.62 L871.58,463.36 L871.36,463.09 L871.19,462.9 L871.01,462.69 L870.89,462.55 L870.76,462.41 L870.69,462.33 L870.62,462.26 L870.62,462.14 C870.62,462.08 870.62,462.01 870.62,461.92 L870.62,461.82 C870.62,461.73 870.62,461.63 870.62,461.51 L870.62,461.4 C870.62,461.26 870.62,461.1 870.56,460.93 L870.56,460.87 C870.422733,459.831677 870.339288,458.786947 870.31,457.74 L870.31,457.74 C870.337909,456.649322 870.582666,455.575113 871.03,454.58 C871.304623,454.085345 871.277555,453.478252 870.96,453.01 C870.989231,452.938119 871.022621,452.868001 871.06,452.8 C871.75,451.47 870.44,450.33 868.8,449.48 C868.8,447.04 867.8,442.09 859.72,441.2 C859.72,441.2 854.99,438.01 859.56,432.28 C864.13,426.55 856.87,411.89 856.87,411.89 C856.87,411.89 854.56,405.89 855.8,403.41 C857.04,400.93 854.36,378.87 854.36,378.87 C854.36,378.87 854.36,358.52 849.86,349.87 C845.36,341.22 842.29,325.69 837.1,323.39 C831.91,321.09 827.8,315.53 827.8,315.53 L825.38,316.31 C824.96,315.69 824.54,315.07 824.14,314.45 L824.14,314.45 C824.334454,314.396778 824.524923,314.329946 824.71,314.25 C825.823625,313.749169 826.741002,312.89506 827.32,311.82 C827.487578,311.518335 827.631348,311.204046 827.75,310.88 L827.75,310.88 C828.157759,309.703775 828.354121,308.464665 828.33,307.22 C828.241395,305.979458 828.278249,304.733139 828.44,303.5 C828.85,301.5 830.23,299.9 831.44,298.23 C833.866997,294.906736 835.411793,291.022384 835.93,286.94 C836.421055,282.836585 835.408558,278.69423 833.08,275.28 C831.9,273.62 830.37,272.15 829.63,270.28 C829.29,269.42 829.14,268.5 828.88,267.62 C827.259331,262.620096 822.830695,259.055202 817.6,258.54 C813.35,258.15 809.16,259.77 804.9,259.72 C799.96,259.66 794.9,257.4 790.27,259.12 C788.197596,260.015223 786.364886,261.385473 784.92,263.12 C783.79639,264.359629 782.747855,265.665289 781.78,267.03 L781.78,267.03 C781.21,267.83 780.67,268.64 780.16,269.48 L780.16,269.55 C779.64,270.4 779.16,271.27 778.7,272.16 C778.59244,272.362745 778.567362,272.599204 778.63,272.82 C778.756082,273.075136 778.968737,273.277159 779.23,273.39 C780.043631,273.673872 780.796691,274.108069 781.45,274.67 C781.699755,274.956415 781.970505,275.223822 782.26,275.47 C782.12,275.64 781.97,275.8 781.83,275.98 C777.021098,282.108358 775.300793,290.109171 777.165755,297.672519 C779.030716,305.235866 784.273331,311.51977 791.38,314.71 L791.89,315.83 C792.853964,317.95426 793.659495,320.146908 794.3,322.39 L792.12,322.59 C792.065688,324.000297 790.948995,325.138631 789.54,325.22 C786.99,325.49 778.88,328.49 778.88,328.49 C778.88,328.49 766.69,334.7 759.34,336.67 C751.99,338.64 748.73,336.96 748.73,336.96 C748.73,336.96 747.9,342.3 739.58,339.36 C731.26,336.42 730.16,339.52 730.16,339.52 C730.16,339.52 706.72,338.88 689.65,341.16 C672.58,343.44 665.14,341.84 665.14,341.84 C665.14,341.84 665.06,342.74 664.97,344.2 L663.24,343.2 C651.9,337.14 630.99,327.74 628.01,339.2 C623.85,355.13 660.38,361.9 660.38,361.9 L663.08,361.61 L664.85,361.42 C665.19,365.84 665.97,369.42 667.6,369.81 C668.19,369.96 685.67,369.92 690.27,372.07 C694.87,374.22 704.78,371.07 704.78,371.07 C704.78,371.07 707.33,370.51 711.18,372.79 C715.03,375.07 735.95,375.08 735.95,375.08 C735.95,375.08 737.44,375.4 742.79,376.97 C748.14,378.54 757.58,377.18 757.58,377.18 L779.65,380.03 C779.65,380.03 781.22,395.5 779.49,401.12 C777.76,406.74 779.15,434.39 779.15,434.39 C779.15,434.39 784.15,468.04 782.78,472.03 C781.7,475.12 791.28,471.68 795.66,469.97 C795.89,470.88 796.18,471.97 796.51,473.2 C796.51,473.31 796.66,473.38 796.83,473.42 L797.19,473.66 C797.35,474.32 797.51,474.96 797.66,475.56 L796.47,475.88 L798.04,476.93 C798.214396,477.564768 798.424735,478.189108 798.67,478.8 C799.97,481.8 790.48,487.29 790.48,487.29 C790.48,487.29 764.27,501.62 756.4,508.29 C756.4,508.29 750.25,510.29 749.77,512.2 C749.29,514.11 743.77,513.45 743.77,513.45 C743.77,513.45 742.99,515.52 742.36,517.6 C741.73,519.68 738.36,522.89 738.36,522.89 C738.36,522.89 730.57,524.11 729.47,528.25 C728.68617,531.452723 728.088502,534.698158 727.68,537.97 L718.93,553.89 C718.93,553.89 695.07,571.67 692.57,578.47 L675.68,589.79 C675.68,589.79 672.9,595.99 667.97,596.21 C663.04,596.43 654.53,605.21 654.53,605.21 C654.53,605.21 657.03,606.21 660.7,607.91 C660.48,608.25 660.27,608.59 660.09,608.91 C659.411597,610.193058 658.910361,611.562205 658.6,612.98 C658.6,612.98 647.6,619.66 639.42,616.86 C634.8,615.28 625.69,612.55 619.1,612.22 C614.03,611.97 610.43,613.14 611.48,617.35 C613.27,624.62 631.32,642.92 640.22,651.6 C641.630026,652.973362 643.122819,654.259101 644.69,655.45 C646.762281,657.042055 648.966989,658.453872 651.28,659.67 C652.63298,660.380598 654.021465,661.021437 655.44,661.59 C656.964758,662.206095 658.532206,662.710753 660.13,663.1 C663.27,663.83 666.13,663.8 667.74,662.1 C672.9,656.82 670.74,653.1 670.74,653.1 L671.32,652.67 L685.54,642.03 L688.76,639.28 L689.65,638.52 C689.165913,642.425813 687.485833,646.086363 684.84,649 C688.384415,646.937808 692.109915,645.203927 695.97,643.82 C700.97,642.26 704.05,632.82 704.05,632.82 C704.05,632.82 706.78,630.04 711.63,625.06 C716.48,620.08 717.38,607.33 717.38,607.33 C717.38,607.33 742.27,591.49 752.38,573.22 C752.38,573.22 754.21,570.72 757.38,567.05 C760.55,563.38 760.66,557.29 760.66,557.29 C760.66,557.29 761.13,555.52 765.38,550.98 C769.63,546.44 769.08,543.6 769.08,543.6 C769.08,543.6 771.08,540.81 778.52,541.37 C785.96,541.93 803.44,533.11 803.44,533.11 C803.44,533.11 803.44,533.92 803.6,535.32 C802.08,538.82 801.08,541.25 801.08,541.25 C801.08,541.25 816.32,602.08 810.21,611.64 C807.04,616.64 815.78,612.84 824.94,608.07 C825.41,608.64 825.94,609.24 826.52,609.88 C828.689509,612.219461 831.000518,614.423602 833.44,616.48 L833.74,616.74 C833.74,616.74 852.3,645.38 855.24,648.74 C858.18,652.1 856.24,661.98 856.24,661.98 C856.24,661.98 861.42,696.51 868.5,702.56 C869.974765,703.678419 871.623434,704.546673 873.38,705.13 C873.26,709.43 877.15,712.96 877.15,712.96 C877.15,712.96 877.07,724.4 871.09,729.24 C867.71,731.99 861.34,737.57 857.99,742.38 C855.42,746.09 854.62,749.38 858.32,750.54 C864.71,752.61 887.15,747.61 897.96,744.98 C903.282838,743.717777 908.302831,741.413407 912.73,738.2 C916.47,735.45 919.73,732.12 918.99,729.13 Z M672.82,614.69 C673.44,615.1 674.05,615.52 674.66,615.95 L673.66,616.75 L673.25,617.07 C673.25,616.86 673.19,616.63 673.15,616.4 C673.04,615.85 672.94,615.28 672.82,614.69 Z" id="Shape" fill="url(#linearGradient-1)"></path>
            <path d="M675.65,362.97 L664.38,364.16 L661.72,364.45 C661.72,364.45 625.72,357.74 629.82,342 C632.76,330.61 653.38,339.93 664.57,346 C668.85,348.31 671.74,350.13 671.74,350.13 L675.65,362.97 Z" id="Shape" fill="#8F5F55"></path>
            <polygon id="Shape" fill="#DCE6F2" points="702.13 629.05 689.79 639.66 686.61 642.39 679.21 644.63 660.88 628.45 674.5 617.59 674.9 617.26 685.92 608.48"></polygon>
            <path d="M898.16,693.72 L880.74,694.53 L885.52,715.82 L892.05,718.07 L910.24,716.55 L909.75,704.33 C909.628138,701.383227 908.336468,698.606638 906.161061,696.615174 C903.985655,694.623711 901.106048,693.581729 898.16,693.72 Z" id="Shape" fill="#DCE6F2"></path>
            <path d="M674.38,616.97 C670.283581,614.180984 665.981201,611.707199 661.51,609.57 C662.654405,607.084376 664.858756,605.247417 667.51,604.57 C671.45,603.74 673.46,611.37 674.38,616.97 Z" id="Shape" fill="#000000" opacity="0.1"></path>
            <path d="M689.78,639.66 C690.53,630.77 683.07,623.02 674.9,617.27 L685.9,608.48 L702.1,629.05 L689.78,639.66 Z" id="Shape" fill="#000000" opacity="0.1"></path>
            <path d="M867.14,702.35 C860.16,696.35 855.04,662.09 855.04,662.09 C855.04,662.09 856.96,652.24 854.04,648.95 C851.12,645.66 832.84,617.25 832.84,617.25 C830.131196,614.958763 827.850223,612.7713 825.71,610.45 C820.08,604.28 819.96,601.3 819.96,601.3 C819.96,601.3 817.96,589.62 811.07,573.76 C806.07,562.06 804,546.16 803.29,538.61 C803.04,535.92 802.95,534.29 802.95,534.29 C802.95,534.29 785.73,543.03 778.37,542.48 C771.01,541.93 769.05,544.7 769.05,544.7 C769.05,544.7 769.6,547.51 765.41,552.02 C761.22,556.53 760.75,558.28 760.75,558.28 C760.75,558.28 760.66,564.33 757.51,567.96 C754.36,571.59 752.56,574.08 752.56,574.08 C742.56,592.21 718.02,607.92 718.02,607.92 C718.02,607.92 717.11,620.58 712.31,625.52 C707.51,630.46 704.83,633.22 704.83,633.22 C704.83,633.22 701.75,642.61 696.83,644.16 C693.012122,645.529116 689.329643,647.249838 685.83,649.3 C706.08,624.99 655.96,605.83 655.96,605.83 C655.96,605.83 664.34,597.11 669.21,596.89 C674.08,596.67 676.82,590.52 676.82,590.52 L693.48,579.27 C695.94,572.52 719.48,554.89 719.48,554.89 L728.11,539.1 C728.515966,535.881994 729.106945,532.690041 729.88,529.54 C730.96,525.44 738.65,524.22 738.65,524.22 C738.65,524.22 741.94,521.02 742.55,518.97 C743.16,516.92 743.94,514.86 743.94,514.86 C743.94,514.86 749.38,515.54 749.85,513.62 C750.32,511.7 756.39,509.74 756.39,509.74 C764.16,503.07 790.01,488.86 790.01,488.86 C790.01,488.86 799.37,483.4 798.09,480.43 C797.842709,479.826668 797.632321,479.208862 797.46,478.58 C797.346667,478.04 797.236667,477.64 797.13,477.22 C795.95,472.65 794.65,465.64 794.65,465.64 C794.65,465.64 840.14,439.19 855.07,445.9 C859.43,447.85 861.97,452.77 863.3,459.05 C865.43,469.1 864.46,482.62 862.83,493 C862.200979,497.272441 861.288973,501.498403 860.1,505.65 C856.54,517.1 855.85,534.03 855.85,534.03 C855.85,534.03 855.38,566.3 854.23,574.24 C853.759181,577.934901 854.348778,581.687508 855.93,585.06 C856.453619,586.250931 857.100478,587.383772 857.86,588.44 C857.86,588.44 857.04,593.88 865.74,603.89 C874.44,613.9 884.26,637.16 884.26,637.16 C884.26,637.16 895.49,655.45 895.45,658.26 C895.41,661.07 898.37,670.26 898.37,670.26 C898.37,670.26 906.54,675.82 905.58,680.97 C904.62,686.12 914.2,695.97 914.2,695.97 C909.27,713.42 874.12,708.35 867.14,702.35 Z" id="Shape" fill="#BDD2E8"></path>
            <path d="M798.05,488.68 C798.05,488.68 807.85,493.39 808.65,499.01 C809.45,504.63 798.05,488.68 798.05,488.68 Z" id="Shape" fill="#000000" opacity="0.1"></path>
            <polygon id="Shape" fill="#000000" opacity="0.1" points="760.59 521 765.95 527.27 763.17 515.88 757.28 515.5"></polygon>
            <path d="M754.38,534.32 C754.96,534.77 761.53,549.46 763.29,549.63 C765.05,549.8 754.38,534.32 754.38,534.32 Z" id="Shape" fill="#000000" opacity="0.1"></path>
            <path d="M862.87,492.97 C862.240979,497.242441 861.328973,501.468403 860.14,505.62 C856.58,517.07 855.89,534 855.89,534 C855.89,534 855.42,566.27 854.27,574.21 C853.799181,577.904901 854.388778,581.657508 855.97,585.03 C852.97,585.32 847.4,586.19 843.6,588.64 C838.25,592.1 841.35,601.58 841.35,601.58 C841.35,601.58 833.64,606.22 825.74,610.42 C820.11,604.25 819.99,601.27 819.99,601.27 C819.99,601.27 817.99,589.59 811.1,573.73 C806.1,562.03 804.03,546.13 803.32,538.58 C806.32,531.58 811.27,520.8 814.6,516.15 C818.13,511.22 813.92,496.3 810.98,487.57 L810.17,487.02 L810.17,487.02 L800.5,480.53 L800.5,480.53 L797.56,478.53 L796.02,477.53 L797.19,477.21 L863.38,459.05 C865.47,469.1 864.5,482.62 862.87,492.97 Z" id="Shape" fill="#000000" opacity="0.1"></path>
            <path d="M796.04,474.89 L800.52,477.89 L800.52,477.89 L810.18,484.38 L810.18,484.38 L811,484.93 C813.94,493.66 818.15,508.58 814.61,513.51 C809.5,520.66 800.61,542.35 800.61,542.35 C800.61,542.35 815.61,602.69 809.61,612.18 C803.61,621.67 841.38,598.97 841.38,598.97 C841.38,598.97 838.29,589.49 843.64,586.03 C848.99,582.57 857.99,582.26 857.99,582.26 C857.99,582.26 865.08,581.04 865.4,579.57 C865.786483,577.914448 866.624138,576.398361 867.82,575.19 C869.16,573.73 863.97,545.95 866.73,538.77 C869.49,531.59 863.18,498.63 863.18,498.63 C863.478287,496.596414 864.617788,494.781921 866.32,493.63 C867.110447,493.085296 867.980867,492.666955 868.9,492.39 L869.47,492.23 C869.81,492.13 870.17,492.04 870.47,491.97 L870.47,491.97 C874.77,490.9 879.47,489.97 880.47,487.97 L879.47,486.45 L874.2,478.31 L874.2,478.31 C874.09187,477.514562 874.142857,476.705568 874.35,475.93 C874.35,475.77 874.41,475.6 874.43,475.44 L874.43,475.44 C875.2,470.25 869.22,463.95 869.22,463.95 C868.954636,462.470301 868.80087,460.972749 868.76,459.47 L868.76,459.42 C868.636656,457.832196 868.854886,456.236391 869.4,454.74 L796.04,474.89 Z" id="Shape" fill="#473C65"></path>
            <path d="M812.89,486.39 C812.37,486.28 845.15,487.45 855.28,500.39 C855.28,500.42 855.64,495.71 812.89,486.39 Z" id="Shape" fill="#000000" opacity="0.1"></path>
            <path d="M838.73,507.97 C838.73,507.97 845.27,554.97 843.82,563.16 C842.37,571.35 851.44,566.07 851.44,566.07 C851.44,566.07 860.69,497.85 838.73,507.97 Z" id="Shape" fill="#000000" opacity="0.1"></path>
            <path d="M880.54,487.97 C880.469955,487.808446 880.389796,487.651468 880.3,487.5 C878.09,483.8 873.53,483.03 874.3,478.31 L874.3,478.31 C874.3,478.12 874.37,477.91 874.42,477.7 C874.586888,476.95867 874.624105,476.194034 874.53,475.44 L874.53,475.44 C874,470.68 869.29,465.72 869.29,465.72 C868.924172,463.657965 868.780018,461.562707 868.86,459.47 C868.886861,458.389919 869.128207,457.325959 869.57,456.34 C869.845854,455.852664 869.818659,455.250487 869.5,454.79 C868.28,452.72 862.87,451.38 862.87,451.38 L826.22,457.19 C821.89,458.67 817.76,460.19 813.99,461.64 C802.68,465.96 794.66,469.55 794.66,469.55 L794.93,470.62 C795.17,471.62 795.57,473.17 796.06,474.96 C796.22,475.58 799.25,474.85 799.44,475.51 L800.56,477.97 L808.65,480.21 C808.65,480.21 809.31,481.86 810.22,484.46 C810.22,484.61 810.33,484.77 810.38,484.93 L810.38,484.93 L811.04,485.02 C826.33,486.9 847.51,489.89 866.34,493.7 L880.54,487.97 Z" id="Shape" fill="#000000" opacity="0.1"></path>
            <path d="M869.47,492.23 L868.9,492.39 C849.19,488.27 826.4,485.06 810.38,483.1 C809.38,480.23 808.66,478.39 808.66,478.39 L796.6,475.05 L796.27,473.89 C795.69,471.8 795.21,469.89 794.93,468.79 L794.66,467.72 C794.66,467.72 802.66,464.13 813.99,459.82 C817.76,458.37 821.9,456.82 826.23,455.36 L862.87,449.56 C864.206851,449.904083 865.511653,450.362437 866.77,450.93 C868.64,451.8 870.34,453.04 869.57,454.52 C868.06,457.44 869.3,463.94 869.3,463.94 C869.3,463.94 875.68,470.66 874.43,475.94 C873.18,481.22 878.02,481.89 880.32,485.75 C882.62,489.61 875.38,490.69 869.47,492.23 Z" id="Shape" fill="#473C65"></path>
            <path d="M835.82,333.76 C835.82,333.76 787.72,337.62 793.24,333.28 C796,331.11 794.1,324.65 791.5,318.74 C789.776099,314.889626 787.822585,311.146225 785.65,307.53 C785.65,307.53 822.21,296.97 818.29,302.97 C817.13,304.74 818.18,308.15 820.29,312.08 C825.18,321.46 835.82,333.76 835.82,333.76 Z" id="Shape" fill="#8F5F55"></path>
            <path d="M820.26,312.11 C819.26,313.3 816.67,311.88 815.42,312.86 C811.05,316.28 806.91,320.81 800.94,320.72 C797.693567,320.670412 794.48762,319.991186 791.5,318.72 C789.776099,314.869626 787.822585,311.126225 785.65,307.51 C785.65,307.51 822.21,296.97 818.29,302.97 C817.13,304.77 818.18,308.18 820.26,312.11 Z" id="Shape" fill="#000000" opacity="0.1"></path>
            <path d="M826.51,294.97 C826.363304,305.161822 820.091397,314.261632 810.619068,318.025901 C801.146738,321.79017 790.339564,319.477525 783.237271,312.166425 C776.134977,304.855325 774.136364,293.985693 778.173448,284.626382 C782.210531,275.26707 791.488206,269.261398 801.68,269.41 C808.369611,269.483518 814.75331,272.223509 819.414844,277.022092 C824.076379,281.820675 826.630297,288.281067 826.51,294.97 Z" id="Shape" fill="#8F5F55"></path>
            <path d="M867.21,455.21 C863.248286,455.260204 859.294428,454.844009 855.43,453.97 C849.26,452.55 844.03,458.08 844.03,458.08 C844.03,458.08 832.03,462.77 826.58,461.81 C821.13,460.85 797.23,473.46 797.23,473.46 L796.23,473.85 C795.65,471.76 795.17,469.85 794.89,468.75 L794.62,467.68 C794.62,467.68 802.62,464.09 813.95,459.78 C817.72,458.33 821.86,456.78 826.19,455.32 L862.83,449.52 C864.166851,449.864083 865.471653,450.322437 866.73,450.89 C867.269965,452.262028 867.435618,453.752907 867.21,455.21 L867.21,455.21 Z" id="Shape" fill="#000000" opacity="0.1"></path>
            <path d="M675.65,362.97 L664.38,364.16 C664.05059,358.092254 664.114056,352.009552 664.57,345.95 C668.85,348.26 671.74,350.08 671.74,350.08 L675.65,362.97 Z" id="Shape" fill="#000000" opacity="0.1"></path>
            <path d="M826.91,318.3 C826.91,318.3 819.8,320.55 815.8,322.12 C811.8,323.69 791.73,325.45 791.73,325.45 C791.686263,326.847925 790.585898,327.982948 789.19,328.07 C786.68,328.32 778.68,331.3 778.68,331.3 C778.68,331.3 766.68,337.46 759.4,339.42 C752.12,341.38 748.93,339.71 748.93,339.71 C748.93,339.71 748.12,345 739.93,342.08 C731.74,339.16 730.64,342.24 730.64,342.24 C730.64,342.24 707.51,341.61 690.64,343.87 C673.77,346.13 666.46,344.55 666.46,344.55 C666.46,344.55 664.27,371.07 668.86,372.29 C669.44,372.45 686.69,372.4 691.22,374.53 C695.75,376.66 705.53,373.53 705.53,373.53 C705.53,373.53 708.05,372.98 711.85,375.25 C715.65,377.52 736.28,377.52 736.28,377.52 C736.28,377.52 737.75,377.83 743.03,379.39 C748.31,380.95 757.61,379.6 757.61,379.6 L779.38,382.45 C779.38,382.45 780.93,397.8 779.23,403.37 C777.53,408.94 778.89,436.37 778.89,436.37 C778.89,436.37 783.89,469.75 782.48,473.71 C781.07,477.67 797.25,470.83 797.25,470.83 C797.25,470.83 821.17,458.21 826.6,459.17 C832.03,460.13 844.05,455.45 844.05,455.45 C844.05,455.45 849.29,449.92 855.46,451.34 C859.322107,452.203837 863.273026,452.60665 867.23,452.54 C867.23,452.54 868.97,444.17 858.38,442.98 C858.38,442.98 853.71,439.82 858.21,434.14 C862.71,428.46 855.58,413.97 855.58,413.97 C855.58,413.97 853.31,408.04 854.52,405.55 C855.73,403.06 853.11,381.22 853.11,381.22 C853.11,381.22 853.11,361.03 848.67,352.41 C844.23,343.79 841.2,328.41 836.08,326.15 C830.96,323.89 826.91,318.3 826.91,318.3 Z" id="Shape" fill="#DCE6F2"></path>
            <path d="M800.13,385.97 C800.13,385.97 831.32,399.84 839.7,411.02 C848.08,422.2 800.13,385.97 800.13,385.97 Z" id="Shape" fill="#000000" opacity="0.1"></path>
            <path d="M812.46,409.75 C812.46,409.75 850.16,431.67 847.58,437.23 C845,442.79 812.46,409.75 812.46,409.75 Z" id="Shape" fill="#000000" opacity="0.1"></path>
            <path d="M818.62,431.8 C818.62,431.8 832.25,437.31 834.71,440.44 C837.17,443.57 818.62,431.8 818.62,431.8 Z" id="Shape" fill="#000000" opacity="0.1"></path>
            <path d="M756.2,346.3 C756.2,346.3 785.01,361.75 780.06,368.02 C775.11,374.29 756.2,346.3 756.2,346.3 Z" id="Shape" fill="#000000" opacity="0.1"></path>
            <path d="M744.7,357.19 C744.7,357.19 749.4,368.19 749.52,370.08 C749.64,371.97 740.84,358.75 744.7,357.19 Z" id="Shape" fill="#000000" opacity="0.1"></path>
            <path d="M725.38,360.15 C725.38,360.74 740.38,369.94 734.19,372.36 C728,374.78 725.38,360.15 725.38,360.15 Z" id="Shape" fill="#000000" opacity="0.1"></path>
            <path d="M736.79,545.56 C737.23,546.15 738.79,551.92 743.59,554.5 C748.39,557.08 736.79,545.56 736.79,545.56 Z" id="Shape" fill="#000000" opacity="0.1"></path>
            <path d="M691.8,589.26 C691.73,594.12 690.91,609.59 694.87,611.26 C698.83,612.93 691.8,589.26 691.8,589.26 Z" id="Shape" fill="#000000" opacity="0.1"></path>
            <path d="M702.8,602.97 C702.8,602.97 711.86,618.28 708.73,620.89 C705.6,623.5 702,617.25 702,617.25 L702.8,602.97 Z" id="Shape" fill="#000000" opacity="0.1"></path>
            <path d="M864.13,636.28 C867.8121,636.991179 871.561552,637.293014 875.31,637.18 C881.38,636.97 864.13,636.28 864.13,636.28 Z" id="Shape" fill="#000000" opacity="0.1"></path>
            <path d="M859.38,628.84 C859.38,628.84 870.55,630.92 874.56,628.77 C878.57,626.62 859.38,628.84 859.38,628.84 Z" id="Shape" fill="#000000" opacity="0.1"></path>
            <path d="M854.98,616.97 C854.98,616.97 866.16,617.87 868.43,614.07 C870.7,610.27 854.98,616.97 854.98,616.97 Z" id="Shape" fill="#000000" opacity="0.1"></path>
            <path d="M851.83,610.75 C851.83,610.75 862.56,612.53 864.36,610.05 C866.16,607.57 851.83,610.75 851.83,610.75 Z" id="Shape" fill="#000000" opacity="0.1"></path>
            <path d="M841.38,588.2 C841.38,588.2 852.94,593.67 854.22,596.79 C855.5,599.91 841.38,588.2 841.38,588.2 Z" id="Shape" fill="#000000" opacity="0.1"></path>
            <path d="M826.51,294.97 C826.409925,302.601712 822.844203,309.773634 816.82,314.46 C816.75,314.33 816.69,314.2 816.63,314.07 C815.53,311.72 815.25,309.07 814.23,306.73 C813.931721,305.837814 813.291515,305.100498 812.45,304.68 C810.83,304.05 809.22,305.53 808.15,306.86 C807.08,308.19 805.49,309.69 803.86,309.1 C802.956302,308.666876 802.244166,307.915572 801.86,306.99 C800.19,303.99 798.46,300.82 798.35,297.4 C798.46992,295.715999 798.489955,294.026371 798.41,292.34 C797.98,289.4 795.77,286.93 793.23,285.27 C790.578036,283.743279 787.821118,282.406592 784.98,281.27 C783.694281,280.728103 782.510587,279.97054 781.48,279.03 C788.161978,270.53995 799.512504,267.254056 809.696617,270.861495 C819.88073,274.468934 826.632079,284.166915 826.48,294.97 L826.51,294.97 Z" id="Shape" fill="#000000" opacity="0.1"></path>
            <path d="M778.38,275.29 C777.77,276.71 780.09,276.58 781.1,277.78 C782.194897,278.925762 783.520876,279.825655 784.99,280.42 C787.828352,281.562842 790.584841,282.899321 793.24,284.42 C795.79,286.09 797.99,288.55 798.42,291.5 C798.498281,293.182935 798.481588,294.868945 798.37,296.55 C798.48,299.98 800.2,303.13 801.87,306.15 C802.263475,307.069489 802.972874,307.817905 803.87,308.26 C805.51,308.84 807.08,307.35 808.16,306.02 C809.24,304.69 810.85,303.21 812.47,303.83 C813.307044,304.253449 813.943129,304.990158 814.24,305.88 C815.24,308.25 815.54,310.88 816.64,313.23 C817.74,315.58 820.1,317.7 822.74,317.35 C824.340553,317.063557 825.718055,316.051665 826.47,314.61 C827.18479,313.203033 827.528968,311.637023 827.47,310.06 C827.381227,308.829457 827.418084,307.59307 827.58,306.37 C827.99,304.37 829.34,302.79 830.5,301.14 C832.8844,297.845921 834.401019,294.004508 834.91,289.97 C835.389835,285.904378 834.39256,281.801709 832.1,278.41 C830.94,276.76 829.42,275.3 828.69,273.41 C828.36,272.56 828.21,271.65 827.95,270.77 C826.362922,265.82151 821.991054,262.286306 816.82,261.77 C812.64,261.38 808.5,262.99 804.3,262.94 C799.43,262.89 794.4,260.64 789.86,262.35 C787.81134,263.247155 786.005093,264.61812 784.59,266.35 C782.133043,269.057169 780.05414,272.084697 778.41,275.35" id="Shape" fill="#010101"></path>
            <path d="M672.58,652.97 L672,653.4 C672,653.4 674.16,657.12 669.07,662.4 C666.68,664.85 661.63,663.73 656.94,661.86 C651.336869,659.575394 646.239537,656.207756 641.94,651.95 C633.17,643.34 615.36,625.19 613.59,617.95 C612.59,613.77 616.11,612.61 621.11,612.86 C627.61,613.19 636.59,615.86 641.11,617.47 C649.17,620.24 660.02,613.62 660.02,613.62 C660.333062,612.228147 660.827275,610.883352 661.49,609.62 C662.634405,607.134376 664.838756,605.297417 667.49,604.62 C671.39,603.83 673.4,611.46 674.33,617.01 C674.33,617.23 674.4,617.46 674.44,617.68 C674.88,620.45 675.05,622.56 675.05,622.56 C681.98,622.08 684.93,632.14 684.56,637.29 C684.19,642.44 686.56,642.48 686.56,642.48 L672.58,652.97 Z" id="Shape" fill="#FFD6DB"></path>
            <path d="M672,653.37 C672,653.37 674.16,657.09 669.07,662.37 C666.68,664.82 661.63,663.71 656.94,661.83 C651.33502,659.5489 646.237037,656.180832 641.94,651.92 C633.16,643.31 615.36,625.16 613.59,617.92 C612.59,613.74 616.11,612.58 621.11,612.83 C621.54,617.05 622.62,622.83 625.26,625.9 C629.76,631.12 642.61,648.7 658.68,648.9 C663.61304,648.830632 668.456325,650.22238 672.6,652.9 L672,653.37 Z" id="Shape" fill="#C8A9B4"></path>
            <path d="M642.92,636.74 C642.92,636.74 658.42,624.88 671.45,630.23 C671.45,630.23 659.97,629.32 642.92,636.74 Z" id="Shape" fill="#000000" opacity="0.1"></path>
            <path d="M660.49,633.9 C660.49,633.9 675.31,638.54 678.26,638.58 C681.21,638.62 663.02,632.76 660.49,633.9 Z" id="Shape" fill="#000000" opacity="0.1"></path>
            <path d="M876.91,669.45 C876.91,669.45 894.7,669.82 895.27,673.86 C895.84,677.9 888.63,677.66 888.63,677.66 L876.91,669.45 Z" id="Shape" fill="#000000" opacity="0.1"></path>
            <path d="M911.43,721.68 L911.49,722.32 C911.49,722.32 915.32,722.44 916.89,728.75 C917.63,731.75 914.41,735.02 910.77,737.75 C906.405592,740.933781 901.453556,743.221166 896.2,744.48 C885.54,747.08 863.4,752.04 857.1,750 C853.45,748.81 854.24,745.58 856.78,741.9 C860.08,737.12 866.36,731.59 869.7,728.9 C875.59,724.1 875.7,712.75 875.7,712.75 C875.7,712.75 870.47,707.99 872.38,702.82 C874.29,697.65 889.53,705.52 889.53,705.52 C892.43,700.04 901.44,702.52 905.17,705.24 C908.9,707.96 910.04,706.18 910.04,706.18 L911.43,721.68 Z" id="Shape" fill="#FFD6DB"></path>
            <path d="M911.49,722.32 C911.49,722.32 915.32,722.44 916.89,728.75 C917.63,731.75 914.41,735.02 910.77,737.75 C906.405592,740.933781 901.453556,743.221166 896.2,744.48 C885.54,747.08 863.4,752.04 857.1,750 C853.45,748.81 854.24,745.58 856.78,741.9 C860.18,743.55 865.06,745.45 868.64,744.9 C874.71,743.9 894.09,742.46 901.82,730.39 C904.099621,726.619126 907.44303,723.60623 911.43,721.73 L911.49,722.32 Z" id="Shape" fill="#C8A9B4"></path>
            <path d="M885.19,736.56 C885.19,736.56 883.49,719.23 893.68,711.85 C893.68,711.85 887.59,720.14 885.19,736.56 Z" id="Shape" fill="#000000" opacity="0.1"></path>
            <path d="M891.31,721.89 C891.31,721.89 901.79,712.89 903.21,710.62 C904.63,708.35 891.63,719.44 891.31,721.89 Z" id="Shape" fill="#000000" opacity="0.1"></path>
            <path d="M868.11,464.06 C868.11,464.06 854.6,471.06 844.77,468.29 C834.94,465.52 868.11,464.06 868.11,464.06 Z" id="Shape" fill="#000000" opacity="0.1"></path>
            <path d="M872.92,478.13 C872.92,478.13 870.8,481.93 857.55,481 C844.3,480.07 872.92,478.13 872.92,478.13 Z" id="Shape" fill="#000000" opacity="0.1"></path>
            <g id="Group" opacity="0.1" transform="translate(778.000000, 270.000000)" fill="#000000">
                <path d="M51.92,31.97 L52.48,31.19 C52.89,30.6 53.28,29.99 53.64,29.37 C53.0117203,30.1990385 52.4372099,31.0674845 51.92,31.97 Z" id="Shape"></path>
                <path d="M46.32,44.97 C43.69,45.32 41.32,43.19 40.22,40.85 C39.12,38.51 38.84,35.85 37.82,33.5 C37.5231294,32.6101577 36.887044,31.8734486 36.05,31.45 C34.43,30.83 32.82,32.31 31.74,33.64 C30.66,34.97 29.09,36.46 27.45,35.88 C26.5496354,35.4423129 25.8389003,34.6924874 25.45,33.77 C23.77,30.77 22.05,27.6 21.94,24.18 C22.0349032,22.4946683 22.0349032,20.8053317 21.94,19.12 C21.52,16.17 19.31,13.71 16.76,12.05 C14.21,10.39 11.28,9.35 8.51,8.05 C7.04387681,7.45549699 5.72119775,6.55552979 4.63,5.41 C3.63,4.21 1.29,4.34 1.91,2.92 C2.37,2 2.91,1.11 3.41,0.23 C2.25886589,1.85359153 1.22619306,3.55800301 0.32,5.33 C-0.29,6.75 2.03,6.62 3.04,7.82 C4.13489735,8.96576234 5.46087584,9.8656552 6.93,10.46 C9.76835228,11.6028417 12.5248414,12.9393213 15.18,14.46 C17.73,16.13 19.93,18.59 20.36,21.54 C20.4382809,23.2229348 20.4215877,24.9089451 20.31,26.59 C20.42,30.02 22.14,33.17 23.81,36.19 C24.2034749,37.1094893 24.9128739,37.8579052 25.81,38.3 C27.45,38.88 29.02,37.39 30.1,36.06 C31.18,34.73 32.79,33.25 34.41,33.87 C35.247044,34.2934486 35.8831294,35.0301577 36.18,35.92 C37.18,38.29 37.48,40.92 38.58,43.27 C39.68,45.62 42.04,47.74 44.68,47.39 C46.2805526,47.1035569 47.6580553,46.0916649 48.41,44.65 C48.5702012,44.3495253 48.7105029,44.0388572 48.83,43.72 C48.1326262,44.3717919 47.2603851,44.8061749 46.32,44.97 Z" id="Shape"></path>
            </g>
            <path d="M791.11,327.36 C791.11,327.36 802.62,326.79 810.28,327.05 C817.94,327.31 829.28,321.13 829.28,321.13" id="Shape" fill="#000000" opacity="0.1"></path>
            <path d="M315.16,407.48 C314,401.58 303.09,402.53 295.16,404.05 C294.49,404.18 293.84,404.31 293.22,404.45 L293.79,402.08 L290.06,400.54 C282.73031,397.51515 275.061076,395.389658 267.22,394.21 C255.74,392.49 237.54,388.8 226.35,381.65 C216.18,375.15 212.1,373.27 209.26,371.52 C209.26,371 209.26,370.52 209.26,369.99 C209.26,367.09 209.09,364.43 208.87,362.06 C208.661567,359.880578 208.23954,357.726903 207.61,355.63 C205.23,347.74 199.87,345.21 194.5,340.27 C190.983032,336.956896 186.996844,334.18038 182.67,332.03 C183.109911,329.417902 183.875896,326.871338 184.95,324.45 C185.1,324.08 185.26,323.72 185.41,323.35 C185.41,323.3 185.41,323.26 185.48,323.21 C185.64,322.84 185.8,322.47 185.96,322.12 C193.864633,317.82215 198.798166,309.557429 198.83,300.56 C198.828989,294.048038 196.221799,287.807345 191.59,283.23 C191.203333,282.85 190.803333,282.48 190.39,282.12 L191.55,281.74 C194.02,280.86 196.71,278.44 195.99,276.38 L195.63,276.38 C195.61209,276.233512 195.578566,276.089359 195.53,275.95 C194.433081,275.912807 193.378873,275.515722 192.53,274.82 C191.38,273.4 191.03,271.27 188.92,269.28 C188.446062,268.7726 187.919803,268.316733 187.35,267.92 C185.811645,266.883103 184.080781,266.165594 182.26,265.81 C182.41,265.91 182.57,265.99 182.72,266.1 L183.03,266.34 C178.84,265.34 174.11,265.49 170.13,263.78 C169.172634,263.354628 168.252727,262.849515 167.38,262.27 L167.9,262.41 C165.75,261.17 163.82,259.58 161.59,258.41 C160.353992,257.78704 159.048105,257.313698 157.7,257 L158.7,257.59 C152.785106,256.220723 146.56926,257.218416 141.38,260.37 C135.23,263.99 130.87,269.8 127.63,275.91 C122.183878,286.166549 119.528544,297.674144 119.93,309.28 C120.13,314.88 121.03,320.69 118.93,325.95 C117.19,330.35 113.54,333.85 111.36,338.07 C102.95,354.39 118.44,375.59 108.95,391.37 C105.52,397.08 99.38,400.86 95.2,406.11 C91.02,411.36 89.51,419.85 95.08,423.79 C99.08,426.63 104.77,425.71 109.54,427.15 C108.725728,432.067865 106.335772,436.588075 102.73,440.03 L101.95,439.88 C101.77,440.05 101.6,440.23 101.41,440.39 L102.15,440.58 L101.87,440.85 C107.087652,442.360859 112.451111,443.312873 117.87,443.69 C122.68,444.03 127.77,443.85 131.95,441.57 C134.067435,440.370054 135.934611,438.774468 137.45,436.87 C137.45,437.87 137.52,438.75 137.58,439.66 C137.72802,443.340219 138.250721,446.995772 139.14,450.57 C143.77,467.36 129.14,480.52 129.14,480.52 C125.5563,487.816582 123.870981,495.899234 124.24,504.02 L124.24,504.02 C124.510684,508.936987 125.522079,513.78494 127.24,518.4 C127.38,518.77 127.51,519.13 127.65,519.48 C127.92,520.18 128.21,520.86 128.49,521.48 C128.92,522.48 129.35,523.35 129.78,524.17 C130.06,524.73 130.34,525.25 130.61,525.73 C131.547828,527.457957 132.624715,529.106731 133.83,530.66 C135.31,529.653333 136.79,528.703333 138.27,527.81 C138.27,528.38 138.27,528.98 138.27,529.6 C138.35,535.79 137.73,543.6 137.73,543.6 C137.73,543.6 133.09,560.17 132.63,564.94 C132.17,569.71 130.38,599.21 130.38,599.21 C130.38,599.21 124.12,618.28 112.54,629.85 C100.96,641.42 103.54,674.56 103.54,674.56 C103.54,674.56 95.43,702.47 98.21,703.83 C98.6594417,703.972004 99.1372342,703.999503 99.6,703.91 L99.6,705.04 C94.6,708.51 90.8,711.32 90.8,711.32 C90.8,711.32 89.41,734.24 87.55,738.67 C85.69,743.1 89.87,748.32 89.87,748.32 C89.87,748.32 131.12,747.18 134.71,746.95 C136.36,746.85 141.86,745.06 147.55,742.53 C152.44,741.44 167.2,735.69 172.55,730.34 C173.34278,729.629903 173.982472,728.765638 174.43,727.8 C176.98,721.44 153.92,726.21 147.66,726.21 C141.4,726.21 140.71,721.44 137.81,717.81 C134.91,714.18 137,708.17 137,708.17 L136.4,691.17 L139.15,690.06 C139.15,690.06 142.86,675.53 148.88,668.5 C154.9,661.47 165.57,634.68 165.8,633.32 C166.03,631.96 166.26,629.46 170.66,623.32 C175.06,617.18 179.38,604.06 179.38,604.06 C179.38,604.06 189.38,572.74 196.99,556.63 C201.66,546.78 204.26,529.33 205.57,517.23 C207.009031,517.622832 208.424635,518.096926 209.81,518.65 C209.81,518.65 211.95,504.94 212.81,489.29 C213.3205,481.295745 213.257004,473.275171 212.62,465.29 C211.4,452.29 203.81,427.12 204.26,403.7 C206.09,404.88 207.87,406 209.47,407 C209.47,406.41 209.54,405.83 209.58,405.24 C213.68,407.79 216.64,409.54 216.64,409.54 C216.64,409.54 241.2,423.15 262.75,423.38 C284.3,423.61 288.01,426.1 288.01,426.1 L289.37,420.48 L291.3,420.12 C300.38,418.38 316.49,414.25 315.16,407.48 Z" id="Shape" fill="url(#linearGradient-2)"></path>
            <path d="M198.53,277.34 L197.41,276.51 C197.612736,276.741282 197.768926,277.009522 197.87,277.3 L198.53,277.34 Z" id="Shape" fill="url(#linearGradient-3)"></path>
            <path d="M196.01,276.38 L196.68,276.38 L196.05,275.91 L196.22,275.91 L195.1,275.09 C195.298069,275.319138 195.450779,275.583835 195.55,275.87 L195.8,275.87 C195.891117,276.030518 195.961671,276.201864 196.01,276.38 L196.01,276.38 Z" id="Shape" fill="url(#linearGradient-4)"></path>
            <rect id="Rectangle-path" fill="#965D7B" x="147.39" y="317.42" width="17.83" height="27.83"></rect>
            <rect id="Rectangle-path" fill="#000000" opacity="0.1" x="147.39" y="317.42" width="17.83" height="27.83"></rect>
            <rect id="Rectangle-path" fill="#E8F4FF" transform="translate(110.505000, 701.550000) rotate(-180.000000) translate(-110.505000, -701.550000) " x="102.4" y="690.63" width="16.21" height="21.84"></rect>
            <path d="M149.38,317.84 C153.73,319.5 158.63,328.29 158.87,335.63 C158.97,338.94 155.08,344.56 155.08,344.56 L159.08,344.09 C161.13,343.82 163.79,343.46 166.61,343.04 C168.97,342.68 171.44,342.28 173.76,341.85 C180.13,340.67 185.34,339.26 183.91,337.96 C183.22,337.33 183.04,336.12 183.22,334.58 C183.65323,331.992794 184.398673,329.467688 185.44,327.06 C185.75,326.27 186.09,325.49 186.44,324.75 C187.91,321.39 189.33,318.75 189.33,318.75 C189.33,318.75 175.72,317.75 164.33,317.28 C160.44,317.11 156.8,317 154.02,316.99 L152.93,316.99 C149.48,316.97 147.82,317.25 149.38,317.84 Z" id="Shape" fill="#8F5F55"></path>
            <path d="M206.56,505.18 C206.56,505.18 204.56,541.43 197.11,557.41 C189.66,573.39 180,604.47 180,604.47 C180,604.47 175.72,617.53 171.44,623.61 C167.16,629.69 166.94,632.17 166.71,633.52 C166.48,634.87 156.13,661.44 150.27,668.42 C144.41,675.4 140.82,689.81 140.82,689.81 C140.82,689.81 115.15,700.61 112.45,699.26 C109.75,697.91 117.63,670.26 117.63,670.26 C117.63,670.26 115.15,637.38 126.41,625.9 C137.67,614.42 143.75,595.51 143.75,595.51 C143.75,595.51 145.55,566.23 146,561.51 C146.45,556.79 150.95,540.34 150.95,540.34 C150.95,540.34 152.3,523 150.73,519.63 C149.16,516.26 206.56,505.18 206.56,505.18 Z" id="Shape" fill="#575A89"></path>
            <path d="M206.56,505.18 C206.56,505.18 204.56,541.43 197.11,557.41 C189.66,573.39 180,604.47 180,604.47 C180,604.47 175.72,617.53 171.44,623.61 C167.16,629.69 166.94,632.17 166.71,633.52 C166.48,634.87 156.13,661.44 150.27,668.42 C144.41,675.4 140.82,689.81 140.82,689.81 C140.82,689.81 115.15,700.61 112.45,699.26 C109.75,697.91 117.63,670.26 117.63,670.26 C117.63,670.26 115.15,637.38 126.41,625.9 C137.67,614.42 143.75,595.51 143.75,595.51 C143.75,595.51 145.55,566.23 146,561.51 C146.45,556.79 150.95,540.34 150.95,540.34 C150.95,540.34 152.3,523 150.73,519.63 C149.16,516.26 206.56,505.18 206.56,505.18 Z" id="Shape" fill="#000000" opacity="0.05"></path>
            <path d="M137.89,688.46 L138.57,707.93 C138.57,707.93 136.57,713.93 139.35,717.5 C142.13,721.07 142.84,725.83 148.92,725.83 C155,725.83 177.41,721.1 174.92,727.41 C172.43,733.72 151.39,741.82 147.92,742.04 C144.45,742.26 104.38,743.39 104.38,743.39 C104.38,743.39 100.33,738.22 102.13,733.83 C103.93,729.44 105.28,706.69 105.28,706.69 C105.28,706.69 136.54,682.97 137.89,688.46 Z" id="Shape" fill="#444053"></path>
            <path d="M138.06,688.29 L138.73,707.77 C138.73,707.77 136.73,713.77 139.52,717.33 C142.31,720.89 143.01,725.67 149.09,725.67 C155.17,725.67 177.57,720.94 175.09,727.24 C172.61,733.54 151.56,741.65 148.09,741.88 C144.62,742.11 104.52,743.23 104.52,743.23 C104.52,743.23 100.52,738.05 102.27,733.66 C104.02,729.27 105.38,706.53 105.38,706.53 C105.38,706.53 136.71,682.77 138.06,688.29 Z" id="Shape" fill="#000000" opacity="0.05"></path>
            <path d="M101.04,703.47 C103.74,704.82 129.38,693.97 129.38,693.97 C129.38,693.97 132.98,679.56 138.84,672.58 C144.7,665.6 155.05,639.03 155.27,637.68 C155.49,636.33 155.72,633.85 160,627.77 C164.28,621.69 168.56,608.63 168.56,608.63 C168.56,608.63 178.24,577.56 185.67,561.58 C190.83,550.48 193.38,529.58 194.47,517.89 C194.94,512.73 195.13,509.34 195.13,509.34 C195.13,509.34 137.71,520.34 139.29,523.75 C139.81,524.87 140.01,527.52 140.04,530.58 C140.12,536.72 139.51,544.46 139.51,544.46 C139.51,544.46 135.01,560.9 134.56,565.63 C134.11,570.36 132.31,599.63 132.31,599.63 C132.31,599.63 126.23,618.54 114.97,630.02 C103.71,641.5 106.19,674.38 106.19,674.38 C106.19,674.38 98.38,702.12 101.04,703.47 Z" id="Shape" fill="#575A89"></path>
            <path d="M161.38,547.88 C161.38,547.88 149.67,544.73 145.62,548.33 C141.57,551.93 161.38,547.88 161.38,547.88 Z" id="Shape" fill="#000000" opacity="0.1"></path>
            <path d="M161.16,562.74 C161.16,562.74 142.69,558.74 142.47,564.54 C142.25,570.34 161.16,562.74 161.16,562.74 Z" id="Shape" fill="#000000" opacity="0.1"></path>
            <path d="M153.73,578.97 C153.73,578.97 147.38,584.36 143.38,582.56 C139.38,580.76 153.73,578.97 153.73,578.97 Z" id="Shape" fill="#000000" opacity="0.1"></path>
            <path d="M136.62,608.22 C136.62,608.22 149.45,612.95 146.52,617.91 C143.59,622.87 141.34,623.54 140.22,622.18 C139.1,620.82 136.62,608.22 136.62,608.22 Z" id="Shape" fill="#000000" opacity="0.1"></path>
            <path d="M126.48,692.66 L127.16,712.14 C127.16,712.14 125.16,718.14 127.95,721.7 C130.74,725.26 131.44,730.04 137.52,730.04 C143.6,730.04 166,725.31 163.52,731.61 C161.04,737.91 139.99,746.02 136.52,746.25 C133.05,746.48 92.95,747.6 92.95,747.6 C92.95,747.6 88.9,742.42 90.7,738.03 C92.5,733.64 93.85,710.9 93.85,710.9 C93.85,710.9 125.13,687.14 126.48,692.66 Z" id="Shape" fill="#444053"></path>
            <path d="M119.95,718.78 C119.95,718.78 119.39,722.61 107.34,718.89 C95.29,715.17 119.95,718.78 119.95,718.78 Z" id="Shape" fill="#000000" opacity="0.1"></path>
            <path d="M98,721.59 C98,721.59 95.3,725.31 104.87,727 C114.44,728.69 98,721.59 98,721.59 Z" id="Shape" fill="#000000" opacity="0.1"></path>
            <path d="M100.59,718.66 C100.59,718.66 110.05,726.88 112.97,726.88" id="Shape" fill="#000000" opacity="0.1"></path>
            <path d="M152.85,316.97 C157.03,324.55 164.69,323.24 174.37,329.69 C177.67,331.9 182.11,328.75 185.43,327.05 C187.18,322.69 189.3,318.73 189.3,318.73 C189.3,318.73 163.12,316.88 152.85,316.97 Z" id="Shape" fill="#000000" opacity="0.1"></path>
            <path d="M149.83,303.36 C149.830001,316.911766 160.814902,327.898158 174.366668,327.899998 C187.918434,327.901838 198.906318,316.918429 198.909999,303.366664 C198.91368,289.814899 187.931765,278.825522 174.38,278.82 C167.860886,278.787911 161.599356,281.36274 156.988652,285.971567 C152.377947,290.580393 149.800567,296.840874 149.83,303.36 Z" id="Shape" fill="#8F5F55"></path>
            <path d="M139.32,523.79 C139.84,524.91 140.04,527.56 140.07,530.62 C161.63,517.24 181.56,516.33 194.5,517.93 C194.97,512.77 195.16,509.38 195.16,509.38 C195.16,509.38 137.74,520.41 139.32,523.79 Z" id="Shape" fill="#000000" opacity="0.1"></path>
            <path d="M135.71,531.67 C174.71,504.67 209.57,519.74 209.57,519.74 C209.57,519.74 211.64,506.14 212.45,490.61 C212.937246,482.685299 212.877103,474.736421 212.27,466.82 C211,453.11 202.74,425.73 204.32,401.3 C205.02,390.55 209.19,380.53 209.04,372.24 C209.04,369.37 208.88,366.73 208.67,364.38 C208.467632,362.218511 208.055696,360.081803 207.44,358 C205.14,350.16 199.92,347.66 194.71,342.76 C191.303837,339.477757 187.428024,336.720874 183.21,334.58 C174.75,330.45 166.21,330.45 158.87,335.63 C157.496645,336.605361 156.211698,337.699574 155.03,338.9 C153.521023,340.442021 152.15229,342.115289 150.94,343.9 C150.73,344.19 150.54,344.49 150.35,344.78 C149.27,346.47 148.27,349.53 147.35,353.32 C143.96,367.57 141.99,392.06 141.99,392.06 C141.99,392.06 138.16,421.65 139.35,441.35 C139.49385,445.001061 139.999661,448.628837 140.86,452.18 C145.37,468.84 131.18,481.9 131.18,481.9 C127.700539,489.163049 126.075426,497.175237 126.45,505.22 C126.916453,514.746134 130.132767,523.933123 135.71,531.67 Z" id="Shape" fill="#656EFF"></path>
            <path d="M282.97,423.02 C282.97,423.02 285.34,422.68 288.71,422.02 C297.52,420.26 313.22,416.16 311.92,409.45 C310.8,403.6 300.2,404.54 292.49,406.05 C287.94,406.93 284.4,408.05 284.4,408.05 L282.97,423.02 Z" id="Shape" fill="#8F5F55"></path>
            <path d="M166.38,376.61 C171.11,380.21 182.82,390.12 191.82,397.1 C196.89,401.03 203.96,405.67 209.17,408.99 C209.87,398.23 210.36,387.99 210.22,379.74 C206.68,376.88 205.5,373.16 200.16,366.93 C190.7,355.93 173.81,352.07 173.81,352.07 C162.58,349.59 161.68,372.97 166.38,376.61 Z" id="Shape" fill="#000000" opacity="0.1"></path>
            <path d="M282.97,423.02 C282.97,423.02 285.34,422.68 288.71,422.02 L292.49,406.02 C287.94,406.9 284.4,408.02 284.4,408.02 L282.97,423.02 Z" id="Shape" fill="#000000" opacity="0.1"></path>
            <path d="M173.84,350.27 C173.84,350.27 190.73,354.09 200.19,365.13 C209.65,376.17 206.19,371.13 225.63,383.82 C236.5,390.91 254.18,394.57 265.34,396.27 C272.966174,397.450808 280.418568,399.563271 287.53,402.56 L291.15,404.08 L285.52,427.97 C285.52,427.97 281.92,425.49 260.98,425.27 C240.04,425.05 216.17,411.53 216.17,411.53 C216.17,411.53 200.86,402.3 191.85,395.32 C182.84,388.34 171.14,378.41 166.38,374.81 C161.62,371.21 162.58,347.79 173.84,350.27 Z" id="Shape" fill="#E8F4FF"></path>
            <path d="M147.38,355.13 C150.66,357.13 154.63,356.31 159.38,350.42 C172.16,334.48 193.38,350.36 207.46,359.8 C205.16,351.97 199.94,349.46 194.73,344.56 C179.63,330.37 162.73,328.62 150.96,345.71 C150.75,346 150.56,346.3 150.37,346.59 C149.27,348.28 148.27,351.34 147.38,355.13 Z" id="Shape" fill="#000000" opacity="0.1"></path>
            <path d="M147.38,353.33 C150.66,355.33 154.63,354.51 159.38,348.62 C159.495356,348.463615 159.61886,348.313407 159.75,348.17 C161.578017,345.915569 163.939207,344.152409 166.62,343.04 C168.890073,342.133942 171.328832,341.728051 173.77,341.85 C185.04,342.21 197.91,351.59 207.46,358 C205.16,350.16 199.94,347.66 194.73,342.76 C191.323837,339.477757 187.448024,336.720874 183.23,334.58 C174.77,330.45 166.23,330.45 158.89,335.63 C157.516645,336.605361 156.231698,337.699574 155.05,338.9 C153.541023,340.442021 152.17229,342.115289 150.96,343.9 C150.75,344.19 150.56,344.49 150.37,344.78 C149.27,346.48 148.27,349.54 147.38,353.33 Z" id="Shape" fill="#656EFF"></path>
            <path d="M126.45,503.42 C126.916453,512.946134 130.132767,522.133123 135.71,529.87 C174.71,502.87 209.57,517.94 209.57,517.94 C209.57,517.94 211.64,504.34 212.45,488.81 C197.6,488.68 155.31,489.03 141.12,496.81 C136.427603,499.427961 131.519681,501.639369 126.45,503.42 L126.45,503.42 Z" id="Shape" fill="#000000" opacity="0.1"></path>
            <path d="M126.45,505.22 C126.916453,514.746134 130.132767,523.933123 135.71,531.67 C174.71,504.67 209.57,519.74 209.57,519.74 C209.57,519.74 211.64,506.14 212.45,490.61 C197.6,490.48 155.31,490.83 141.12,498.61 C136.427603,501.227961 131.519681,503.439369 126.45,505.22 L126.45,505.22 Z" id="Shape" fill="#E8F4FF"></path>
            <path d="M198.61,280.32 L197.52,279.5 C197.718069,279.729138 197.870779,279.993835 197.97,280.28 L198.61,280.32 Z" id="Shape" fill="#000000" opacity="0.1"></path>
            <path d="M139.38,441.36 C140.717883,439.996364 141.920191,438.506037 142.97,436.91 C152.39,422.99 154.32,405.17 150.67,388.91 C149.86,385.3 148.8,381.48 150.1,378 C151.88,373.22 157.48,370.73 160.03,366.29 C163.14,360.86 160.98,354.29 159.73,348.15 C159.73,347.9 159.64,347.67 159.59,347.43 C159.37,346.32 159.2,345.19 159.07,344.07 C158.293199,337.314951 159.003118,330.471744 161.15,324.02 C161.26,323.69 161.37,323.36 161.49,323.02 C162.20311,320.998015 163.128265,319.0572 164.25,317.23 C166.55,313.52 169.77,310.44 174.03,309.35 C175.236891,309.201275 176.391579,308.769552 177.4,308.09 C179.93,305.88 177.05,302.09 176.48,298.83 C175.78,295.01 178.76,291.37 182.28,289.47 C185.28,287.86 188.63,287.14 191.88,286.13 C183.009001,277.060566 168.68887,276.243982 158.844386,284.246193 C148.999902,292.248404 146.87397,306.433375 153.94,316.97 L152.85,316.97 C149.48,316.97 147.85,317.24 149.38,317.83 C153.73,319.49 154.79,331.55 155.03,338.89 C153.521023,340.432021 152.15229,342.105289 150.94,343.89 C150.73,344.18 150.54,344.48 150.35,344.77 C149.27,346.46 148.27,349.52 147.35,353.31 C143.96,367.56 141.99,392.05 141.99,392.05 C141.99,392.05 138.19,421.66 139.38,441.36 Z" id="Shape" fill="#000000" opacity="0.1"></path>
            <path d="M195.72,278.6 C197.55,280.77 194.56,283.7 191.84,284.68 C188.07,286.05 184,286.68 180.48,288.61 C176.96,290.54 173.99,294.15 174.67,297.97 C175.26,301.22 178.13,304.97 175.6,307.23 C174.590096,307.908446 173.436484,308.343189 172.23,308.5 C165.87,310.12 161.84,316.17 159.69,322.16 C156.884323,329.973239 156.228142,338.396526 157.79,346.55 C159,352.88 161.46,359.77 158.23,365.41 C155.68,369.86 150.08,372.34 148.3,377.12 C147,380.6 148.06,384.42 148.87,388.03 C152.52,404.27 150.59,422.09 141.17,436.03 C139.353491,438.986379 136.866379,441.473491 133.91,443.29 C129.85,445.54 124.91,445.72 120.23,445.39 C114.956526,445.009983 109.739568,444.06114 104.67,442.56 C108.654438,439.029808 111.290964,434.226807 112.13,428.97 C107.49,427.53 101.98,428.45 98.08,425.63 C92.67,421.73 94.13,413.3 98.19,408.09 C102.25,402.88 108.19,399.09 111.56,393.47 C120.77,377.81 105.72,356.77 113.89,340.59 C116.01,336.39 119.56,332.92 121.25,328.59 C123.25,323.37 122.4,317.59 122.2,312.05 C121.810249,300.553099 124.389863,289.149759 129.69,278.94 C132.83,272.88 137.07,267.12 143.04,263.53 C149.01,259.94 156.95,258.85 163.14,262.07 C165.88,263.49 168.14,265.65 170.99,266.89 C176.45,269.28 183.37,267.99 188.17,271.44 C192.97,274.89 190.78,279.32 196.81,279.44" id="Shape" fill="#000000"></path>
            <path d="M171.1,448.97 C168.76,450.14 164.1,460.69 153.52,468.31 C142.94,475.93 171.1,448.97 171.1,448.97 Z" id="Shape" fill="#000000" opacity="0.1"></path>
            <path d="M175.79,427.87 C175.79,427.87 162.31,456 146.49,460.1 C130.67,464.2 175.79,427.87 175.79,427.87 Z" id="Shape" fill="#000000" opacity="0.1"></path>
            <path d="M200.71,496.17 C200.71,496.17 196.21,510.28 197.11,511.48 C198.01,512.68 200.71,496.17 200.71,496.17 Z" id="Shape" fill="#000000" opacity="0.1"></path>
            <path d="M192,496.77 C192,496.77 187.5,510.88 188.4,512.08 C189.3,513.28 192,496.77 192,496.77 Z" id="Shape" fill="#000000" opacity="0.1"></path>
            <path d="M182.1,496.47 C182.1,496.47 177.59,510.58 178.49,511.78 C179.39,512.98 182.1,496.47 182.1,496.47 Z" id="Shape" fill="#000000" opacity="0.1"></path>
            <path d="M134.01,507.64 C134.01,507.64 136.9,522.16 138.27,522.78 C139.64,523.4 134.01,507.64 134.01,507.64 Z" id="Shape" fill="#000000" opacity="0.1"></path>
            <path d="M150.82,501.33 C150.82,501.33 153.71,515.86 155.08,516.47 C156.45,517.08 150.82,501.33 150.82,501.33 Z" id="Shape" fill="#000000" opacity="0.1"></path>
            <path d="M141.22,505.54 C141.22,505.54 144.11,520.06 145.48,520.68 C146.85,521.3 141.22,505.54 141.22,505.54 Z" id="Shape" fill="#000000" opacity="0.1"></path>
            <path d="M226.23,391.55 C225.48,391.7 228.48,398.9 219.92,399.35 C211.36,399.8 226.23,391.55 226.23,391.55 Z" id="Shape" fill="#000000" opacity="0.1"></path>
            <path d="M283.72,409.71 C283.72,409.71 280.42,416.61 275.01,417.96 C269.6,419.31 283.72,409.71 283.72,409.71 Z" id="Shape" fill="#000000" opacity="0.1"></path>
            <path d="M257.75,405.36 C257.75,405.36 264.96,412.86 254.9,414.51 C244.84,416.16 257.75,405.36 257.75,405.36 Z" id="Shape" fill="#000000" opacity="0.1"></path>
            <path d="M200.56,376.54 C200.56,376.54 185.85,372.03 183.56,375.33 C181.27,378.63 200.56,376.54 200.56,376.54 Z" id="Shape" fill="#000000" opacity="0.1"></path>
            <path d="M174.81,394.97 C172.46,396.14 167.81,406.69 157.22,414.31 C146.63,421.93 174.81,394.97 174.81,394.97 Z" id="Shape" fill="#000000" opacity="0.1"></path>
            <g id="Group" opacity="0.1" transform="translate(97.000000, 260.000000)" fill="#000000">
                <path d="M69.04,4.6 C66.46,3.47 64.33,1.6 61.91,0.18 C63.2223946,0.490715057 64.4918307,0.960876569 65.69,1.58 C67.85,2.7 69.74,4.28 71.82,5.51 C70.8685555,5.28836578 69.9383384,4.98387026 69.04,4.6 Z" id="Shape"></path>
                <path d="M99.38,18.97 L98.73,18.92 C98.6320169,18.638421 98.4828459,18.3773717 98.29,18.15 L99.38,18.97 Z" id="Shape"></path>
                <path d="M10.18,166.71 C10.13,167.02 10.05,167.33 9.99,167.65 C6.66,167.28 3.31,167.08 0.68,165.21 C3.76,165.83 7.15,165.77 10.18,166.71 Z" id="Shape"></path>
                <path d="M18.28,183.11 C22.95,183.45 27.9,183.27 31.96,181.01 C34.9159394,179.197217 37.4031447,176.713438 39.22,173.76 C48.64,159.83 50.57,142.01 46.92,125.76 C46.11,122.15 45.05,118.32 46.34,114.85 C48.13,110.07 53.73,107.58 56.28,103.14 C59.51,97.5 57.05,90.61 55.83,84.28 C54.2725742,76.1262793 54.9286631,67.7041697 57.73,59.89 C59.88,53.89 63.91,47.89 70.28,46.22 C71.4852931,46.0647915 72.6385308,45.6336106 73.65,44.96 C76.17,42.74 73.3,38.96 72.72,35.7 C72.03,31.88 75.01,28.23 78.52,26.34 C82.03,24.45 86.11,23.78 89.88,22.41 C92.29,21.54 94.88,19.14 94.21,17.1 L94.85,17.15 L93.77,16.33 C93.9634195,16.5569692 94.1126549,16.8181311 94.21,17.1 C89.01,16.65 90.86,12.47 86.21,9.1 L85.76,8.81 C87.5501572,9.16366372 89.2506781,9.87448143 90.76,10.9 C95.4,14.24 93.55,18.43 98.76,18.9 C99.46,20.9 96.84,23.34 94.44,24.21 C90.67,25.58 86.6,26.21 83.08,28.14 C79.56,30.07 76.59,33.68 77.27,37.5 C77.86,40.75 80.73,44.5 78.2,46.76 C77.1900962,47.4384455 76.0364843,47.8731894 74.83,48.03 C68.47,49.65 64.44,55.7 62.29,61.69 C59.4821898,69.5095199 58.8226178,77.9389186 60.38,86.1 C61.6,92.43 64.06,99.32 60.83,104.96 C58.28,109.41 52.68,111.89 50.9,116.67 C49.6,120.15 50.66,123.97 51.47,127.58 C55.12,143.82 53.19,161.64 43.77,175.58 C41.9508361,178.534282 39.4642817,181.020836 36.51,182.84 C32.45,185.09 27.51,185.27 22.83,184.94 C17.5565263,184.559983 12.3395676,183.61114 7.27,182.11 C7.46,181.95 7.62,181.77 7.8,181.6 C11.2513043,182.361151 14.7542024,182.865862 18.28,183.11 L18.28,183.11 Z" id="Shape"></path>
            </g>
            <path d="M812.11,64.75 C812.11,64.75 727.92,59.68 737.84,118.68 C737.84,118.68 735.84,129.11 745.32,133.84 C745.32,133.84 745.47,129.47 753.96,130.95 C756.978716,131.456022 760.046636,131.603711 763.1,131.39 C767.233968,131.111303 771.163521,129.488914 774.29,126.77 L774.29,126.77 C774.29,126.77 797.96,117 807.16,78.31 C807.16,78.31 813.97,69.88 813.7,67.71 L799.49,73.77 C799.49,73.77 804.35,84.03 800.49,92.54 C800.49,92.54 800.03,74.15 797.3,74.54 C796.74,74.63 789.91,78.09 789.91,78.09 C789.91,78.09 798.27,95.95 791.91,108.93 C791.91,108.93 794.31,86.93 787.26,79.38 L777.26,85.22 C777.26,85.22 787.03,103.67 780.41,118.71 C780.41,118.71 782.11,95.63 775.16,86.65 L766.1,93.72 C766.1,93.72 775.38,111.97 769.76,124.41 C769.76,124.41 769.03,97.54 764.21,95.51 C764.21,95.51 756.29,102.51 755.08,105.38 C755.08,105.38 761.36,118.57 757.46,125.54 C757.46,125.54 755.07,107.63 753.11,107.54 C753.11,107.54 745.21,119.4 744.39,127.54 C744.39,127.54 744.73,115.45 751.2,106.41 C751.2,106.41 743.56,107.72 739.1,112.68 C739.1,112.68 740.33,104.29 753.1,103.56 C753.1,103.56 759.62,94.56 761.37,94.02 C761.37,94.02 748.62,92.95 740.89,96.38 C740.89,96.38 747.7,88.47 763.71,92.06 L772.71,84.76 C772.71,84.76 755.92,82.46 748.81,85 C748.81,85 757,78 775.12,83.1 L784.86,77.27 C784.86,77.27 770.55,74.19 762.03,75.27 C762.03,75.27 771.03,70.42 787.71,75.68 L794.71,72.55 C794.71,72.55 784.23,70.49 781.16,70.17 C778.09,69.85 777.92,69 777.92,69 C784.562632,67.8867117 791.384048,68.6450316 797.62,71.19 C797.62,71.19 812.38,65.69 812.11,64.75 Z" id="Shape" fill="#3FA34D"></path>
            <path d="M725.75,38.52 C725.75,38.52 687.75,36.22 692.19,62.88 C692.19,62.88 691.3,67.59 695.57,69.73 C695.57,69.73 695.64,67.73 699.47,68.43 C700.837296,68.6595904 702.226941,68.726723 703.61,68.63 C705.457844,68.4882739 707.210979,67.7554634 708.61,66.54 L708.61,66.54 C708.61,66.54 719.3,62.12 723.46,44.64 C723.46,44.64 726.54,40.83 726.46,39.85 L720.04,42.59 C720.04,42.59 722.23,47.23 720.51,51.07 C720.51,51.07 720.3,42.76 719.07,42.96 C718.81,42.96 715.73,44.56 715.73,44.56 C715.73,44.56 719.5,52.63 716.66,58.49 C716.66,58.49 717.74,48.55 714.55,45.15 L710.03,47.78 C710.03,47.78 714.44,56.12 711.45,62.92 C711.45,62.92 712.22,52.49 709.08,48.43 L704.99,51.62 C704.99,51.62 709.13,59.83 706.6,65.47 C706.6,65.47 706.27,53.33 704.1,52.47 C704.1,52.47 700.52,55.62 699.97,56.92 C699.97,56.92 702.81,62.92 701.05,66.03 C701.05,66.03 699.97,57.94 699.05,57.91 C699.05,57.91 695.48,63.27 695.11,66.91 C695.282782,63.5118993 696.344867,60.2187456 698.19,57.36 C696.129107,57.7479931 694.227275,58.7319395 692.72,60.19 C692.72,60.19 693.28,56.4 699.07,56.07 C699.07,56.07 702.02,52.01 702.81,51.76 C702.81,51.76 697.05,51.28 693.55,52.83 C693.55,52.83 696.63,49.25 703.86,50.83 L707.91,47.53 C707.91,47.53 700.32,46.53 697.11,47.64 C697.11,47.64 700.81,44.47 708.99,46.78 L713.4,44.14 C713.4,44.14 706.93,42.75 703.08,43.25 C703.08,43.25 707.14,41.06 714.69,43.44 L717.83,42.02 C717.83,42.02 713.1,41.09 711.71,40.95 C710.32,40.81 710.25,40.42 710.25,40.42 C713.251974,39.9206115 716.333702,40.2668732 719.15,41.42 C719.15,41.42 725.87,38.97 725.75,38.52 Z" id="Shape" fill="#3FA34D"></path>
            <ellipse id="Oval" fill="#3FA34D" opacity="0.1" cx="1057.84" cy="720.99" rx="26.93" ry="4.55"></ellipse>
            <ellipse id="Oval" fill="#3FA34D" opacity="0.1" cx="31.52" cy="796.68" rx="26.93" ry="4.55"></ellipse>
            <ellipse id="Oval" fill="#3FA34D" opacity="0.1" cx="187.85" cy="802.38" rx="26.93" ry="4.55"></ellipse>
            <ellipse id="Oval" fill="#3FA34D" cx="998.9" cy="769.75" rx="40.21" ry="6.8"></ellipse>
            <path d="M1015.52,758.63 C1017.35042,757.133727 1018.68553,755.118862 1019.35,752.85 C1019.85,750.55 1018.87,747.79 1016.67,746.95 C1014.21,746.01 1011.58,747.72 1009.59,749.44 C1007.6,751.16 1005.31,753.13 1002.7,752.76 C1005.43238,750.288596 1006.66634,746.563946 1005.95,742.95 C1005.83283,742.213392 1005.51837,741.522264 1005.04,740.95 C1003.68,739.49 1001.2,740.12 999.57,741.27 C994.37,744.92 992.92,751.99 992.89,758.34 C992.37,756.05 992.81,753.66 992.79,751.34 C992.77,749.02 992.14,746.34 990.15,745.12 C988.926943,744.442898 987.547804,744.098114 986.15,744.12 C983.81,744.03 981.21,744.27 979.62,745.98 C977.62,748.1 978.15,751.66 979.87,753.98 C981.59,756.3 984.22,757.79 986.64,759.4 C988.575902,760.554273 990.226796,762.129971 991.47,764.01 C991.619817,764.272756 991.740531,764.551069 991.83,764.84 L1006.49,764.84 C1009.76286,763.180942 1012.79967,761.092506 1015.52,758.63 L1015.52,758.63 Z" id="Shape" fill="#3FA34D"></path>
            <path d="M44.08,674.78 C44.08,674.78 49.57,681.96 41.55,692.78 C33.53,703.6 26.9,712.78 29.55,719.54 C29.55,719.54 41.67,699.4 51.55,699.12 C61.43,698.84 54.93,686.89 44.08,674.78 Z" id="Shape" fill="#3FA34D"></path>
            <path d="M44.08,674.78 C44.5611307,675.471327 44.9384647,676.229364 45.2,677.03 C54.82,688.33 59.95,698.88 50.7,699.15 C42.09,699.39 31.75,714.8 29.28,718.69 C29.36,718.98 29.46,719.28 29.57,719.57 C29.57,719.57 41.69,699.43 51.57,699.15 C61.45,698.87 54.93,686.89 44.08,674.78 Z" id="Shape" fill="#000000" opacity="0.1"></path>
            <path d="M54.29,683.97 C54.29,686.5 54.01,688.55 53.66,688.55 C53.31,688.55 53.03,686.55 53.03,683.97 C53.03,681.39 53.38,682.64 53.73,682.64 C54.08,682.64 54.29,681.4 54.29,683.97 Z" id="Shape" fill="#FFD037"></path>
            <path d="M57.8,686.97 C55.58,688.18 53.64,688.91 53.47,688.61 C53.3,688.31 54.97,687.07 57.19,685.86 C59.41,684.65 58.54,685.53 58.7,685.86 C58.86,686.19 60.02,685.74 57.8,686.97 Z" id="Shape" fill="#FFD037"></path>
            <path d="M15.06,674.78 C15.06,674.78 9.57,681.96 17.6,692.78 C25.63,703.6 32.25,712.78 29.6,719.54 C29.6,719.54 17.49,699.4 7.6,699.12 C-2.29,698.84 4.22,686.89 15.06,674.78 Z" id="Shape" fill="#3FA34D"></path>
            <path d="M15.06,674.78 C14.5832662,675.473923 14.2062575,676.231306 13.94,677.03 C4.32,688.33 -0.8,698.88 8.44,699.15 C17.06,699.39 27.44,714.8 29.87,718.69 C29.78,718.98 29.69,719.28 29.57,719.57 C29.57,719.57 17.46,699.43 7.57,699.15 C-2.32,698.87 4.22,686.89 15.06,674.78 Z" id="Shape" fill="#000000" opacity="0.1"></path>
            <path d="M4.85,683.97 C4.85,686.5 5.13,688.55 5.49,688.55 C5.85,688.55 6.12,686.55 6.12,683.97 C6.12,681.39 5.76,682.64 5.41,682.64 C5.06,682.64 4.85,681.4 4.85,683.97 Z" id="Shape" fill="#FFD037"></path>
            <path d="M1.38,686.97 C3.6,688.18 5.53,688.91 5.7,688.61 C5.87,688.31 4.2,687.07 1.98,685.86 C-0.24,684.65 0.64,685.53 0.47,685.86 C0.3,686.19 -0.87,685.74 1.38,686.97 Z" id="Shape" fill="#FFD037"></path>
            <path d="M6.6,718.63 C6.6,718.63 21.96,718.16 26.6,714.86 C31.24,711.56 50.22,707.63 51.38,712.97 C52.54,718.31 74.47,739.26 57.12,739.4 C39.77,739.54 16.83,736.7 12.21,733.88 C7.59,731.06 6.6,718.63 6.6,718.63 Z" id="Shape" fill="#A8A8A8"></path>
            <path d="M57.38,737.51 C40.04,737.65 17.09,734.81 12.47,731.99 C8.95,729.85 7.55,722.16 7.08,718.61 L6.57,718.61 C6.57,718.61 7.57,731 12.16,733.81 C16.75,736.62 39.73,739.47 57.07,739.33 C62.07,739.33 63.81,737.51 63.71,734.87 C63.05,736.48 61.14,737.48 57.38,737.51 Z" id="Shape" fill="#000000" opacity="0.2"></path>
        </g>
    </g>
</svg>