<?xml version="1.0" encoding="UTF-8"?>
<svg width="120px" height="103px" viewBox="0 0 120 103" version="1.1" xmlns="http://www.w3.org/2000/svg" xmlns:xlink="http://www.w3.org/1999/xlink">
    <!-- Generator: Sketch 46.2 (44496) - http://www.bohemiancoding.com/sketch -->
    <title>hwt</title>
    <desc>Created with Sketch.</desc>
    <defs>
        <linearGradient x1="2.0567602%" y1="50%" x2="97.7738361%" y2="50%" id="linearGradient-1">
            <stop stop-color="#02B424" offset="0%"></stop>
            <stop stop-color="#04DC22" offset="100%"></stop>
        </linearGradient>
    </defs>
    <g id="Page-1" stroke="none" stroke-width="1" fill="none" fill-rule="evenodd">
        <g id="hwt" transform="translate(-4.000000, -10.000000)">
            <path d="M28.2,28.43 C46.52,26.32 68.2,36.28 93.02,35.37 C123.11,34.27 141.5,51.13 98.83,81.25 C85,91 49.39,102.5 27.16,79.73 C24.75,77.25 -13.64,33.24 28.2,28.43 Z" id="Shape" fill="#F0F9F3" fill-rule="nonzero" transform="translate(66.354128, 60.546689) rotate(-145.000000) translate(-66.354128, -60.546689) "></path>
            <path d="M71.19,31 C67.2536714,30.276962 63.3738514,29.2744245 59.58,28 C58.58,27.45 56.84,27.23 56.4,28.55 C55.96,29.87 56,34 64.51,36.42 L71.19,31 Z" id="Shape" fill="#8F5C3F" fill-rule="nonzero"></path>
            <path d="M76.76,23.36 C74.76,22.36 66.58,16.58 65.76,15.61 C64.94,14.64 63.19,13.71 62.2,14.91 C61.21,16.11 59.55,20.48 67.55,26.43 L76.76,23.36 Z" id="Shape" fill="#8F5C3F" fill-rule="nonzero"></path>
            <path d="M88.52,42.93 C81.24,36.12 83.39,31.93 84.52,30.93 C85.65,29.93 87.27,30.93 87.97,32.02 C88.67,33.11 96.18,39.73 98.03,41.02 L99.94,42.93 C99.94,42.93 105.34,49.66 107,56.3 C108.66,62.94 124,70.86 124,70.86 L108.46,87 C108.46,87 96.65,72.62 95.24,72.07 C93.83,71.52 83.03,72.33 78.24,65.44 L88.52,42.93 Z" id="Shape" fill="#8F5C3F" fill-rule="nonzero"></path>
            <path d="M69.1,40.93 C65.3827011,40.8820915 61.6734458,40.571316 58,40 C57,39.65 55.37,39.71 55.17,41 C54.97,42.29 55.6,46.08 63.79,47 L69.1,40.93 Z" id="Shape" fill="#8F5C3F" fill-rule="nonzero"></path>
            <path d="M62.14,55.62 L72,16 L78.72,17.68 L78.24,11.12 L74,10.09 C72.3359057,9.68001559 70.6526484,10.689077 70.23,12.35 L58.8,58 C58.3900156,59.6640943 59.399077,61.3473516 61.06,61.77 L82.4,67.1 L81.91,60.55 L62.14,55.62 Z" id="Shape" fill="#CFD9D4" fill-rule="nonzero"></path>
            <polygon id="Shape" fill="#F0F9F3" fill-rule="nonzero" points="62.14 55.62 81.91 60.55 78.72 17.72 72 16.04"></polygon>
            <path d="M86.27,64.87 L97.65,19.2 C98.0595248,17.5383274 97.0495549,15.8580236 95.39,15.44 L78.24,11.16 L78.72,17.72 L94.31,21.6 L84.45,61.18 L81.91,60.55 L82.4,67.1 L82.5,67.1 C84.1549371,67.5119699 85.8340174,66.5187738 86.27,64.87 Z" id="Shape" fill="#D4DDD6" fill-rule="nonzero"></path>
            <polygon id="Shape" fill="#F0F9F3" fill-rule="nonzero" points="84.45 61.18 94.31 21.6 78.72 17.72 81.91 60.55"></polygon>
            <g id="Sturta-small-icon" transform="translate(77.769957, 37.020538) rotate(13.000000) translate(-77.769957, -37.020538) translate(70.269957, 30.520538)">
                <g id="Oval">
                    <g id="path-2-link" fill-rule="nonzero" fill="#000000">
                        <path d="M6.5,13 C8.89323394,13 11.0599006,10.8333333 13,6.5 C11.0599006,2.16666667 8.89323394,0 6.5,0 C2.91014912,0 0,2.91014913 0,6.5 C0,10.0898508 2.91014912,13 6.5,13 Z" id="path-2"></path>
                    </g>
                    <g id="path-2-link" fill="url(#linearGradient-1)">
                        <path d="M6.5,13 C8.89323394,13 11.0599006,10.8333333 13,6.5 C11.0599006,2.16666667 8.89323394,0 6.5,0 C2.91014912,0 0,2.91014913 0,6.5 C0,10.0898508 2.91014912,13 6.5,13 Z" id="path-2"></path>
                    </g>
                </g>
                <path d="M8.625,9 C8.28125,9 8,8.71875 8,8.375 C8,5.96875 9.96875,4 12.375,4 C12.71875,4 13,4.28125 13,4.625 C13,4.96875 12.71875,5.25 12.375,5.25 C11.7918606,5.25 11.0461456,5.56616432 10.1378549,6.19849298 C9.54595163,7.08680376 9.25,7.81230607 9.25,8.375 C9.25,8.71875 8.96875,9 8.625,9 Z" id="Shape" fill="#7EE694" fill-rule="nonzero" transform="translate(10.500000, 6.500000) rotate(134.000000) translate(-10.500000, -6.500000) "></path>
            </g>
            <path d="M89.83,50.55 C90.58,47.55 89.92,44.26 88.52,42.93 C81.13,35.93 83.22,31.77 84.52,30.93 C85.82,30.09 87,31 88,32 C89,33 96.21,39.71 98.06,41 C98.8333999,41.4227034 99.5753226,41.9006086 100.28,42.43 C103,45 105.32,49.56 107,56.2 L89.83,50.55 Z" id="Shape" fill="#8F5C40" fill-rule="nonzero"></path>
            <path d="M68.57,55.09 C66.57,56.84 60.8,62.21 59.06,64.89 C59.06,64.89 53.8,72.05 53.47,73 C54.1816931,73.4505615 55.0651994,73.5359424 55.85,73.23 C57.32,72.75 64.53,66.88 69.62,68.16 C70.6828785,68.4329129 71.3796829,69.4503328 71.25,70.54 C71.25,70.54 62.42,76.31 61.88,77.43 C59.9973438,79.5755139 57.9941046,81.6121403 55.88,83.53 C50.8630271,87.1321567 44.6359703,88.6288038 38.53,87.7 C38.53,87.7 32.06,86.16 26.1,92.32 L18.1,99.59 L4,81.74 L13.49,76.22 C13.49,76.22 19.29,73.75 20.2,71.95 C20.2,71.95 29.11,57.57 32.99,54.55 C35.1343053,52.7956421 38.2343449,52.8549325 40.31,54.69 C41.0993643,55.2885988 42.0697636,55.5991265 43.06,55.57 C45.77,55.75 45.98,57.32 46.83,57.79 C47.68,58.26 48.56,57.99 50.15,57.79 C52.23,57.56 54.28,59.34 54.28,59.34 C54.28,59.34 65.14,50 67.91,49.05 C69.28,48.58 70.43,47.94 71.69,49.38 C72.95,50.82 69.86,54 68.57,55.09 Z" id="Shape" fill="#8F5C3F" fill-rule="nonzero"></path>
        </g>
    </g>
</svg>