<?xml version="1.0" encoding="UTF-8"?>
<svg width="883px" height="163px" viewBox="0 0 883 163" version="1.1" xmlns="http://www.w3.org/2000/svg" xmlns:xlink="http://www.w3.org/1999/xlink">
    <!-- Generator: Sketch 46.2 (44496) - http://www.bohemiancoding.com/sketch -->
    <title>sturta-logo+wordmark</title>
    <desc>Created with Sketch.</desc>
    <defs></defs>
    <g id="Page-1" stroke="none" stroke-width="1" fill="none" fill-rule="evenodd">
        <g id="sturta-logo+wordmark" fill-rule="nonzero">
            <g id="Group" transform="translate(281.000000, 2.000000)" fill="#1E0F1C">
                <path d="M113.462,117.757 C113.462,129.564 108.296,139.524 97.968,147.639 C87.636,155.754 74.632,159.813 58.956,159.813 C45.303,159.813 33.315,156.259 22.988,149.161 C12.656,142.063 5.28,132.698 0.853,121.078 L23.541,111.394 C26.861,119.513 31.703,125.829 38.067,130.347 C44.431,134.869 51.391,137.125 58.956,137.125 C67.071,137.125 73.849,135.374 79.292,131.868 C84.73,128.366 87.454,124.216 87.454,119.417 C87.454,110.749 80.814,104.385 67.533,100.326 L44.292,94.516 C17.912,87.876 4.727,75.148 4.727,56.334 C4.727,43.978 9.75,34.061 19.806,26.591 C29.857,19.12 42.723,15.385 58.403,15.385 C70.391,15.385 81.229,18.247 90.913,23.962 C100.597,29.682 107.376,37.338 111.249,46.927 L88.561,56.334 C85.976,50.619 81.782,46.144 75.972,42.915 C70.162,39.69 63.66,38.073 56.466,38.073 C49.826,38.073 43.877,39.733 38.62,43.053 C33.363,46.373 30.735,50.433 30.735,55.227 C30.735,62.974 38.02,68.508 52.593,71.828 L73.068,77.085 C99.996,83.725 113.462,97.283 113.462,117.757 Z" id="Shape"></path>
                <path d="M183.736,134.077 C182.272,134.727 180.688,135.257 178.981,135.661 C177.274,136.068 175.529,136.272 173.742,136.272 C169.844,136.272 166.531,134.85 163.448,132.005 C160.361,129.164 159.001,123.76 159.001,115.799 L159.001,56 L188.001,56 L188.001,36 L159.001,36 L159.001,0 L136.001,0 L136.001,35.989 L136.001,35.989 L136.001,56.357 L136.001,56.357 L136.001,123.11 C136.001,133.831 139.556,142.203 145.975,148.211 C152.391,154.223 160.531,157.229 170.28,157.229 C178.076,157.229 184.929,156.168 190.776,154.061 L183.736,134.077 Z" id="Shape"></path>
                <path d="M314.46,155.28 L293.014,155.28 L293.014,138.708 L292.039,138.708 C288.627,144.557 283.387,149.431 276.32,153.33 C269.252,157.229 261.899,159.179 254.264,159.179 C239.642,159.179 228.389,154.998 220.51,146.628 C212.628,138.262 208.69,126.362 208.69,110.924 L208.69,35.862 L231.111,35.862 L231.111,109.462 C231.598,128.959 241.427,138.707 260.6,138.707 C269.534,138.707 277.009,135.093 283.021,127.862 C289.03,120.635 292.038,111.983 292.038,101.907 L292.038,35.862 L314.459,35.862 L314.459,155.28 L314.46,155.28 Z" id="Shape"></path>
                <path d="M478.197,134.077 C476.736,134.727 475.152,135.257 473.446,135.661 C471.739,136.068 469.991,136.272 468.207,136.272 C464.309,136.272 460.764,134.85 457.68,132.005 C454.59,129.164 453,123.76 453,115.799 L453,56 L482,56 L482,36 L453,36 L453,0 L431,0 L431,22.645 L431,22.645 L431,83.046 L431,83.046 L431,123.111 C431,133.832 434.289,142.204 440.708,148.212 C447.124,154.224 455.126,157.23 464.874,157.23 C472.673,157.23 479.456,156.169 485.306,154.062 L478.197,134.077 Z" id="Shape"></path>
                <path d="M405.193,32.269 C384.393,32.269 370.491,40 363.833,55 L363,55 L363,36 L342,36 L342,155 L364,155 L364,89.479 C364,79.569 367.284,71.404 374.03,64.985 C380.769,58.569 389.474,55.36 399.873,55.36 L410,56.332 L410,32.937 L405.193,32.269 Z" id="Shape"></path>
                <path d="M547.024,31.963 C563.596,31.963 576.673,36.392 586.261,45.245 C595.846,54.102 600.64,66.246 600.64,81.68 C600.64,81.68 602.939,99.533 597.74,121.312 C594.984,132.857 591.574,140.285 581.418,149.078 C572.003,157.23 557.473,159.665 544.687,159.179 C531.536,158.679 517.006,155.28 508.153,147.481 C499.296,139.682 494.871,129.934 494.871,118.236 C494.871,105.891 499.54,96.058 508.884,88.747 C518.225,81.436 530.696,77.78 546.293,77.78 C559.613,77.78 570.58,80.217 579.194,85.091 L579.194,79.973 C579.194,72.174 576.106,65.556 569.933,60.111 C563.757,54.669 556.529,51.947 548.243,51.947 C535.73,51.947 525.822,57.229 518.51,67.788 L498.77,55.359 C509.653,39.761 525.738,31.963 547.024,31.963 Z M518.023,118.723 C518.023,124.572 520.498,129.446 525.456,133.345 C530.41,137.245 539.221,139.194 545.885,139.194 C555.306,139.194 562.497,137.488 569.892,130.501 C577.283,123.517 579.195,113.525 579.195,104.1 C572.207,98.578 562.459,95.814 549.95,95.814 C540.849,95.814 533.256,98.007 527.163,102.394 C521.069,106.781 518.023,112.227 518.023,118.723 Z" id="Shape"></path>
            </g>
            <g id="Group" fill="#19BE6B">
                <path d="M34.103,93.796 C34.103,111.718 48.684,126.299 66.606,126.299 C84.528,126.299 99.109,111.718 99.109,93.796 C99.109,75.874 84.528,61.293 66.606,61.293 C48.684,61.293 34.103,75.874 34.103,93.796 Z M80.777,93.796 C80.777,101.61 74.42,107.967 66.606,107.967 C58.792,107.967 52.435,101.61 52.435,93.796 C52.435,85.982 58.792,79.625 66.606,79.625 C74.419,79.625 80.777,85.982 80.777,93.796 Z" id="Shape"></path>
                <path d="M208.43,69.376 C208.43,51.454 193.849,36.873 175.927,36.873 C158.005,36.873 143.424,51.454 143.424,69.376 C143.424,87.298 158.005,101.879 175.927,101.879 C193.85,101.878 208.43,87.298 208.43,69.376 Z M161.756,69.376 C161.756,61.562 168.113,55.205 175.927,55.205 C183.741,55.205 190.098,61.562 190.098,69.376 C190.098,77.19 183.741,83.547 175.927,83.547 C168.113,83.547 161.756,77.19 161.756,69.376 Z" id="Shape"></path>
                <path d="M110.261,66.179 C110.244,66.476 110.234,66.782 110.244,67.196 C110.291,71.812 111.796,80.831 111.801,80.861 C111.801,80.861 112.453,84.474 112.747,85.997 L112.833,86.277 C113.56,89.517 113.999,92.863 113.999,96.223 L113.999,96.34 C113.999,96.513 113.999,96.623 113.999,96.67 L113.999,96.697 C113.999,122.794 93.116,144.069 67.022,144.129 C40.901,144.069 19.999,122.795 19.999,96.697 L19.999,96.107 L19.618,95.994 C19.668,92.674 19.876,89.408 20.579,86.278 L20.538,85.998 C21.691,79.972 24.159,71.056 29.595,62.81 C38.247,49.681 56.868,32.966 66.577,24.677 C66.607,24.654 66.621,24.627 66.651,24.604 C71.391,28.654 78.41,34.846 85.353,41.679 C89.053,44.149 94.096,43.615 97.189,40.229 L97.341,40.059 C100.464,36.636 100.5,31.49 97.604,28.027 C96.907,27.34 96.207,26.664 95.514,25.994 L95.51,25.991 C90.377,21.052 85.394,16.585 81.355,13.076 C76.779,9.1 73.409,6.353 72.403,5.537 L71.57,4.864 L66.624,0.868 L60.858,5.551 C55.275,10.087 26.791,33.675 14.243,52.719 C7.19,63.421 3.944,74.74 2.464,82.403 C1.491,86.799 0.971,91.359 0.924,95.978 C0.914,96.388 0.924,96.698 0.941,96.991 C1.024,114.429 7.824,130.608 20.102,142.923 C32.481,155.342 49.002,162.001 66.624,162.001 L66.657,162.001 C84.199,162.001 100.034,155.341 112.426,142.929 C124.817,130.513 131,114.251 131,96.709 L131,96.676 C131,96.596 131.646,96.363 131.639,95.989 C131.589,91.409 131.41,86.84 130.427,82.407 C130.285,81.672 129.784,78.084 129.611,77.174 L129.63,76.894 C128.927,73.764 128.291,70.498 128.242,67.178 L128,67.065 L128,66.472 C128,40.375 149.403,19.104 175.523,19.044 C201.617,19.104 223,40.379 223,66.473 L223,66.503 C223,66.55 223.141,66.66 223.138,66.833 L223.207,66.946 C223.174,70.309 222.825,73.655 222.098,76.895 L222.057,77.175 C220.894,83.241 218.387,92.19 213.001,100.363 C204.279,113.602 185.49,130.427 175.958,138.569 C175.511,138.186 175.043,137.786 174.56,137.369 L174.517,137.332 C169.968,133.412 163.892,128.003 157.839,122.09 L156.389,120.763 C155.599,120.043 154.719,119.486 153.789,119.096 C150.353,117.639 146.26,118.423 143.597,121.342 L143.551,121.505 C140.611,124.725 139.999,129.484 142.999,132.894 C142.999,132.897 142.999,132.897 142.999,132.897 C142.999,132.954 142.951,133.01 142.975,133.064 C152.864,142.683 163.987,152.402 168.67,156.345 C168.67,156.345 168.657,156.345 168.661,156.348 C169.301,156.885 169.81,157.315 170.186,157.621 L175.948,162.304 L181.725,157.634 C185.121,154.888 215.284,130.224 228.316,110.446 C235.322,99.817 238.564,88.462 240.051,80.759 C241.034,76.329 241.75,71.76 241.8,67.18 C241.807,66.807 241.999,66.573 241.999,66.493 L241.999,66.456 C241.999,48.918 234.977,32.568 222.585,20.156 C210.194,7.744 193.519,1 175.978,1 L175.945,1 C158.323,1 141.802,7.747 129.423,20.163 C117.144,32.481 110.344,48.744 110.261,66.179 Z" id="Shape"></path>
            </g>
        </g>
    </g>
</svg>