<?xml version="1.0" standalone="no"?>
<!DOCTYPE svg PUBLIC "-//W3C//DTD SVG 20010904//EN"
 "http://www.w3.org/TR/2001/REC-SVG-20010904/DTD/svg10.dtd">
<svg version="1.0" xmlns="http://www.w3.org/2000/svg"
 width="598.000000pt" height="598.000000pt" viewBox="0 0 598.000000 598.000000"
 preserveAspectRatio="xMidYMid meet">
<metadata>
Created by potrace 1.11, written by Peter Selinger 2001-2013
</metadata>
<g transform="translate(0.000000,598.000000) scale(0.100000,-0.100000)"
fill="#000000" stroke="none">
<path d="M1472 4866 c-538 -447 -956 -871 -1147 -1166 -64 -99 -99 -168 -181
-355 -15 -36 -71 -212 -78 -246 -2 -13 -13 -67 -25 -119 -32 -153 -33 -157
-36 -335 -5 -359 78 -647 271 -935 260 -387 623 -617 1114 -706 61 -11 383
-13 445 -3 33 5 71 11 85 13 194 31 420 120 590 231 124 81 274 215 382 342
57 66 151 217 198 316 114 238 166 492 164 792 -1 95 -9 155 -52 395 -37 205
-47 353 -28 450 3 19 9 49 12 65 12 67 70 225 108 297 136 256 356 453 626
560 183 73 421 96 619 62 430 -76 794 -395 924 -809 13 -44 27 -93 31 -110 3
-16 8 -43 11 -60 4 -16 8 -91 10 -165 2 -116 -1 -154 -25 -270 -63 -308 -149
-499 -328 -725 -146 -184 -438 -478 -730 -733 -73 -64 -86 -72 -100 -60 -55
43 -260 227 -362 324 -155 149 -184 165 -278 159 -88 -6 -172 -69 -199 -150
-14 -43 -9 -137 10 -177 18 -38 160 -176 392 -383 71 -63 301 -260 370 -317
l79 -65 101 81 c210 169 407 342 599 526 340 326 525 545 670 793 25 43 46 81
46 84 0 3 13 33 29 67 70 147 159 466 179 640 9 77 9 323 1 396 -25 212 -122
483 -237 660 -264 408 -691 683 -1157 747 -76 10 -405 10 -465 -1 -44 -7 -111
-20 -160 -31 -129 -27 -374 -133 -500 -218 -370 -247 -637 -643 -705 -1047 -3
-19 -8 -42 -10 -50 -24 -87 -24 -385 0 -510 2 -12 7 -42 9 -66 3 -24 15 -87
26 -141 31 -142 34 -175 34 -303 -1 -174 -20 -277 -76 -420 -109 -277 -304
-489 -578 -630 -64 -33 -105 -49 -192 -74 -454 -131 -941 25 -1240 400 -120
151 -191 303 -234 500 -27 121 -24 368 5 504 27 129 91 320 138 415 31 63 137
232 153 245 3 3 13 14 21 26 15 23 98 120 169 198 70 78 266 272 375 371 54
50 110 101 125 115 14 14 57 51 94 84 60 52 69 57 84 44 24 -20 173 -150 192
-168 9 -8 72 -66 139 -129 67 -63 135 -121 149 -129 34 -18 125 -22 172 -8 55
17 125 92 143 152 29 97 1 179 -90 264 -32 29 -92 85 -133 124 -76 72 -206
187 -294 261 -27 22 -53 45 -60 50 -57 52 -226 185 -234 185 -6 0 -78 -56
-160 -124z"/>
<path d="M4155 4078 c-318 -75 -564 -348 -610 -676 -13 -92 -4 -246 17 -301 5
-14 9 -28 9 -31 -2 -14 26 -84 61 -152 154 -298 479 -466 824 -425 294 35 566
262 657 547 53 168 52 354 -2 512 -92 267 -325 475 -596 531 -99 21 -262 18
-360 -5z m342 -470 c211 -103 263 -379 105 -550 -131 -142 -349 -151 -493 -21
-97 87 -137 240 -97 363 65 199 299 299 485 208z"/>
<path d="M1535 3489 c-27 -4 -61 -9 -75 -12 -14 -3 -35 -8 -46 -11 -98 -21
-266 -120 -353 -207 -86 -86 -190 -260 -205 -342 -2 -15 -7 -31 -10 -36 -12
-18 -20 -120 -19 -216 5 -292 171 -559 432 -693 127 -66 188 -82 341 -89 96
-4 151 2 266 30 49 12 154 63 214 103 178 120 299 299 343 509 22 100 13 326
-14 376 -5 10 -8 19 -5 19 11 0 -48 129 -89 196 -122 196 -343 341 -565 370
-69 9 -160 10 -215 3z m213 -473 c162 -57 257 -222 225 -390 -63 -339 -515
-393 -661 -78 -22 48 -26 71 -26 142 0 73 4 93 28 142 83 167 264 244 434 184z"/>
</g>
</svg>
