<?xml version="1.0" encoding="UTF-8"?>
<svg viewBox="0 0 1095 799" version="1.1" xmlns="http://www.w3.org/2000/svg" xmlns:xlink="http://www.w3.org/1999/xlink">
    <!-- Generator: Sketch 46.2 (44496) - http://www.bohemiancoding.com/sketch -->
    <title>undraw_wall_post_83ul</title>
    <desc>Created with Sketch.</desc>
    <defs>
        <linearGradient x1="50.0005818%" y1="100%" x2="50.0005818%" y2="1.14327069e-15%" id="linearGradient-1">
            <stop stop-color="#808080" stop-opacity="0.25" offset="0%"></stop>
            <stop stop-color="#808080" stop-opacity="0.12" offset="54%"></stop>
            <stop stop-color="#808080" stop-opacity="0.1" offset="100%"></stop>
        </linearGradient>
        <linearGradient x1="31912%" y1="30968%" x2="31912%" y2="21215%" id="linearGradient-2">
            <stop stop-color="#808080" stop-opacity="0.25" offset="0%"></stop>
            <stop stop-color="#808080" stop-opacity="0.12" offset="54%"></stop>
            <stop stop-color="#808080" stop-opacity="0.1" offset="100%"></stop>
        </linearGradient>
        <linearGradient x1="33256%" y1="30474%" x2="33256%" y2="24612%" id="linearGradient-3">
            <stop stop-color="#808080" stop-opacity="0.25" offset="0%"></stop>
            <stop stop-color="#808080" stop-opacity="0.12" offset="54%"></stop>
            <stop stop-color="#808080" stop-opacity="0.1" offset="100%"></stop>
        </linearGradient>
        <linearGradient x1="80365%" y1="79685%" x2="80365%" y2="18450%" id="linearGradient-4">
            <stop stop-color="#808080" stop-opacity="0.25" offset="0%"></stop>
            <stop stop-color="#808080" stop-opacity="0.12" offset="54%"></stop>
            <stop stop-color="#808080" stop-opacity="0.1" offset="100%"></stop>
        </linearGradient>
    </defs>
    <g id="Page-1" stroke="none" stroke-width="1" fill="none" fill-rule="evenodd">
        <g id="undraw_wall_post_83ul">
            <g id="Group" opacity="0.1" transform="translate(0.000000, 62.000000)" fill-rule="nonzero" fill="#3FA34D">
                <path d="M67.37,57.37 C77.57,75.12 71.92,98.16 60.84,115.37 C49.76,132.58 34,146.24 21.72,162.66 C-2.69,195.42 -9,247.15 21.78,274.07 C28.41,279.87 36.61,284.46 40.65,292.28 C46.23,303.07 42.1,316.07 37.89,327.5 L37.54,328.44 C21.63,371.57 45.07,419.37 89,432.9 C113.31,440.39 135.25,452.53 151.49,472.16 C165.68,489.32 173.88,510.49 183.24,530.69 C200.16,567.18 222,602.07 252.18,628.64 C282.36,655.21 321.74,672.82 361.94,671.37 C453.76,668.06 521.37,571.37 613.1,566.28 C619.71,565.91 626.75,566.16 632.28,569.8 C640.08,574.94 642.47,585.03 645.75,593.8 C663.12,640.23 715.42,661.63 762.25,677.89 L850.25,708.47 C898.05,725.07 948.25,741.92 998.25,734.23 C1048.25,726.54 1097.07,685.48 1094.9,634.92 C1093.12,593.39 1058.7,556.84 1063.21,515.51 C1066.33,486.95 1087.72,462.96 1091.3,434.45 C1095.03,404.78 1078.81,376.29 1060.14,352.93 C1006.42,285.69 929.86,241.37 855.14,198.62 C802.51,168.5 749.61,138.26 692.95,116.62 C553.27,63.41 399.75,65.7 250.95,51.18 C225.36,48.68 198.61,45.74 175.16,34.43 C157.16,25.75 143.09,5.68 123.34,1.43 C108.29,-1.81 86.03,4.88 72.89,12.19 C48.94,25.61 55.54,36.78 67.37,57.37 Z" id="Shape"></path>
            </g>
            <path d="M988.87,7.10542736e-15 L185.18,7.10542736e-15 C177.748694,0.0317417444 170.634822,3.01635628 165.40543,8.29639178 C160.176037,13.5764273 157.260121,20.7187331 157.3,28.15 L157.3,593.35 C157.260121,600.781267 160.176037,607.923573 165.40543,613.203608 C170.634822,618.483644 177.748694,621.468258 185.18,621.5 L988.87,621.5 C996.301306,621.468258 1003.41518,618.483644 1008.64457,613.203608 C1013.87396,607.923573 1016.78988,600.781267 1016.75,593.35 L1016.75,28.15 C1016.78988,20.7187331 1013.87396,13.5764273 1008.64457,8.29639178 C1003.41518,3.01635628 996.301306,0.0317417444 988.87,7.10542736e-15 Z" id="Shape" fill="url(#linearGradient-1)" fill-rule="nonzero"></path>
            <path d="M1013.12,59.88 L1013.12,586.61 C1013.12,601.87515 1000.74515,614.25 985.48,614.25 L188.89,614.25 C173.62485,614.25 161.25,601.87515 161.25,586.61 L161.25,59.88 L1013.12,59.88 Z" id="Shape" fill="#F6F7F9" fill-rule="nonzero"></path>
            <path d="M369.34,331.37 L369.34,614.24 L188.89,614.24 C173.63,614.24 161.25,601.62 161.25,586.06 L161.25,331.37 L369.34,331.37 Z" id="Shape" fill="#DDE1EC" fill-rule="nonzero"></path>
            <rect id="Rectangle-path" fill="#DDE1EC" fill-rule="nonzero" x="431.12" y="124.37" width="346.82" height="9.75"></rect>
            <rect id="Rectangle-path" fill="#DDE1EC" fill-rule="nonzero" x="431.12" y="193.73" width="209.17" height="9.75"></rect>
            <rect id="Rectangle-path" fill="#DDE1EC" fill-rule="nonzero" x="686.9" y="193.73" width="70.45" height="9.75"></rect>
            <g id="Group" opacity="0.1" transform="translate(225.000000, 437.000000)" fill-rule="nonzero" fill="#3FA34D">
                <rect id="Rectangle-path" x="0.19" y="0.04" width="70.45" height="9.75"></rect>
            </g>
            <rect id="Rectangle-path" fill="#DDE1EC" fill-rule="nonzero" x="686.9" y="284.77" width="70.45" height="9.75"></rect>
            <rect id="Rectangle-path" fill="#DDE1EC" fill-rule="nonzero" x="686.9" y="375.81" width="70.45" height="9.75"></rect>
            <rect id="Rectangle-path" fill="#DDE1EC" fill-rule="nonzero" x="686.9" y="224.08" width="70.45" height="9.75"></rect>
            <rect id="Rectangle-path" fill="#DDE1EC" fill-rule="nonzero" x="808.28" y="224.08" width="70.45" height="9.75"></rect>
            <rect id="Rectangle-path" fill="#DDE1EC" fill-rule="nonzero" x="686.9" y="254.42" width="70.45" height="9.75"></rect>
            <rect id="Rectangle-path" fill="#DDE1EC" fill-rule="nonzero" x="808.28" y="254.42" width="70.45" height="9.75"></rect>
            <rect id="Rectangle-path" fill="#DDE1EC" fill-rule="nonzero" x="808.28" y="310.78" width="70.45" height="9.75"></rect>
            <rect id="Rectangle-path" fill="#DDE1EC" fill-rule="nonzero" x="808.28" y="341.13" width="70.45" height="9.75"></rect>
            <rect id="Rectangle-path" fill="#DDE1EC" fill-rule="nonzero" x="808.28" y="406.16" width="70.45" height="9.75"></rect>
            <rect id="Rectangle-path" fill="#DDE1EC" fill-rule="nonzero" x="431.12" y="224.08" width="209.17" height="9.75"></rect>
            <rect id="Rectangle-path" fill="#DDE1EC" fill-rule="nonzero" x="431.12" y="254.42" width="209.17" height="9.75"></rect>
            <rect id="Rectangle-path" fill="#DDE1EC" fill-rule="nonzero" x="431.12" y="284.77" width="209.17" height="9.75"></rect>
            <rect id="Rectangle-path" fill="#DDE1EC" fill-rule="nonzero" x="431.12" y="315.12" width="209.17" height="9.75"></rect>
            <rect id="Rectangle-path" fill="#DDE1EC" fill-rule="nonzero" x="431.12" y="345.46" width="209.17" height="9.75"></rect>
            <rect id="Rectangle-path" fill="#DDE1EC" fill-rule="nonzero" x="431.12" y="375.81" width="209.17" height="9.75"></rect>
            <rect id="Rectangle-path" fill="#DDE1EC" fill-rule="nonzero" x="431.12" y="406.16" width="209.17" height="9.75"></rect>
            <rect id="Rectangle-path" fill="#3FA34D" fill-rule="nonzero" x="161.25" y="59.34" width="208.09" height="277.45"></rect>
            <path d="M1013.12,31.7 C1013.11448,16.4387549 1000.74125,4.069999 985.48,4.07 L188.89,4.07 C173.62485,4.07 161.25,16.4448495 161.25,31.71 L161.25,63.14 L1013.12,63.14 L1013.12,31.7 Z" id="Shape" fill="#E8EAF1" fill-rule="nonzero"></path>
            <circle id="Oval" fill="#FF5252" fill-rule="nonzero" cx="194.85" cy="33.33" r="10.84"></circle>
            <circle id="Oval" fill="#FFFF00" fill-rule="nonzero" cx="230.61" cy="33.33" r="10.84"></circle>
            <circle id="Oval" fill="#69F0AE" fill-rule="nonzero" cx="266.38" cy="33.33" r="10.84"></circle>
            <path d="M326,198.07 C326.018851,211.969854 321.243766,225.450992 312.48,236.24 C312.15,236.65 311.82,237.05 311.48,237.45 L311.48,237.45 C311.413746,237.517986 311.35352,237.591595 311.3,237.67 C308.19519,241.263315 304.681394,244.481778 300.83,247.26 L300.33,247.63 C299.64,248.12 298.94,248.63 298.23,249.05 L297.74,249.36 L296.69,250.01 C296.53476,250.108211 296.374546,250.198332 296.21,250.28 C296.079767,250.373453 295.942717,250.45702 295.8,250.53 C294.26,251.43 292.67,252.26 291.04,253.02 C290.86,253.12 290.66,253.2 290.47,253.29 C290.28,253.38 290.06,253.49 289.84,253.57 C289.62,253.65 289.19,253.86 288.84,253.99 C285.347538,255.468425 281.720791,256.607016 278.01,257.39 C274.473032,258.147143 270.875289,258.585565 267.26,258.7 L266.71,258.7 L265.28,258.7 C260.508965,258.716459 255.752683,258.169335 251.11,257.07 L250.24,256.86 C248.2,256.326667 246.2,255.706667 244.24,255 C243.05,254.56 241.87,254.08 240.72,253.57 C240.43,253.44 240.15,253.32 239.86,253.18 L238.99,252.79 L238.23,252.4 L238.23,252.4 L237.43,251.99 L236.54,251.52 L235.54,250.95 L235.38,250.86 C231.117308,248.441027 227.162058,245.516559 223.6,242.15 C223.3,241.86 222.99,241.58 222.7,241.27 C222.41,240.96 222.07,240.65 221.77,240.33 C202.709373,220.701042 199.139682,190.745289 213.053865,167.186873 C226.968048,143.628457 254.925207,132.293241 281.317013,139.509615 C307.708819,146.725988 326.008728,170.709382 326,198.07 L326,198.07 Z" id="Shape" fill="#FFFFFF" fill-rule="nonzero"></path>
            <path d="M308,219.69 C307.873964,220.594151 307.676684,221.486929 307.41,222.36 C307.378118,222.496787 307.334627,222.630605 307.28,222.76 C307.28,222.38 307.21,221.98 307.19,221.55 L307.19,221.55 C306.89,217.1 306.63,210.07 307.53,205.91 C308.38,202 302.19,203.19 298.06,206.69 L298.06,206.69 C296.85296,207.673604 295.870881,208.904613 295.18,210.3 C295.09,210.18 295,210.07 294.9,209.95 C292.892593,207.463132 289.894899,205.982564 286.7,205.9 C280.174365,205.473969 274.005524,202.770014 269.27,198.26 C269.07,197.45 268.92,196.65 268.8,195.84 C268.8,195.59 268.72,195.33 268.69,195.08 C270.999502,193.01453 272.616228,190.287395 273.32,187.27 C273.32,187.27 273.32,187.19 273.32,187.15 C273.569108,186.060801 273.696555,184.947317 273.7,183.83 C273.7,183.37 273.7,182.93 273.65,182.49 C273.65,182.33 273.65,182.16 273.6,182 C273.55,181.84 273.6,181.62 273.52,181.44 C273.77099,181.328619 274.014796,181.201707 274.25,181.06 C275.671223,180.186435 276.799374,178.908561 277.49,177.39 L277.49,177.31 C277.73874,176.770976 277.952515,176.216496 278.13,175.65 C278.616848,174.025105 278.895738,172.345045 278.96,170.65 C278.96,170.44 278.96,170.23 278.96,170 C278.96,168.69 278.7,167.05 277.42,166.78 C275.73,166.42 274.5,168.97 272.79,168.7 C272.270713,168.574107 271.802823,168.291278 271.45,167.89 C270.29,166.74 269.51,165.26 268.35,164.1 C266.538211,162.420511 264.196698,161.426606 261.73,161.29 C259.283613,161.155394 256.830725,161.38114 254.45,161.96 C253.135425,162.179458 251.865428,162.611797 250.69,163.24 C249.516182,163.882307 248.690914,165.015675 248.44,166.33 C248.412631,166.612672 248.412631,166.897328 248.44,167.18 C248.44,167.6 248.44,168.04 248.44,168.47 C248.427283,168.654529 248.403911,168.838169 248.37,169.02 C248.009941,170.217243 247.175111,171.214703 246.06,171.78 C245,172.41 243.82,172.85 242.81,173.57 C241.203917,174.810194 240.093848,176.583467 239.68,178.57 C239.417559,179.680166 239.299915,180.819632 239.33,181.96 C239.31592,182.989351 239.372721,184.018451 239.5,185.04 C239.927958,188.476036 240.893057,191.82351 242.36,194.96 C242.756569,195.834657 243.231859,196.671436 243.78,197.46 C243.78,197.46 243.78,197.46 243.78,197.46 C243.92,197.66 244.06,197.84 244.21,198.01 C245.153177,199.067111 246.24052,199.986134 247.44,200.74 L248.13,201.21 C248.600899,201.61396 249.232608,201.776505 249.84,201.65 C250.028745,201.579474 250.204468,201.478095 250.36,201.35 C251.222857,200.537105 251.680695,199.383352 251.61,198.2 L251.61,198.04 C251.614825,198.096564 251.614825,198.153436 251.61,198.21 C251.615383,198.286572 251.615383,198.363428 251.61,198.44 L251.71,198.44 C251.736379,198.949659 251.736379,199.460341 251.71,199.97 C251.72147,200.176508 251.72147,200.383492 251.71,200.59 C251.71,200.71 251.71,200.83 251.71,200.94 L251.55,201.08 L251.55,201.08 C251.22,201.36 250.62,201.85 249.79,202.5 L249.79,202.5 C246.33458,205.18649 242.559048,207.433671 238.55,209.19 C234.095095,211.037642 230.71129,214.796201 229.34,219.42 C228.352215,222.772611 226.880008,225.962956 224.97,228.89 C224.49,229.59 223.17,234.89 221.63,240.33 C221.93,240.66 222.25,240.97 222.56,241.27 C222.87,241.57 223.16,241.86 223.46,242.15 C227.022058,245.516559 230.977308,248.441027 235.24,250.86 L235.4,250.95 L236.4,251.52 L237.29,251.99 C237.29,251.24 237.19,250.55 237.14,249.9 C237.14,249.51 237.08,249.14 237.04,248.78 C237.27,248.4 237.47,248.06 237.66,247.78 C237.66,248.07 237.73,248.39 237.76,248.78 L237.76,248.78 C237.87,249.78 237.98,251.01 238.1,252.42 C238.1,252.866667 238.133333,253.333333 238.2,253.82 C238.2,253.33 238.15,252.82 238.11,252.42 L238.87,252.81 L239.74,253.2 C240.02,253.34 240.3,253.46 240.6,253.59 C241.75,254.1 242.93,254.59 244.12,255.02 C246.06,255.733333 248.06,256.353333 250.12,256.88 L250.99,257.09 C255.637581,258.204369 260.40069,258.764932 265.18,258.76 L266.61,258.76 L267.16,258.76 C270.806649,258.637796 274.434768,258.185954 278,257.41 C281.710791,256.627016 285.337538,255.488425 288.83,254.01 C289.156667,253.876667 289.49,253.736667 289.83,253.59 C290.05,253.5 290.25,253.41 290.46,253.31 C290.67,253.21 290.85,253.14 291.03,253.04 C290.03,249.53 289.49,247.28 289.49,247.28 L290.81,243.89 L290.97,243.48 L291.37,242.43 L291.37,242.43 C291.37,242.56 291.43,242.69 291.48,242.82 L291.48,242.82 C292.308459,245.710171 293.937908,248.306889 296.18,250.31 C296.344546,250.228332 296.50476,250.138211 296.66,250.04 L297.71,249.39 L298.2,249.08 C298.92,248.61 299.61,248.15 300.3,247.66 L300.8,247.29 C304.651394,244.511778 308.16519,241.293315 311.27,237.7 L311.45,237.48 L311.45,237.48 C311.79,237.08 312.12,236.68 312.45,236.27 L308,219.69 Z M299.28,224.25 C299.313934,224.297532 299.34403,224.34769 299.37,224.4 L299.29,224.33 L299.28,224.25 Z" id="Shape" fill="url(#linearGradient-2)" fill-rule="nonzero"></path>
            <path d="M299.44,222.38 L299.44,222.46 L299.51,222.53 C299.49,222.47 299.46,222.43 299.44,222.38 Z M238.28,252.38 C238.18,250.98 238.08,249.72 237.99,248.64 C237.92,247.88 237.85,247.2 237.79,246.64 C237.783999,246.613671 237.783999,246.586329 237.79,246.56 C237.79,246.42 237.79,246.29 237.79,246.16 C236.826213,247.631277 236.034371,249.20825 235.43,250.86 L235.59,250.95 L236.59,251.52 L237.48,251.99 L238.28,252.4 C238.28,252.846667 238.313333,253.313333 238.38,253.8 C238.33,253.32 238.31,252.86 238.28,252.41 L238.28,252.38 Z M251.59,195.21 L251.59,195.21 L251.59,195.21 L251.64,195.3 L251.64,195.3 C251.643572,195.323197 251.643572,195.346803 251.64,195.37 C251.631269,195.324017 251.614332,195.279982 251.59,195.24 L251.59,195.21 Z" id="Shape" fill="url(#linearGradient-3)" fill-rule="nonzero"></path>
            <path d="M269,185 C269,185 265.39,201.22 275.31,209.79 C285.23,218.36 251.88,225.07 246,217.9 C240.12,210.73 250.08,207.07 250.08,207.07 C250.08,207.07 255.08,203.01 250.08,190.85 L269,185 Z" id="Shape" fill="#8F5F55" fill-rule="nonzero"></path>
            <path d="M278,257.41 C274.463032,258.167143 270.865289,258.605565 267.25,258.72 L266.7,258.72 L265.27,258.72 C260.501516,258.729119 255.748627,258.175287 251.11,257.07 L250.24,256.86 C248.2,256.326667 246.2,255.706667 244.24,255 L243.24,240 L247.58,219.23 L250.13,206.99 L250.85,203.57 L251.58,204.57 L251.74,204.79 L251.94,205.05 L259.94,215.7 L268.13,206.88 L268.55,206.42 L270.8,203.99 L271.65,203.08 L272.05,206.17 L273.49,217.28 L276.16,237.77 L278,257.41 Z" id="Shape" fill="#F0F1F5" fill-rule="nonzero"></path>
            <path d="M300.32,247.63 C299.63,248.12 298.93,248.63 298.22,249.05 L297.73,249.36 L296.68,250.01 C296.52476,250.108211 296.364546,250.198332 296.2,250.28 C296.069767,250.373453 295.932717,250.45702 295.79,250.53 C293.586767,248.650894 291.931848,246.211703 291,243.47 C290.882359,243.121899 290.782233,242.768122 290.7,242.41 C290.695175,242.353436 290.695175,242.296564 290.7,242.24 L290.13,243.74 L288.38,248.07 C288.38,248.07 288.9,250.19 289.83,253.55 C289.503333,253.703333 289.17,253.843333 288.83,253.97 C285.337538,255.448425 281.710791,256.587016 278,257.37 C274.463032,258.127143 270.865289,258.565565 267.25,258.68 L266.7,258.68 C266.194403,254.031598 266.017296,249.353323 266.17,244.68 L267.49,219.51 L268.16,206.81 L268.53,199.81 C268.53,199.81 268.66,199.95 268.91,200.18 C269.16,200.41 269.33,200.58 269.63,200.85 L269.63,200.85 C274.093268,204.749745 279.715727,207.072523 285.63,207.46 C288.940855,207.555274 292.017679,209.189837 293.95,211.88 C295.757255,214.449793 296.919949,217.416551 297.34,220.53 L297.64,223.28 C297.64,223.28 297.64,223.28 297.64,223.28 L297.72,224.06 L297.83,225.06 L300.32,247.63 Z" id="Shape" fill="#000000" fill-rule="nonzero" opacity="0.1"></path>
            <path d="M252.2,202.07 L252.2,202.68 L252.04,205 L251.48,212.94 C251.48,212.94 251.15,215.23 250.91,220.39 C250.56,227.19 250.35,238.97 251.16,257.09 L250.29,256.88 C248.25,256.346667 246.25,255.726667 244.29,255.02 C243.1,254.58 241.92,254.1 240.77,253.59 C240.48,253.46 240.2,253.34 239.91,253.2 C239.62,249.2 239.27,246.75 239.27,246.75 C239.27,246.75 239,247.09 238.59,247.75 C238.42,248.02 238.21,248.35 237.99,248.75 L237.94,248.84 L237.94,248.84 C237.746667,249.173333 237.54,249.553333 237.32,249.98 C237.07,250.48 236.82,250.98 236.58,251.61 L235.58,251.04 L235.42,250.95 C231.157308,248.531027 227.202058,245.606559 223.64,242.24 C225.25,236.57 226.64,230.87 227.14,230.14 C229.004696,227.275743 230.436771,224.152136 231.39,220.87 C232.73873,216.355756 236.042276,212.685149 240.39,210.87 C244.876559,208.767314 248.888034,205.773169 252.18,202.07 L252.2,202.07 Z" id="Shape" fill="#000000" fill-rule="nonzero" opacity="0.1"></path>
            <path d="M258.64,200.78 C256.391611,200.782414 254.172184,200.27287 252.15,199.29 C251.800624,196.698565 251.104386,194.165874 250.08,191.76 L269,185.91 C268.310373,189.535387 268.178855,193.244876 268.61,196.91 C265.884191,199.395963 262.329177,200.775894 258.64,200.78 L258.64,200.78 Z" id="Shape" fill="#000000" fill-rule="nonzero" opacity="0.1"></path>
            <circle id="Oval" fill="#8F5F55" fill-rule="nonzero" cx="258.64" cy="185.01" r="14.87"></circle>
            <g id="Group" opacity="0.1" transform="translate(287.000000, 241.000000)" fill-rule="nonzero" fill="#000000">
                <path d="M1.86,13.01 C0.69,8.9 0.04,6.2 0.04,6.2 L2.29,0.34 C2.46612841,1.1636391 2.72407515,1.96762893 3.06,2.74 L3.11,2.87 L1.83,6.21 C1.83,6.21 2.42,8.61 3.46,12.31 C3.25,12.41 3.05,12.51 2.83,12.59 C2.61,12.67 2.18,12.88 1.86,13.01 Z" id="Shape"></path>
            </g>
            <path d="M306.41,226.01 C306.41,226.01 305.06,212.94 306.41,206.63 C307.76,200.32 290.64,207.53 294.24,216.09 C296.16627,220.835304 298.582701,225.366532 301.45,229.61 L306.41,226.01 Z" id="Shape" fill="#8F5F55" fill-rule="nonzero"></path>
            <path d="M311.29,237.67 C308.184863,241.262997 304.671106,244.481424 300.82,247.26 L300.32,247.63 C299.63,248.12 298.93,248.63 298.22,249.05 C296.608111,247.137924 295.169131,245.08654 293.92,242.92 L293.79,242.69 L297.4,223.76 L297.78,224.15 C297.94,224.3 298.15,224.5 298.4,224.7 L298.4,224.7 L298.45,224.7 C300.32,226.3 304.27,228.7 306.17,223.12 C306.491055,222.143148 306.722018,221.138959 306.86,220.12 L307.23,221.5 L307.23,221.5 L307.45,222.31 L311.45,237.4 L311.45,237.4 L311.29,237.67 Z" id="Shape" fill="#000000" fill-rule="nonzero" opacity="0.1"></path>
            <path d="M237.79,246.65 L237.74,246.73 C237.74,246.68 237.74,246.62 237.74,246.58 C238.37,244.39 238.94,242.91 239.45,242.47 C239.45,242.47 240.12,246.92 240.72,253.59 C240.43,253.46 240.15,253.34 239.86,253.2 L238.99,252.81 C238.84,250.66 238.68,248.91 238.53,247.71 C238.38,246.51 238.31,245.86 238.31,245.86 C238.31,245.86 238.14,246.13 237.79,246.65 Z" id="Shape" fill="#000000" fill-rule="nonzero" opacity="0.1"></path>
            <path d="M258.82,180.91 C259.597436,180.483657 260.492597,180.322177 261.37,180.45 C261.749073,180.610012 262.089904,180.848593 262.37,181.15 C263.54,182.26 264.7,183.55 266.28,183.89 C267.255789,184.038346 268.251183,183.994182 269.21,183.76 C270.892353,183.565566 272.52547,183.0675 274.03,182.29 C277.38,180.29 278.45,175.96 278.66,172.07 C278.73,170.76 278.46,169.07 277.17,168.79 C275.53,168.44 274.33,170.93 272.67,170.66 C272.16538,170.537482 271.711181,170.261468 271.37,169.87 C270.24,168.74 269.47,167.29 268.37,166.15 C266.611348,164.506423 264.33304,163.530005 261.93,163.39 C259.546522,163.260693 257.157063,163.486495 254.84,164.06 C253.562316,164.27091 252.328738,164.693368 251.19,165.31 C250.048257,165.934486 249.242425,167.033347 248.99,168.31 C248.88,169.18 249.11,170.08 248.94,170.94 C248.600196,172.114216 247.789282,173.095278 246.7,173.65 C245.7,174.27 244.52,174.65 243.54,175.41 C241.982476,176.620045 240.9023,178.341244 240.49,180.27 C240.090061,182.188317 240.035877,184.162635 240.33,186.1 C240.7404,189.465902 241.67857,192.746122 243.11,195.82 C243.58313,196.892992 244.191386,197.901151 244.92,198.82 C245.989367,199.986846 247.218168,200.996819 248.57,201.82 C249.06585,202.269914 249.738272,202.472008 250.4,202.37 C250.587273,202.302791 250.760268,202.201029 250.91,202.07 C252.19,201 252.31,199.07 251.91,197.44 C251.51,195.81 250.83,194.26 250.75,192.6 C250.698912,192.134092 250.789524,191.663607 251.01,191.25 C251.276697,190.915446 251.578413,190.610377 251.91,190.34 C252.34309,189.841991 252.681942,189.26933 252.91,188.65 C253.675027,187.119961 254.197919,185.480443 254.46,183.79 C254.604791,182.397961 254.299896,180.996145 253.59,179.79 C254.989777,181.106163 257.003988,181.537505 258.82,180.91 L258.82,180.91 Z" id="Shape" fill="#000000" fill-rule="nonzero" opacity="0.1"></path>
            <path d="M258.82,180.39 C259.597436,179.963657 260.492597,179.802177 261.37,179.93 C261.749073,180.090012 262.089904,180.328593 262.37,180.63 C263.54,181.74 264.7,183.03 266.28,183.37 C267.255789,183.518346 268.251183,183.474182 269.21,183.24 C270.892353,183.045566 272.52547,182.5475 274.03,181.77 C277.38,179.77 278.45,175.44 278.66,171.55 C278.73,170.24 278.46,168.55 277.17,168.27 C275.53,167.92 274.33,170.41 272.67,170.14 C272.16538,170.017482 271.711181,169.741468 271.37,169.35 C270.24,168.22 269.47,166.77 268.37,165.63 C266.611348,163.986423 264.33304,163.010005 261.93,162.87 C259.546522,162.740693 257.157063,162.966495 254.84,163.54 C253.562316,163.75091 252.328738,164.173368 251.19,164.79 C250.048257,165.414486 249.242425,166.513347 248.99,167.79 C248.88,168.66 249.11,169.56 248.94,170.42 C248.600196,171.594216 247.789282,172.575278 246.7,173.13 C245.7,173.75 244.52,174.13 243.54,174.89 C241.982476,176.100045 240.9023,177.821244 240.49,179.75 C240.090061,181.668317 240.035877,183.642635 240.33,185.58 C240.7404,188.945902 241.67857,192.226122 243.11,195.3 C243.58313,196.372992 244.191386,197.381151 244.92,198.3 C245.989367,199.466846 247.218168,200.476819 248.57,201.3 C249.06585,201.749914 249.738272,201.952008 250.4,201.85 C250.587273,201.782791 250.760268,201.681029 250.91,201.55 C252.19,200.48 252.31,198.55 251.91,196.92 C251.51,195.29 250.83,193.74 250.75,192.08 C250.698912,191.614092 250.789524,191.143607 251.01,190.73 C251.276697,190.395446 251.578413,190.090377 251.91,189.82 C252.34309,189.321991 252.681942,188.74933 252.91,188.13 C253.675027,186.599961 254.197919,184.960443 254.46,183.27 C254.604791,181.877961 254.299896,180.476145 253.59,179.27 C254.989777,180.586163 257.003988,181.017505 258.82,180.39 L258.82,180.39 Z" id="Shape" fill="#463E3B" fill-rule="nonzero"></path>
            <ellipse id="Oval" fill="#CD9494" fill-rule="nonzero" cx="177" cy="557.1" rx="25.19" ry="9.25"></ellipse>
            <ellipse id="Oval" fill="#000000" fill-rule="nonzero" opacity="0.05" cx="177" cy="556.07" rx="12.85" ry="4.72"></ellipse>
            <path d="M151.8,555.07 C151.8,555.07 179.56,570.49 202.18,557.13 C202.18,557.13 199.1,610.6 183.67,615.74 L163.12,615.74 C163.12,615.74 145.64,579.71 151.8,555.07 Z" id="Shape" fill="#FF7361" fill-rule="nonzero"></path>
            <path d="M198.75,457.07 C205.82,482.9 175.68,556.48 175.68,556.48 C175.68,556.48 112.29,508.48 105.22,482.66 C98.1535166,456.832404 113.362404,430.166483 139.19,423.1 C165.017596,416.033517 191.683517,431.242404 198.75,457.07 L198.75,457.07 Z" id="Shape" fill="#3FA34D" fill-rule="nonzero"></path>
            <path d="M198.75,457.07 C205.82,482.9 175.68,556.48 175.68,556.48 C175.68,556.48 112.29,508.48 105.22,482.66 C98.1535166,456.832404 113.362404,430.166483 139.19,423.1 C165.017596,416.033517 191.683517,431.242404 198.75,457.07 L198.75,457.07 Z" id="Shape" fill="#000000" fill-rule="nonzero" opacity="0.1"></path>
            <path d="M139.45,423.24 C139.45,423.24 178.91,482.81 175.94,556.61" id="Shape" stroke="#535461"></path>
            <path d="M208.82,504.27 C208.82,504.27 173,484.8 177.57,556.66 C177.57,556.66 207.42,555.59 218.01,531.24 C222.292601,521.439654 218.573136,509.984906 209.35,504.57 L208.82,504.27 Z" id="Shape" fill="#3FA34D" fill-rule="nonzero"></path>
            <path d="M209.41,504.39 C209.41,504.39 204.79,541.69 177.57,556.66" id="Shape" stroke="#535461"></path>
            <path d="M198.82,558.84 C197.82,571.14 193.51,609.34 180.6,613.65 L162.17,613.65 C162.76,614.96 163.12,615.71 163.12,615.71 L183.69,615.71 C199.1,610.56 202.19,557.07 202.19,557.07 C201.097406,557.71676 199.972619,558.307524 198.82,558.84 L198.82,558.84 Z" id="Shape" fill="#000000" fill-rule="nonzero" opacity="0.05"></path>
            <rect id="Rectangle-path" fill="#DDE1EC" fill-rule="nonzero" x="431.12" y="472.81" width="209.17" height="121.39"></rect>
            <path d="M983.83,233.21 C983.856522,232.817114 983.856522,232.422886 983.83,232.03 C983.47,227.15 978.83,223.62 974.23,221.74 C969.63,219.86 964.49,218.94 960.42,216.09 C953.54,211.27 951.42,202.26 950.8,194.02 C950.61,191.46 950.53,188.9 950.52,186.33 C950.51,183.76 950.68,180.92 950.92,178.22 C951.32,173.74 951.98,169.1 951.92,164.61 C952.153442,160.325955 951.329215,156.050279 949.52,152.16 C945.44,144.1 936.28,139.98 927.8,136.47 C924.54,135.12 921.2,133.75 917.66,133.6 C913.92,133.44 910.28,134.65 906.74,135.85 C901.12,137.75 895.42,140.22 889.61,141.51 C886.35,142.23 882.78,141.69 879.61,142.84 C873.39,145.12 872.06,150.71 872.16,156.84 C872.16,157.23 872.16,157.61 872.16,158 C871.54,157.43 870.9,156.89 870.25,156.37 L869.87,156.07 C869.203333,155.53 868.493333,155.02 867.74,154.54 L867.38,154.31 C865.851956,153.319579 864.250652,152.447052 862.59,151.7 L862.34,151.59 C861.506667,151.223333 860.66,150.89 859.8,150.59 L859.64,150.53 C857.859962,149.909575 856.034489,149.428131 854.18,149.09 L854.18,149.09 C842.315824,146.891299 830.133567,150.719794 821.66,159.31 L814.79,166.31 L814.79,166.31 C783.56,159.31 782.16,186.44 782.16,186.44 L782.39,186.39 L782.31,186.58 C783.021323,190.013045 783.919322,193.404747 785,196.74 L543.83,443.07 L519.45,518.63 L533.14,513.75 L595.68,491.41 L819.62,262.65 C836.38,274.56 853.8,290.52 853.8,290.52 C853.8,290.52 843,296.23 847,322.39 C851.89,354.39 844.54,399.94 844.54,399.94 L844.54,429.4 L845.92,429.02 C845.75,430.02 845.57,431.02 845.4,432.17 C843.122328,446.971786 842.833101,462.011588 844.54,476.89 C848.24,508.15 863.02,550.83 863.02,550.83 C863.02,550.83 868.56,565.83 869.8,577.88 C869.995008,580.259781 870.526986,582.599809 871.38,584.83 C874.160574,591.440445 875.627858,598.528921 875.7,605.7 C875.7,618.78 877.41,638.41 885.2,658.44 C891.45,674.52 893.76,683.94 894.45,689.44 C890.02,695.3 884.23,701.69 879.66,702.33 C871.04,703.53 854.4,704.73 865.49,719.16 C865.87691,719.655403 866.308744,720.114017 866.78,720.53 C858.36,721.89 849.1,724.89 858.1,736.59 C869.19,751.02 934.49,744.41 934.49,744.41 C934.49,744.41 934.91,736.41 934.49,727.59 C939.07,727.27 941.9,726.98 941.9,726.98 C941.9,726.98 943.75,692.11 935.74,687.9 C934.259587,688.061456 932.807008,688.417875 931.42,688.96 C930.56,684.14 929.9,678.15 929.49,673.71 L932.66,673.47 L932.66,621.17 C932.66,621.17 928.96,588.71 915.41,574.28 C913.682513,572.477937 912.193663,570.461436 910.98,568.28 C911.08,564.11 911.09,558.28 911.04,551.55 C911.578667,550.640034 912.219485,549.794557 912.95,549.03 C912.95,549.03 920.34,540.03 945.6,482.9 C960.5,449.21 957.18,429.76 951.95,419.46 C950.95,415.8 948.35,405.35 944.95,386.11 C940.64,361.46 945.57,337.41 945.57,337.41 C945.57,337.41 961.57,295.93 968.98,279.1 C970.695888,275.046053 971.409369,270.638246 971.06,266.25 C972.99,264.84 973.92,262.49 974.75,260.25 L982.34,240 C983.16,237.81 984,235.53 983.82,233.2 L983.83,233.21 Z M880.75,196.75 C881.574604,198.03653 882.493809,199.259909 883.5,200.41 L883.5,200.41 C883.5,200.41 882.37,199.23 880.5,197.33 C880.59,197.14 880.67,196.94 880.75,196.75 Z M843.43,238.32 L864.32,216.98 C871.54,223.58 879.27,230.32 885.73,235.87 C885.114596,238.71393 884.299237,241.510879 883.29,244.24 C880.49,245.63 876.79,246.08 872.29,243.63 C865.16,239.78 852,238.64 843.43,238.32 Z" id="Shape" fill="url(#linearGradient-4)" fill-rule="nonzero"></path>
            <path d="M826.62,159.57 C826.62,159.57 811.13,168.51 815.9,181.07 C815.9,181.07 831.99,185.84 838.54,197.76 C845.09,209.68 895.75,252.58 895.75,252.58 L932.69,234.07 C932.69,234.07 919.84,216.91 879.19,204.93 C879.19,204.93 855.19,179.24 846.88,174.48 C838.57,169.72 826.62,159.57 826.62,159.57 Z" id="Shape" fill="#8F5F55" fill-rule="nonzero"></path>
            <path d="M826.62,159.57 C826.62,159.57 811.13,168.51 815.9,181.07 C815.9,181.07 831.99,185.84 838.54,197.76 C845.09,209.68 895.75,252.58 895.75,252.58 L932.69,234.07 C932.69,234.07 919.84,216.91 879.19,204.93 C879.19,204.93 855.19,179.24 846.88,174.48 C838.57,169.72 826.62,159.57 826.62,159.57 Z" id="Shape" fill="#000000" fill-rule="nonzero" opacity="0.05"></path>
            <path d="M550.62,445.44 L819.4,164.07 C832.627171,150.242155 854.554843,149.740951 868.4,162.95 L868.4,162.95 C882.227845,176.177171 882.729049,198.104843 869.52,211.95 L600.78,493.36 L527.04,520.36 L550.62,445.44 Z" id="Shape" fill="#3FA34D" fill-rule="nonzero"></path>
            <path d="M853.75,157.96 L853.75,157.96 C867.577845,171.187171 868.079049,193.114843 854.87,206.96 L586.1,488.33 L530.74,508.58 L527,520.34 L600.74,493.34 L869.55,212.07 C882.759049,198.224843 882.257845,176.297171 868.43,163.07 L868.43,163.07 C862.893119,157.764517 855.747268,154.453712 848.12,153.66 C850.137974,154.898202 852.024402,156.33899 853.75,157.96 Z" id="Shape" fill="#FFFFFF" fill-rule="nonzero" opacity="0.1"></path>
            <polygon id="Shape" fill="#EFC8C4" fill-rule="nonzero" points="550.62 445.45 600.78 493.36 540.28 515.5 527.04 520.34 535.43 493.71"></polygon>
            <path d="M535.43,493.7 C537.265666,494.056671 539.016767,494.759148 540.59,495.77 C542.41,497.08 543.73,499.35 543.23,501.53 C542.737889,502.887619 542.03604,504.159721 541.15,505.3 C539.319179,508.389256 538.998809,512.145308 540.28,515.5 L527,520.34 L535.43,493.7 Z" id="Shape" fill="#727A9C" fill-rule="nonzero"></path>
            <path d="M923.16,667.87 C923.16,667.87 924.95,694.09 927.93,697.07 C930.91,700.05 901.11,701.84 901.11,701.84 L905.28,667.84 L923.16,667.87 Z" id="Shape" fill="#8F5F55" fill-rule="nonzero"></path>
            <path d="M923.16,667.87 C923.16,667.87 924.95,694.09 927.93,697.07 C930.91,700.05 901.11,701.84 901.11,701.84 L905.28,667.84 L923.16,667.87 Z" id="Shape" fill="#000000" fill-rule="nonzero" opacity="0.05"></path>
            <path d="M929.71,688.13 C929.71,688.13 925.54,688.13 910.64,695.88 C910.64,695.88 900.51,694.09 896.34,679.79 C896.34,679.79 883.83,701.24 875.48,702.43 C867.13,703.62 851.05,704.81 861.77,719.12 C872.49,733.43 935.66,726.87 935.66,726.87 C935.66,726.87 937.46,692.3 929.71,688.13 Z" id="Shape" fill="#CBCDDA" fill-rule="nonzero"></path>
            <path d="M929.71,688.13 C929.71,688.13 925.54,688.13 910.64,695.88 C910.64,695.88 900.51,694.09 896.34,679.79 C896.34,679.79 883.83,701.24 875.48,702.43 C867.13,703.62 851.05,704.81 861.77,719.12 C872.49,733.43 935.66,726.87 935.66,726.87 C935.66,726.87 937.46,692.3 929.71,688.13 Z" id="Shape" fill="#000000" fill-rule="nonzero" opacity="0.05"></path>
            <path d="M920.77,708.39 L916.6,719.71 L889.19,711.96 L890.75,700.72 L891.13,698.01 L892.13,690.51 C892.13,690.51 915.37,684.51 915.37,687.51 C915.684669,689.967083 916.196317,692.394899 916.9,694.77 C917.9,698.43 919.05,702.61 919.9,705.36 C920.42,707.2 920.77,708.39 920.77,708.39 Z" id="Shape" fill="#8F5F55" fill-rule="nonzero"></path>
            <path d="M905.82,552.98 C903.94,556.16 901.82,562.12 905.77,569.56 C906.938808,571.713609 908.377036,573.709655 910.05,575.5 C923.16,589.8 926.74,621.98 926.74,621.98 L926.74,673.82 L917.8,674.51 L903.5,675.61 L882,587.43 C882,587.43 869.49,523.07 875.45,511.75 C881.41,500.43 886.77,429.52 886.77,429.52 L891.72,424.4 L903.46,412.24 L937.46,412.24 C940.17787,414.189614 942.434363,416.71238 944.07,419.63 C949.77,429.07 954.89,448.7 939.25,484.94 C914.82,541.55 907.67,550.49 907.67,550.49 C906.961251,551.247449 906.340624,552.082779 905.82,552.98 Z" id="Shape" fill="#3F3F83" fill-rule="nonzero"></path>
            <path d="M905.82,552.98 C903.94,556.16 901.82,562.12 905.77,569.56 C906.938808,571.713609 908.377036,573.709655 910.05,575.5 C923.16,589.8 926.74,621.98 926.74,621.98 L926.74,673.82 L917.8,674.51 L903.5,675.61 L882,587.43 C882,587.43 869.49,523.07 875.45,511.75 C881.41,500.43 886.77,429.52 886.77,429.52 L891.72,424.4 L903.46,412.24 L937.46,412.24 C940.17787,414.189614 942.434363,416.71238 944.07,419.63 C949.77,429.07 954.89,448.7 939.25,484.94 C914.82,541.55 907.67,550.49 907.67,550.49 C906.961251,551.247449 906.340624,552.082779 905.82,552.98 Z" id="Shape" fill="#000000" fill-rule="nonzero" opacity="0.05"></path>
            <path d="M916.94,694.79 L891.13,698.01 L892.13,690.51 C892.13,690.51 915.37,684.51 915.37,687.51 C915.696703,689.974939 916.22174,692.409504 916.94,694.79 Z" id="Shape" fill="#000000" fill-rule="nonzero" opacity="0.1"></path>
            <path d="M904.09,476.59 C904.09,476.59 905.57,523.5 905.82,552.98 C905.87,559.65 905.82,565.43 905.77,569.56 C905.805259,571.74995 905.644619,573.938665 905.29,576.1 C903.5,581.46 907.08,593.38 907.08,593.38 C921.98,632.71 917.81,667.27 917.81,667.27 L917.81,693.49 L889.19,697.07 C889.19,697.07 893.96,693.49 880.85,658.93 C873.32,639.07 871.69,619.62 871.66,606.65 C871.590985,599.553935 870.172426,592.535802 867.48,585.97 C866.669508,583.749637 866.171414,581.42744 866,579.07 C864.81,567.15 859.45,552.25 859.45,552.25 C859.45,552.25 845.15,509.94 841.57,478.95 C839.917935,464.200104 840.196956,449.297716 842.4,434.62 C842.927342,430.889132 843.644944,427.187641 844.55,423.53 C844.55,423.53 902.8,386.87 924.8,412.21 C926.929073,414.685247 928.620022,417.50575 929.8,420.55 C931.007743,423.55468 931.948055,426.660051 932.61,429.83 C939.37,463.49 904.09,476.59 904.09,476.59 Z" id="Shape" fill="#3F3F83" fill-rule="nonzero"></path>
            <circle id="Oval" fill="#8F5F55" fill-rule="nonzero" cx="902.3" cy="185.2" r="30.39"></circle>
            <path d="M885.62,204.26 C885.62,204.26 898.13,239.42 885.62,257.89 C873.11,276.36 925.54,270.4 925.54,270.4 L945.8,245.97 C945.8,245.97 921.96,245.97 920.8,204.26 C919.64,162.55 885.62,204.26 885.62,204.26 Z" id="Shape" fill="#FFB9B9" fill-rule="nonzero"></path>
            <path d="M945.8,426.53 C941.479202,428.026118 937.035509,429.140387 932.52,429.86 C925.1,431 916.35,431.05 911.23,426.53 C908.23,423.85 900.72,423.53 891.74,424.38 C872.83,426.19 847.23,433.25 842.33,434.64 C842.857342,430.909132 843.574944,427.207641 844.48,423.55 C844.48,423.55 902.73,386.89 924.73,412.23 L937.44,412.23 C940.15787,414.179614 942.414363,416.70238 944.05,419.62 C945.16,424.36 945.8,426.53 945.8,426.53 Z" id="Shape" fill="#000000" fill-rule="nonzero" opacity="0.1"></path>
            <path d="M920.77,708.39 L916.6,719.71 L889.19,711.96 L890.75,700.72 C895.46,711.14 903.49,712.55 903.49,712.55 C912.15,708.05 917.19,706.16 919.89,705.37 C920.42,707.2 920.77,708.39 920.77,708.39 Z" id="Shape" fill="#000000" fill-rule="nonzero" opacity="0.1"></path>
            <path d="M922.56,705.41 C922.56,705.41 918.39,705.41 903.49,713.16 C903.49,713.16 893.36,711.37 889.19,697.07 C889.19,697.07 876.68,718.52 868.33,719.71 C859.98,720.9 843.9,722.07 854.63,736.4 C865.36,750.73 928.52,744.15 928.52,744.15 C928.52,744.15 930.31,709.58 922.56,705.41 Z" id="Shape" fill="#CBCDDA" fill-rule="nonzero"></path>
            <path d="M781.19,191.02 C781.19,191.02 782.54,164.13 812.75,171.07 L805,185.6 L781.19,191.02 Z" id="Shape" fill="#8F5F55" fill-rule="nonzero"></path>
            <path d="M922,253.13 C922,253.13 892.8,248.36 885.05,242.4 C885.05,242.4 879.05,253.72 868.36,247.76 C857.67,241.8 832.61,242.4 832.61,242.4 C832.61,242.4 811.75,231.08 807.61,205.45 C807.61,205.45 803.44,189.96 804.61,185.79 C804.61,185.79 789.12,169.7 781.37,191.15 C784.37,206.05 786.73,204.86 786.14,216.77 L795.67,242.99 C795.67,242.99 796.27,251.93 813.55,263.85 C830.83,275.77 850.5,294.24 850.5,294.24 C850.5,294.24 840.07,299.9 843.95,325.82 C848.68,357.5 841.57,402.69 841.57,402.69 L841.57,431.89 C841.57,431.89 901.16,414.61 911.29,423.55 C921.42,432.49 945.85,423.55 945.85,423.55 C945.85,423.55 942.85,413.42 938.7,388.99 C934.55,364.56 939.3,340.72 939.3,340.72 C939.3,340.72 954.79,299.6 961.94,282.92 C969.09,266.24 956.58,243.59 944.06,235.25 C931.54,226.91 926.89,231.92 926.89,231.92 C926.89,231.92 948.78,247.77 922,253.13 Z" id="Shape" fill="#FFAB00" fill-rule="nonzero"></path>
            <path d="M869.43,177.76 C869.42087,179.000363 869.630757,180.232601 870.05,181.4 C870.744631,182.727661 871.692455,183.906496 872.84,184.87 C877.3,189.23 881.22,194.41 882.79,200.45 C883.85,204.54 883.79,208.82 883.73,213.05 C883.47,230.16 882.73,248.63 872.19,262.05 C868.31,267 863.31,270.93 858.62,275.12 C857.96139,275.612461 857.466529,276.292024 857.2,277.07 C857.06984,277.883872 857.225301,278.717711 857.64,279.43 C859.82,283.96 864.41,286.74 868.76,289.26 C870.76,290.41 872.84,291.6 875.14,291.67 C880.56,291.85 884.14,286.12 889.07,283.87 C896.25,280.59 904.3,285.15 911.43,288.55 C916.589902,291.006445 922.001744,292.894218 927.57,294.18 C935.2,295.94 943.82,296.37 950.24,291.9 C953.951371,289.285043 956.486828,285.316657 957.3,280.85 C957.82,277.94 957.74,274.56 959.94,272.59 C961.08,271.59 962.63,271.15 963.85,270.25 C965.76,268.85 966.66,266.5 967.47,264.25 L974.81,244.18 C975.755948,242.059092 976.243251,239.762296 976.24,237.44 C975.89,232.61 971.43,229.1 966.96,227.24 C962.49,225.38 957.54,224.47 953.6,221.64 C946.95,216.86 944.89,207.93 944.29,199.76 C943.879988,194.14914 943.920116,188.514451 944.41,182.91 C945.14,174.6 946.76,165.74 943.06,158.26 C939.11,150.26 930.25,146.19 922.06,142.71 C918.91,141.37 915.67,140.02 912.25,139.87 C908.63,139.71 905.11,140.87 901.69,142.1 C896.25,143.99 890.69,146.43 885.12,147.71 C881.97,148.43 878.51,147.89 875.47,149.03 C864.3,153.23 869.43,168.77 869.43,177.76 Z" id="Shape" fill="#000000" fill-rule="nonzero" opacity="0.1"></path>
            <path d="M869.43,176.57 C869.42087,177.810363 869.630757,179.042601 870.05,180.21 C870.744631,181.537661 871.692455,182.716496 872.84,183.68 C877.3,188.04 881.22,193.22 882.79,199.26 C883.85,203.35 883.79,207.63 883.73,211.86 C883.47,228.97 882.73,247.44 872.19,260.86 C868.31,265.81 863.31,269.74 858.62,273.93 C857.964093,274.410388 857.466237,275.075356 857.19,275.84 C857.05984,276.653872 857.215301,277.487711 857.63,278.2 C859.81,282.73 864.4,285.51 868.75,288.03 C870.75,289.18 872.83,290.37 875.13,290.44 C880.55,290.62 884.13,284.89 889.06,282.64 C896.24,279.36 904.29,283.92 911.42,287.32 C916.579902,289.776445 921.991744,291.664218 927.56,292.95 C935.19,294.71 943.81,295.14 950.23,290.67 C953.941371,288.055043 956.476828,284.086657 957.29,279.62 C957.81,276.71 957.73,273.33 959.93,271.36 C961.07,270.36 962.62,269.92 963.84,269.02 C965.75,267.62 966.65,265.27 967.46,263.02 L974.8,242.95 C975.745948,240.829092 976.233251,238.532296 976.23,236.21 C975.88,231.38 971.42,227.87 966.95,226.01 C962.48,224.15 957.53,223.24 953.59,220.41 C946.94,215.63 944.88,206.7 944.28,198.53 C943.869988,192.91914 943.910116,187.284451 944.4,181.68 C945.13,173.37 946.75,164.51 943.05,157.03 C939.1,149.03 930.24,144.96 922.05,141.48 C918.9,140.14 915.66,138.79 912.24,138.64 C908.62,138.48 905.1,139.64 901.68,140.87 C896.24,142.76 890.68,145.2 885.11,146.48 C881.96,147.2 878.5,146.66 875.46,147.8 C864.3,152.07 869.43,167.58 869.43,176.57 Z" id="Shape" fill="#0D0B0B" fill-rule="nonzero"></path>
            <path d="M845.41,339.2 C845.41,339.2 850.16,338.07 874,334.47 C897.84,330.87 939.55,339.24 939.55,339.24" id="Shape" fill="#000000" fill-rule="nonzero" opacity="0.05"></path>
        </g>
    </g>
</svg>