<?xml version="1.0" encoding="UTF-8"?>
<svg viewBox="0 0 930 819" version="1.1" xmlns="http://www.w3.org/2000/svg" xmlns:xlink="http://www.w3.org/1999/xlink">
    <!-- Generator: Sketch 46.2 (44496) - http://www.bohemiancoding.com/sketch -->
    <title>sign-up</title>
    <desc>Created with Sketch.</desc>
    <defs>
        <linearGradient x1="50.0175487%" y1="100%" x2="50.0175487%" y2="0.0625978091%" id="linearGradient-1">
            <stop stop-color="#808080" stop-opacity="0.25" offset="0%"></stop>
            <stop stop-color="#808080" stop-opacity="0.12" offset="54%"></stop>
            <stop stop-color="#808080" stop-opacity="0.1" offset="100%"></stop>
        </linearGradient>
        <linearGradient x1="83907%" y1="80744%" x2="83907%" y2="17194%" id="linearGradient-2">
            <stop stop-color="#808080" stop-opacity="0.25" offset="0%"></stop>
            <stop stop-color="#808080" stop-opacity="0.12" offset="54%"></stop>
            <stop stop-color="#808080" stop-opacity="0.1" offset="100%"></stop>
        </linearGradient>
    </defs>
    <g id="Page-1" stroke="none" stroke-width="1" fill="none" fill-rule="evenodd">
        <g id="sign-up" transform="translate(-136.000000, -41.000000)">
            <ellipse id="Oval" fill="#3FA34D" fill-rule="nonzero" opacity="0.1" cx="889.62" cy="795.32" rx="118.88" ry="20.45"></ellipse>
            <ellipse id="Oval" fill="#3FA34D" fill-rule="nonzero" opacity="0.1" cx="529.68" cy="775.32" rx="176" ry="12.45"></ellipse>
            <path d="M423.63,73.01 C455.15,44.92 504.63,39.2 549.63,41.44 C691.07,48.44 818.74,116.75 929.18,193.98 C969.18,221.98 1008.52,252.07 1034.47,290.58 C1087.3,368.96 1071.63,477.58 998.17,542.11 C973.17,564.11 942.88,580.92 911.77,595.85 C856.47,622.4 796.77,643.71 734.03,649.77 C689.27,654.1 643.95,650.58 599.45,644.55 C475.13,627.69 353.1,590.4 250.84,526.61 C205.98,498.61 163.69,463.85 145.2,418.61 C126.71,373.37 138.55,315.99 184.35,289.2 C203.35,278.12 225.95,273.12 248.13,268.42 C280.77,261.5 313.94,254.68 343.4,240.62 C373.84,226.08 409.84,197.99 403.84,165.85 C397.34,131.34 392.15,101.06 423.63,73.01 Z" id="Shape" fill="#3FA34D" fill-rule="nonzero" opacity="0.1"></path>
            <path d="M300,217.91 L292.47,217.91" id="Shape" fill="#3FA34D" fill-rule="nonzero"></path>
            <g id="Group" opacity="0.1" transform="translate(375.000000, 157.000000)" fill-rule="nonzero" fill="#000000">
                <path d="M167.65,530.34 C171.49,536.87 177.51,541.08 184.29,541.08 C195.87,541.08 205.29,528.81 205.29,513.66 C205.29,498.51 195.84,486.34 184.29,486.34 C178.84,486.34 173.87,489.06 170.14,493.53 C168.725522,495.240069 167.526537,497.117471 166.57,499.12 L166.37,500.31 C166.37,500.31 161.9,504.13 155.81,500.62 L155.81,411.8 L69.09,411.8 C67.6654762,409.933992 67.2711893,407.478149 68.04,405.26 C68.6877315,403.229765 70.0863414,401.523532 71.95,400.49 C78.48,396.65 82.7,390.63 82.7,383.85 C82.7,372.27 70.42,362.85 55.28,362.85 C40.14,362.85 27.86,372.24 27.86,383.85 C27.86,389.3 30.59,394.28 35.06,398.01 C36.7684368,399.418991 38.642256,400.614474 40.64,401.57 L40.76,401.77 C43.4521346,404.374989 44.1295875,408.431593 42.43,411.77 L3.32,411.77 L3.32,576.25 C3.32,597.789105 20.7808948,615.25 42.32,615.25 L155.84,615.25 L155.84,527.97 C157.7265,526.179165 160.458852,525.599458 162.91,526.47 C164.926199,527.10742 166.622128,528.492071 167.65,530.34 Z" id="Shape"></path>
                <path d="M21.7,408.34 L35.28,408.34 C28.589996,403.200261 24.6395277,395.266127 24.57,386.83 C24.57,371.24 38.17,358.61 54.94,358.61 C71.71,358.61 85.32,371.24 85.32,386.83 C85.2504723,395.266127 81.300004,403.200261 74.61,408.34 L156.01,408.34 L156.01,320.71 C157.906348,318.937978 160.627491,318.360649 163.08,319.21 C165.115443,319.852769 166.826475,321.252379 167.86,323.12 C171.69,329.65 177.71,333.86 184.5,333.86 C196.08,333.86 205.5,321.59 205.5,306.45 C205.5,291.31 196.12,279.03 184.5,279.03 C179.04,279.03 174.07,281.76 170.34,286.22 C168.929854,287.933223 167.73122,289.810076 166.77,291.81 L166.58,291.93 C163.819053,294.812263 159.429928,295.397756 156.01,293.34 L156.01,204.54 L72.52,204.54 C71.0954762,202.673992 70.7011893,200.218149 71.47,198 C72.1131739,195.967292 73.5130223,194.259548 75.38,193.23 C81.91,189.4 86.12,183.37 86.12,176.59 C86.12,165.01 73.85,155.59 58.71,155.59 C43.57,155.59 31.29,164.98 31.29,176.59 C31.29,182.05 34.02,187.02 38.48,190.75 C40.1932225,192.160146 42.0700756,193.35878 44.07,194.32 L44.19,194.51 C46.8821346,197.114989 47.5595875,201.171593 45.86,204.51 L21.7,204.51 L21.7,200.01 L39.54,200.01 C32.8635724,194.877831 28.9179008,186.960675 28.84,178.54 C28.84,162.95 42.44,150.31 59.22,150.31 C76,150.31 89.59,162.95 89.59,178.54 C89.5093328,186.979856 85.5434845,194.911553 78.84,200.04 L155.94,200.04 L155.94,111.34 C157.831862,109.551653 160.565459,108.972501 163.02,109.84 C165.051221,110.485916 166.758054,111.885019 167.79,113.75 C171.62,120.28 177.65,124.49 184.43,124.49 C196.01,124.49 205.43,112.22 205.43,97.07 C205.43,81.92 196.05,69.66 184.43,69.66 C178.97,69.66 174,72.38 170.27,76.85 C168.855522,78.5600693 167.656537,80.4374709 166.7,82.44 L166.51,83.63 C166.51,83.63 162.04,87.45 155.94,83.94 L155.94,1.21 L42.47,1.21 C20.9308948,1.21 3.47,18.6708948 3.47,40.21 L3.47,82.43 L2.88,82.43 C1.61526792,82.43 0.59,83.4552679 0.59,84.72 L0.59,104.72 C0.595477112,105.982456 1.61754358,107.004523 2.88,107.01 L3.47,107.01 L3.47,127.43 L2.7,127.43 C1.43364009,127.429988 0.405505913,128.453652 0.4,129.72 L0.4,167.91 C0.405505913,169.176348 1.43364009,170.200012 2.7,170.2 L3.47,170.2 L3.47,185.2 L2.84,185.2 C1.57526792,185.2 0.55,186.225268 0.55,187.49 L0.55,199.79 L0.05,199.79 L0.05,225.71 C0.0473267245,226.318161 0.287735346,226.902186 0.717774512,227.332225 C1.14781368,227.762265 1.73183865,228.002673 2.34,228 L3.02,228 L3.02,408.34 L21.7,408.34 Z" id="Shape"></path>
                <path d="M318.43,142.84 C318.430012,141.57364 317.406348,140.545506 316.14,140.54 L314.76,140.54 L314.76,138.03 L314.01,138.03 L314.01,38.28 C314.012653,28.3335684 310.062624,18.7937549 303.029435,11.7605654 C295.996245,4.72737597 286.456432,0.777346557 276.51,0.78 L164.01,0.78 L164.01,76.78 C169.218728,69.8672366 177.35468,65.7807699 186.01,65.73 C201.72,65.73 214.46,79.34 214.46,96.12 C214.46,112.9 201.72,126.51 186.01,126.51 C177.353939,126.462316 169.216695,122.3752 164.01,115.46 L164.01,199.79 L255.01,199.79 C248.329137,194.636021 244.387573,186.697587 244.32,178.26 C244.32,162.65 257.89,150 274.64,150 C282.084739,149.95855 289.302788,152.559457 295.01,157.34 C301.355953,162.410413 305.050888,170.09218 305.050888,178.215 C305.050888,186.33782 301.355953,194.019587 295.01,199.09 L295.01,199.76 L314.76,199.76 L314.76,199.69 L318.43,199.69 L318.43,142.84 Z" id="Shape"></path>
                <path d="M288.22,403.85 L288.22,393.85 L288.22,393.85 C288.632225,393.248858 289.009515,392.624493 289.35,391.98 C290.689301,389.543416 291.397484,386.81038 291.41,384.03 C291.406895,382.176527 291.089043,380.337042 290.47,378.59 C289.924184,377.033823 289.167102,375.560036 288.22,374.21 L288.22,374.21 C283.61,367.58 274.5,363.06 264,363.06 C248.85,363.06 236.58,372.45 236.58,384.06 C236.58,389.52 239.31,394.49 243.77,398.22 C245.483223,399.630146 247.360076,400.82878 249.36,401.79 L249.48,401.98 C252.169115,404.586575 252.846216,408.641075 251.15,411.98 L162.93,411.98 L162.93,493.98 C168.065554,487.108728 176.121835,483.038031 184.7,482.98 C200.29,482.98 212.92,496.58 212.92,513.35 C212.92,530.12 200.29,543.73 184.7,543.73 C176.121835,543.671969 168.065554,539.601272 162.93,532.73 L162.93,598.92 L264.16,598.92 C277.424575,598.920041 288.186921,588.184534 288.22,574.92 L288.22,412.01 L288.22,412.01 L288.22,574.81 C288.22,588.097971 277.447971,598.87 264.16,598.87 L162.93,598.87 L162.93,614.87 L267.93,614.87 C289.469105,614.87 306.93,597.409105 306.93,575.87 L306.93,412.01 L306.93,412.01 L306.93,407.71 L288.22,407.71 L288.22,403.85 Z" id="Shape"></path>
            </g>
            <path d="M422.09,752.2 C408.802029,752.2 398.03,741.427971 398.03,728.14 L398.03,564.8 L379.32,564.8 L379.32,729.25 C379.32,750.789105 396.780895,768.25 418.32,768.25 L531.84,768.25 L531.84,752.25 L422.09,752.2 Z" id="Shape" fill="#3A3768" fill-rule="nonzero"></path>
            <path d="M538.84,679.47 C540.874206,680.110408 542.58287,681.511011 543.61,683.38 C547.45,689.91 553.47,694.12 560.25,694.12 C571.83,694.12 581.25,681.85 581.25,666.7 C581.25,651.55 571.84,639.34 560.29,639.34 C554.84,639.34 549.87,642.06 546.14,646.53 C544.725522,648.240069 543.526537,650.117471 542.57,652.12 L542.37,653.31 C542.37,653.31 537.9,657.13 531.81,653.62 L531.81,564.8 L445.09,564.8 C443.665476,562.933992 443.271189,560.478149 444.04,558.26 C444.687731,556.229765 446.086341,554.523532 447.95,553.49 C454.48,549.65 458.7,543.63 458.7,536.85 C458.7,525.27 446.42,515.85 431.28,515.85 C416.14,515.85 403.86,525.24 403.86,536.85 C403.86,542.3 406.59,547.28 411.06,551.01 C412.768437,552.418991 414.642256,553.614474 416.64,554.57 L416.76,554.77 C419.452135,557.374989 420.129587,561.431593 418.43,564.77 L398.03,564.77 L398.03,728.14 C398.03,741.427971 408.802029,752.2 422.09,752.2 L531.84,752.2 L531.84,680.97 C533.712256,679.206066 536.409355,678.628116 538.84,679.47 Z" id="Shape" fill="#16DF32" fill-rule="nonzero"></path>
            <rect id="Rectangle-path" fill="#3A3768" fill-rule="nonzero" x="376.02" y="352.71" width="2.97" height="4.84"></rect>
            <rect id="Rectangle-path" fill="#3A3768" fill-rule="nonzero" x="381.47" y="352.71" width="16.23" height="4.84"></rect>
            <rect id="Rectangle-path" fill="#3A3768" fill-rule="nonzero" x="378.99" y="352.71" width="2.48" height="4.84"></rect>
            <g id="Group" transform="translate(0.840000, 0.340000)"></g>
            <path d="M378.31,380.92 L378.99,380.92 L378.99,357.54 L375.99,357.54 L375.99,378.63 C375.987215,379.24342 376.231727,379.832086 376.668299,380.263012 C377.10487,380.693938 377.696668,380.930768 378.31,380.92 L378.31,380.92 Z" id="Shape" fill="#3A3768" fill-rule="nonzero"></path>
            <path d="M397.7,357.54 L381.47,357.54 L381.47,378.63 C381.470006,379.239082 381.227366,379.823073 380.795743,380.25282 C380.364119,380.682567 379.779077,380.92266 379.17,380.92 L378.99,380.92 L378.99,561.34 L397.7,561.34 L397.7,357.54 Z" id="Shape" fill="#3A3768" fill-rule="nonzero"></path>
            <path d="M378.99,380.92 L379.17,380.92 C379.779077,380.92266 380.364119,380.682567 380.795743,380.25282 C381.227366,379.823073 381.470006,379.239082 381.47,378.63 L381.47,357.54 L378.99,357.54 L378.99,380.92 Z" id="Shape" fill="#3A3768" fill-rule="nonzero"></path>
            <path d="M430.94,511.57 C447.71,511.57 461.32,524.2 461.32,539.79 C461.26276,548.240213 457.311029,556.191643 450.61,561.34 L532.01,561.34 L532.01,473.71 C533.906348,471.937978 536.627491,471.360649 539.08,472.21 C541.115443,472.852769 542.826475,474.252379 543.86,476.12 C547.69,482.65 553.71,486.86 560.5,486.86 C572.08,486.86 581.5,474.59 581.5,459.45 C581.5,444.31 572.12,432.03 560.5,432.03 C555.04,432.03 550.07,434.76 546.34,439.22 C544.929854,440.933223 543.73122,442.810076 542.77,444.81 C539.819053,447.812263 535.429928,448.397756 532.01,446.34 L532.01,357.54 L448.52,357.54 C447.095476,355.673992 446.701189,353.218149 447.47,351 C448.113174,348.967292 449.513022,347.259548 451.38,346.23 C457.91,342.4 462.12,336.37 462.12,329.59 C462.12,318.01 449.85,308.59 434.71,308.59 C419.57,308.59 407.29,317.98 407.29,329.59 C407.29,335.05 410.02,340.02 414.48,343.75 C416.193223,345.160146 418.070076,346.35878 420.07,347.32 C422.882135,350.114989 423.559587,354.171593 421.86,357.51 L397.7,357.51 L397.7,561.34 L411.28,561.34 C404.578971,556.191643 400.62724,548.240213 400.57,539.79 C400.57,524.2 414.17,511.57 430.94,511.57 Z" id="Shape" fill="#16DF32" fill-rule="nonzero"></path>
            <path d="M381.97,340.08 C381.970006,339.470918 381.727366,338.886927 381.295743,338.45718 C380.864119,338.027433 380.279077,337.78734 379.67,337.79 L379.49,337.79 L379.49,352.71 L381.97,352.71 L381.97,340.08 Z" id="Shape" fill="#3A3768" fill-rule="nonzero"></path>
            <path d="M379.4,235.41 L378.9,235.41 C378.292654,235.41 377.710184,235.651267 377.280725,236.080725 C376.851267,236.510184 376.61,237.092654 376.61,237.7 L376.61,257.7 C376.615477,258.962456 377.637544,259.984523 378.9,259.99 L379.49,259.99 L379.49,235.42 L379.4,235.41 Z" id="Shape" fill="#3A3768" fill-rule="nonzero"></path>
            <path d="M378.72,280.39 C377.45364,280.389988 376.425506,281.413652 376.42,282.68 L376.42,320.87 C376.425506,322.136348 377.45364,323.160012 378.72,323.16 L379.49,323.16 L379.49,280.39 L378.72,280.39 Z" id="Shape" fill="#3A3768" fill-rule="nonzero"></path>
            <path d="M379.49,338.12 L378.84,338.12 C377.575268,338.12 376.55,339.145268 376.55,340.41 L376.55,353.04 L379.55,353.04 L379.49,338.12 Z" id="Shape" fill="#3A3768" fill-rule="nonzero"></path>
            <path d="M379.49,193.2 L379.49,235.42 C380.717861,235.463109 381.690757,236.471382 381.69,237.7 L381.69,257.7 C381.685591,258.926527 380.715588,259.931803 379.49,259.98 L379.49,280.4 L379.84,280.4 C380.447346,280.4 381.029816,280.641267 381.459275,281.070725 C381.888733,281.500184 382.13,282.082654 382.13,282.69 L382.13,320.88 C382.13,322.144732 381.104732,323.17 379.84,323.17 L379.47,323.17 L379.47,338.17 L379.65,338.17 C380.91636,338.169988 381.944494,339.193652 381.95,340.46 L381.95,353.04 L398.18,353.04 L398.18,194.34 C398.179999,181.055933 408.945934,170.285521 422.23,170.28 L454.84,170.28 L454.84,174.46 C454.84,185.400761 463.709239,194.27 474.65,194.27 L532.02,194.27 L532.02,181.19 L505.61,181.19 C503.484935,181.179186 501.761824,179.464981 501.74,177.34 L501.74,176.5 C501.745496,174.364939 503.474939,172.635496 505.61,172.63 L531.97,172.63 L531.97,154.21 L418.47,154.21 C396.94261,154.221039 379.495517,171.672608 379.49,193.2 L379.49,193.2 Z" id="Shape" fill="#3A3768" fill-rule="nonzero"></path>
            <path d="M381.69,257.69 L381.69,237.69 C381.690757,236.461382 380.717861,235.453109 379.49,235.41 L379.49,259.96 C380.711744,259.911986 381.680265,258.912648 381.69,257.69 Z" id="Shape" fill="#3A3768" fill-rule="nonzero"></path>
            <path d="M382.15,320.87 L382.15,282.68 C382.15,282.072654 381.908733,281.490184 381.479275,281.060725 C381.049816,280.631267 380.467346,280.39 379.86,280.39 L379.49,280.39 L379.49,323.16 L379.84,323.16 C380.450804,323.165335 381.038425,322.926425 381.472219,322.496387 C381.906013,322.066349 382.150023,321.480827 382.15,320.87 L382.15,320.87 Z" id="Shape" fill="#3A3768" fill-rule="nonzero"></path>
            <path d="M404.84,331.54 C404.84,315.95 418.44,303.31 435.22,303.31 C452,303.31 465.59,315.95 465.59,331.54 C465.509333,339.979856 461.543485,347.911553 454.84,353.04 L531.94,353.04 L531.94,264.34 C533.831862,262.551653 536.565459,261.972501 539.02,262.84 C541.051221,263.485916 542.758054,264.885019 543.79,266.75 C547.62,273.28 553.65,277.49 560.43,277.49 C572.01,277.49 581.43,265.22 581.43,250.07 C581.43,234.92 572.05,222.66 560.43,222.66 C554.97,222.66 550,225.38 546.27,229.85 C544.855522,231.560069 543.656537,233.437471 542.7,235.44 L542.51,236.63 C542.51,236.63 538.04,240.45 531.94,236.94 L531.94,194.24 L474.6,194.24 C463.67877,194.212435 454.839965,185.351264 454.84,174.43 L454.84,170.25 L422.25,170.25 C415.865423,170.252649 409.743687,172.792823 405.232862,177.311151 C400.722036,181.829479 398.192039,187.955427 398.2,194.34 L398.2,353.04 L415.54,353.04 C408.85532,347.901359 404.908704,339.971243 404.84,331.54 Z" id="Shape" fill="#16DF32" fill-rule="nonzero"></path>
            <path d="M505.61,172.6 C503.474939,172.605496 501.745496,174.334939 501.74,176.47 L501.74,177.34 C501.745465,179.476699 503.473322,181.209021 505.61,181.22 L531.97,181.22 L531.97,172.63 L505.61,172.6 Z" id="Shape" fill="#E6E8EC" fill-rule="nonzero"></path>
            <path d="M684.01,293.42 L684.01,352.78 L690.76,352.78 L690.76,291.03 L687.11,291.03 C685.4,291.03 684.01,292.1 684.01,293.42 Z" id="Shape" fill="#3A3768" fill-rule="nonzero"></path>
            <rect id="Rectangle-path" fill="#3A3768" fill-rule="nonzero" x="540.01" y="153.78" width="8" height="18"></rect>
            <rect id="Rectangle-path" fill="#3A3768" fill-rule="nonzero" x="540.01" y="180.78" width="8" height="13"></rect>
            <rect id="Rectangle-path" fill="#E6E8EC" fill-rule="nonzero" x="540.01" y="171.78" width="8" height="9"></rect>
            <path d="M692.14,293.54 L690.26,293.54 L690.26,352.71 L694.43,352.71 L694.43,295.84 C694.430012,294.57364 693.406348,293.545506 692.14,293.54 L692.14,293.54 Z" id="Shape" fill="#3A3768" fill-rule="nonzero"></path>
            <path d="M548,171.78 C550.13,172.26 552,176.14 552,176.14 L552,176.98 C552,176.98 550.12,180.85 548,180.78 L548,180.78 L548,193.78 L593.19,193.78 C604.132378,193.774479 613.000001,184.90238 613,173.96 L613,169.78 L647,169.78 C660.262918,169.807574 671.000029,180.567054 671,193.83 L671,310.34 C677.345953,315.410413 681.040888,323.09218 681.040888,331.215 C681.040888,339.33782 677.345953,347.019587 671,352.09 L671,352.76 L685,352.76 L685,294.07 C684.999953,293.991323 685.031876,293.916003 685.088444,293.861321 C685.145012,293.806639 685.22137,293.777287 685.3,293.78 L690,293.78 L690,191.28 C690.002653,181.333568 686.052624,171.793755 679.019435,164.760565 C671.986245,157.727376 662.446432,153.777347 652.5,153.78 L547.01,153.78 L547.01,171.78 L548,171.78 Z M563.14,171.69 C565.829627,171.69 568.01,173.870373 568.01,176.56 C568.01,179.249627 565.829627,181.43 563.14,181.43 C560.450373,181.43 558.27,179.249627 558.27,176.56 C558.27,173.870373 560.450373,171.69 563.14,171.69 Z" id="Shape" fill="#3A3768" fill-rule="nonzero"></path>
            <path d="M561.96,218.72 C577.67,218.72 590.41,232.33 590.41,249.11 C590.41,265.89 577.67,279.5 561.96,279.5 C553.303939,279.452316 545.166695,275.3652 539.96,268.45 L539.96,352.78 L630.96,352.78 C624.279137,347.626021 620.337573,339.687587 620.27,331.25 C620.27,315.64 633.84,302.99 650.59,302.99 C658.053157,302.939479 665.291055,305.544697 671.01,310.34 L671.01,193.83 C671.010029,180.567054 660.272918,169.807574 647.01,169.78 L613.01,169.78 L613.01,173.96 C613.010001,184.90238 604.142378,193.774479 593.2,193.78 L540.01,193.78 L540.01,229.78 C545.20601,222.87738 553.320558,218.788683 561.96,218.72 Z" id="Shape" fill="#16DF32" fill-rule="nonzero"></path>
            <path d="M548,180.78 C550.133334,180.782668 551.893335,179.110667 552,176.98 L552,176.14 C551.761963,173.969051 550.142449,172.203781 548,171.78 L547,171.78 L547,180.78 L548,180.78 Z" id="Shape" fill="#E6E8EC" fill-rule="nonzero"></path>
            <circle id="Oval" fill="#E6E8EC" fill-rule="nonzero" transform="translate(563.140289, 176.538366) rotate(-9.220000) translate(-563.140289, -176.538366) " cx="563.140289" cy="176.538366" r="4.87"></circle>
            <path d="M664.22,556.85 L664.22,546.85 C668.473269,540.994154 668.473269,533.065846 664.22,527.21 L664.22,556.85 Z" id="Shape" fill="#3A3768" fill-rule="nonzero"></path>
            <rect id="Rectangle-path" fill="#3A3768" fill-rule="nonzero" x="664.22" y="560.71" width="18.71" height="4.3"></rect>
            <path d="M656.67,553.69 C654.805019,554.721946 653.405916,556.428779 652.76,558.46 C651.987578,560.681101 652.382015,563.141636 653.81,565.01 L664.22,565.01 L664.22,560.71 L660.22,560.71 C661.669921,559.5499 663.009001,558.257688 664.22,556.85 L664.22,546.85 C662.229402,549.65077 659.653121,551.984778 656.67,553.69 Z" id="Shape" fill="#3FA34D" fill-rule="nonzero"></path>
            <path d="M660.2,560.71 L664.2,560.71 L664.2,556.85 C662.989001,558.257688 661.649921,559.5499 660.2,560.71 L660.2,560.71 Z" id="Shape" fill="#3FA34D" fill-rule="nonzero"></path>
            <path d="M667.41,537.05 C667.385869,533.52585 666.271546,530.09555 664.22,527.23 L664.22,546.86 C666.267228,543.996043 667.381204,540.570307 667.41,537.05 Z" id="Shape" fill="#3A3768" fill-rule="nonzero"></path>
            <path d="M682.93,565.01 L682.93,728.92 C682.93,750.459105 665.469105,767.92 643.93,767.92 L538.93,767.92 L538.93,751.92 L640.16,751.92 C653.447971,751.92 664.22,741.147971 664.22,727.86 L664.22,565.01 L682.93,565.01 Z" id="Shape" fill="#3A3768" fill-rule="nonzero"></path>
            <path d="M656.67,553.69 C659.652101,551.987666 662.228302,549.657143 664.22,546.86 L664.22,527.23 C659.61,520.6 650.5,516.08 640,516.08 C624.85,516.08 612.58,525.47 612.58,537.08 C612.58,542.54 615.31,547.51 619.77,551.24 C621.483223,552.650146 623.360076,553.84878 625.36,554.81 C628.169115,557.606575 628.846216,561.661075 627.15,565 L538.93,565 L538.93,647 C544.065554,640.128728 552.121835,636.058031 560.7,636 C576.29,636 588.92,649.6 588.92,666.37 C588.92,683.14 576.29,696.75 560.7,696.75 C552.121835,696.691969 544.065554,692.621272 538.93,685.75 L538.93,751.94 L640.16,751.94 C653.424575,751.940041 664.186921,741.204534 664.22,727.94 L664.22,565.01 L653.84,565.01 C652.401781,563.147053 651.995999,560.686061 652.76,558.46 C653.405916,556.428779 654.805019,554.721946 656.67,553.69 Z" id="Shape" fill="#16DF32" fill-rule="nonzero"></path>
            <path d="M843.02,310.14 C848.6,307.63 852.73,303.4 854.14,297.98 C854.310784,297.322477 854.43773,296.654341 854.52,295.98 C854.769156,295.355903 854.98283,294.718218 855.16,294.07 C856.57,288.63 855.02,283 851.34,278.19 L844.03,306.19 L844.03,306.19 L843.02,310.14 Z" id="Shape" fill="url(#linearGradient-1)" fill-rule="nonzero"></path>
            <path d="M923.08,274.17 L923.34,274.05 C923.34,274.12 923.34,274.19 923.34,274.26 L923.08,274.17 Z M867.71,748.52 C867.088463,748.524335 866.472574,748.401838 865.9,748.16 L867.71,748.52 Z" id="Shape" fill="url(#linearGradient-2)" fill-rule="nonzero"></path>
            <path d="M761.99,426.23 C770.22,429.35 789.35,429.69 797.85,429.69 C800.43,429.69 802.03,429.69 802.03,429.69 L807.48,418.59 L802.03,409.34 C802.03,409.34 797.03,407.96 790.39,406.76 C780.59,405 767.18,403.62 760.79,407.58 C750.07,414.21 751.27,422.16 761.99,426.23 Z" id="Shape" fill="#FEC2BE" fill-rule="nonzero"></path>
            <path d="M797.84,429.69 C800.42,429.69 802.02,429.69 802.02,429.69 L807.47,418.59 L802.03,409.34 C802.03,409.34 797.03,407.96 790.39,406.76 C795.78,410.72 808.74,419.34 797.84,429.69 Z" id="Shape" fill="#000000" fill-rule="nonzero" opacity="0.1"></path>
            <path d="M888.11,293.46 L885.71,290.68 C885.71,290.68 873.32,310.28 872.02,317.68 C870.72,325.08 869.02,333.58 869.02,333.58 C869.02,333.58 865.88,343.2 863.84,347.45 C861.8,351.7 859.96,355.77 859.78,357.62 C859.6,359.47 860.52,363.54 856.63,366.13 C852.74,368.72 851.83,375.75 851.83,375.75 C851.83,375.75 837.77,389.43 830.37,389.75 C822.97,390.07 801.71,393.82 802.45,397.52 C803.19,401.22 793.58,403.43 789.69,404.36 C785.8,405.29 814.69,416.36 797.83,430.62 C797.83,430.62 808.55,432.84 809.66,435.42 C810.77,438 822.05,433.95 822.05,433.95 C822.05,433.95 824.46,428.21 832.78,427.84 C841.1,427.47 845.35,423.77 845.35,423.22 C845.35,422.67 853.67,418.04 858.35,416.75 C863.03,415.46 869.07,414.9 869.26,413.6 C869.45,412.3 897,293.41 897,293.41 L888.11,293.46 Z" id="Shape" fill="#4C4981" fill-rule="nonzero"></path>
            <path d="M888.11,293.46 L885.71,290.68 C885.71,290.68 873.32,310.28 872.02,317.68 C870.72,325.08 869.02,333.58 869.02,333.58 C869.02,333.58 865.88,343.2 863.84,347.45 C861.8,351.7 859.96,355.77 859.78,357.62 C859.6,359.47 860.52,363.54 856.63,366.13 C852.74,368.72 851.83,375.75 851.83,375.75 C851.83,375.75 837.77,389.43 830.37,389.75 C822.97,390.07 801.71,393.82 802.45,397.52 C803.19,401.22 793.58,403.43 789.69,404.36 C785.8,405.29 814.69,416.36 797.83,430.62 C797.83,430.62 808.55,432.84 809.66,435.42 C810.77,438 822.05,433.95 822.05,433.95 C822.05,433.95 824.46,428.21 832.78,427.84 C841.1,427.47 845.35,423.77 845.35,423.22 C845.35,422.67 853.67,418.04 858.35,416.75 C863.03,415.46 869.07,414.9 869.26,413.6 C869.45,412.3 897,293.41 897,293.41 L888.11,293.46 Z" id="Shape" fill="#000000" fill-rule="nonzero" opacity="0.05"></path>
            <path d="M916.91,806.61 C941.32,811.19 945.76,792.46 945.76,792.46 C945.76,792.46 948.81,775.82 949.92,774.57 C950.199159,774.092288 950.267946,773.520275 950.11,772.99 L950.11,772.99 C949.469268,770.168734 948.272623,767.503478 946.59,765.15 C945.07,763.35 946.31,755.86 946.31,755.86 L918.02,748.65 C918.02,748.65 915.52,754.33 915.25,756.97 C914.98,759.61 910.81,771.53 911.25,773.2 C911.69,774.87 909.45,779.99 909.17,782.63 C908.89,785.27 905.43,789.15 905.17,790.53 C904.734562,791.779848 904.223621,793.002098 903.64,794.19 C902.88932,796.015115 902.28736,797.897909 901.84,799.82 C900.41,805.64 916.91,806.61 916.91,806.61 Z" id="Shape" fill="#4C4981" fill-rule="nonzero"></path>
            <path d="M916.91,806.61 C941.32,811.19 945.76,792.46 945.76,792.46 C945.76,792.46 948.81,775.82 949.92,774.57 C950.199159,774.092288 950.267946,773.520275 950.11,772.99 L944.23,789.83 C944.23,789.83 939.38,799.95 921.35,798.43 C911.09,797.56 906.04,795.66 903.59,794.18 C902.83932,796.005115 902.23736,797.887909 901.79,799.81 C900.41,805.64 916.91,806.61 916.91,806.61 Z" id="Shape" fill="#000000" fill-rule="nonzero" opacity="0.1"></path>
            <path d="M935.91,780.26 C935.91,780.26 929.81,780.4 929.39,775.41 L935.91,780.26 Z" id="Shape" fill="#000000" fill-rule="nonzero" opacity="0.1"></path>
            <polygon id="Shape" fill="#3FA34D" fill-rule="nonzero" points="746.15 508.07 750.02 509.06 749.17 512.99 745.58 512.08"></polygon>
            <polygon id="Shape" fill="#000000" fill-rule="nonzero" opacity="0.1" points="746.15 508.07 750.02 509.06 749.17 512.99 745.58 512.08"></polygon>
            <rect id="Rectangle-path" fill="#3A3768" fill-rule="nonzero" transform="translate(862.429222, 327.949589) rotate(-75.720000) translate(-862.429222, -327.949589) " x="860.009222" y="325.864589" width="4.84" height="4.17"></rect>
            <rect id="Rectangle-path" fill="#3A3768" fill-rule="nonzero" transform="translate(848.967616, 324.517963) rotate(-75.720000) translate(-848.967616, -324.517963) " x="846.547616" y="317.602963" width="4.84" height="13.83"></rect>
            <rect id="Rectangle-path" fill="#3A3768" fill-rule="nonzero" transform="translate(858.030988, 326.837686) rotate(-75.720000) translate(-858.030988, -326.837686) " x="855.610988" y="324.392686" width="4.84" height="4.89"></rect>
            <path d="M843.07,319.86 C842.75,320.01 842.44,320.17 842.13,320.3 L842.91,320.5 L841.71,325.19 L835.78,323.68 C834.866499,321.519853 835.095511,319.045765 836.39,317.09 C837.519361,315.268121 839.311992,313.955915 841.39,313.43 C842.659937,313.064943 843.900197,312.603606 845.1,312.05 L843.07,319.86 Z" id="Shape" fill="#3FA34D" fill-rule="nonzero"></path>
            <path d="M857.22,340.11 L859.03,340.58 C859.620182,340.73141 860.24637,340.64138 860.769992,340.329835 C861.293613,340.01829 861.67149,339.510918 861.82,338.92 L863.84,330.84 L859.84,329.84 L857.22,340.11 Z" id="Shape" fill="#3A3768" fill-rule="nonzero"></path>
            <path d="M855.84,299.95 C854.46,305.35 850.45,309.56 845.03,312.05 L852.13,284.15 C855.73,288.94 857.24,294.55 855.84,299.95 Z" id="Shape" fill="#3A3768" fill-rule="nonzero"></path>
            <path d="M854.7,339.47 C853.478145,339.156015 852.740363,337.912964 853.05,336.69 L855.11,328.6 L841.71,325.19 L800.84,485.73 C806.989513,497.700112 803.253941,512.376492 792.13,519.95 L791.18,523.69 L809.31,528.34 L857.22,340.15 L854.7,339.47 Z" id="Shape" fill="#3A3768" fill-rule="nonzero"></path>
            <path d="M853.05,336.69 C852.740363,337.912964 853.478145,339.156015 854.7,339.47 L857.22,340.11 L859.84,329.81 L855.11,328.6 L853.05,336.69 Z" id="Shape" fill="#3A3768" fill-rule="nonzero"></path>
            <path d="M836.38,317.09 C837.515551,315.273862 839.305595,313.96355 841.38,313.43 C842.645776,313.062171 843.882506,312.600904 845.08,312.05 L852.19,284.15 C847.739725,278.496472 841.50325,274.519794 834.5,272.87 C819.83,269.13 805.61,275.2 802.76,286.42 C801.41,291.71 802.83,297.2 806.24,301.92 C807.546101,303.709771 809.067541,305.331968 810.77,306.75 L810.84,306.97 C812.818344,310.170404 812.469078,314.28849 809.98,317.11 L720.32,294.28 L700.09,373.76 C706.740732,368.373684 715.523767,366.398888 723.84,368.42 C738.95,372.27 747.84,388.57 743.7,404.82 C739.56,421.07 724,431.14 708.89,427.34 C700.589533,425.152717 693.791594,419.205908 690.52,411.27 L669.75,492.83 L749.17,513.04 C743.950192,506.413722 742.076047,497.751334 744.09,489.56 C747.94,474.46 764.23,465.56 780.49,469.7 C789.271748,471.850158 796.693031,477.696015 800.84,485.73 L841.71,325.19 L835.84,323.68 C834.905814,321.531385 835.108499,319.057876 836.38,317.09 Z" id="Shape" fill="#3FA34D" fill-rule="nonzero"></path>
            <path d="M842.9,320.5 L843.07,319.86 C842.76,320.01 842.45,320.17 842.13,320.31 L842.9,320.5 Z" id="Shape" fill="#3FA34D" fill-rule="nonzero"></path>
            <g id="Group" opacity="0.1" transform="translate(669.000000, 271.000000)" fill-rule="nonzero" fill="#000000">
                <path d="M192.03,54.12 L187.3,52.91 L173.91,49.5 L173.91,49.5 L174.08,48.86 L174.08,48.86 L176.08,41.05 C174.880197,41.603606 173.639937,42.0649427 172.37,42.43 C170.291992,42.9559147 168.499361,44.2681206 167.37,46.09 C167.076228,46.5932929 166.828554,47.1221114 166.63,47.67 C166.824939,47.1222951 167.069279,46.593451 167.36,46.09 C168.495551,44.273862 170.285595,42.9635496 172.36,42.43 C173.625776,42.0621708 174.862506,41.6009039 176.06,41.05 L183.17,13.15 C178.719725,7.49647223 172.48325,3.51979412 165.48,1.87 C150.81,-1.87 136.59,4.2 133.74,15.42 C132.39,20.71 133.81,26.2 137.22,30.92 C138.526101,32.7097713 140.047541,34.3319685 141.75,35.75 L141.82,35.97 C143.798344,39.1704037 143.449078,43.28849 140.96,46.11 L51.3,23.28 L31.07,102.76 C37.7255128,97.3674239 46.5174958,95.3922792 54.84,97.42 C69.95,101.27 78.84,117.57 74.7,133.82 C70.56,150.07 55,160.14 39.89,156.34 C31.5895331,154.152717 24.7915941,148.205908 21.52,140.27 L0.75,221.83 L80.17,242.04 C74.950192,235.413722 73.0760467,226.751334 75.09,218.56 C78.94,203.46 95.23,194.56 111.49,198.7 C120.271748,200.850158 127.693031,206.696015 131.84,214.73 C137.989513,226.700112 134.253941,241.376492 123.13,248.95 L122.18,252.69 L140.31,257.34 L188.22,69.15 L190.03,69.62 C190.620182,69.7714098 191.24637,69.6813804 191.769992,69.3698352 C192.293613,69.05829 192.67149,68.5509182 192.82,67.96 L194.84,59.84 L196.03,55.15 L192.03,54.12 Z M173.59,49.12 C173.44,49.19 173.29,49.27 173.14,49.33 L173.14,49.33 L173.59,49.12 Z M166.79,52.71 L166.79,52.71 L172.72,54.22 L172.72,54.22 L166.79,52.71 Z" id="Shape"></path>
                <path d="M186.84,28.95 C188.21,23.55 186.7,17.95 183.13,13.15 L176.03,41.05 C181.48,38.56 185.49,34.34 186.84,28.95 Z" id="Shape"></path>
            </g>
            <rect id="Rectangle-path" fill="#3A3768" fill-rule="nonzero" transform="translate(863.410835, 324.082825) rotate(-75.720000) translate(-863.410835, -324.082825) " x="860.990835" y="321.997825" width="4.84" height="4.17"></rect>
            <rect id="Rectangle-path" fill="#3A3768" fill-rule="nonzero" transform="translate(849.949228, 320.651200) rotate(-75.720000) translate(-849.949228, -320.651200) " x="847.529228" y="313.7362" width="4.84" height="13.83"></rect>
            <rect id="Rectangle-path" fill="#3A3768" fill-rule="nonzero" transform="translate(859.015066, 322.951232) rotate(-75.720000) translate(-859.015066, -322.951232) " x="856.595066" y="320.506232" width="4.84" height="4.89"></rect>
            <path d="M844.06,315.98 L843.12,316.43 L843.89,316.62 L842.7,321.34 L836.77,319.83 C835.842454,317.673252 836.068204,315.193773 837.37,313.24 C838.503247,311.421722 840.294251,310.110707 842.37,309.58 C843.636692,309.214942 844.873628,308.753598 846.07,308.2 L844.06,315.98 Z" id="Shape" fill="#3FA34D" fill-rule="nonzero"></path>
            <path d="M858.2,336.24 L860.02,336.7 C860.61436,336.860561 861.248337,336.775035 861.778903,336.462715 C862.30947,336.150396 862.69193,335.637595 862.84,335.04 L864.9,326.96 L860.9,325.96 L858.2,336.24 Z" id="Shape" fill="#3A3768" fill-rule="nonzero"></path>
            <path d="M856.84,296.08 C855.47,301.47 851.46,305.68 846.03,308.17 L853.14,280.27 C856.72,285.06 858.23,290.67 856.84,296.08 Z" id="Shape" fill="#3A3768" fill-rule="nonzero"></path>
            <path d="M855.69,335.6 C855.100929,335.449303 854.595973,335.070517 854.286455,334.54715 C853.976937,334.023783 853.888269,333.398806 854.04,332.81 L856.04,324.73 L842.7,321.34 L801.84,481.86 C808.002513,493.825497 804.264209,508.508316 793.13,516.07 L792.18,519.81 L810.32,524.43 L858.22,336.24 L855.69,335.6 Z" id="Shape" fill="#3A3768" fill-rule="nonzero"></path>
            <path d="M854.04,332.81 C853.888269,333.398806 853.976937,334.023783 854.286455,334.54715 C854.595973,335.070517 855.100929,335.449303 855.69,335.6 L858.2,336.24 L860.84,325.93 L856.1,324.73 L854.04,332.81 Z" id="Shape" fill="#3A3768" fill-rule="nonzero"></path>
            <path d="M842.37,309.55 C843.636692,309.184942 844.873628,308.723598 846.07,308.17 L853.17,280.27 C848.722812,274.617769 842.489926,270.641131 835.49,268.99 C820.81,265.26 806.6,271.32 803.74,282.55 C802.4,287.83 803.81,293.32 807.23,298.04 C808.535927,299.832896 810.057341,301.458425 811.76,302.88 C813.80167,306.291995 813.452767,310.405797 810.97,313.23 L721.3,290.41 L701.04,369.88 C707.703025,364.478654 716.509684,362.506406 724.84,364.55 C739.94,368.39 748.84,384.69 744.7,400.95 C740.56,417.21 724.99,427.26 709.84,423.42 C701.551011,421.218128 694.766797,415.269919 691.5,407.34 L670.74,488.9 L750.15,509.12 C744.933684,502.492023 743.063263,493.829799 745.08,485.64 C748.92,470.53 765.22,461.64 781.48,465.78 C790.27909,467.930397 797.709287,473.798647 801.84,481.86 L842.7,321.34 L836.77,319.83 C835.842712,317.663049 836.068222,315.174921 837.37,313.21 C838.503247,311.391722 840.294251,310.080707 842.37,309.55 Z" id="Shape" fill="#16DF32" fill-rule="nonzero"></path>
            <path d="M843.89,316.63 L844.05,315.98 C843.74,316.13 843.43,316.29 843.12,316.43 L843.89,316.63 Z" id="Shape" fill="#3FA34D" fill-rule="nonzero"></path>
            <path d="M829.84,616.34 C832.84,620.91 836.36,640.89 836.36,640.89 C836.36,640.89 838.72,645.46 838.58,649.35 C838.44,653.24 840.8,660.35 840.8,660.35 L848.57,689.06 C848.57,689.06 847.73,696.69 850.65,702.06 C853.57,707.43 853.28,705.8 851.9,715.23 C850.52,724.66 853.56,733.4 858.55,736.23 C863.54,739.06 856.33,745.52 856.33,745.52 C856.33,745.52 888.23,754.12 894.89,748.85 C901.55,743.58 891.42,717.5 891.42,717.5 C891.42,717.5 893.09,695.59 891.98,692.4 C890.87,689.21 886.15,662.03 886.15,662.03 C886.15,662.03 883.24,649.68 884.35,647.6 C885.46,645.52 883.66,639.6 883.66,639.6 C883.66,639.6 878.94,632.94 879.36,630.86 C879.78,628.78 877.97,625.04 877.97,625.04 C877.97,625.04 892.09,603.34 890.84,599.27 C889.59,595.2 891.39,588.73 891.39,588.73 L895.33,581.99 C897.96,577.49 901.14,572.1 902.21,570.42 C903.57,568.28 906.85,559.18 908.68,553.93 L909.98,550.17 C909.98,550.17 912.2,590.95 914.14,595.11 C916.08,599.27 918.99,632.11 918.99,632.11 C920.068531,635.03431 920.541437,638.147323 920.38,641.26 C920.1,646.39 924.82,668.72 924.82,668.72 C924.82,668.72 926.9,684.53 925.51,688.72 C924.12,692.91 925.23,723.54 925.23,723.54 C925.23,723.54 917.6,729.54 915.66,734.08 C913.72,738.62 915.94,751.08 915.94,751.08 C915.94,751.08 938.13,762.18 947.94,759.27 C957.75,756.36 953.76,739.57 953.76,739.57 C953.76,739.57 960.42,728.48 960.42,724.18 C960.42,719.88 962.84,706.75 962.84,706.75 C971.3,691.22 967.97,653.5 969.36,650.45 C970.75,647.4 966.44,636.02 962.98,630.89 C959.52,625.76 960.9,611.89 962.98,607.89 C965.06,603.89 960.84,589.98 960.84,589.98 C960.84,589.98 964.84,563.07 964.72,558.91 C964.6,554.75 968.19,542.41 968.19,542.41 C968.19,542.41 971.79,536.03 970.96,534.08 C970.13,532.13 973.73,527.15 972.76,524.93 C971.79,522.71 973.6,515.93 975.4,511.93 C976.32,509.87 977.47,504.19 978.4,499.16 C979.25,494.37 979.88,490.16 979.88,490.16 L956.99,471.71 L899.85,456.71 L878.36,449.78 L857.41,482.78 C855.929065,485.18654 854.570667,487.666368 853.34,490.21 C851.69,493.64 850.22,497.46 850.48,499.84 C850.829069,502.843814 850.144849,505.876954 848.54,508.44 C848.54,508.44 836.05,547.96 836.33,559.34 C836.61,570.72 831.89,595.67 831.89,595.67 C831.89,595.67 826.76,611.75 829.84,616.34 Z" id="Shape" fill="#CEDDF9" fill-rule="nonzero"></path>
            <path d="M914.3,294.84 C915.18,294.48 975.51,269.56 967.2,264.61 C962.27,261.67 956.2,249.21 952.04,239.46 C949.14,232.65 947.17,227.16 947.17,227.16 C947.17,227.16 898.75,218.56 916.08,248.24 C918.811669,252.792869 920.869689,257.717295 922.19,262.86 C927.13,283.08 914.7,294.47 914.3,294.84 Z" id="Shape" fill="#8F5F55" fill-rule="nonzero"></path>
            <path d="M916.08,248.24 C918.811669,252.792869 920.869689,257.717295 922.19,262.86 C934.710083,261.988719 945.717379,254.253966 950.78,242.77 C951.260406,241.690618 951.681042,240.585613 952.04,239.46 C949.14,232.65 947.17,227.16 947.17,227.16 C947.17,227.16 898.75,218.56 916.08,248.24 Z" id="Shape" fill="#000000" fill-rule="nonzero" opacity="0.1"></path>
            <path d="M885.98,227.99 C885.986391,245.753509 899.730417,260.486621 917.450676,261.725457 C935.170935,262.964294 950.831252,250.286861 953.309221,232.697035 C955.78719,215.10721 944.238723,198.596736 926.865873,194.891826 C909.493022,191.186916 892.213623,201.549599 887.3,218.62 C886.423335,221.666098 885.978992,224.82026 885.98,227.99 L885.98,227.99 Z" id="Shape" fill="#8F5F55" fill-rule="nonzero"></path>
            <path d="M853.34,490.2 C856.88,493.42 858.24,499.55 858.24,499.55 C858.24,499.55 874.89,510.92 873.78,503.71 C872.67,496.5 882.38,467.37 882.38,467.37 L881.27,507.04 C881.27,507.04 934.52,504.54 938.41,500.66 C942.3,496.78 965.04,489.34 965.04,489.34 C965.04,489.34 972.04,494.93 978.4,499.17 C979.25,494.38 979.88,490.17 979.88,490.17 L956.99,471.72 L899.85,456.72 L878.36,449.79 L857.41,482.79 C855.929657,485.190026 854.571266,487.663166 853.34,490.2 L853.34,490.2 Z" id="Shape" fill="#000000" fill-rule="nonzero" opacity="0.1"></path>
            <path d="M851.59,487.07 C856.03,489.84 857.69,497.33 857.69,497.33 C857.69,497.33 874.33,508.7 873.22,501.49 C872.11,494.28 881.82,465.15 881.82,465.15 L880.71,504.82 C880.71,504.82 933.97,502.34 937.84,498.44 C941.71,494.54 964.47,487.07 964.47,487.07 C964.47,487.07 984.17,502.88 987.77,501.49 C991.37,500.1 981.39,473.2 981.39,473.2 L971.14,315.65 C971.14,315.65 973.91,268.77 969.75,267.1 C969.108145,266.84036 968.516073,266.471584 968,266.01 C965.26,263.55 964.44,258.55 964.2,254.35 C963.93,249.35 957.27,251.85 957.27,251.85 L961.15,256.85 L926.78,277.75 L926.48,277.93 C925.141777,277.225027 923.762657,276.600582 922.35,276.06 C919.35,274.89 915.26,273.79 912.61,274.88 C911.128583,275.633111 909.872766,276.764727 908.97,278.16 C907.009543,281.106013 905.436608,284.292213 904.29,287.64 L891.84,308.71 C891.84,308.71 885.46,336.71 885.46,337.84 C885.46,338.97 883.52,364.47 881.3,367.24 C879.08,370.01 876.86,383.88 877.69,388.04 C878.52,392.2 876.3,407.74 876.3,407.74 C867.15,415.23 862.44,440.74 862.44,440.74 C862.44,440.74 847.98,469.34 846.84,472.64 C845.7,475.94 847.15,484.34 851.59,487.07 Z" id="Shape" fill="#FFFFFF" fill-rule="nonzero"></path>
            <path d="M926.78,278.85 C930.15,283.85 939.89,290.85 939.89,290.85 L968,267.1 C965.26,264.64 964.44,259.64 964.2,255.43 C963.93,250.43 957.27,252.94 957.27,252.94 L958.08,253.94 C958.861249,254.948102 959.175795,256.241397 958.944791,257.495692 C958.713787,258.749987 957.959133,259.846367 956.87,260.51 L926.78,278.85 Z" id="Shape" fill="#000000" fill-rule="nonzero" opacity="0.1"></path>
            <path d="M926.78,277.74 C930.15,282.74 939.89,289.74 939.89,289.74 L968,265.99 C965.26,263.53 964.44,258.53 964.2,254.33 C963.93,249.33 957.27,251.83 957.27,251.83 L958.08,252.83 C958.860904,253.836448 959.175302,255.128263 958.944233,256.381002 C958.713164,257.633741 957.958581,258.728381 956.87,259.39 L926.78,277.74 Z" id="Shape" fill="#FFFFFF" fill-rule="nonzero"></path>
            <path d="M913.78,281.48 C917.41,285.82 922.56,290.75 922.32,288.28 C922.08,285.81 925.39,280.36 927.5,277.92 C924.204341,276.875536 920.652596,276.974195 917.42,278.2 C915.936394,278.949921 914.67982,280.082218 913.78,281.48 Z" id="Shape" fill="#000000" fill-rule="nonzero" opacity="0.1"></path>
            <path d="M913.23,279.81 C916.86,284.16 922,289.08 921.76,286.62 C921.52,284.16 924.49,280.15 926.6,277.71 C923.6,276.54 919.52,275.44 916.86,276.54 C915.380196,277.287009 914.126949,278.415968 913.23,279.81 Z" id="Shape" fill="#FFFFFF" fill-rule="nonzero"></path>
            <circle id="Oval" fill="#FF718D" fill-rule="nonzero" cx="922.32" cy="300.67" r="2.22"></circle>
            <circle id="Oval" fill="#FF718D" fill-rule="nonzero" cx="905.49" cy="360.58" r="2.22"></circle>
            <circle id="Oval" fill="#FF718D" fill-rule="nonzero" cx="886.45" cy="421.24" r="2.22"></circle>
            <circle id="Oval" fill="#FF718D" fill-rule="nonzero" cx="885.89" cy="487.25" r="2.22"></circle>
            <circle id="Oval" fill="#FF718D" fill-rule="nonzero" cx="912.52" cy="328.96" r="2.22"></circle>
            <circle id="Oval" fill="#FF718D" fill-rule="nonzero" cx="897.54" cy="390.54" r="2.22"></circle>
            <circle id="Oval" fill="#FF718D" fill-rule="nonzero" cx="882.93" cy="451.01" r="2.22"></circle>
            <circle id="Oval" fill="#FF718D" fill-rule="nonzero" cx="886.26" cy="494.65" r="2.22"></circle>
            <path d="M968,267.34 C968,267.34 967.63,264.01 972.43,269.75 C977.23,275.49 986.3,280.47 986.3,280.47 C986.3,280.47 1006.83,294.9 1007.94,301.55 C1009.05,308.2 1015.7,337.06 1012.19,346.67 C1008.68,356.28 981.84,402.34 981.84,402.34 C981.84,402.34 988.84,410.67 987.21,420.47 C985.58,430.27 983.51,443.77 984.43,446.73 C985.35,449.69 983.32,457.08 986.43,459.67 C989.54,462.26 992.9,466.67 983.1,472.61 C983.1,472.61 981.25,477.61 982.91,478.72 C984.57,479.83 958.32,491.29 947.91,485.19 C937.5,479.09 918.91,430.27 918.51,419.36 C918.11,408.45 924.24,372.36 927.57,363.88 C930.9,355.4 940.89,322.27 945.14,314.88 C949.39,307.49 968,267.34 968,267.34 Z" id="Shape" fill="#000000" fill-rule="nonzero" opacity="0.1"></path>
            <path d="M969.1,267.34 C969.1,267.34 968.73,264.01 973.54,269.75 C978.35,275.49 987.41,280.47 987.41,280.47 C987.41,280.47 1007.94,294.9 1009.05,301.55 C1010.16,308.2 1016.81,337.06 1013.3,346.67 C1009.79,356.28 982.97,402.34 982.97,402.34 C982.97,402.34 989.97,410.67 988.34,420.47 C986.71,430.27 984.64,443.77 985.56,446.73 C986.48,449.69 984.45,457.08 987.56,459.67 C990.67,462.26 994.03,466.67 984.23,472.61 C984.23,472.61 982.38,477.61 984.04,478.72 C985.7,479.83 959.45,491.29 949.04,485.19 C938.63,479.09 920.04,430.27 919.64,419.36 C919.24,408.45 925.37,372.36 928.7,363.88 C932.03,355.4 942.02,322.27 946.27,314.88 C950.52,307.49 969.1,267.34 969.1,267.34 Z" id="Shape" fill="#ED1717" fill-rule="nonzero"></path>
            <path d="M976.5,298.82 C976.5,298.82 960.6,316.39 961.15,328.04 C961.15,328.04 960.97,309.17 976.5,298.82 Z" id="Shape" fill="#000000" fill-rule="nonzero" opacity="0.1"></path>
            <path d="M954.5,327.67 C954.5,328.22 943.77,368.16 944.33,373.16 C944.89,378.16 941.18,392.94 941.18,392.94 L936.18,391.65 C936.18,391.65 940.06,371.12 940.8,363.54 C941.54,355.96 954.5,327.67 954.5,327.67 Z" id="Shape" fill="#000000" fill-rule="nonzero" opacity="0.1"></path>
            <path d="M950.24,441.58 C950.61,442.13 975.58,470.42 968.55,472.46 C961.52,474.5 950.24,441.58 950.24,441.58 Z" id="Shape" fill="#000000" fill-rule="nonzero" opacity="0.1"></path>
            <path d="M970.77,434.34 C971.32,434.71 980.77,454.68 981.86,449.34 C982.95,444 973.73,463.95 972.25,449.16 L970.77,434.34 Z" id="Shape" fill="#000000" fill-rule="nonzero" opacity="0.1"></path>
            <path d="M922.84,273.67 C922.84,273.67 912.53,267.38 899.58,283.47 C899.58,283.47 890.15,288.83 887.38,290.13 C884.61,291.43 881.46,325.82 881.46,325.82 C881.46,325.82 875.36,340.61 877.02,349.12 C878.68,357.63 872.22,386.84 872.22,386.84 C872.22,386.84 861.48,439.34 861.84,440.84 C862.2,442.34 872.75,424.38 872.57,415.5 C872.39,406.62 881.44,378.89 882.74,377.22 C884.04,375.55 892.91,328.04 892.91,328.04 C892.91,328.04 900.12,307.88 904.74,301.22 C909.36,294.56 915.1,281.99 917.5,279.77 C919.227664,278.274896 921.156443,277.029437 923.23,276.07 L922.84,273.67 Z" id="Shape" fill="#000000" fill-rule="nonzero" opacity="0.1"></path>
            <path d="M922.97,273.67 C922.97,273.67 911.41,267.38 898.47,283.47 C898.47,283.47 889.03,288.83 886.26,290.13 C883.49,291.43 880.34,325.82 880.34,325.82 C880.34,325.82 874.24,340.61 875.9,349.12 C877.56,357.63 871.1,386.84 871.1,386.84 C871.1,386.84 860.37,439.36 860.74,440.84 C861.11,442.32 871.65,424.38 871.47,415.5 C871.29,406.62 880.34,378.89 881.64,377.22 C882.94,375.55 891.84,328.04 891.84,328.04 C891.84,328.04 899.05,307.88 903.67,301.22 C908.29,294.56 914.03,281.99 916.43,279.77 C918.83,277.55 923.27,276.07 923.27,276.07 L922.97,273.67 Z" id="Shape" fill="#ED1717" fill-rule="nonzero"></path>
            <path d="M872.21,389.24 C872.21,389.24 850.21,374.82 839.57,381.94 C828.93,389.06 811.57,399.14 828.66,406.44 C845.75,413.74 869.43,412.34 869.43,412.34 L872.21,389.24 Z" id="Shape" fill="#8F5F55" fill-rule="nonzero"></path>
            <path d="M887.51,528.4 C890.79,535.4 893.51,570.78 895.33,581.99 C897.96,577.49 901.14,572.1 902.21,570.42 C903.57,568.28 906.85,559.18 908.68,553.93 C906.59,548.85 900.82,534.29 900.82,528.93 C900.82,522.41 890.28,514.23 890.28,514.23 C890.28,514.23 883.63,520.08 887.51,528.4 Z" id="Shape" fill="#000000" fill-rule="nonzero" opacity="0.1"></path>
            <path d="M958.24,636.99 C958.24,636.99 933.83,626.59 926.62,633.99 C919.41,641.39 958.24,636.99 958.24,636.99 Z" id="Shape" fill="#000000" fill-rule="nonzero" opacity="0.1"></path>
            <path d="M944.51,641.15 C944.51,641.15 969.2,655.02 960.74,657.34 C952.28,659.66 944.51,641.15 944.51,641.15 Z" id="Shape" fill="#000000" fill-rule="nonzero" opacity="0.1"></path>
            <path d="M870.73,629.09 C870.73,629.09 881.27,629.78 877.25,631.86 C873.23,633.94 870.73,629.09 870.73,629.09 Z" id="Shape" fill="#000000" fill-rule="nonzero" opacity="0.1"></path>
            <path d="M857.55,632.28 C857.69,632.97 888.2,642.82 882.24,647.28 C876.28,651.74 857.55,632.28 857.55,632.28 Z" id="Shape" fill="#000000" fill-rule="nonzero" opacity="0.1"></path>
            <path d="M954.63,717.16 C950.06,716.46 924.54,704.67 934.52,713.16 C944.5,721.65 954.63,717.16 954.63,717.16 Z" id="Shape" fill="#000000" fill-rule="nonzero" opacity="0.1"></path>
            <path d="M942.01,726.45 C942.01,726.45 939.79,735.05 931.33,733.94 C922.87,732.83 942.01,726.45 942.01,726.45 Z" id="Shape" fill="#000000" fill-rule="nonzero" opacity="0.1"></path>
            <path d="M949.09,743.92 C947.56,743.51 929.39,735.19 928.98,739.07 C928.57,742.95 946.31,749.75 947.7,747.67 C948.496911,746.570294 948.977613,745.273436 949.09,743.92 L949.09,743.92 Z" id="Shape" fill="#000000" fill-rule="nonzero" opacity="0.1"></path>
            <path d="M890.28,733.94 C888.06,733.8 867.28,727.14 863.1,733.1 L890.28,733.94 Z" id="Shape" fill="#000000" fill-rule="nonzero" opacity="0.1"></path>
            <path d="M871.42,737.82 C871.42,737.82 867.81,734.63 864.21,736.29 C860.61,737.95 871.42,737.82 871.42,737.82 Z" id="Shape" fill="#000000" fill-rule="nonzero" opacity="0.1"></path>
            <path d="M917.47,772.22 C916.993172,774.627269 915.143429,776.527959 912.75,777.07 L917.47,772.22 Z" id="Shape" fill="#000000" fill-rule="nonzero" opacity="0.1"></path>
            <path d="M811.64,785.25 C813.03,790.94 832.45,791.49 841.74,789.97 C851.03,788.45 870.31,782.89 870.31,782.89 C870.31,782.89 890.56,780.95 896.52,778.46 C902.48,775.97 897.77,769.58 897.77,769.58 C897.77,769.58 897.77,769.36 897.77,768.98 C897.91,766.66 898.33,758.25 896.9,755.98 C895.24,753.34 896.21,744.74 896.21,744.74 C896.21,744.74 867.5,750.29 866.94,747.66 C866.38,745.03 861.94,741.28 859.87,740.45 C857.8,739.62 856.26,747.38 856.26,747.38 C856.26,747.38 843.26,758.48 842.39,762.5 C841.52,766.52 832.39,768.6 832.39,768.6 C832.39,768.6 818.52,772.48 814.91,774.42 C812.77914,775.421957 811.329402,777.46753 811.09,779.81 C810.9385,781.641715 811.12493,783.485677 811.64,785.25 Z" id="Shape" fill="#4C4981" fill-rule="nonzero"></path>
            <path d="M811.64,785.25 C813.03,790.94 832.45,791.49 841.74,789.97 C851.03,788.45 870.31,782.89 870.31,782.89 C870.31,782.89 890.56,780.95 896.52,778.46 C902.48,775.97 897.77,769.58 897.77,769.58 C897.77,769.58 897.77,769.36 897.77,768.98 L868.77,775.41 C868.77,775.41 854.48,781.51 845.33,781.51 C837.33,781.51 819.43,784.78 811.13,779.82 C810.966755,781.645958 811.139612,783.486373 811.64,785.25 Z" id="Shape" fill="#000000" fill-rule="nonzero" opacity="0.1"></path>
            <path d="M850.89,763.34 C850.89,763.34 852.28,772.49 857.83,775.54 L850.89,763.34 Z" id="Shape" fill="#000000" fill-rule="nonzero" opacity="0.1"></path>
            <path d="M888.95,219.31 C891.55,220.01 894.09,218.25 896.4,216.85 C898.71,215.45 901.9,214.41 903.9,216.23 C906.51,218.6 904.62,223.66 907.31,225.95 C909.01,227.4 911.71,226.9 913.6,228.09 C915.49,229.28 916.06,231.89 916.54,234.14 C917.02,236.39 917.98,238.96 920.18,239.62 C922.38,240.28 924.43,238.83 926.6,238.91 C927.05,238.91 927.6,238.98 927.88,238.66 C928.078318,238.367056 928.153726,238.007973 928.09,237.66 C927.818932,234.972427 928.059853,232.257828 928.8,229.66 C929.69,227.1 931.8,224.79 934.44,224.38 C938.33,223.78 941.6,227.19 943.89,230.38 C946.297326,233.758036 948.488375,237.28509 950.45,240.94 C950.574293,241.176616 950.684485,241.420375 950.78,241.67 C955.900352,230.103693 954.142637,216.647327 946.223119,206.784331 C938.303601,196.921334 925.544576,192.298499 913.145306,194.799616 C900.746037,197.300733 890.776789,206.508199 887.3,218.67 C887.828103,218.899211 888.380346,219.13015 888.95,219.31 Z" id="Shape" fill="#000000" fill-rule="nonzero" opacity="0.1"></path>
            <path d="M943.89,229.82 C940.183333,225.406667 937.03,223.406667 934.43,223.82 C931.76,224.23 929.7,226.54 928.8,229.09 C928.058632,231.687626 927.616536,226.275008 927.895508,228.961914 C927.951072,229.311069 927.112986,229.054059 926.916016,229.347656 C926.606016,229.677656 926.164648,220.315039 926.535156,229.352539 C926.616842,231.345037 927.46793,229.982305 925.37793,229.362305 C923.28793,228.742305 916.060078,227.24707 915.580078,224.99707 C915.100078,222.74707 915.94293,225.4175 914.00293,224.1875 C912.06293,222.9575 911.554492,222.583047 909.854492,221.123047 C907.164492,218.843047 906.52,218.03 903.9,215.66 C901.9,213.85 898.71,214.89 896.4,216.29 C894.09,217.69 899.406875,218.027148 896.796875,217.327148 C895.916875,217.087148 895.475234,216.311445 894.615234,215.981445 C890.505234,214.411445 892.34875,214.0075 888.96875,211.1875 C887.742358,209.960374 886.74968,208.311036 886.298828,206.635742 C885.371156,204.370269 884.854722,202.242319 884.541016,199.814453 C884.242285,197.360287 884.197361,193.921311 885.701172,191.958984 C887.901172,189.368984 886.948789,187.436367 889.758789,185.526367 C892.148789,183.886367 890.255937,184.880664 891.835938,182.430664 C893.415938,179.980664 895.025938,181.044453 897.335938,179.314453 C899.645937,177.584453 899.416406,181.243711 899.681641,179.170898 C900.495543,179.738527 900.616074,178.806751 901.57,179.08 C902.610007,179.093315 903.632615,178.812531 904.52,178.27 C914.14,173.74 925.34,174.54 935.89,175.89 C940.11,176.43 944.39,177.06 948.24,178.89 C952.09,180.72 955.49,183.89 956.57,188.01 C957.43,191.27 956.77,194.82 957.81,198.01 C958.51,200.19 959.95,202.01 960.81,204.2 C963.06,210.05 960.37,216.47 959.23,222.63 C957.99,229.36 958.61,236.63 955.75,243.01 C955.19,244.26 954.56,246.45 953.15,245.63 C952.15,245.02 951.09,241.47 950.49,240.36 C949.174871,237.926232 946.974871,234.412898 943.89,229.82 Z" id="Shape" fill="#2B2727" fill-rule="nonzero"></path>
            <path d="M1004.84,338.21 L1009.84,352.45 C1009.84,352.45 998,396.45 992.45,405.7 C986.9,414.95 978.77,426.78 978.77,426.78 C978.77,426.78 965.09,433.63 949.18,430.48 C933.27,427.33 886.84,419.02 886.84,419.02 C886.84,419.02 882.95,419.76 880.92,416.8 C878.89,413.84 868.32,412.34 868.32,412.34 C868.32,412.34 856.12,394.59 871.1,387.19 C871.1,387.19 872.95,391.26 880.9,388.49 C888.85,385.72 891.25,390.7 891.25,390.7 C891.25,390.7 904.25,393.29 911.41,392.37 C918.57,391.45 936.56,391.07 938.41,389.59 C939.386161,388.734863 940.867441,388.819381 941.74,389.78 C941.74,389.78 946.17,388.12 947.65,386.45 C949.13,384.78 951.17,388.3 951.17,388.3 C951.17,388.3 953.76,386.82 953.02,384.97 C952.28,383.12 955.42,376.1 955.42,376.1 C955.42,376.1 956.9,371.47 955.98,367.77 C955.06,364.07 960.6,350.77 960.6,350.77 C960.672326,348.526065 960.423133,346.283328 959.86,344.11 C958.93,340.79 966.86,334.11 966.86,334.11 C966.86,334.11 974.62,296.38 991.08,308.77 C1007.54,321.16 1004.84,338.21 1004.84,338.21 Z" id="Shape" fill="#000000" fill-rule="nonzero" opacity="0.1"></path>
            <path d="M1005.9,338.21 L1010.9,352.45 C1010.9,352.45 999.06,396.45 993.51,405.7 C987.96,414.95 979.84,426.78 979.84,426.78 C979.84,426.78 966.16,433.63 950.25,430.48 C934.34,427.33 887.93,419.02 887.93,419.02 C887.93,419.02 884.05,419.76 882.02,416.8 C879.99,413.84 869.43,412.34 869.43,412.34 C869.43,412.34 857.23,394.59 872.21,387.19 C872.21,387.19 874.06,391.26 882.01,388.49 C889.96,385.72 892.36,390.7 892.36,390.7 C892.36,390.7 905.36,393.29 912.52,392.37 C919.68,391.45 937.67,391.07 939.52,389.59 C940.496161,388.734863 941.977441,388.819381 942.85,389.78 C942.85,389.78 947.28,388.12 948.76,386.45 C950.24,384.78 952.28,388.3 952.28,388.3 C952.28,388.3 954.87,386.82 954.13,384.97 C953.39,383.12 956.53,376.1 956.53,376.1 C956.53,376.1 958.01,371.47 957.08,367.77 C956.15,364.07 961.71,350.77 961.71,350.77 C961.782326,348.526065 961.533133,346.283328 960.97,344.11 C960.04,340.79 967.97,334.11 967.97,334.11 C967.97,334.11 975.73,296.38 992.19,308.77 C1008.65,321.16 1005.9,338.21 1005.9,338.21 Z" id="Shape" fill="#4C4981" fill-rule="nonzero"></path>
            <path d="M885.71,397.75 C885.89,399.05 889.96,404.22 888.48,405.15 C887,406.08 884.6,405.52 886.82,408.48 C889.04,411.44 888.82,415.87 887.37,415.32 C885.92,414.77 883.49,408.11 883.49,405.52 C883.49,402.93 885.71,397.75 885.71,397.75 Z" id="Shape" fill="#000000" fill-rule="nonzero" opacity="0.1"></path>
            <path d="M940.63,394.79 C940.63,394.79 941.74,407.74 950.84,411.44 C959.94,415.14 940.63,394.79 940.63,394.79 Z" id="Shape" fill="#000000" fill-rule="nonzero" opacity="0.1"></path>
            <path d="M959.49,390.34 C960.04,390.53 972.43,397.19 966.89,401.07 C961.35,404.95 959.49,390.34 959.49,390.34 Z" id="Shape" fill="#000000" fill-rule="nonzero" opacity="0.1"></path>
            <path d="M960.23,381.11 C960.23,381.11 978.35,384.81 972.23,387.95 C966.11,391.09 960.23,381.11 960.23,381.11 Z" id="Shape" fill="#000000" fill-rule="nonzero" opacity="0.1"></path>
            <path d="M235.78,767.58 C235.78,767.58 193.5,765.03 198.48,794.65 C198.48,794.65 197.48,799.89 202.24,802.27 C202.24,802.27 202.31,800.07 206.58,800.81 C208.095983,801.063673 209.636252,801.140855 211.17,801.04 C213.242396,800.896719 215.211729,800.082307 216.78,798.72 L216.78,798.72 C216.78,798.72 228.67,793.81 233.29,774.38 C233.29,774.38 236.71,770.15 236.57,769.06 L229.44,772.06 C229.44,772.06 231.88,777.21 229.96,781.49 C229.96,781.49 229.73,772.25 228.36,772.49 C228.08,772.49 224.65,774.27 224.65,774.27 C224.65,774.27 228.85,783.27 225.65,789.76 C225.65,789.76 226.85,778.71 223.31,774.92 L218.31,777.85 C218.31,777.85 223.21,787.11 219.89,794.67 C219.89,794.67 220.74,783.08 217.25,778.57 L212.7,782.12 C212.7,782.12 217.31,791.24 214.5,797.51 C214.5,797.51 214.13,784.02 211.72,783 C211.72,783 207.72,786.51 207.13,788 C207.13,788 210.28,794.63 208.32,798.13 C208.32,798.13 207.12,789.13 206.14,789.13 C206.14,789.13 202.14,795.08 201.76,799.13 C201.76,799.13 201.93,793.06 205.18,788.52 C202.892238,788.954038 200.781893,790.049192 199.11,791.67 C199.11,791.67 199.72,787.46 206.16,787.09 C206.16,787.09 209.44,782.57 210.31,782.3 C210.31,782.3 203.91,781.76 200.03,783.48 C200.03,783.48 203.45,779.48 211.49,781.32 L215.98,777.65 C215.98,777.65 207.55,776.5 203.98,777.77 C203.98,777.77 208.09,774.26 217.19,776.82 L222.08,773.89 C222.08,773.89 214.9,772.34 210.62,772.89 C210.62,772.89 215.13,770.46 223.52,773.1 L227.01,771.53 C227.01,771.53 221.75,770.53 220.21,770.33 C218.67,770.13 218.58,769.74 218.58,769.74 C221.914929,769.183996 225.338743,769.564805 228.47,770.84 C228.47,770.84 235.9,768.04 235.78,767.58 Z" id="Shape" fill="#3FA34D" fill-rule="nonzero"></path>
            <ellipse id="Oval" fill="#3FA34D" fill-rule="nonzero" opacity="0.1" cx="206.66" cy="804.85" rx="29.92" ry="5.06"></ellipse>
            <path d="M316.84,689.51 C316.84,689.51 293,688.07 295.84,704.78 C295.545871,706.5178 296.400896,708.248017 297.96,709.07 C297.96,709.07 297.96,707.83 300.41,708.25 C301.265875,708.388926 302.134515,708.432526 303,708.38 C304.166296,708.292394 305.273805,707.833269 306.16,707.07 L306.16,707.07 C306.16,707.07 312.84,704.34 315.48,693.34 C315.48,693.34 317.41,690.95 317.33,690.34 L313.33,692.05 C313.33,692.05 314.7,694.96 313.62,697.37 C313.62,697.37 313.49,692.16 312.72,692.28 C312.56,692.28 310.63,693.28 310.63,693.28 C310.63,693.28 312.99,698.28 311.21,702.01 C311.21,702.01 311.88,695.78 309.89,693.64 L307.04,695.34 C307.04,695.34 309.8,700.56 307.93,704.82 C307.93,704.82 308.41,698.28 306.44,695.74 L303.88,697.74 C303.88,697.74 306.47,702.89 304.88,706.42 C304.88,706.42 304.67,698.81 303.31,698.24 C302.338712,699.063614 301.469226,700.000242 300.72,701.03 C300.72,701.03 302.5,704.77 301.4,706.74 C301.4,706.74 300.72,701.67 300.17,701.65 C300.17,701.65 297.93,705 297.7,707.31 C297.803689,705.176401 298.465762,703.107423 299.62,701.31 C298.331765,701.559867 297.143723,702.178205 296.2,703.09 C296.2,703.09 296.55,700.71 300.2,700.51 C300.2,700.51 302.04,697.96 302.54,697.81 C302.54,697.81 298.93,697.5 296.74,698.47 C296.74,698.47 298.67,696.23 303.2,697.25 L305.73,695.18 C305.73,695.18 300.98,694.53 298.97,695.25 C298.97,695.25 301.29,693.25 306.42,694.71 L309.17,693.07 C307.050613,692.600386 304.878583,692.412098 302.71,692.51 C302.71,692.51 305.26,691.13 309.98,692.62 L311.98,691.74 C311.98,691.74 308.98,691.15 308.15,691.06 C307.32,690.97 307.23,690.73 307.23,690.73 C309.111555,690.41703 311.043037,690.631639 312.81,691.35 C312.81,691.35 316.95,689.77 316.84,689.51 Z" id="Shape" fill="#3FA34D" fill-rule="nonzero"></path>
            <ellipse id="Oval" fill="#3FA34D" fill-rule="nonzero" opacity="0.1" cx="300.46" cy="710.52" rx="16.87" ry="2.85"></ellipse>
            <path d="M176.19,704.01 C176.19,704.01 147.41,702.27 150.84,722.44 C150.482787,724.538674 151.515856,726.629024 153.4,727.62 C153.4,727.62 153.4,726.12 156.35,726.62 C157.383615,726.794672 158.434418,726.84503 159.48,726.77 C160.892021,726.675961 162.234099,726.120861 163.3,725.19 L163.3,725.19 C163.3,725.19 171.39,721.85 174.54,708.63 C174.54,708.63 176.86,705.75 176.77,705.01 L171.84,707.09 C171.84,707.09 173.49,710.59 172.19,713.5 C172.19,713.5 172.03,707.22 171.1,707.37 C170.91,707.37 168.58,708.58 168.58,708.58 C168.58,708.58 171.43,714.68 169.28,719.12 C169.28,719.12 170.09,711.6 167.68,709.02 L164.27,711.02 C164.27,711.02 167.6,717.32 165.34,722.46 C165.34,722.46 165.92,714.57 163.55,711.46 L160.45,713.88 C160.45,713.88 163.58,720.09 161.67,724.36 C161.67,724.36 161.42,715.17 159.78,714.48 C159.78,714.48 157.07,716.87 156.65,717.85 C156.65,717.85 158.8,722.36 157.47,724.74 C157.47,724.74 156.65,718.62 155.98,718.59 C155.98,718.59 153.28,722.65 152.98,725.43 C153.113861,722.861344 153.917098,720.372345 155.31,718.21 C153.749963,718.501799 152.310213,719.246018 151.17,720.35 C151.17,720.35 151.59,717.48 155.98,717.23 C155.98,717.23 158.21,714.16 158.8,713.97 C158.8,713.97 154.45,713.6 151.8,714.77 C151.8,714.77 154.13,712.07 159.6,713.3 L162.66,710.8 C162.66,710.8 156.92,710.02 154.49,710.89 C154.49,710.89 157.29,708.49 163.49,710.24 L166.82,708.24 C166.82,708.24 161.93,707.18 159.02,707.56 C159.02,707.56 162.09,705.9 167.8,707.7 L170.18,706.63 C170.18,706.63 166.6,705.93 165.55,705.82 C164.5,705.71 164.44,705.42 164.44,705.42 C166.708482,705.035455 169.039271,705.291738 171.17,706.16 C171.17,706.16 176.28,704.34 176.19,704.01 Z" id="Shape" fill="#3FA34D" fill-rule="nonzero"></path>
            <ellipse id="Oval" fill="#3FA34D" fill-rule="nonzero" opacity="0.1" cx="156.37" cy="729.38" rx="20.37" ry="3.44"></ellipse>
            <ellipse id="Oval" fill="#3FA34D" fill-rule="nonzero" opacity="0.1" cx="743.72" cy="854.62" rx="29.92" ry="5.06"></ellipse>
            <path d="M723.63,831.12 C723.63,831.12 740.7,830.59 745.84,826.93 C750.98,823.27 772.09,818.93 773.37,824.77 C774.65,830.61 799.02,853.98 779.75,854.14 C760.48,854.3 734.98,851.14 729.84,848.01 C724.7,844.88 723.63,831.12 723.63,831.12 Z" id="Shape" fill="#A8A8A8" fill-rule="nonzero"></path>
            <path d="M780.09,852.09 C760.82,852.25 735.32,849.09 730.19,845.97 C726.28,843.58 724.72,835.04 724.19,831.1 L723.62,831.1 C723.62,831.1 724.7,844.86 729.83,847.99 C734.96,851.12 760.47,854.27 779.74,854.12 C785.3,854.12 787.22,852.12 787.12,849.12 C786.36,850.95 784.23,852.06 780.09,852.09 Z" id="Shape" fill="#000000" fill-rule="nonzero" opacity="0.2"></path>
        </g>
    </g>
</svg>