<?xml version="1.0" encoding="UTF-8"?>
<svg width="1062px" height="795px" viewBox="0 0 1062 795" version="1.1" xmlns="http://www.w3.org/2000/svg" xmlns:xlink="http://www.w3.org/1999/xlink">
    <!-- Generator: Sketch 46.2 (44496) - http://www.bohemiancoding.com/sketch -->
    <title>undraw_setup_wizard_r6mr</title>
    <desc>Created with Sketch.</desc>
    <defs>
        <linearGradient x1="50.0160933%" y1="99.9819644%" x2="50.0160933%" y2="0.000900501915%" id="linearGradient-1">
            <stop stop-color="#808080" stop-opacity="0.25" offset="0%"></stop>
            <stop stop-color="#808080" stop-opacity="0.12" offset="54%"></stop>
            <stop stop-color="#808080" stop-opacity="0.1" offset="100%"></stop>
        </linearGradient>
        <linearGradient x1="60144%" y1="84653%" x2="60144%" y2="82532%" id="linearGradient-2">
            <stop stop-color="#808080" stop-opacity="0.25" offset="0%"></stop>
            <stop stop-color="#808080" stop-opacity="0.12" offset="54%"></stop>
            <stop stop-color="#808080" stop-opacity="0.1" offset="100%"></stop>
        </linearGradient>
        <linearGradient x1="56725%" y1="84229%" x2="56725%" y2="82108%" id="linearGradient-3">
            <stop stop-color="#808080" stop-opacity="0.25" offset="0%"></stop>
            <stop stop-color="#808080" stop-opacity="0.12" offset="54%"></stop>
            <stop stop-color="#808080" stop-opacity="0.1" offset="100%"></stop>
        </linearGradient>
        <linearGradient x1="56122%" y1="83611%" x2="56122%" y2="82795%" id="linearGradient-4">
            <stop stop-color="#808080" stop-opacity="0.25" offset="0%"></stop>
            <stop stop-color="#808080" stop-opacity="0.12" offset="54%"></stop>
            <stop stop-color="#808080" stop-opacity="0.1" offset="100%"></stop>
        </linearGradient>
        <linearGradient x1="59788%" y1="83538%" x2="59788%" y2="82689%" id="linearGradient-5">
            <stop stop-color="#808080" stop-opacity="0.25" offset="0%"></stop>
            <stop stop-color="#808080" stop-opacity="0.12" offset="54%"></stop>
            <stop stop-color="#808080" stop-opacity="0.1" offset="100%"></stop>
        </linearGradient>
        <linearGradient x1="58467%" y1="83503%" x2="58467%" y2="62050%" id="linearGradient-6">
            <stop stop-color="#808080" stop-opacity="0.25" offset="0%"></stop>
            <stop stop-color="#808080" stop-opacity="0.12" offset="54%"></stop>
            <stop stop-color="#808080" stop-opacity="0.1" offset="100%"></stop>
        </linearGradient>
        <linearGradient x1="59949%" y1="72889%" x2="59949%" y2="72832%" id="linearGradient-7">
            <stop stop-color="#808080" stop-opacity="0.25" offset="0%"></stop>
            <stop stop-color="#808080" stop-opacity="0.12" offset="54%"></stop>
            <stop stop-color="#808080" stop-opacity="0.1" offset="100%"></stop>
        </linearGradient>
        <linearGradient x1="60010%" y1="73492%" x2="60010%" y2="73361%" id="linearGradient-8">
            <stop stop-color="#808080" stop-opacity="0.25" offset="0%"></stop>
            <stop stop-color="#808080" stop-opacity="0.12" offset="54%"></stop>
            <stop stop-color="#808080" stop-opacity="0.1" offset="100%"></stop>
        </linearGradient>
        <linearGradient x1="56227%" y1="73365%" x2="56227%" y2="73144%" id="linearGradient-9">
            <stop stop-color="#808080" stop-opacity="0.25" offset="0%"></stop>
            <stop stop-color="#808080" stop-opacity="0.12" offset="54%"></stop>
            <stop stop-color="#808080" stop-opacity="0.1" offset="100%"></stop>
        </linearGradient>
        <linearGradient x1="54246%" y1="62942%" x2="54246%" y2="57901%" id="linearGradient-10">
            <stop stop-color="#808080" stop-opacity="0.25" offset="0%"></stop>
            <stop stop-color="#808080" stop-opacity="0.12" offset="54%"></stop>
            <stop stop-color="#808080" stop-opacity="0.1" offset="100%"></stop>
        </linearGradient>
        <linearGradient x1="52224%" y1="44019%" x2="52224%" y2="39837%" id="linearGradient-11">
            <stop stop-color="#808080" stop-opacity="0.25" offset="0%"></stop>
            <stop stop-color="#808080" stop-opacity="0.12" offset="54%"></stop>
            <stop stop-color="#808080" stop-opacity="0.1" offset="100%"></stop>
        </linearGradient>
        <linearGradient x1="58713%" y1="51338%" x2="58713%" y2="48117%" id="linearGradient-12">
            <stop stop-color="#808080" stop-opacity="0.25" offset="0%"></stop>
            <stop stop-color="#808080" stop-opacity="0.12" offset="54%"></stop>
            <stop stop-color="#808080" stop-opacity="0.1" offset="100%"></stop>
        </linearGradient>
        <linearGradient x1="58499%" y1="63545%" x2="58499%" y2="62050%" id="linearGradient-13">
            <stop stop-color="#808080" stop-opacity="0.25" offset="0%"></stop>
            <stop stop-color="#808080" stop-opacity="0.12" offset="54%"></stop>
            <stop stop-color="#808080" stop-opacity="0.1" offset="100%"></stop>
        </linearGradient>
        <linearGradient x1="58284%" y1="63382%" x2="58284%" y2="49672%" id="linearGradient-14">
            <stop stop-color="#808080" stop-opacity="0.25" offset="0%"></stop>
            <stop stop-color="#808080" stop-opacity="0.12" offset="54%"></stop>
            <stop stop-color="#808080" stop-opacity="0.1" offset="100%"></stop>
        </linearGradient>
        <linearGradient x1="54032%" y1="58271%" x2="54032%" y2="53275%" id="linearGradient-15">
            <stop stop-color="#808080" stop-opacity="0.25" offset="0%"></stop>
            <stop stop-color="#808080" stop-opacity="0.12" offset="54%"></stop>
            <stop stop-color="#808080" stop-opacity="0.1" offset="100%"></stop>
        </linearGradient>
        <linearGradient x1="54030%" y1="58271%" x2="54030%" y2="57218%" id="linearGradient-16">
            <stop stop-color="#808080" stop-opacity="0.25" offset="0%"></stop>
            <stop stop-color="#808080" stop-opacity="0.12" offset="54%"></stop>
            <stop stop-color="#808080" stop-opacity="0.1" offset="100%"></stop>
        </linearGradient>
        <linearGradient x1="58111%" y1="58241%" x2="58111%" y2="57086%" id="linearGradient-17">
            <stop stop-color="#808080" stop-opacity="0.25" offset="0%"></stop>
            <stop stop-color="#808080" stop-opacity="0.12" offset="54%"></stop>
            <stop stop-color="#808080" stop-opacity="0.1" offset="100%"></stop>
        </linearGradient>
        <linearGradient x1="60977%" y1="60698%" x2="60977%" y2="58896%" id="linearGradient-18">
            <stop stop-color="#808080" stop-opacity="0.25" offset="0%"></stop>
            <stop stop-color="#808080" stop-opacity="0.12" offset="54%"></stop>
            <stop stop-color="#808080" stop-opacity="0.1" offset="100%"></stop>
        </linearGradient>
        <linearGradient x1="56790%" y1="60802%" x2="56790%" y2="60546%" id="linearGradient-19">
            <stop stop-color="#808080" stop-opacity="0.25" offset="0%"></stop>
            <stop stop-color="#808080" stop-opacity="0.12" offset="54%"></stop>
            <stop stop-color="#808080" stop-opacity="0.1" offset="100%"></stop>
        </linearGradient>
        <linearGradient x1="60487%" y1="54168%" x2="60487%" y2="52488%" id="linearGradient-20">
            <stop stop-color="#808080" stop-opacity="0.25" offset="0%"></stop>
            <stop stop-color="#808080" stop-opacity="0.12" offset="54%"></stop>
            <stop stop-color="#808080" stop-opacity="0.1" offset="100%"></stop>
        </linearGradient>
        <linearGradient x1="54443%" y1="52513%" x2="54443%" y2="51392%" id="linearGradient-21">
            <stop stop-color="#808080" stop-opacity="0.25" offset="0%"></stop>
            <stop stop-color="#808080" stop-opacity="0.12" offset="54%"></stop>
            <stop stop-color="#808080" stop-opacity="0.1" offset="100%"></stop>
        </linearGradient>
        <linearGradient x1="53880%" y1="56415%" x2="53880%" y2="55755%" id="linearGradient-22">
            <stop stop-color="#808080" stop-opacity="0.25" offset="0%"></stop>
            <stop stop-color="#808080" stop-opacity="0.12" offset="54%"></stop>
            <stop stop-color="#808080" stop-opacity="0.1" offset="100%"></stop>
        </linearGradient>
        <linearGradient x1="53906%" y1="55257%" x2="53906%" y2="54723%" id="linearGradient-23">
            <stop stop-color="#808080" stop-opacity="0.25" offset="0%"></stop>
            <stop stop-color="#808080" stop-opacity="0.12" offset="54%"></stop>
            <stop stop-color="#808080" stop-opacity="0.1" offset="100%"></stop>
        </linearGradient>
        <linearGradient x1="60319%" y1="65598%" x2="60319%" y2="65251%" id="linearGradient-24">
            <stop stop-color="#808080" stop-opacity="0.25" offset="0%"></stop>
            <stop stop-color="#808080" stop-opacity="0.12" offset="54%"></stop>
            <stop stop-color="#808080" stop-opacity="0.1" offset="100%"></stop>
        </linearGradient>
        <linearGradient x1="56555%" y1="65711%" x2="56555%" y2="65423%" id="linearGradient-25">
            <stop stop-color="#808080" stop-opacity="0.25" offset="0%"></stop>
            <stop stop-color="#808080" stop-opacity="0.12" offset="54%"></stop>
            <stop stop-color="#808080" stop-opacity="0.1" offset="100%"></stop>
        </linearGradient>
        <linearGradient x1="59922%" y1="66317%" x2="59922%" y2="66283%" id="linearGradient-26">
            <stop stop-color="#808080" stop-opacity="0.25" offset="0%"></stop>
            <stop stop-color="#808080" stop-opacity="0.12" offset="54%"></stop>
            <stop stop-color="#808080" stop-opacity="0.1" offset="100%"></stop>
        </linearGradient>
        <linearGradient x1="55865%" y1="67173%" x2="55865%" y2="66708%" id="linearGradient-27">
            <stop stop-color="#808080" stop-opacity="0.25" offset="0%"></stop>
            <stop stop-color="#808080" stop-opacity="0.12" offset="54%"></stop>
            <stop stop-color="#808080" stop-opacity="0.1" offset="100%"></stop>
        </linearGradient>
        <linearGradient x1="58210%" y1="58456%" x2="58210%" y2="43429%" id="linearGradient-28">
            <stop stop-color="#808080" stop-opacity="0.25" offset="0%"></stop>
            <stop stop-color="#808080" stop-opacity="0.12" offset="54%"></stop>
            <stop stop-color="#808080" stop-opacity="0.1" offset="100%"></stop>
        </linearGradient>
        <linearGradient x1="54298%" y1="50181%" x2="54298%" y2="47761%" id="linearGradient-29">
            <stop stop-color="#808080" stop-opacity="0.25" offset="0%"></stop>
            <stop stop-color="#808080" stop-opacity="0.12" offset="54%"></stop>
            <stop stop-color="#808080" stop-opacity="0.1" offset="100%"></stop>
        </linearGradient>
        <linearGradient x1="54717%" y1="56243%" x2="54717%" y2="53456%" id="linearGradient-30">
            <stop stop-color="#808080" stop-opacity="0.25" offset="0%"></stop>
            <stop stop-color="#808080" stop-opacity="0.12" offset="54%"></stop>
            <stop stop-color="#808080" stop-opacity="0.1" offset="100%"></stop>
        </linearGradient>
        <linearGradient x1="58102%" y1="58483%" x2="58102%" y2="55496%" id="linearGradient-31">
            <stop stop-color="#808080" stop-opacity="0.25" offset="0%"></stop>
            <stop stop-color="#808080" stop-opacity="0.12" offset="54%"></stop>
            <stop stop-color="#808080" stop-opacity="0.1" offset="100%"></stop>
        </linearGradient>
        <linearGradient x1="61843%" y1="48419%" x2="61843%" y2="46235%" id="linearGradient-32">
            <stop stop-color="#808080" stop-opacity="0.25" offset="0%"></stop>
            <stop stop-color="#808080" stop-opacity="0.12" offset="54%"></stop>
            <stop stop-color="#808080" stop-opacity="0.1" offset="100%"></stop>
        </linearGradient>
        <linearGradient x1="61282%" y1="53425%" x2="61282%" y2="50977%" id="linearGradient-33">
            <stop stop-color="#808080" stop-opacity="0.25" offset="0%"></stop>
            <stop stop-color="#808080" stop-opacity="0.12" offset="54%"></stop>
            <stop stop-color="#808080" stop-opacity="0.1" offset="100%"></stop>
        </linearGradient>
        <linearGradient x1="63886%" y1="53130%" x2="63886%" y2="50786%" id="linearGradient-34">
            <stop stop-color="#808080" stop-opacity="0.25" offset="0%"></stop>
            <stop stop-color="#808080" stop-opacity="0.12" offset="54%"></stop>
            <stop stop-color="#808080" stop-opacity="0.1" offset="100%"></stop>
        </linearGradient>
        <linearGradient x1="64752%" y1="53106%" x2="64752%" y2="50840%" id="linearGradient-35">
            <stop stop-color="#808080" stop-opacity="0.25" offset="0%"></stop>
            <stop stop-color="#808080" stop-opacity="0.12" offset="54%"></stop>
            <stop stop-color="#808080" stop-opacity="0.1" offset="100%"></stop>
        </linearGradient>
    </defs>
    <g id="Page-1" stroke="none" stroke-width="1" fill="none" fill-rule="evenodd">
        <g id="undraw_setup_wizard_r6mr">
            <path d="M605.87,111.4 C541.15,109.16 479.51,88.26 420.65,65.4 C361.79,42.54 303.49,17.18 240.32,5.11 C199.69,-2.69 153.22,-3.79 120.49,18 C89,38.96 78.8,75.18 73.33,108.72 C69.21,133.98 66.79,160.57 78.07,184.22 C85.91,200.64 99.81,214.44 109.43,230.16 C142.9,284.89 119.24,352.37 82.98,405.8 C65.98,430.86 46.23,454.8 33.1,481.45 C19.97,508.1 13.9,538.7 25.39,565.92 C36.77,592.92 63.9,613.16 93.29,627.41 C152.98,656.36 223.29,664.64 291.9,669.34 C443.73,679.72 596.36,675.23 748.59,670.72 C804.93,669.06 861.51,667.37 916.93,658.66 C947.71,653.82 979.48,646.14 1001.83,627.6 C1030.19,604.07 1037.22,564.23 1018.21,534.72 C986.33,485.23 898.21,472.94 875.9,419.83 C863.64,390.59 876.23,358.03 894.06,330.92 C932.3,272.75 996.39,221.72 999.76,155.24 C1002.08,109.58 971.27,63.85 923.63,42.24 C873.7,19.59 804.45,22.44 767.63,59.92 C729.68,98.53 663,113.39 605.87,111.4 Z" id="Shape" fill="#3AAA96" fill-rule="nonzero" opacity="0.1"></path>
            <rect id="Rectangle-path" fill="#E8E9ED" fill-rule="nonzero" x="0" y="123.48" width="259.51" height="259.51"></rect>
            <rect id="Rectangle-path" fill="#E8E9ED" fill-rule="nonzero" x="802.49" y="123.48" width="259.51" height="259.51"></rect>
            <path d="M145.39,32.03 L142.8,29.38 C142.695821,29.2634947 142.546275,29.1978404 142.39,29.2 C142.233176,29.1950721 142.082512,29.2612174 141.98,29.38 L124.08,47.38 L117.56,40.87 C117.454059,40.7561281 117.305532,40.6914446 117.15,40.6914446 C116.994468,40.6914446 116.845941,40.7561281 116.74,40.87 L114.13,43.48 C114.015056,43.5894708 113.95,43.7412674 113.95,43.9 C113.95,44.0587326 114.015056,44.2105292 114.13,44.32 L122.35,52.53 C122.791333,53.0187365 123.403434,53.3194175 124.06,53.37 C124.708569,53.3133473 125.315306,53.0259456 125.77,52.56 L125.77,52.56 L145.4,32.87 C145.613901,32.6308514 145.613901,32.2691486 145.4,32.03 L145.39,32.03 Z" id="Shape" fill="#3ACC6C" fill-rule="nonzero" opacity="0.5"></path>
            <path d="M129.75,14.88 C142.338137,14.8890141 153.167464,23.7877068 155.616749,36.1352687 C158.066034,48.4828306 151.453329,60.841357 139.821751,65.6546384 C128.190173,70.4679198 114.778278,66.3958048 107.786322,55.9280526 C100.794366,45.4603003 102.169105,31.5114241 111.07,22.61 C116.014972,17.642803 122.741051,14.8594738 129.75,14.88 L129.75,14.88 Z M129.75,10.77 C117.400858,10.7700007 106.26788,18.2094788 101.543002,29.6189857 C96.818125,41.0284925 99.4319756,54.1607741 108.165568,62.8915059 C116.89916,71.6222376 130.032298,74.2317859 141.440256,69.503171 C152.848214,64.7745561 160.284045,53.6391415 160.28,41.29 C160.282656,33.193046 157.066645,25.4271056 151.340295,19.702632 C145.613946,13.9781585 137.846953,10.7646918 129.75,10.77 L129.75,10.77 Z" id="Shape" fill="#3AAA96" fill-rule="nonzero" opacity="0.5"></path>
            <path d="M345.82,117.36 L342.56,114.02 C342.429065,113.877416 342.243565,113.797397 342.05,113.8 C341.852464,113.791747 341.661633,113.872483 341.53,114.02 L319,136.72 L310.79,128.52 C310.657613,128.379474 310.473065,128.299865 310.28,128.3 C310.083943,128.299476 309.896151,128.378927 309.76,128.52 L306.47,131.81 C306.324984,131.9461 306.242722,132.136121 306.242722,132.335 C306.242722,132.533879 306.324984,132.7239 306.47,132.86 L316.81,143.18 C317.368904,143.793784 318.142075,144.169631 318.97,144.23 C319.779232,144.160551 320.537563,143.80619 321.11,143.23 L321.11,143.23 L345.81,118.39 C346.047817,118.099084 346.047817,117.680916 345.81,117.39 L345.82,117.36 Z" id="Shape" fill="#3ACC6C" fill-rule="nonzero" opacity="0.8"></path>
            <path d="M326.12,95.76 C341.981851,95.7635293 355.632592,106.970693 358.724705,122.528237 C361.816818,138.085781 353.489206,153.661214 338.834258,159.730057 C324.179311,165.7989 307.278163,160.671091 298.465976,147.482319 C289.65379,134.293547 291.384598,116.716644 302.6,105.5 C308.82178,99.2383148 317.292862,95.7303074 326.12,95.76 L326.12,95.76 Z M326.12,90.59 C304.895697,90.59 287.69,107.795697 287.69,129.02 C287.69,150.244303 304.895697,167.45 326.12,167.45 C347.344303,167.45 364.55,150.244303 364.55,129.02 C364.552653,118.826917 360.504642,109.050554 353.297044,101.842956 C346.089446,94.6353579 336.313083,90.5873466 326.12,90.59 L326.12,90.59 Z" id="Shape" fill="#3AAA96" fill-rule="nonzero" opacity="0.8"></path>
            <path d="M932.24,14.88 C944.828137,14.8890141 955.657464,23.7877068 958.106749,36.1352687 C960.556034,48.4828306 953.943329,60.841357 942.311751,65.6546384 C930.680173,70.4679198 917.268278,66.3958048 910.276322,55.9280526 C903.284366,45.4603003 904.659105,31.5114241 913.56,22.61 C918.504972,17.642803 925.231051,14.8594738 932.24,14.88 L932.24,14.88 Z M932.24,10.77 C919.890858,10.7700007 908.75788,18.2094788 904.033002,29.6189857 C899.308125,41.0284925 901.921976,54.1607741 910.655568,62.8915059 C919.38916,71.6222376 932.522298,74.2317859 943.930256,69.503171 C955.338214,64.7745561 962.774045,53.6391415 962.77,41.29 C962.772656,33.193046 959.556645,25.4271056 953.830295,19.702632 C948.103946,13.9781585 940.336953,10.7646918 932.24,10.77 L932.24,10.77 Z" id="Shape" fill="#3AAA96" fill-rule="nonzero" opacity="0.5"></path>
            <path d="M734.47,95.76 C750.336538,95.7396583 764.006802,106.932753 767.117394,122.491405 C770.227986,138.050058 761.912123,153.638769 747.257409,159.720444 C732.602694,165.80212 715.692739,160.682069 706.872969,147.492714 C698.053199,134.303358 699.781288,116.719979 711,105.5 C717.225582,99.2439878 725.694184,95.7370073 734.52,95.76 L734.47,95.76 Z M734.52,90.59 C713.295697,90.59 696.09,107.795697 696.09,129.02 C696.09,150.244303 713.295697,167.45 734.52,167.45 C755.744303,167.45 772.95,150.244303 772.95,129.02 C772.952668,118.818246 768.897795,109.034293 761.679377,101.825255 C754.460958,94.6162161 744.671742,90.5740677 734.47,90.59 L734.52,90.59 Z" id="Shape" fill="#3AAA96" fill-rule="nonzero" opacity="0.8"></path>
            <path d="M529.33,156.74 C550.289834,156.754046 568.321767,171.57014 572.400543,192.129285 C576.479318,212.68843 565.469261,233.266231 546.102245,241.280813 C526.735228,249.295395 504.403717,242.515214 492.761856,225.085873 C481.119994,207.656533 483.40929,184.430979 498.23,169.61 C506.460622,161.3369 517.660129,156.702248 529.33,156.74 L529.33,156.74 Z M529.33,149.9 C501.268412,149.9 478.52,172.648412 478.52,200.71 C478.52,228.771588 501.268412,251.52 529.33,251.52 C557.391588,251.52 580.14,228.771588 580.14,200.71 C580.142653,187.233537 574.790324,174.308273 565.261025,164.778975 C555.731727,155.249676 542.806463,149.897347 529.33,149.9 L529.33,149.9 Z" id="Shape" fill="#3AAA96" fill-rule="nonzero"></path>
            <rect id="Rectangle-path" fill="#F3F5F7" fill-rule="nonzero" x="181.52" y="191.5" width="289.2" height="289.2"></rect>
            <rect id="Rectangle-path" fill="#F3F5F7" fill-rule="nonzero" x="589.87" y="191.5" width="289.2" height="289.2"></rect>
            <rect id="Rectangle-path" fill="#000000" fill-rule="nonzero" opacity="0.1" x="25.93" y="169.55" width="96.46" height="10.72"></rect>
            <rect id="Rectangle-path" fill="#000000" fill-rule="nonzero" opacity="0.1" x="849.19" y="169.55" width="96.46" height="10.72"></rect>
            <path d="M701.19,618.41 C701.19,618.41 726.25,574.02 763.99,561.23 C779.852502,555.966481 793.579516,545.699292 803.11,531.97 C807.580652,525.405206 811.443314,518.446389 814.65,511.18" id="Shape" stroke="#535461" stroke-width="2"></path>
            <path d="M838.38,503.01 C834.08,507.18 814.05,511.5 814.05,511.5 C814.05,511.5 818.97,491.61 823.27,487.43 C827.572298,483.257489 834.442488,483.362703 838.614999,487.665001 C842.78751,491.967299 842.682298,498.837489 838.38,503.01 L838.38,503.01 Z" id="Shape" fill="#3AAA96" fill-rule="nonzero"></path>
            <path d="M827.05,538.99 C821.17,540.16 802.05,532.9 802.05,532.9 C802.05,532.9 816.98,518.9 822.86,517.71 C828.668157,516.694801 834.223949,520.503833 835.370882,526.287419 C836.517815,532.071005 832.836027,537.711926 827.08,538.99 L827.05,538.99 Z" id="Shape" fill="#3AAA96" fill-rule="nonzero"></path>
            <path d="M785.8,577.94 C780.14,575.94 767.27,560.04 767.27,560.04 C767.27,560.04 787.27,555.47 792.9,557.43 C796.563759,558.698293 799.272585,561.824836 800.006091,565.63189 C800.739596,569.438945 799.386344,573.348129 796.456091,575.88689 C793.525837,578.425652 789.463759,579.208293 785.8,577.94 Z" id="Shape" fill="#3AAA96" fill-rule="nonzero"></path>
            <path d="M748,600.37 C742.08,599.37 726.7,585.86 726.7,585.86 C726.7,585.86 745.62,577.99 751.53,578.96 C755.384251,579.558587 758.620614,582.179909 760.006694,585.825775 C761.392774,589.47164 760.715248,593.580939 758.232116,596.588863 C755.748985,599.596788 751.842409,601.040409 748,600.37 L748,600.37 Z" id="Shape" fill="#3AAA96" fill-rule="nonzero"></path>
            <path d="M785.32,517.36 C785.32,523.36 796.16,540.73 796.16,540.73 C796.16,540.73 807,523.36 807,517.37 C807,511.37771 802.14229,506.52 796.15,506.52 C790.15771,506.52 785.3,511.37771 785.3,517.37 L785.32,517.36 Z" id="Shape" fill="#3AAA96" fill-rule="nonzero"></path>
            <path d="M741.39,544.18 C743.18,549.9 758.73,563.24 758.73,563.24 C758.73,563.24 763.89,543.42 762.1,537.7 C760.94246,534.000515 757.899196,531.19959 754.116578,530.352307 C750.333959,529.505023 746.386655,530.740104 743.761577,533.592307 C741.1365,536.444509 740.232459,540.480515 741.39,544.18 Z" id="Shape" fill="#3AAA96" fill-rule="nonzero"></path>
            <path d="M702.27,576.07 C703.07,582.01 716.13,597.78 716.13,597.78 C716.13,597.78 724.57,579.12 723.78,573.18 C723.263751,569.337609 720.736826,566.062508 717.151093,564.588397 C713.56536,563.114286 709.465577,563.665117 706.396093,566.033397 C703.326609,568.401677 701.753751,572.227609 702.27,576.07 Z" id="Shape" fill="#3AAA96" fill-rule="nonzero"></path>
            <path d="M838.38,503.01 C834.08,507.18 814.05,511.5 814.05,511.5 C814.05,511.5 818.97,491.61 823.27,487.43 C827.572298,483.257489 834.442488,483.362703 838.614999,487.665001 C842.78751,491.967299 842.682298,498.837489 838.38,503.01 L838.38,503.01 Z" id="Shape" fill="#000000" fill-rule="nonzero" opacity="0.25"></path>
            <path d="M827.05,538.99 C821.17,540.16 802.05,532.9 802.05,532.9 C802.05,532.9 816.98,518.9 822.86,517.71 C828.668157,516.694801 834.223949,520.503833 835.370882,526.287419 C836.517815,532.071005 832.836027,537.711926 827.08,538.99 L827.05,538.99 Z" id="Shape" fill="#000000" fill-rule="nonzero" opacity="0.25"></path>
            <path d="M785.8,577.94 C780.14,575.94 767.27,560.04 767.27,560.04 C767.27,560.04 787.27,555.47 792.9,557.43 C796.563759,558.698293 799.272585,561.824836 800.006091,565.63189 C800.739596,569.438945 799.386344,573.348129 796.456091,575.88689 C793.525837,578.425652 789.463759,579.208293 785.8,577.94 Z" id="Shape" fill="#000000" fill-rule="nonzero" opacity="0.25"></path>
            <path d="M748,600.37 C742.08,599.37 726.7,585.86 726.7,585.86 C726.7,585.86 745.62,577.99 751.53,578.96 C755.384251,579.558587 758.620614,582.179909 760.006694,585.825775 C761.392774,589.47164 760.715248,593.580939 758.232116,596.588863 C755.748985,599.596788 751.842409,601.040409 748,600.37 L748,600.37 Z" id="Shape" fill="#000000" fill-rule="nonzero" opacity="0.25"></path>
            <path d="M785.32,517.36 C785.32,523.36 796.16,540.73 796.16,540.73 C796.16,540.73 807,523.36 807,517.37 C807,511.37771 802.14229,506.52 796.15,506.52 C790.15771,506.52 785.3,511.37771 785.3,517.37 L785.32,517.36 Z" id="Shape" fill="#000000" fill-rule="nonzero" opacity="0.25"></path>
            <path d="M741.39,544.18 C743.18,549.9 758.73,563.24 758.73,563.24 C758.73,563.24 763.89,543.42 762.1,537.7 C760.94246,534.000515 757.899196,531.19959 754.116578,530.352307 C750.333959,529.505023 746.386655,530.740104 743.761577,533.592307 C741.1365,536.444509 740.232459,540.480515 741.39,544.18 Z" id="Shape" fill="#000000" fill-rule="nonzero" opacity="0.25"></path>
            <path d="M702.27,576.07 C703.07,582.01 716.13,597.78 716.13,597.78 C716.13,597.78 724.57,579.12 723.78,573.18 C723.263751,569.337609 720.736826,566.062508 717.151093,564.588397 C713.56536,563.114286 709.465577,563.665117 706.396093,566.033397 C703.326609,568.401677 701.753751,572.227609 702.27,576.07 Z" id="Shape" fill="#000000" fill-rule="nonzero" opacity="0.25"></path>
            <path d="M702.63,617.53 C702.63,617.53 707.56,566.8 736.87,539.81 C749.239879,528.559186 757.629209,513.601548 760.78,497.18 C762.209059,489.374658 762.922022,481.455076 762.91,473.52" id="Shape" stroke="#535461" stroke-width="2"></path>
            <path d="M781.29,456.43 C779.05,461.99 762.49,474.05 762.49,474.05 C762.49,474.05 758.92,453.88 761.16,448.32 C762.608712,444.724122 765.865755,442.174272 769.704233,441.630954 C773.542711,441.087637 777.379467,442.633394 779.769233,445.685954 C782.158999,448.738515 782.738712,452.834122 781.29,456.43 L781.29,456.43 Z" id="Shape" fill="#3AAA96" fill-rule="nonzero"></path>
            <path d="M785.51,493.92 C780.61,497.37 760.16,498.5 760.16,498.5 C760.16,498.5 768.16,479.62 773.03,476.18 C777.926358,472.952611 784.501073,474.199867 787.875287,478.996225 C791.2495,483.792582 790.201956,490.402059 785.51,493.92 Z" id="Shape" fill="#3AAA96" fill-rule="nonzero"></path>
            <path d="M763.58,546.24 C757.58,546.74 739.39,537.39 739.39,537.39 C739.39,537.39 755.79,525.12 761.76,524.62 C765.662586,524.220465 769.476899,525.958676 771.735794,529.166042 C773.994688,532.373409 774.346307,536.550337 772.655404,540.090203 C770.9645,543.630068 767.494457,545.981486 763.58,546.24 L763.58,546.24 Z" id="Shape" fill="#3AAA96" fill-rule="nonzero"></path>
            <path d="M738.08,582.09 C732.27,583.59 712.73,577.45 712.73,577.45 C712.73,577.45 726.83,562.59 732.63,561.08 C738.376943,559.710326 744.163449,563.190377 745.647527,568.908844 C747.131606,574.627312 743.767715,580.482108 738.08,582.08 L738.08,582.09 Z" id="Shape" fill="#3AAA96" fill-rule="nonzero"></path>
            <path d="M738.59,491.06 C741.02,496.54 757.97,508.06 757.97,508.06 C757.97,508.06 760.86,487.78 758.44,482.3 C756.012709,476.818574 749.601426,474.342709 744.12,476.77 C738.638574,479.197291 736.162709,485.608574 738.59,491.09 L738.59,491.06 Z" id="Shape" fill="#3AAA96" fill-rule="nonzero"></path>
            <path d="M709.29,533.36 C713.29,537.86 732.87,543.76 732.87,543.76 C732.87,543.76 729.55,523.54 725.6,519.04 C721.645641,514.536118 714.788882,514.090642 710.285,518.045 C705.781118,521.999359 705.335641,528.856118 709.29,533.36 L709.29,533.36 Z" id="Shape" fill="#3AAA96" fill-rule="nonzero"></path>
            <path d="M686.46,578.38 C689.59,583.49 707.93,592.62 707.93,592.62 C707.93,592.62 708.09,572.13 704.93,567.02 C701.793023,561.914127 695.110873,560.318023 690.005,563.455 C684.899127,566.591977 683.303023,573.274127 686.44,578.38 L686.46,578.38 Z" id="Shape" fill="#3AAA96" fill-rule="nonzero"></path>
            <rect id="Rectangle-path" fill="#000000" fill-rule="nonzero" opacity="0.1" x="218.85" y="253.23" width="96.46" height="10.72"></rect>
            <rect id="Rectangle-path" fill="#000000" fill-rule="nonzero" opacity="0.1" x="396.6" y="347.46" width="57.59" height="10.72"></rect>
            <rect id="Rectangle-path" fill="#000000" fill-rule="nonzero" opacity="0.1" x="396.6" y="419.4" width="85.28" height="10.72"></rect>
            <rect id="Rectangle-path" fill="#000000" fill-rule="nonzero" opacity="0.1" x="218.85" y="291.01" width="96.46" height="10.72"></rect>
            <rect id="Rectangle-path" fill="#000000" fill-rule="nonzero" opacity="0.1" x="652.92" y="253.23" width="96.46" height="10.72"></rect>
            <rect id="Rectangle-path" fill="#000000" fill-rule="nonzero" opacity="0.1" x="652.92" y="291.01" width="96.46" height="10.72"></rect>
            <path d="M515.66,215.65 L518.36,212.11 C520.957515,214.655148 524.443457,216.089692 528.08,216.11 C532.64,216.11 536.02,213.88 536.02,210.27 C536.02,206.35 532.78,203.77 523.8,203.77 L523.8,199.7 C531.8,199.7 534.8,197.07 534.8,193.6 C534.8,190.46 532.11,188.5 528.12,188.5 C525.011479,188.591671 522.041479,189.80667 519.76,191.92 L516.89,188.5 C520.043067,185.681026 524.110824,184.100108 528.34,184.05 C535.25,184.05 540.34,187.37 540.34,193.19 C540.34,197.29 537.34,199.97 533.02,201.45 L533.02,201.67 C537.65,202.67 541.53,205.74 541.53,210.53 C541.53,216.85 535.53,220.64 528.45,220.64 C522.43,220.63 518.3,218.34 515.66,215.65 Z" id="Shape" fill="#3AAA96" fill-rule="nonzero"></path>
            <g id="Group" opacity="0.8" transform="translate(720.000000, 112.000000)" fill-rule="nonzero" fill="#3AAA96">
                <path d="M17.66,11.5 C17.66,9.58 17.83,7.13 17.93,5.21 L17.68,5.21 C16.58,6.91 15.33,8.6 14.21,10.29 L6.21,20.55 L27.45,20.55 L27.45,24.68 L0.73,24.68 L0.73,21.18 L16.68,0.18 L22.55,0.18 L22.55,33.57 L17.66,33.57 L17.66,11.5 Z" id="Shape"></path>
            </g>
            <g id="Group" opacity="0.5" transform="translate(921.000000, 30.000000)" fill-rule="nonzero" fill="#3AAA96">
                <path d="M0.85,21.88 L2.66,19.41 C4.40982994,21.1252585 6.75970965,22.0903236 9.21,22.1 C12.43,22.1 14.96,20.18 14.96,17.03 C14.96,13.88 12.73,12.18 9.42,12.18 C7.7437842,12.1660644 6.10112484,12.6498137 4.7,13.57 L2.82,12.36 L3.58,0.55 L17.58,0.55 L17.58,3.8 L6.88,3.8 L6.29,10.27 C7.59289494,9.67841367 9.00913731,9.37810204 10.44,9.39 C15.03,9.39 18.77,11.75 18.77,16.97 C18.77,22.19 14.39,25.24 9.66,25.24 C6.39340783,25.335866 3.22314423,24.1267757 0.85,21.88 Z" id="Shape"></path>
            </g>
            <rect id="Rectangle-path" fill="#3AAA96" fill-rule="nonzero" opacity="0.1" x="347.16" y="283.32" width="357.49" height="357.49"></rect>
            <rect id="Rectangle-path" fill="#FFFFFF" fill-rule="nonzero" x="359.16" y="266.32" width="357.49" height="357.49"></rect>
            <rect id="Rectangle-path" fill="#3AAA96" fill-rule="nonzero" opacity="0.5" x="396.6" y="305.92" width="282.6" height="10.72"></rect>
            <rect id="Rectangle-path" fill="#000000" fill-rule="nonzero" opacity="0.1" x="396.6" y="383.43" width="179.95" height="10.72"></rect>
            <rect id="Rectangle-path" fill="#000000" fill-rule="nonzero" opacity="0.1" x="396.6" y="455.38" width="174.6" height="10.72"></rect>
            <rect id="Rectangle-path" fill="#000000" fill-rule="nonzero" opacity="0.1" x="396.6" y="491.35" width="238.01" height="10.72"></rect>
            <path d="M627.52,384.38 L626.29,383.11 C626.235536,383.059493 626.164272,383.030988 626.09,383.03 C626.018578,383.030487 625.950259,383.059253 625.9,383.11 L617.37,391.71 L614.26,388.6 C614.204581,388.551022 614.133908,388.522753 614.06,388.52 C613.989006,388.522496 613.921397,388.550962 613.87,388.6 L612.62,389.85 C612.566249,389.902665 612.535959,389.974749 612.535959,390.05 C612.535959,390.125251 612.566249,390.197335 612.62,390.25 L616.54,394.16 C616.753174,394.391885 617.046032,394.534743 617.36,394.56 C617.66877,394.53402 617.95714,394.395176 618.17,394.17 L618.17,394.17 L627.52,384.78 C627.6136,384.663094 627.6136,384.496906 627.52,384.38 L627.52,384.38 Z" id="Shape" fill="#3ACC6C" fill-rule="nonzero" opacity="0.5"></path>
            <path d="M620.07,376.18 C626.082049,376.175661 631.259677,380.419416 632.435687,386.315326 C633.611697,392.211236 630.45845,398.116684 624.904811,400.41926 C619.351173,402.721836 612.944403,400.780036 609.603574,395.781674 C606.262746,390.783312 606.918623,384.120947 611.17,379.87 C613.524418,377.500173 616.729448,376.171346 620.07,376.18 L620.07,376.18 Z M620.07,374.23 C614.183256,374.225956 608.874098,377.769466 606.61947,383.207335 C604.364842,388.645204 605.609042,394.905843 609.7716,399.0684 C613.934157,403.230958 620.194796,404.475158 625.632665,402.22053 C631.070534,399.965902 634.614044,394.656744 634.61,388.77 C634.598965,380.747591 628.092416,374.249992 620.07,374.25 L620.07,374.23 Z" id="Shape" fill="#3ACC6C" fill-rule="nonzero" opacity="0.5"></path>
            <path d="M627.52,456.32 L626.29,455.06 C626.238035,455.005672 626.165097,454.976498 626.09,454.98 C626.017856,454.976722 625.948071,455.006105 625.9,455.06 L617.37,463.65 L614.26,460.55 C614.208345,460.494053 614.136131,460.461557 614.06,460.46 C613.986821,460.461915 613.917839,460.49459 613.87,460.55 L612.62,461.79 C612.566249,461.842665 612.535959,461.914749 612.535959,461.99 C612.535959,462.065251 612.566249,462.137335 612.62,462.19 L616.54,466.11 C616.753174,466.341885 617.046032,466.484743 617.36,466.51 C617.667551,466.479615 617.954456,466.341476 618.17,466.12 L618.17,466.12 L627.52,456.72 C627.6136,456.603094 627.6136,456.436906 627.52,456.32 L627.52,456.32 Z" id="Shape" fill="#3ACC6C" fill-rule="nonzero" opacity="0.5"></path>
            <path d="M620.07,448.18 C626.082049,448.175661 631.259677,452.419416 632.435687,458.315326 C633.611697,464.211236 630.45845,470.116684 624.904811,472.41926 C619.351173,474.721836 612.944403,472.780036 609.603574,467.781674 C606.262746,462.783312 606.918623,456.120947 611.17,451.87 C613.524418,449.500173 616.729448,448.171346 620.07,448.18 L620.07,448.18 Z M620.07,446.18 C614.184166,446.175955 608.87564,449.718383 606.620425,455.155023 C604.36521,460.591664 605.607577,466.851518 609.76806,471.014863 C613.928543,475.178207 620.187542,476.424878 625.625732,474.173401 C631.063922,471.921925 634.609999,466.615835 634.61,460.73 C634.612653,456.87202 633.081936,453.171144 630.35487,450.442202 C627.627803,447.71326 623.927981,446.179999 620.07,446.18 L620.07,446.18 Z" id="Shape" fill="#3ACC6C" fill-rule="nonzero" opacity="0.5"></path>
            <ellipse id="Oval" fill="#3AAA96" fill-rule="nonzero" opacity="0.1" cx="512.51" cy="782.38" rx="71.41" ry="11.98"></ellipse>
            <path d="M130.91,693.37 C130.91,693.37 134.63,698.24 129.19,705.6 C123.75,712.96 119.25,719.16 121.07,723.75 C121.07,723.75 129.28,710.09 135.97,709.9 C142.66,709.71 138.26,701.59 130.91,693.37 Z" id="Shape" fill="#3AAA96" fill-rule="nonzero"></path>
            <path d="M130.91,693.37 C131.233963,693.841758 131.489813,694.356824 131.67,694.9 C138.19,702.57 141.67,709.72 135.4,709.9 C129.56,710.07 122.55,720.51 120.87,723.15 C120.92309,723.354272 120.989909,723.554728 121.07,723.75 C121.07,723.75 129.28,710.09 135.97,709.9 C142.66,709.71 138.26,701.59 130.91,693.37 Z" id="Shape" fill="#000000" fill-rule="nonzero" opacity="0.1"></path>
            <path d="M137.83,699.58 C137.83,701.3 137.64,702.69 137.4,702.69 C137.16,702.69 136.97,701.3 136.97,699.58 C136.97,697.86 137.21,698.67 137.45,698.67 C137.69,698.67 137.83,697.87 137.83,699.58 Z" id="Shape" fill="#FFD037" fill-rule="nonzero"></path>
            <path d="M140.21,701.63 C138.7,702.45 137.39,702.95 137.28,702.74 C137.17,702.53 138.28,701.74 139.8,700.87 C141.32,700 140.71,700.65 140.8,700.87 C140.89,701.09 141.71,700.81 140.21,701.63 Z" id="Shape" fill="#FFD037" fill-rule="nonzero"></path>
            <path d="M111.23,693.37 C111.23,693.37 107.5,698.24 112.95,705.6 C118.4,712.96 122.88,719.16 121.07,723.75 C121.07,723.75 112.85,710.09 106.17,709.9 C99.49,709.71 103.87,701.59 111.23,693.37 Z" id="Shape" fill="#3AAA96" fill-rule="nonzero"></path>
            <path d="M111.23,693.37 C110.906037,693.841758 110.650187,694.356824 110.47,694.9 C103.94,702.57 100.47,709.72 106.74,709.9 C112.58,710.07 119.59,720.51 121.27,723.15 C121.21,723.35 121.15,723.55 121.07,723.75 C121.07,723.75 112.85,710.09 106.17,709.9 C99.49,709.71 103.87,701.59 111.23,693.37 Z" id="Shape" fill="#000000" fill-rule="nonzero" opacity="0.1"></path>
            <path d="M104.3,699.58 C104.3,701.3 104.49,702.69 104.73,702.69 C104.97,702.69 105.16,701.3 105.16,699.58 C105.16,697.86 104.92,698.67 104.68,698.67 C104.44,698.67 104.3,697.87 104.3,699.58 Z" id="Shape" fill="#FFD037" fill-rule="nonzero"></path>
            <path d="M101.93,701.63 C103.43,702.45 104.74,702.95 104.86,702.74 C104.98,702.53 103.86,701.74 102.34,700.87 C100.82,700 101.43,700.65 101.34,700.87 C101.25,701.09 100.42,700.81 101.93,701.63 Z" id="Shape" fill="#FFD037" fill-rule="nonzero"></path>
            <ellipse id="Oval" fill="#3AAA96" fill-rule="nonzero" opacity="0.1" cx="121.07" cy="755.04" rx="38.95" ry="5.98"></ellipse>
            <path d="M141.12,717.18 L140.93,718.71 L140.67,720.85 L140.56,721.75 L140.3,723.9 L140.19,724.8 L139.92,726.94 L136.92,751.38 C136.66,753.56 133.09,755.26 128.79,755.26 L113.32,755.26 C109.02,755.26 105.46,753.56 105.2,751.38 L102.2,726.94 L101.94,724.8 L101.83,723.9 L101.57,721.75 L101.46,720.85 L101.2,718.71 L101,717.18 C100.85,715.95 102.78,714.91 105.21,714.91 L136.89,714.91 C139.34,714.91 141.27,715.95 141.12,717.18 Z" id="Shape" fill="#65617D" fill-rule="nonzero"></path>
            <polygon id="Shape" fill="#9D9CB5" fill-rule="nonzero" points="140.93 718.7 140.67 720.85 101.47 720.85 101.2 718.7"></polygon>
            <polygon id="Shape" fill="#9D9CB5" fill-rule="nonzero" points="140.56 721.75 140.3 723.9 101.84 723.9 101.58 721.75"></polygon>
            <polygon id="Shape" fill="#9D9CB5" fill-rule="nonzero" points="140.19 724.79 139.92 726.94 102.21 726.94 101.95 724.79"></polygon>
            <path d="M590.84,461.79 C590.17,460.42 584.84,442.79 584.84,442.79 L574.57,416.72 C574.57,416.72 568.34,382.41 559.04,390.97 C549.74,399.53 564.04,420.07 564.04,420.07 C564.04,420.07 569.91,435.07 569.61,438.07 C569.31,441.07 572.88,452.07 572.88,452.07 L571.72,458.39 C570.21,458.29 569.23,458.29 569.23,458.29 C569.23,458.29 568.31,459.61 567.43,459.7 C567.280606,459.720335 567.128495,459.699592 566.99,459.64 C565.99,459.19 562.68,459.28 560.99,459.28 C559.420169,459.068346 557.900113,458.580845 556.5,457.84 C555.92,456.68 552.64,455.99 549.73,455.6 C547.52,450.1 544.41,444.75 543.98,439.01 C543.768372,437.447559 544.077664,435.858926 544.86,434.49 C545.054004,434.196724 545.274962,433.9222 545.52,433.67 C546.33,432.85 547.32,432.13 548.22,431.37 C548.67,430.99 549.08,430.6 549.47,430.2 C557.1,422.8 555.89,411.34 548.97,403.41 C540.97,394.24 504.89,374.51 493.97,391.41 C492.45,393.77 492.4,396.5 491.97,399.12 C490.881722,405.527919 487.876189,411.455304 483.35,416.12 C479.73,419.97 474.98,423.52 472.9,427.88 L472.83,427.72 C472.33421,428.665777 471.970807,429.675229 471.75,430.72 C470.7,436.03 474.28,441.14 476.16,446.31 C476.799738,448.066082 477.262043,449.881804 477.54,451.73 L477.66,450.59 C478.120525,453.2301 478.278212,455.914137 478.13,458.59 C465.03,461.27 465.02,483.85 465.02,483.85 C465.02,483.85 463.41,492.85 463.68,496.06 C463.95,499.27 463.95,506.29 463.95,508 C463.95,509.71 462.33,520.21 462.15,521.47 C461.92,522.86 459.46,529.52 465.4,531.02 C465.81,531.13 466.25,531.22 466.7,531.3 C466.95,536.69 467.42,548 467.01,550.5 C467.01,550.5 469.17,565.68 470.96,569.5 C472.109572,571.758663 473.447651,573.916315 474.96,575.95 C474.833158,576.871836 474.523794,577.759132 474.05,578.56 C473.14,579.89 473.61,580.98 475.14,581.45 C475.093333,581.91 475.033333,582.43 474.96,583.01 C474.31,588.87 473.33,600.5 474.96,606.4 C477.25,614.48 477.38,617.17 477.38,617.17 C477.378768,618.484818 477.701623,619.779673 478.32,620.94 C479.32,622.29 481.02,634.81 481.02,636.83 C481.02,638.85 485.6,657.03 484.25,661.34 C482.9,665.65 483.98,671.71 483.98,671.71 C483.98,671.71 483.17,682.35 482.23,684.64 C481.29,686.93 480.88,723.83 482.36,733.39 C483.84,742.95 484.79,750.9 484.79,750.9 C484.79,750.9 483.79,759.65 484.65,760.9 C485.51,762.15 486.94,769.39 485.86,769.79 C484.78,770.19 484.25,773.16 484.25,773.16 C484.81894,774.028322 485.43312,774.866144 486.09,775.67 C485.672443,775.523421 485.264908,775.349718 484.87,775.15 C485.3,775.76 485.94,776.6 486.72,777.52 L485.99,787.2 C485.925084,787.982618 486.430829,788.69909 487.19,788.9 C492.007761,790.221566 497.161007,788.761865 500.57,785.11 C507.3,778.24 509.57,779.19 510.81,775.01 C510.93,774.56 511.05,774.13 511.14,773.71 C511.51831,772.065867 510.916418,770.35082 509.593614,769.303689 C508.27081,768.256559 506.463399,768.064402 504.95,768.81 C505.38,765.81 505.72,762.52 505.39,760.63 C504.72,756.73 504.85,746.49 504.85,746.49 L503.91,697.49 C503.91,697.49 505.66,687.8 507.68,684.03 C509.7,680.26 509.43,667.03 509.43,667.03 L511.72,623.66 L514,602.66 C514,602.66 516.15,595.39 518.84,603.47 C518.84,603.47 517.36,619.76 518.04,623.67 C518.72,627.58 519.65,646.56 518.98,650.74 C518.31,654.92 515.34,677.81 517.23,683.6 C519.12,689.39 521.13,696.39 520.73,698.68 C520.33,700.97 518.98,750.68 518.98,750.68 C518.98,750.68 522.61,760.24 519.92,763.34 C517.23,766.44 519.79,778.83 519.79,778.83 C519.79,778.83 520.11,779.06 520.67,779.39 L520.59,780.39 L519.75,791.53 C519.689213,792.311488 520.193277,793.025579 520.95,793.23 C525.76774,794.54691 530.918582,793.08789 534.33,789.44 C541.06,782.57 543.33,783.51 544.57,779.34 C544.69,778.89 544.81,778.45 544.91,778.03 C545.326569,776.201908 544.533356,774.311418 542.93708,773.327877 C541.340804,772.344336 539.295542,772.485907 537.85,773.68 C537.804781,773.72856 537.754494,773.772142 537.7,773.81 C537.53,773.96 537.35,774.09 537.17,774.22 L536.91,774.39 C537.58,771.31 538.56,766.06 538.1,763.58 C537.43,759.94 538.77,748.9 538.77,748.9 C538.77,748.9 542.68,735.7 542.77,730.45 C542.86,725.2 543.85,688.45 543.85,688.45 C543.85,688.45 543.72,671.35 544.26,667.18 C544.8,663.01 549.1,626.91 553.41,616.18 C556.72,607.92 558.2,586.87 557.32,576.18 C557.27,575.64 557.22,575.18 557.17,574.66 C562.44,570.7 563,564.18 563,564.18 C563,564.18 558.15,554.84 553.48,550.89 C548.81,546.94 547.73,540.12 547.91,537.24 C547.992353,535.482801 547.418519,533.757735 546.3,532.4 C546.3,532.4 544.14,525.4 542.7,524.68 C542.581843,524.621238 542.476486,524.53967 542.39,524.44 C541.39,523.38 542.16,520.37 542.16,520.37 L542.16,520.28 C542.32,519.58 543.37,515.06 543.03,513.9 C542.69,512.74 543.21,506.72 543.21,506.72 C543.21,506.72 546.63,496.49 546.09,488.41 C545.55,480.33 553.09,481.04 553.09,481.04 L576.38,480.8 L579.03,480.8 C580.147617,479.84631 581.15399,478.769491 582.03,477.59 C583.848024,477.931564 585.725027,477.472336 587.18,476.33 C592.12,471.81 591.51,463.18 590.84,461.79 Z M482.53,531.79 L482.7,527.69 L483.61,528.47 C483.887743,529.545694 483.887743,530.674306 483.61,531.75 C483.324339,532.774379 482.588431,533.613315 481.61,534.03 C481.494428,534.087006 481.384015,534.153924 481.28,534.23 L481.05,531.89 C482,531.83 482.53,531.78 482.53,531.78 L482.53,531.79 Z" id="Shape" fill="#000000" fill-rule="nonzero" opacity="0.1"></path>
            <path d="M569.9,469.74 C569.9,469.74 583.16,478.27 588.18,473.74 C593.2,469.21 592.58,460.47 591.9,459.09 C591.22,457.71 585.82,439.96 585.82,439.96 L575.39,413.68 C575.39,413.68 569.05,379.09 559.59,387.68 C550.13,396.27 564.69,417.01 564.69,417.01 C564.69,417.01 570.69,432.14 570.35,435.17 C570.01,438.2 573.67,449.3 573.67,449.3 L569.9,469.74 Z" id="Shape" fill="url(#linearGradient-1)" fill-rule="nonzero"></path>
            <path d="M545.17,777.91 C545.07,778.34 544.96,778.78 544.82,779.23 C543.59,783.44 541.26,782.49 534.42,789.41 C530.939648,793.096629 525.71092,794.565287 520.82,793.23 C520.053752,793.029401 519.540369,792.309823 519.6,791.52 L520.46,780.29 L520.87,774.88 C520.87,774.88 531.76,777.94 537.31,774.07 C537.49,773.94 537.67,773.81 537.84,773.66 L538,773.53 C539.463576,772.331133 541.525182,772.188739 543.139684,773.175004 C544.754186,774.161269 545.568577,776.060548 545.17,777.91 L545.17,777.91 Z" id="Shape" fill="url(#linearGradient-2)" fill-rule="nonzero"></path>
            <path d="M511,773.67 C510.91,774.1 510.79,774.54 510.66,774.99 C509.43,779.2 507.1,778.25 500.26,785.17 C496.777062,788.852385 491.552726,790.32365 486.66,789 C485.887292,788.802364 485.371087,788.074599 485.44,787.28 L486.29,776.05 L486.71,770.64 C486.71,770.64 497.6,773.7 503.14,769.83 C503.33,769.7 503.5,769.57 503.68,769.42 L503.84,769.29 C505.301246,768.085869 507.365336,767.940909 508.98054,768.92898 C510.595744,769.917052 511.406621,771.820722 511,773.67 L511,773.67 Z" id="Shape" fill="url(#linearGradient-3)" fill-rule="nonzero"></path>
            <g id="Group" opacity="0.1" transform="translate(484.000000, 775.000000)" fill-rule="nonzero" fill="url(#linearGradient-4)">
                <path d="M15.72,0.36 L16.17,6.19 C9.91,12.39 2.47,3.19 0.27,0.13 C6,3.07 15.72,0.36 15.72,0.36 Z" id="Shape"></path>
            </g>
            <g id="Group" opacity="0.1" transform="translate(520.000000, 774.000000)" fill-rule="nonzero" fill="url(#linearGradient-5)">
                <path d="M16.47,3.73 L17.3,3.19 C11.58,11.81 3.1,7.83 0.46,6.29 L0.87,0.88 C0.87,0.88 11.76,3.94 17.31,0.07 C16.87,2.18 16.47,3.73 16.47,3.73 Z" id="Shape"></path>
            </g>
            <path d="M553.86,614.67 C549.48,625.53 545.1,661.92 544.55,666.13 C544,670.34 544.14,687.58 544.14,687.58 L543,729.94 C542.87,735.24 538.9,748.54 538.9,748.54 C538.9,748.54 537.53,759.68 538.21,763.34 C538.89,767 536.43,776.65 536.43,776.65 L537.26,776.11 C530.41,786.42 519.6,778.68 519.6,778.68 C519.6,778.68 517,766.19 519.73,763.07 C522.46,759.95 518.78,750.31 518.78,750.31 C518.78,750.31 520.14,700.21 520.56,697.9 C520.98,695.59 519,688.53 517,682.69 C515,676.85 518.09,653.77 518.78,649.56 C519.47,645.35 518.5,626.21 517.78,622.27 C517.06,618.33 518.6,601.9 518.6,601.9 C515.86,593.76 513.67,601.09 513.67,601.09 L511.48,622.41 L509.23,666.18 C509.23,666.18 509.51,679.48 507.45,683.28 C505.39,687.08 503.62,696.86 503.62,696.86 L504.62,746.28 C504.62,746.28 504.48,756.6 505.17,760.54 C505.86,764.48 503.66,774.66 503.66,774.66 C496,792.58 483.66,773.17 483.66,773.17 C483.66,773.17 484.2,770.17 485.3,769.77 C486.4,769.37 484.89,762.03 484.07,760.77 C483.25,759.51 484.2,750.77 484.2,750.77 C484.2,750.77 483.25,742.77 481.74,733.11 C480.23,723.45 480.65,686.27 481.6,683.96 C482.55,681.65 483.38,670.96 483.38,670.96 C483.38,670.96 482.29,664.85 483.66,660.5 C485.03,656.15 480.37,637.83 480.37,635.79 C480.37,633.75 478.59,621.13 477.63,619.79 C476.985937,618.626166 476.642237,617.320104 476.63,615.99 C476.63,615.99 476.49,613.27 474.16,605.13 C472.46,599.13 473.46,587.45 474.16,581.55 C474.4,579.36 474.6,577.97 474.6,577.97 C474.6,577.97 553.17,565.34 556.32,568.2 C557.06,568.86 557.55,571.2 557.83,574.46 C558.72,585.12 557.21,606.35 553.86,614.67 Z" id="Shape" fill="url(#linearGradient-6)" fill-rule="nonzero"></path>
            <g id="Group" opacity="0.1" transform="translate(524.000000, 675.000000)" fill-rule="nonzero" fill="url(#linearGradient-7)">
                <path d="M0.15,0.72 C0.52,0.72 9.15,1.45 12.38,0.81 C15.61,0.17 0.15,0.72 0.15,0.72 Z" id="Shape"></path>
            </g>
            <g id="Group" opacity="0.1" transform="translate(524.000000, 680.000000)" fill-rule="nonzero" fill="url(#linearGradient-8)">
                <path d="M0.79,0.79 C0.79,0.79 12.79,2.87 13.39,1.79 C13.99,0.71 0.79,0.79 0.79,0.79 Z" id="Shape"></path>
            </g>
            <g id="Group" opacity="0.1" transform="translate(488.000000, 678.000000)" fill-rule="nonzero" fill="url(#linearGradient-9)">
                <path d="M0.2,0.62 C0.2,0.62 6.4,0.89 9.78,2.43 C13.16,3.97 0.2,0.62 0.2,0.62 Z" id="Shape"></path>
            </g>
            <path d="M465.66,526.37 C465.66,526.37 466.66,545.29 466.12,548.63 C466.12,548.63 468.31,563.93 470.12,567.82 C471.753039,570.922894 473.678432,573.862885 475.87,576.6 L481.25,539.04 L480,526.18 L465.66,526.37 Z" id="Shape" fill="url(#linearGradient-10)" fill-rule="nonzero"></path>
            <ellipse id="Oval" fill="url(#linearGradient-11)" fill-rule="nonzero" cx="522.24" cy="419.28" rx="21.08" ry="20.91"></ellipse>
            <path d="M511.29,429.06 C511.29,429.06 504.72,441.82 498.15,447.8 C491.58,453.78 537.57,460.56 538.66,460.56 C539.75,460.56 530.45,433.41 532.09,430.15 C533.73,426.89 511.29,429.06 511.29,429.06 Z" id="Shape" fill="url(#linearGradient-12)" fill-rule="nonzero"></path>
            <g id="Group" opacity="0.1" transform="translate(474.000000, 567.000000)" fill-rule="nonzero" fill="url(#linearGradient-13)">
                <path d="M83.83,7.36 C82.7982012,8.14380311 81.6601298,8.77681324 80.45,9.24 C72.06,12.5 62.93,17.03 56.72,15.24 C50.51,13.45 37.38,15.24 37.38,15.24 C37.38,15.24 10.91,13.06 5.62,14.33 C3.84607944,14.8691357 1.95921934,14.9175167 0.16,14.47 C0.4,12.28 0.6,10.89 0.6,10.89 C0.6,10.89 79.17,-1.74 82.32,1.12 C83.06,1.76 83.55,4.07 83.83,7.36 Z" id="Shape"></path>
            </g>
            <path d="M563.58,562.3 C563.58,562.3 562.85,571.3 554.45,574.61 C546.05,577.92 536.93,582.4 530.72,580.61 C524.51,578.82 511.38,580.61 511.38,580.61 C511.38,580.61 484.91,578.43 479.62,579.7 C474.33,580.97 471.62,579.34 473.23,576.98 C474.84,574.62 474.7,566.85 474.7,563.59 C474.7,560.33 472.87,547.11 474.51,544.76 C476.15,542.41 477.61,533.36 480.9,531.91 C481.89775,531.495264 482.652301,530.648695 482.95,529.61 C483.237002,528.525331 483.237002,527.384669 482.95,526.3 C482.95,526.3 482.4,525.85 481.63,525.17 C479.7,523.46 476.42,520.28 477.47,519.24 C478.93,517.79 477.47,508.37 477.47,508.37 C477.47,508.37 474,501.13 475.28,498.42 C476.56,495.71 464.15,481.42 464.15,481.42 C464.15,481.42 464.15,456.8 479.15,455.71 C479.15,455.71 489.73,456.08 491.01,451.37 C492.29,446.66 500.68,443.94 500.68,443.94 L519.84,448.11 C519.84,448.11 536.84,451.73 539.92,449.56 C543,447.39 545.4,452.45 545.4,452.45 C545.4,452.45 555.98,453 557.08,455.17 C558.18,457.34 553.61,478.52 553.61,478.52 C553.61,478.52 545.94,477.8 546.49,485.95 C547.04,494.1 543.57,504.41 543.57,504.41 C543.57,504.41 543.02,510.41 543.39,511.65 C543.76,512.89 542.67,517.37 542.5,518.08 L542.5,518.17 C542.5,518.17 541.74,521.17 542.73,522.28 C542.825395,522.374019 542.933031,522.454746 543.05,522.52 C544.51,523.24 546.7,530.3 546.7,530.3 C547.841318,531.666779 548.429909,533.41115 548.35,535.19 C548.17,538.09 549.26,544.96 554,548.95 C558.74,552.94 563.58,562.3 563.58,562.3 Z" id="Shape" fill="url(#linearGradient-14)" fill-rule="nonzero"></path>
            <path d="M482.17,520.39 L482.17,521.16 L481.83,529.63 C481.83,529.63 470.61,530.53 464.49,528.99 C458.37,527.45 460.96,520.76 461.2,519.36 C461.2,519.36 461.2,519.36 461.2,519.36 C461.38,518.09 463.02,507.5 463.02,505.78 C463.02,504.06 463.02,497 462.75,493.78 C462.48,490.56 464.12,481.47 464.12,481.47 L465.3,480.02 L478.17,484.91 L482.17,520.39 Z" id="Shape" fill="url(#linearGradient-15)" fill-rule="nonzero"></path>
            <g id="Group" opacity="0.1" transform="translate(460.000000, 519.000000)" fill-rule="nonzero" fill="url(#linearGradient-16)">
                <path d="M22.15,2.18 L21.81,10.65 C21.81,10.65 10.59,11.55 4.47,10.01 C-1.65,8.47 0.94,1.78 1.18,0.38 L22.15,2.18 Z" id="Shape"></path>
            </g>
            <g id="Group" opacity="0.1" transform="translate(481.000000, 518.000000)" fill-rule="nonzero" fill="url(#linearGradient-17)">
                <path d="M2,11.59 C2.2870024,10.5053307 2.2870024,9.36466935 2,8.28 C2,8.28 1.45,7.83 0.68,7.15 C10.35,5.82 48.62,0.6 61.52,0.04 L61.52,0.13 C61.52,0.13 60.76,3.13 61.75,4.24 L2,11.59 Z" id="Shape"></path>
            </g>
            <g id="Group" opacity="0.1" transform="translate(537.000000, 536.000000)" fill-rule="nonzero" fill="url(#linearGradient-18)">
                <path d="M6.87,0.18 C6.87,0.18 9.24,13.49 0.39,18.18 C0.39,18.18 5.41,11.55 6.87,0.18 Z" id="Shape"></path>
            </g>
            <g id="Group" opacity="0.1" transform="translate(485.000000, 552.000000)" fill-rule="nonzero" fill="url(#linearGradient-19)">
                <path d="M0.92,2.52 C0.92,2.52 22.27,-1.1 26.47,1.7 C30.67,4.5 0.92,2.52 0.92,2.52 Z" id="Shape"></path>
            </g>
            <g id="Group" opacity="0.1" transform="translate(534.000000, 472.000000)" fill-rule="nonzero" fill="url(#linearGradient-20)">
                <path d="M2.47,0.06 C2.47,0.06 -0.81,13.45 1.65,16.53 C4.11,19.61 2.47,0.06 2.47,0.06 Z" id="Shape"></path>
            </g>
            <g id="Group" opacity="0.1" transform="translate(474.000000, 461.000000)" fill-rule="nonzero" fill="url(#linearGradient-21)">
                <path d="M0.6,0.1 C0.6,0.1 3.6,5.1 1.79,10.24 C-0.02,15.38 0.6,0.1 0.6,0.1 Z" id="Shape"></path>
            </g>
            <path d="M468.4,504.73 C468.4,504.73 472.23,507 470.95,510.53 C469.67,514.06 468.4,504.73 468.4,504.73 Z" id="Shape" fill="url(#linearGradient-22)" fill-rule="nonzero"></path>
            <g id="Group" opacity="0.1" transform="translate(468.000000, 494.000000)" fill-rule="nonzero" fill="url(#linearGradient-23)">
                <path d="M0,0.41 C0,0.41 3.56,2.32 4,5.12 C4.44,7.92 0,0.41 0,0.41 Z" id="Shape"></path>
            </g>
            <g id="Group" opacity="0.1" transform="translate(520.000000, 599.000000)" fill-rule="nonzero" fill="url(#linearGradient-24)">
                <path d="M0.78,3.67 C0.78,3.67 23.14,5.94 27.61,0.67 C27.61,0.69 7.44,4.67 0.78,3.67 Z" id="Shape"></path>
            </g>
            <g id="Group" opacity="0.1" transform="translate(482.000000, 601.000000)" fill-rule="nonzero" fill="url(#linearGradient-25)">
                <path d="M0.18,0.41 C0.18,0.41 24.18,6.02 28.92,1.58 C28.92,1.58 8.3,3.12 0.18,0.41 Z" id="Shape"></path>
            </g>
            <g id="Group" opacity="0.1" transform="translate(522.000000, 610.000000)" fill-rule="nonzero" fill="url(#linearGradient-26)">
                <path d="M0.51,0.01 C0.51,0.01 10.51,0.01 15.2,0.28 C19.89,0.55 0.51,0.01 0.51,0.01 Z" id="Shape"></path>
            </g>
            <g id="Group" opacity="0.1" transform="translate(483.000000, 614.000000)" fill-rule="nonzero" fill="url(#linearGradient-27)">
                <path d="M0.82,0.26 C0.82,0.26 5.75,5.78 11.31,4.79 C16.87,3.8 0.82,0.26 0.82,0.26 Z" id="Shape"></path>
            </g>
            <path d="M493.5,388.18 C491.95,390.56 491.9,393.31 491.5,395.95 C490.398246,402.438232 487.342042,408.43551 482.74,413.14 C478.36,417.76 472.35,421.94 471.22,427.58 C470.15,432.94 473.79,438.09 475.7,443.3 C480.7,457.05 473.7,471.46 471.65,485.65 C471.09,489.57 471.77,494.58 476.65,495.88 C478.17,496.29 479.91,496.24 481.27,496.88 C483.11,497.75 483.67,499.56 484.01,501.19 C485.228227,507.016044 485.648744,512.980662 485.26,518.92 C485.04,522.26 484.8,526.09 487.97,528.38 C489.587132,529.377742 491.367838,530.0819 493.23,530.46 C498.23,531.8 504.7,532.87 508.07,529.74 C509.49,528.43 510.07,526.57 511.78,525.53 C514.42,523.98 518.17,525.03 521.5,525.19 C527.908481,525.464682 533.961516,522.240991 537.31,516.77 C540,511.96 539.77,506.48 538.77,501.3 C537.77,496.12 536.05,491 535.92,485.76 C535.764585,483.923959 536.176466,482.084455 537.1,480.49 C539.1,477.37 543.87,475.95 547.1,473.49 C553.16,468.89 553.1,461.35 550.94,455.04 C548.78,448.73 544.78,442.7 544.29,436.18 C544.074566,434.602209 544.39126,432.997625 545.19,431.62 C546.248616,430.311572 547.487648,429.16008 548.87,428.2 C557.72,420.79 556.68,408.61 549.36,400.28 C541.24,391.01 504.55,371.11 493.5,388.18 Z" id="Shape" fill="url(#linearGradient-28)" fill-rule="nonzero"></path>
            <g id="Group" opacity="0.1" transform="translate(470.000000, 409.000000)" fill-rule="nonzero">
                <path d="M6.82,39.99 C7.69064981,34.5179057 7.21352959,28.9160337 5.43,23.67 C4.43,21.04 3.06,18.42 2.05,15.79 C1.5417109,16.7322307 1.17126845,17.7425284 0.95,18.79 C-0.13,24.14 3.52,29.29 5.43,34.51 C6.07432101,36.2859268 6.53995765,38.1216741 6.82,39.99 L6.82,39.99 Z" id="Shape" fill="url(#linearGradient-29)"></path>
                <path d="M15,99.29 C15.3900764,93.3501953 14.9661501,87.384946 13.74,81.56 C13.4,79.93 12.84,78.12 11.01,77.25 C9.64,76.6 7.9,76.65 6.38,76.25 C4.49846163,75.7982293 2.92823364,74.5081359 2.12,72.75 C1.85,74.13 1.6,75.51 1.4,76.88 C0.83,80.8 1.51,85.81 6.4,87.11 C7.92,87.52 9.66,87.47 11.03,88.11 C12.86,88.98 13.42,90.79 13.76,92.42 C14.3265036,95.1222339 14.7206319,97.8577515 14.94,100.61 C14.92,100.18 15,99.73 15,99.29 Z" id="Shape" fill="url(#linearGradient-30)"></path>
                <path d="M67,97.18 C63.6548002,102.649384 57.6054597,105.873147 51.2,105.6 C47.87,105.44 44.12,104.39 41.48,105.94 C39.72,106.94 39.18,108.84 37.77,110.15 C34.4,113.28 27.93,112.21 22.93,110.87 C21.067054,110.494547 19.2858936,109.79021 17.67,108.79 C16.2893844,107.792582 15.3585353,106.290285 15.08,104.61 C15.08,106.47 15.08,108.34 14.96,110.2 C14.74,113.53 14.5,117.36 17.67,119.65 C19.2858936,120.65021 21.067054,121.354547 22.93,121.73 C27.93,123.08 34.4,124.14 37.77,121.01 C39.18,119.7 39.77,117.85 41.48,116.81 C44.12,115.25 47.87,116.3 51.2,116.47 C57.6084922,116.7454 63.6603756,113.516452 67,108.04 C69.59,103.42 69.48,98.18 68.58,93.18 C68.2336734,94.5777005 67.7023139,95.9229145 67,97.18 Z" id="Shape" fill="url(#linearGradient-31)"></path>
                <path d="M78.59,8.58 C77.2046198,9.53996604 75.9622686,10.6914135 74.9,12 C74.1054388,13.3790876 73.7923264,14.983349 74.01,16.56 C74.1798641,18.5416493 74.5998685,20.4938299 75.26,22.37 C76.280996,21.2965995 77.3953809,20.3160747 78.59,19.44 C84.59,14.44 86.03,7.24 84.09,0.53 C83.0627572,3.68336956 81.1542363,6.4767502 78.59,8.58 L78.59,8.58 Z" id="Shape" fill="url(#linearGradient-32)"></path>
                <path d="M76.82,53.87 C73.58,56.32 68.82,57.74 66.82,60.87 C65.8921836,62.4627781 65.4799962,64.3036492 65.64,66.14 C65.7154748,68.2587526 65.9764731,70.3668158 66.42,72.44 C66.5397076,72.1959111 66.6732584,71.9588585 66.82,71.73 C68.82,68.62 73.58,67.19 76.82,64.73 C82.35,60.53 82.82,53.88 81.18,47.95 C80.3437518,50.3109033 78.8265256,52.3709902 76.82,53.87 L76.82,53.87 Z" id="Shape" fill="url(#linearGradient-33)"></path>
            </g>
            <path d="M588.49,465.09 C584.75,474.5 579.91,478.21 579.91,478.21 L577.22,478.21 L553.54,478.45 L550.8,471.03 L554.64,455.03 L557,455.18 C558.423171,455.927091 559.966709,456.417909 561.56,456.63 C563.29,456.63 566.67,456.54 567.67,456.99 C567.810899,457.053597 567.96736,457.074459 568.12,457.05 C569.01,456.96 569.96,455.63 569.96,455.63 C569.96,455.63 592.23,455.67 588.49,465.09 Z" id="Shape" fill="url(#linearGradient-34)" fill-rule="nonzero"></path>
            <g id="Group" opacity="0.1" transform="translate(568.000000, 455.000000)" fill-rule="nonzero" fill="url(#linearGradient-35)">
                <path d="M20.49,10.09 C16.75,19.5 11.91,23.21 11.91,23.21 L9.22,23.21 C10.62,19.48 13.58,11.82 14.74,10.06 C15.9,8.3 5.93,4.22 0.13,1.97 C1.02,1.88 1.97,0.55 1.97,0.55 C1.97,0.55 24.23,0.67 20.49,10.09 Z" id="Shape"></path>
            </g>
            <path d="M569.2,472.38 C569.2,472.38 582.2,480.84 587.2,476.32 C592.2,471.8 591.53,463.16 590.86,461.79 C590.19,460.42 584.86,442.79 584.86,442.79 L574.59,416.72 C574.59,416.72 568.36,382.41 559.06,390.97 C549.76,399.53 564.06,420.07 564.06,420.07 C564.06,420.07 569.93,435.07 569.63,438.07 C569.33,441.07 572.9,452.07 572.9,452.07 L569.2,472.38 Z" id="Shape" fill="#876127" fill-rule="nonzero"></path>
            <path d="M544.87,778.04 C544.77,778.46 544.65,778.9 544.53,779.35 C543.31,783.52 541.02,782.58 534.29,789.45 C530.878582,793.09789 525.72774,794.55691 520.91,793.24 C520.153277,793.035579 519.649213,792.321488 519.71,791.54 L520.55,780.4 L520.96,775.04 C520.96,775.04 531.68,778.04 537.13,774.23 C537.31,774.1 537.49,773.97 537.66,773.82 C537.714494,773.782142 537.764781,773.73856 537.81,773.69 C539.255542,772.495907 541.300804,772.354336 542.89708,773.337877 C544.493356,774.321418 545.286569,776.211908 544.87,778.04 L544.87,778.04 Z" id="Shape" fill="#3AAA96" fill-rule="nonzero"></path>
            <path d="M511.22,773.84 C511.13,774.26 511.01,774.69 510.89,775.14 C509.67,779.32 507.38,778.37 500.65,785.24 C497.241007,788.891865 492.087761,790.351566 487.27,789.03 C486.510829,788.82909 486.005084,788.112618 486.07,787.33 L486.91,776.19 L487.32,770.83 C487.32,770.83 498.04,773.83 503.49,770.02 C503.673752,769.896324 503.850678,769.762795 504.02,769.62 L504.17,769.48 C505.61746,768.291152 507.660698,768.15431 509.253762,769.139525 C510.846826,770.124739 511.637086,772.013928 511.22,773.84 L511.22,773.84 Z" id="Shape" fill="#3AAA96" fill-rule="nonzero"></path>
            <path d="M500.15,775.51 L500.59,781.3 C494.44,787.44 487.11,778.3 484.95,775.3 C490.61,778.18 500.15,775.51 500.15,775.51 Z" id="Shape" fill="#000000" fill-rule="nonzero" opacity="0.1"></path>
            <path d="M536.31,777.86 L537.12,777.33 C531.5,785.87 523.12,781.93 520.55,780.4 L520.96,775.04 C520.96,775.04 531.68,778.04 537.13,774.23 C536.7,776.32 536.31,777.86 536.31,777.86 Z" id="Shape" fill="#000000" fill-rule="nonzero" opacity="0.1"></path>
            <path d="M553.41,616.18 C549.1,626.95 544.79,663.04 544.26,667.18 C543.73,671.32 543.85,688.45 543.85,688.45 L542.77,730.45 C542.64,735.7 538.77,748.9 538.77,748.9 C538.77,748.9 537.43,759.9 538.1,763.58 C538.77,767.26 536.35,776.78 536.35,776.78 L537.16,776.24 C530.43,786.47 519.79,778.8 519.79,778.8 C519.79,778.8 517.23,766.41 519.92,763.31 C522.61,760.21 518.98,750.65 518.98,750.65 C518.98,750.65 520.33,700.96 520.73,698.65 C521.13,696.34 519.11,689.36 517.23,683.57 C515.35,677.78 518.31,654.88 518.98,650.71 C519.65,646.54 518.71,627.54 518.04,623.64 C517.37,619.74 518.84,603.44 518.84,603.44 C516.15,595.36 514,602.63 514,602.63 L511.84,623.77 L509.51,667.18 C509.51,667.18 509.78,680.37 507.76,684.18 C505.74,687.99 504,697.6 504,697.6 L504.94,746.6 C504.94,746.6 504.81,756.84 505.48,760.74 C506.15,764.64 504,774.74 504,774.74 C496.46,792.51 484.34,773.26 484.34,773.26 C484.34,773.26 484.88,770.26 485.95,769.89 C487.02,769.52 485.55,762.21 484.74,761 C483.93,759.79 484.88,751 484.88,751 C484.88,751 483.88,743.05 482.45,733.49 C481.02,723.93 481.38,687.03 482.32,684.74 C483.26,682.45 484.07,671.81 484.07,671.81 C484.07,671.81 482.99,665.75 484.34,661.44 C485.69,657.13 481.11,638.95 481.11,636.93 C481.11,634.91 479.36,622.39 478.41,621.04 C477.791623,619.879673 477.468768,618.584818 477.47,617.27 C477.47,617.27 477.34,614.58 475.05,606.5 C473.38,600.6 474.36,588.97 475.05,583.11 C475.29,580.94 475.49,579.56 475.49,579.56 C475.49,579.56 552.79,567.04 555.89,569.87 C556.61,570.53 557.1,572.87 557.37,576.08 C558.2,586.82 556.72,607.87 553.41,616.18 Z" id="Shape" fill="#444053" fill-rule="nonzero"></path>
            <path d="M524.19,676.68 C524.55,676.68 533.08,677.4 536.19,676.77 C539.3,676.14 524.19,676.68 524.19,676.68 Z" id="Shape" fill="#000000" fill-rule="nonzero" opacity="0.1"></path>
            <path d="M524.82,681.71 C524.82,681.71 536.58,683.78 537.21,682.71 C537.84,681.64 524.82,681.71 524.82,681.71 Z" id="Shape" fill="#000000" fill-rule="nonzero" opacity="0.1"></path>
            <path d="M488.82,679.56 C488.82,679.56 494.92,679.83 498.24,681.35 C501.56,682.87 488.82,679.56 488.82,679.56 Z" id="Shape" fill="#000000" fill-rule="nonzero" opacity="0.1"></path>
            <path d="M466.64,528.55 C466.64,528.55 467.64,547.31 467.09,550.63 C467.09,550.63 469.25,565.81 471.04,569.63 C472.648023,572.70518 474.543118,575.621484 476.7,578.34 L482,541.12 L480.75,528.37 L466.64,528.55 Z" id="Shape" fill="#876127" fill-rule="nonzero"></path>
            <circle id="Oval" fill="#EFB7B9" fill-rule="nonzero" cx="522.31" cy="422.34" r="20.74"></circle>
            <path d="M511.53,432.04 C511.53,432.04 505.07,444.69 498.6,450.62 C492.13,456.55 537.39,463.28 538.47,463.28 C539.55,463.28 530.39,436.34 532,433.11 C533.61,429.88 511.53,432.04 511.53,432.04 Z" id="Shape" fill="#EFB7B9" fill-rule="nonzero"></path>
            <path d="M557.32,576.18 C556.30694,576.956602 555.189224,577.586159 554,578.05 C545.74,581.28 536.76,585.77 530.65,583.97 C524.54,582.17 511.65,583.97 511.65,583.97 C511.65,583.97 485.65,581.82 480.41,583.07 C478.650477,583.599565 476.779595,583.637605 475,583.18 C475.24,581.01 475.44,579.63 475.44,579.63 C475.44,579.63 552.74,567.11 555.84,569.94 C556.56,570.6 557.05,572.89 557.32,576.18 Z" id="Shape" fill="#000000" fill-rule="nonzero" opacity="0.1"></path>
            <path d="M563,564.18 C563,564.18 562.28,573.18 554,576.39 C545.72,579.6 536.76,584.11 530.65,582.32 C524.54,580.53 511.65,582.32 511.65,582.32 C511.65,582.32 485.65,580.16 480.41,581.42 C475.17,582.68 472.51,581.06 474.12,578.72 C475.73,576.38 475.56,568.72 475.56,565.44 C475.56,562.16 473.76,549.1 475.38,546.76 C477,544.42 478.38,535.45 481.67,534.01 C482.648431,533.593315 483.384339,532.754379 483.67,531.73 C483.947743,530.654306 483.947743,529.525694 483.67,528.45 C483.67,528.45 483.13,528 482.37,527.33 C480.47,525.63 477.25,522.48 478.29,521.45 C479.72,520.01 478.29,510.67 478.29,510.67 C478.29,510.67 474.87,503.49 476.13,500.8 C477.39,498.11 465.13,483.92 465.13,483.92 C465.13,483.92 465.13,459.5 479.86,458.42 C479.86,458.42 490.27,458.78 491.53,454.11 C492.79,449.44 501.05,446.75 501.05,446.75 L519.9,450.88 C519.9,450.88 536.6,454.47 539.65,452.32 C542.7,450.17 545,455.18 545,455.18 C545,455.18 555.41,455.72 556.49,457.87 C557.57,460.02 553.08,481.03 553.08,481.03 C553.08,481.03 545.54,480.32 546.08,488.4 C546.62,496.48 543.2,506.71 543.2,506.71 C543.2,506.71 542.66,512.64 543.02,513.89 C543.38,515.14 542.31,519.57 542.15,520.27 L542.15,520.36 C542.15,520.36 541.41,523.36 542.38,524.43 C542.466486,524.52967 542.571843,524.611238 542.69,524.67 C544.13,525.38 546.29,532.39 546.29,532.39 C547.408519,533.747735 547.982353,535.472801 547.9,537.23 C547.72,540.11 548.8,546.93 553.47,550.88 C558.14,554.83 563,564.18 563,564.18 Z" id="Shape" fill="#3AAA96" fill-rule="nonzero"></path>
            <path d="M482.89,522.62 L482.89,523.38 L482.56,531.78 C482.56,531.78 471.56,532.68 465.56,531.15 C459.56,529.62 462.08,522.99 462.31,521.6 C462.49,520.34 464.11,509.83 464.11,508.13 C464.11,506.43 464.11,499.42 463.84,496.19 C463.57,492.96 465.18,483.98 465.18,483.98 L466.35,482.54 L479.01,487.39 L482.89,522.62 Z" id="Shape" fill="#3AAA96" fill-rule="nonzero"></path>
            <path d="M482.86,523.38 L482.53,531.78 C482.53,531.78 471.53,532.68 465.53,531.15 C459.53,529.62 462.05,522.99 462.28,521.6 L482.86,523.38 Z" id="Shape" fill="#000000" fill-rule="nonzero" opacity="0.1"></path>
            <path d="M483.66,531.74 C483.937743,530.664306 483.937743,529.535694 483.66,528.46 C483.66,528.46 483.12,528.01 482.36,527.34 C491.88,526.02 529.53,520.85 542.22,520.34 L542.22,520.43 C542.22,520.43 541.48,523.43 542.45,524.5 L483.66,531.74 Z" id="Shape" fill="#000000" fill-rule="nonzero" opacity="0.1"></path>
            <path d="M543.58,538.24 C543.58,538.24 545.92,551.44 537.21,556.11 C537.21,556.11 542.15,549.56 543.58,538.24 Z" id="Shape" fill="#000000" fill-rule="nonzero" opacity="0.1"></path>
            <path d="M486.57,556.47 C486.57,556.47 507.57,552.88 511.71,555.66 C515.85,558.44 486.57,556.47 486.57,556.47 Z" id="Shape" fill="#000000" fill-rule="nonzero" opacity="0.1"></path>
            <path d="M536.31,474.68 C536.31,474.68 533.08,487.97 535.5,491.02 C537.92,494.07 536.31,474.68 536.31,474.68 Z" id="Shape" fill="#000000" fill-rule="nonzero" opacity="0.1"></path>
            <path d="M475.44,463.82 C475.44,463.82 478.44,468.75 476.61,473.87 C474.78,478.99 475.44,463.82 475.44,463.82 Z" id="Shape" fill="#000000" fill-rule="nonzero" opacity="0.1"></path>
            <path d="M469.34,507.09 C469.34,507.09 473.11,509.34 471.85,512.84 C470.59,516.34 469.34,507.09 469.34,507.09 Z" id="Shape" fill="#3AAA96" fill-rule="nonzero"></path>
            <path d="M469,496.86 C469,496.86 472.5,498.74 472.95,501.52 C473.4,504.3 469,496.86 469,496.86 Z" id="Shape" fill="#000000" fill-rule="nonzero" opacity="0.1"></path>
            <path d="M520.87,604.23 C520.87,604.23 542.87,606.48 547.26,601.23 C547.26,601.27 527.42,605.18 520.87,604.23 Z" id="Shape" fill="#000000" fill-rule="nonzero" opacity="0.1"></path>
            <path d="M482.89,602.97 C482.89,602.97 506.5,608.54 511.17,604.14 C511.17,604.18 490.88,605.67 482.89,602.97 Z" id="Shape" fill="#000000" fill-rule="nonzero" opacity="0.1"></path>
            <path d="M522.57,611.5 C522.57,611.5 532.45,611.5 537.03,611.77 C541.61,612.04 522.57,611.5 522.57,611.5 Z" id="Shape" fill="#000000" fill-rule="nonzero" opacity="0.1"></path>
            <path d="M484.51,615.72 C484.51,615.72 489.36,621.2 494.83,620.21 C500.3,619.22 484.51,615.72 484.51,615.72 Z" id="Shape" fill="#000000" fill-rule="nonzero" opacity="0.1"></path>
            <path d="M494,391.44 C492.48,393.8 492.43,396.53 492,399.15 C490.911722,405.557919 487.906189,411.485304 483.38,416.15 C479.08,420.73 473.17,424.88 472.05,430.47 C471,435.78 474.58,440.89 476.46,446.06 C481.46,459.69 474.46,473.99 472.46,488.06 C471.9,491.95 472.57,496.92 477.36,498.21 C478.86,498.61 480.57,498.56 481.92,499.21 C483.72,500.07 484.27,501.87 484.6,503.48 C485.804668,509.260587 486.221784,515.177577 485.84,521.07 C485.62,524.38 485.38,528.18 488.5,530.46 C490.093749,531.442644 491.846686,532.139758 493.68,532.52 C498.6,533.85 504.96,534.9 508.28,531.8 C509.67,530.5 510.19,528.66 511.93,527.63 C514.53,526.09 518.22,527.13 521.49,527.29 C527.80861,527.552405 533.768469,524.352094 537.04,518.94 C539.69,514.16 539.46,508.74 538.48,503.6 C537.5,498.46 535.8,493.38 535.68,488.18 C535.523102,486.362273 535.928008,484.540195 536.84,482.96 C538.84,479.86 543.49,478.45 546.68,476.02 C552.68,471.46 552.62,464.02 550.46,457.72 C548.3,451.42 544.39,445.48 543.91,439.01 C543.698372,437.447559 544.007664,435.858926 544.79,434.49 C545.869247,433.221971 547.117585,432.108225 548.5,431.18 C557.21,423.83 556.18,411.75 548.98,403.49 C541,394.29 504.9,374.56 494,391.44 Z" id="Shape" fill="#000000" fill-rule="nonzero"></path>
            <g id="Group" opacity="0.1" transform="translate(471.000000, 412.000000)" fill-rule="nonzero" fill="#000000">
                <path d="M6.63,39.8 C7.47848359,34.3708765 7.00510039,28.8171997 5.25,23.61 C4.31,21 2.93,18.41 1.92,15.8 C1.42421002,16.7457772 1.06080733,17.7552291 0.84,18.8 C-0.21,24.11 3.37,29.22 5.25,34.39 C5.88909361,36.1428527 6.35139129,37.9551936 6.63,39.8 L6.63,39.8 Z" id="Shape"></path>
                <path d="M14.65,98.62 C15.0317843,92.7275766 14.6146685,86.8105871 13.41,81.03 C13.08,79.42 12.53,77.62 10.73,76.76 C9.38,76.11 7.67,76.16 6.17,75.76 C4.31745752,75.3024033 2.77479044,74.0248246 1.98,72.29 C1.71,73.65 1.47,75.02 1.27,76.38 C0.71,80.27 1.38,85.24 6.17,86.53 C7.67,86.93 9.38,86.88 10.73,87.53 C12.53,88.4 13.08,90.19 13.41,91.81 C13.9650037,94.4899358 14.3524216,97.2018606 14.57,99.93 C14.59,99.49 14.62,99.05 14.65,98.62 Z" id="Shape"></path>
                <path d="M65.85,96.49 C62.5800122,101.903718 56.6191106,105.104588 50.3,104.84 C47.03,104.68 43.3,103.64 40.74,105.18 C39.01,106.18 38.48,108.05 37.09,109.35 C33.77,112.45 27.41,111.4 22.49,110.07 C20.6573914,109.692571 18.9066964,108.991616 17.32,108 C15.9642221,107.00222 15.0468962,105.518731 14.76,103.86 C14.76,105.7 14.76,107.55 14.65,109.39 C14.43,112.7 14.19,116.5 17.32,118.78 C18.9097623,119.76341 20.6595599,120.460621 22.49,120.84 C27.41,122.17 33.77,123.22 37.09,120.13 C38.48,118.82 39.01,116.98 40.74,115.95 C43.34,114.41 47.03,115.45 50.3,115.61 C56.6191106,115.874588 62.5800122,112.673718 65.85,107.26 C68.4,102.67 68.29,97.48 67.4,92.52 C67.0596386,93.905571 66.5385021,95.2403529 65.85,96.49 Z" id="Shape"></path>
                <path d="M77.23,8.65 C75.8660063,9.60293677 74.6438674,10.7442731 73.6,12.04 C72.8176637,13.4089261 72.5083724,14.9975588 72.72,16.56 C72.8961834,18.5267498 73.3126178,20.464513 73.96,22.33 C74.9576151,21.2609136 76.0523107,20.2867349 77.23,19.42 C83.12,14.42 84.55,7.32 82.64,0.67 C81.6352912,3.79184079 79.7580304,6.56088725 77.23,8.65 Z" id="Shape"></path>
                <path d="M75.49,53.57 C72.3,56 67.65,57.41 65.65,60.5 C64.7414242,62.0851723 64.3368298,63.9093353 64.49,65.73 C64.5670765,67.8315505 64.8246918,69.9225836 65.26,71.98 C65.3702624,71.7362045 65.5007169,71.5020554 65.65,71.28 C67.65,68.18 72.3,66.77 75.49,64.34 C80.93,60.17 81.39,53.58 79.78,47.7 C78.9557444,50.0345855 77.4640234,52.0757048 75.49,53.57 Z" id="Shape"></path>
            </g>
            <path d="M587.49,467.77 C583.81,477.11 579.04,480.77 579.04,480.77 L576.39,480.77 L553.1,481.01 L550.41,473.65 L554.18,457.76 L556.51,457.85 C557.910113,458.590845 559.430169,459.078346 561,459.29 C562.71,459.29 566,459.2 567,459.65 C567.138495,459.709592 567.290606,459.730335 567.44,459.71 C568.32,459.62 569.24,458.3 569.24,458.3 C569.24,458.3 591.16,458.43 587.49,467.77 Z" id="Shape" fill="#3AAA96" fill-rule="nonzero"></path>
            <path d="M587.49,467.77 C583.81,477.11 579.04,480.77 579.04,480.77 L576.39,480.77 C577.78,477.07 580.69,469.48 581.83,467.77 C582.97,466.06 573.16,461.98 567.46,459.77 C568.34,459.68 569.26,458.36 569.26,458.36 C569.26,458.36 591.16,458.43 587.49,467.77 Z" id="Shape" fill="#000000" fill-rule="nonzero" opacity="0.1"></path>
        </g>
    </g>
</svg>