<?xml version="1.0" encoding="UTF-8"?>
<svg width="1000px" height="842px" viewBox="0 0 1000 842" version="1.1" xmlns="http://www.w3.org/2000/svg" xmlns:xlink="http://www.w3.org/1999/xlink">
    <!-- Generator: Sketch 46.2 (44496) - http://www.bohemiancoding.com/sketch -->
    <title>undraw_inbox_cleanup_w2ur</title>
    <desc>Created with Sketch.</desc>
    <defs>
        <linearGradient x1="50.0009118%" y1="100%" x2="50.0009118%" y2="0%" id="linearGradient-1">
            <stop stop-color="#808080" stop-opacity="0.25" offset="0%"></stop>
            <stop stop-color="#808080" stop-opacity="0.12" offset="54%"></stop>
            <stop stop-color="#808080" stop-opacity="0.1" offset="100%"></stop>
        </linearGradient>
        <linearGradient x1="57184%" y1="83311%" x2="57184%" y2="62890%" id="linearGradient-2">
            <stop stop-color="#808080" stop-opacity="0.25" offset="0%"></stop>
            <stop stop-color="#808080" stop-opacity="0.12" offset="54%"></stop>
            <stop stop-color="#808080" stop-opacity="0.1" offset="100%"></stop>
        </linearGradient>
    </defs>
    <g id="Page-1" stroke="none" stroke-width="1" fill="none" fill-rule="evenodd">
        <g id="undraw_inbox_cleanup_w2ur" transform="translate(-1.000000, 0.000000)">
            <path d="M732.61,1.11 C685.7,-1.16 637.98,-0.78 592.68,10.41 C547.38,21.6 504.3,44.63 478.52,79.95 C463.76,100.17 454.95,123.85 437.76,142.45 C407.94,174.7 359.2,185.78 314.22,196.9 C208.59,222.9 102.37,260.47 25.75,330.85 C14.75,340.94 4.03,352.45 1.54,366.4 C-2.28,387.85 14.54,407.92 33.2,421.65 C51.86,435.38 73.94,446.27 87.75,464.08 C105.36,486.79 106.35,516.8 101.35,544.08 C96.35,571.36 86.06,597.9 83.35,625.48 C82.68,632.28 82.52,639.37 85.47,645.66 C89.38,654 98.07,659.66 106.59,664.42 C136.796645,681.375023 169.390934,693.670366 203.27,700.89 C261.64,713.4 322.51,711.05 382.27,716.19 C442.03,721.33 504.27,735.71 546.27,774.25 C572.03,797.88 595.27,832.35 632,831.18 C652.58,830.53 670.76,817.95 691.29,816.55 C714.4,814.97 735.29,827.55 757.08,834.72 C788.03,844.92 823.87,843.93 852.89,829.87 C881.91,815.81 902.98,788.27 904.68,758.67 C906.34,729.67 890.62,702.54 881.54,674.67 C851.76,583.36 893.65,486.87 935.3,399.39 C976.95,311.91 1019.93,216.14 992.22,124.3 C960.05,17.78 835.44,6.09 732.61,1.11 Z" id="Shape" fill="#3AAA96" fill-rule="nonzero" opacity="0.1"></path>
            <path d="M237.82,538.89 C237.82,538.89 203.16,519.89 192.89,490.72 C188.659907,478.465321 180.568171,467.913781 169.83,460.65 C164.705581,457.241001 159.279562,454.308741 153.62,451.89" id="Shape" stroke="#535461" stroke-width="2"></path>
            <path d="M147,433.56 C150.28,436.86 153.81,452.35 153.81,452.35 C153.81,452.35 138.34,448.72 135.06,445.43 C131.899008,442.113886 131.969381,436.879043 135.218372,433.6491 C138.467364,430.419156 143.70253,430.379565 147,433.56 L147,433.56 Z" id="Shape" fill="#3AAA96" fill-rule="nonzero"></path>
            <path d="M175.06,442.01 C176.06,446.56 170.56,461.48 170.56,461.48 C170.56,461.48 159.56,450.03 158.56,445.48 C157.831965,442.495804 158.786785,439.351942 161.051432,437.276652 C163.316079,435.201361 166.531156,434.523989 169.440602,435.50917 C172.350048,436.494351 174.492136,438.985738 175.03,442.01 L175.06,442.01 Z" id="Shape" fill="#3AAA96" fill-rule="nonzero"></path>
            <path d="M205.64,473.64 C204.17,478.05 191.93,488.18 191.93,488.18 C191.93,488.18 188.2,472.73 189.67,468.32 C191.139078,463.901722 195.911722,461.510923 200.33,462.98 C204.748278,464.449078 207.139077,469.221722 205.67,473.64 L205.64,473.64 Z" id="Shape" fill="#3AAA96" fill-rule="nonzero"></path>
            <path d="M223.4,502.78 C222.7,507.37 212.34,519.43 212.34,519.43 C212.34,519.43 206.06,504.84 206.76,500.24 C207.579043,495.760275 211.81141,492.743587 216.313248,493.430766 C220.815087,494.117946 223.954724,498.259929 223.4,502.78 Z" id="Shape" fill="#3AAA96" fill-rule="nonzero"></path>
            <path d="M158.66,474.58 C163.31,474.53 176.66,465.96 176.66,465.96 C176.66,465.96 163.09,457.7 158.44,457.75 C153.900848,457.94918 150.338364,461.713725 150.389654,466.256956 C150.440944,470.800186 154.087508,474.483346 158.63,474.58 L158.66,474.58 Z" id="Shape" fill="#3AAA96" fill-rule="nonzero"></path>
            <path d="M179.86,508.4 C184.28,506.96 194.48,494.78 194.48,494.78 C194.48,494.78 179.06,490.96 174.64,492.4 C170.37762,493.955174 168.113995,498.608028 169.521266,502.9215 C170.928536,507.234972 175.500567,509.657693 179.86,508.4 L179.86,508.4 Z" id="Shape" fill="#3AAA96" fill-rule="nonzero"></path>
            <path d="M205,538.45 C209.6,537.78 221.71,527.45 221.71,527.45 C221.71,527.45 207.15,521.08 202.55,521.75 C199.566832,522.18765 197.043755,524.183557 195.931187,526.985881 C194.81862,529.788205 195.285587,532.971208 197.156187,535.335881 C199.026788,537.700555 202.016832,538.887651 205,538.45 Z" id="Shape" fill="#3AAA96" fill-rule="nonzero"></path>
            <path d="M265.07,457.16 C265.07,457.16 241.07,425.73 243.5,394.92 C244.596607,382.003727 241.473639,369.080256 234.6,358.09 C231.296116,352.899388 227.523687,348.022343 223.33,343.52" id="Shape" stroke="#535461" stroke-width="2"></path>
            <path d="M224.73,324.08 C226.39,328.42 223.35,344.02 223.35,344.02 C223.35,344.02 210.67,334.44 209.01,330.1 C207.791974,327.260466 208.227003,323.981905 210.143392,321.558274 C212.059781,319.134642 215.149662,317.955298 218.193543,318.485697 C221.237425,319.016095 223.746306,321.171027 224.73,324.1 L224.73,324.08 Z" id="Shape" fill="#3AAA96" fill-rule="nonzero"></path>
            <path d="M246.93,343.16 C245.93,347.71 234.93,359.16 234.93,359.16 C234.93,359.16 229.5,344.23 230.46,339.68 C231.043711,336.695802 233.191068,334.258161 236.077822,333.302751 C238.964576,332.34734 242.142192,333.022607 244.390965,335.069357 C246.639737,337.116106 247.610258,340.216318 246.93,343.18 L246.93,343.16 Z" id="Shape" fill="#3AAA96" fill-rule="nonzero"></path>
            <path d="M262.08,384.47 C258.95,387.91 243.65,392.21 243.65,392.21 C243.65,392.21 246.5,376.58 249.65,373.14 C251.648775,370.818553 254.750649,369.765822 257.749515,370.391143 C260.74838,371.016464 263.171017,373.221162 264.075429,376.147979 C264.97984,379.074797 264.223309,382.261884 262.1,384.47 L262.08,384.47 Z" id="Shape" fill="#3AAA96" fill-rule="nonzero"></path>
            <path d="M266.51,418.31 C264.01,422.23 249.66,429.05 249.66,429.05 C249.66,429.05 249.83,413.16 252.33,409.24 C254.91159,405.526443 259.965764,404.51569 263.776987,406.950787 C267.588209,409.385884 268.794913,414.396888 266.51,418.3 L266.51,418.31 Z" id="Shape" fill="#3AAA96" fill-rule="nonzero"></path>
            <path d="M218.75,366.3 C223.02,368.13 238.75,365.72 238.75,365.72 C238.75,365.72 229.68,352.67 225.41,350.84 C221.168176,349.142876 216.346877,351.138154 214.544874,355.336497 C212.74287,359.53484 214.617731,364.40423 218.77,366.31 L218.75,366.3 Z" id="Shape" fill="#3AAA96" fill-rule="nonzero"></path>
            <path d="M224.43,405.78 C229.05,406.25 243.32,399.25 243.32,399.25 C243.32,399.25 230.76,389.51 226.14,389.04 C221.626779,388.756778 217.695783,392.089127 217.23624,396.587815 C216.776696,401.086503 219.95273,405.144838 224.43,405.78 L224.43,405.78 Z" id="Shape" fill="#3AAA96" fill-rule="nonzero"></path>
            <path d="M235.22,443.45 C239.7,444.7 254.94,440.2 254.94,440.2 C254.94,440.2 244.21,428.48 239.73,427.2 C236.806325,426.312424 233.631257,427.078337 231.433798,429.201269 C229.23634,431.324202 228.361377,434.470965 229.147589,437.423512 C229.933801,440.37606 232.257795,442.670997 235.22,443.42 L235.22,443.45 Z" id="Shape" fill="#3AAA96" fill-rule="nonzero"></path>
            <path d="M707.78,498.29 C707.78,498.29 702.93,459.05 720.56,433.67 C728.020928,423.070258 731.842163,410.336318 731.45,397.38 C731.216346,391.230091 730.419683,385.114526 729.07,379.11" id="Shape" stroke="#535461" stroke-width="2"></path>
            <path d="M740.08,363.04 C739.32,367.63 728.83,379.56 728.83,379.56 C728.83,379.56 722.72,364.89 723.48,360.31 C724.338319,355.825134 728.614989,352.841772 733.120361,353.584983 C737.625733,354.328193 740.717614,358.527077 740.09,363.05 L740.08,363.04 Z" id="Shape" fill="#3AAA96" fill-rule="nonzero"></path>
            <path d="M749.62,390.7 C746.49,394.14 731.2,398.45 731.2,398.45 C731.2,398.45 734.04,382.82 737.2,379.38 C740.370993,376.157398 745.521004,376.014255 748.866106,379.055745 C752.211207,382.097235 752.557258,387.2376 749.65,390.7 L749.62,390.7 Z" id="Shape" fill="#3AAA96" fill-rule="nonzero"></path>
            <path d="M741.86,434.02 C737.42,435.41 722.05,431.41 722.05,431.41 C722.05,431.41 732.4,419.35 736.83,417.96 C741.178538,416.833472 745.645647,419.318976 746.980962,423.608007 C748.316276,427.897038 746.049505,432.479018 741.83,434.02 L741.86,434.02 Z" id="Shape" fill="#3AAA96" fill-rule="nonzero"></path>
            <path d="M728.61,465.47 C724.47,467.59 708.61,466.24 708.61,466.24 C708.61,466.24 716.77,452.6 720.91,450.48 C723.589492,449.109886 726.796391,449.273341 729.322691,450.908793 C731.84899,452.544244 733.310883,455.403228 733.157691,458.408793 C733.004498,461.414357 731.259492,464.109886 728.58,465.48 L728.61,465.47 Z" id="Shape" fill="#3AAA96" fill-rule="nonzero"></path>
            <path d="M713.62,396.47 C716.38,400.21 731.16,406.05 731.16,406.05 C731.16,406.05 729.92,390.21 727.16,386.47 C724.347256,382.890861 719.19918,382.1953 715.537465,384.899668 C711.875751,387.604036 711.02643,392.72899 713.62,396.47 L713.62,396.47 Z" id="Shape" fill="#3AAA96" fill-rule="nonzero"></path>
            <path d="M698.59,433.44 C702.34,436.18 718.19,437.33 718.19,437.33 C718.19,437.33 712.26,422.59 708.51,419.85 C704.753398,417.266778 699.623163,418.142703 696.936498,421.826034 C694.249833,425.509365 694.982788,430.661969 698.59,433.45 L698.59,433.44 Z" id="Shape" fill="#3AAA96" fill-rule="nonzero"></path>
            <path d="M688.91,471.39 C692.15,474.73 707.57,478.53 707.57,478.53 C707.57,478.53 704.22,463 700.98,459.66 C698.912738,457.385482 695.770358,456.418109 692.781825,457.136215 C689.793292,457.854321 687.433491,460.143797 686.625325,463.109243 C685.817159,466.07469 686.689047,469.244891 688.9,471.38 L688.91,471.39 Z" id="Shape" fill="#3AAA96" fill-rule="nonzero"></path>
            <polygon id="Shape" fill="url(#linearGradient-1)" fill-rule="nonzero" points="472.84 179 198.65 434.47 198.65 810.65 747.02 810.65 747.02 434.47"></polygon>
            <polygon id="Shape" fill="#E8EAF1" fill-rule="nonzero" points="741.15 803.89 204.52 803.89 204.52 435.76 472.84 185.76 741.15 435.76"></polygon>
            <rect id="Rectangle-path" fill="#000000" fill-rule="nonzero" opacity="0.1" x="204.89" y="435.99" width="534.2" height="367.37"></rect>
            <rect id="Rectangle-path" fill="#3AAA96" fill-rule="nonzero" transform="translate(606.810000, 103.050000) rotate(-180.000000) translate(-606.810000, -103.050000) " x="567.21" y="63.45" width="79.2" height="79.2" rx="11.85"></rect>
            <rect id="Rectangle-path" fill="#3AAA96" fill-rule="nonzero" transform="translate(522.810000, 201.050000) rotate(-180.000000) translate(-522.810000, -201.050000) " x="483.21" y="161.45" width="79.2" height="79.2" rx="11.85"></rect>
            <rect id="Rectangle-path" fill="#3AAA96" fill-rule="nonzero" transform="translate(738.810000, 63.050000) rotate(-180.000000) translate(-738.810000, -63.050000) " x="699.21" y="23.45" width="79.2" height="79.2" rx="11.85"></rect>
            <path d="M396.95,529.52 L378.47,529.52 L378.47,512.72 C378.47,506.175426 373.164574,500.87 366.62,500.87 L311.12,500.87 C304.575426,500.87 299.27,506.175426 299.27,512.72 L299.27,568.22 C299.27,574.764574 304.575426,580.07 311.12,580.07 L329.6,580.07 L329.6,596.87 C329.6,603.414574 334.905426,608.72 341.45,608.72 L396.95,608.72 C403.494574,608.72 408.8,603.414574 408.8,596.87 L408.8,541.37 C408.8,534.825426 403.494574,529.52 396.95,529.52 L396.95,529.52 Z" id="Shape" fill="#3AAA96" fill-rule="nonzero" opacity="0.5"></path>
            <path d="M634.56,492.44 L579.06,492.44 C575.917185,492.44 572.903091,493.688479 570.680785,495.910785 C568.458479,498.133091 567.21,501.147185 567.21,504.29 L567.21,530.35 L539.46,530.35 C532.915426,530.35 527.61,535.655426 527.61,542.2 L527.61,569.11 L501.54,569.11 C494.995426,569.11 489.69,574.415426 489.69,580.96 L489.69,636.46 C489.69,643.004574 494.995426,648.31 501.54,648.31 L557,648.31 C563.544574,648.31 568.85,643.004574 568.85,636.46 L568.85,609.56 L595,609.56 C601.544574,609.56 606.85,604.254574 606.85,597.71 L606.85,571.65 L634.6,571.65 C641.136761,571.627944 646.42107,566.316789 646.41,559.78 L646.41,504.28 C646.40448,497.739331 641.100671,492.439998 634.56,492.44 Z" id="Shape" fill="#3AAA96" fill-rule="nonzero" opacity="0.5"></path>
            <path d="M471.76,472.07 C471.76,472.07 510.38,561.46 501,580.78 C501,580.78 485.55,574.71 483.34,575.78 C481.13,576.85 459.06,460.46 459.06,460.46 L471.76,472.07 Z" id="Shape" fill="#575988" fill-rule="nonzero"></path>
            <path d="M471.76,472.07 C471.76,472.07 510.38,561.46 501,580.78 C501,580.78 485.55,574.71 483.34,575.78 C481.13,576.85 459.06,460.46 459.06,460.46 L471.76,472.07 Z" id="Shape" fill="#000000" fill-rule="nonzero" opacity="0.05"></path>
            <path d="M450.79,756.78 C450.79,756.78 464.03,781.61 475.62,787.13 C487.21,792.65 477.83,800.37 466.79,798.72 C455.75,797.07 419.34,770.58 419.34,770.58 C419.34,770.58 419.59,753.24 423.05,751.98 C426.51,750.72 450.79,756.78 450.79,756.78 Z" id="Shape" fill="#575988" fill-rule="nonzero"></path>
            <path d="M416,716.5 C416,716.5 434.76,735.26 443,736.92 C451.24,738.58 435.83,749.61 420.93,743.54 C406.03,737.47 385.62,726.44 385.62,726.44 C385.62,726.44 385.07,708.78 394.45,707.13 C403.83,705.48 416,716.5 416,716.5 Z" id="Shape" fill="#575988" fill-rule="nonzero"></path>
            <path d="M493.28,563.11 C493.28,563.11 489.42,630.43 484.45,639.81 C479.48,649.19 460.72,677.88 460.72,677.88 C460.72,677.88 439.2,693.33 438.1,697.19 C437,701.05 419.34,714.29 419.34,714.29 L418.24,722.01 C418.24,722.01 389,720.35 390.65,710.42 C392.3,700.49 407.75,691.11 407.75,691.11 C407.75,691.11 417.68,665.18 441.96,658 C441.96,658 449.68,647 443.06,638.14 C443.06,638.14 426.51,596.76 417.13,591.79 C407.75,586.82 421,558.15 421,558.15 L493.28,563.11 Z" id="Shape" fill="#67647E" fill-rule="nonzero"></path>
            <path d="M493.28,563.11 C493.28,563.11 489.42,630.43 484.45,639.81 C479.48,649.19 460.72,677.88 460.72,677.88 C460.72,677.88 439.2,693.33 438.1,697.19 C437,701.05 419.34,714.29 419.34,714.29 L418.24,722.01 C418.24,722.01 389,720.35 390.65,710.42 C392.3,700.49 407.75,691.11 407.75,691.11 C407.75,691.11 417.68,665.18 441.96,658 C441.96,658 449.68,647 443.06,638.14 C443.06,638.14 426.51,596.76 417.13,591.79 C407.75,586.82 421,558.15 421,558.15 L493.28,563.11 Z" id="Shape" fill="#000000" fill-rule="nonzero" opacity="0.05"></path>
            <path d="M439.2,718.16 L421.54,755.16 C424.3,764.54 450.78,761.23 450.78,761.23 C450.78,761.23 471.2,733.64 472.3,723.71 C473.4,713.78 487.2,705.5 487.2,705.5 C507.06,683.98 493.82,658.6 492.2,645.36 C492.2,645.11 492.13,644.83 492.08,644.54 C490.61,635.66 481.68,610.11 474.74,590.98 C470.06,578.09 466.27,568.11 466.27,568.11 C466.27,568.11 429.27,569.77 421.58,583.01 C418.04,589.07 419.58,595.39 422.38,600.45 C424.536949,604.270453 427.291834,607.720812 430.54,610.67 L443.1,640.95 C443.1,640.95 465.17,681.23 456.89,684.54 C448.61,687.85 439.2,718.16 439.2,718.16 Z" id="Shape" fill="#67647E" fill-rule="nonzero"></path>
            <path d="M505.1,390.99 C505.278628,393.447685 505.991918,395.836695 507.19,397.99 L507.82,399.13 L510.93,404.74 L520.86,404.74 L521.07,402.13 L523.07,377.13 C523.07,377.13 520.31,349.54 510.93,353.4 C503.4,356.54 504.41,381.33 505.1,390.99 Z" id="Shape" fill="#926A2D" fill-rule="nonzero"></path>
            <path d="M507.82,399.15 L510.93,404.76 L520.86,404.76 L521.07,402.15 C516.45,401.78 510.95,400.89 507.82,399.15 Z" id="Shape" fill="#000000" fill-rule="nonzero" opacity="0.1"></path>
            <path d="M507.07,399.24 L507.07,411.93 L527.49,417.45 C527.49,417.45 527.49,416.13 527.55,414.29 C527.67,410.42 528.03,404.23 529.15,403.11 C529.14,403.1 512.59,403.1 507.07,399.24 Z" id="Shape" fill="#E6E6F0" fill-rule="nonzero"></path>
            <path d="M507.07,406.68 L507.07,411.93 L527.49,417.45 C527.49,417.45 527.49,416.13 527.55,414.29 C520.74,413.1 510.93,408.56 507.07,406.68 Z" id="Shape" fill="#000000" fill-rule="nonzero" opacity="0.1"></path>
            <path d="M388,427.62 C392,439.25 386.79,444.49 386.79,444.49 C386.79,444.49 436.45,447.8 424.31,438.97 C417.22,433.81 414.08,422.44 412.7,413.88 C412.113078,410.316389 411.752357,406.719194 411.62,403.11 C411.62,403.11 371.94,402.53 380.17,413.59 C383.476133,417.842699 386.116315,422.573447 388,427.62 L388,427.62 Z" id="Shape" fill="#926A2D" fill-rule="nonzero"></path>
            <path d="M380.17,413.59 C384.17,419.03 385.53,419.83 386.9,423.76 C388.142254,423.969934 389.400137,424.073642 390.66,424.07 C400.12,424.07 409.33,422.12 412.66,413.87 C412.073078,410.306389 411.712357,406.709194 411.58,403.1 C411.58,403.1 371.93,402.52 380.17,413.59 Z" id="Shape" fill="#000000" fill-rule="nonzero" opacity="0.1"></path>
            <circle id="Oval" fill="#926A2D" fill-rule="nonzero" cx="391.75" cy="403.11" r="22.62"></circle>
            <path d="M505.42,406.97 C505.42,406.97 526.94,417.97 533.01,415.25 L518.11,456.08 C518.11,456.08 517.01,466.01 497.69,470.43 C478.37,474.85 469,478.69 469,478.69 L433.14,436.2 L451.35,441.2 C451.35,441.2 460.73,454.44 467.35,450.03 C473.97,445.62 494.35,447.82 494.35,447.82 C494.35,447.82 506,416.35 505.42,406.97 Z" id="Shape" fill="#575988" fill-rule="nonzero"></path>
            <path d="M505.42,406.97 C505.42,406.97 526.94,417.97 533.01,415.25 L518.11,456.08 C518.11,456.08 517.01,466.01 497.69,470.43 C478.37,474.85 469,478.69 469,478.69 L433.14,436.2 L451.35,441.2 C451.35,441.2 460.73,454.44 467.35,450.03 C473.97,445.62 494.35,447.82 494.35,447.82 C494.35,447.82 506,416.35 505.42,406.97 Z" id="Shape" fill="#000000" fill-rule="nonzero" opacity="0.05"></path>
            <path d="M421.55,433.01 C421.55,433.01 392.38,424.67 389.31,440.16 C389.31,440.16 402.79,433.59 422.1,445.16 C423.55,446.03 424.97,446.96 426.35,447.93 C443.35,459.84 455.21,478.3 459.98,499.19 L472.31,553.19 L473.41,567.71 C473.41,567.71 491.07,571.2 494.41,565.97 C497.75,560.74 495.51,543.32 490.55,537.51 C485.59,531.7 477.83,506.78 477.83,506.78 L473,492.29 C468.958331,480.100035 462.533838,468.835077 454.1,459.15 L454.1,459.15 L452.94,457.78 C445.666809,449.038656 436.437863,442.132362 426,437.62 C423.21,436.39 421.16,434.84 421.55,433.01 Z" id="Shape" fill="#000000" fill-rule="nonzero" opacity="0.1"></path>
            <path d="M421.55,431.91 C421.55,431.91 392.38,423.57 389.31,439.06 C389.31,439.06 402.79,432.49 422.1,444.06 C423.55,444.93 424.97,445.86 426.35,446.83 C443.35,458.74 455.21,477.2 459.98,498.09 L472.31,552.09 L473.41,566.61 C473.41,566.61 491.07,570.1 494.41,564.87 C497.75,559.64 495.51,542.22 490.55,536.41 C485.59,530.6 477.86,505.62 477.86,505.62 L473,491.19 C468.958331,479.000035 462.533838,467.735077 454.1,458.05 L454.1,458.05 L452.93,456.64 C445.655172,447.914472 436.430137,441.022244 426,436.52 C423.21,435.28 421.16,433.78 421.55,431.91 Z" id="Shape" fill="#E6E6F0" fill-rule="nonzero"></path>
            <path d="M494.9,543.13 L494.65,552.63 L486.93,547.63 C486.93,547.63 473.17,497.55 463.48,483.9 C462.34,482.29 461.79,479.9 460.72,479.49 L421.27,441.42 L421.27,432.59 C421.27,432.59 441.41,447.49 443.06,450.25 C443.76,451.42 454.35,457.25 460.72,466.25 C466.431793,474.590727 471.502994,483.352504 475.89,492.46 L489.13,522.26 L494.9,543.13 Z" id="Shape" fill="#000000" fill-rule="nonzero" opacity="0.1"></path>
            <path d="M421.27,432.07 L421.27,440.62 L461.27,478.97 C462.33,479.38 462.89,481.78 464.03,483.38 C473.72,497.04 487.48,547.11 487.48,547.11 L495.2,552.11 L495.44,542.61 L489.69,521.78 L476.45,491.98 C472.062994,482.872504 466.991793,474.110727 461.28,465.77 C454.91,456.77 444.28,450.94 443.62,449.77 C442.19,447.39 426.62,436 422.36,432.9 L421.27,432.07 Z" id="Shape" fill="#787C9C" fill-rule="nonzero"></path>
            <path d="M396.5,379 C398.25,378.14 396.51,377.95 396.5,376 C394.35,373.5 393.361682,374.199287 392.09,373.5 C389.77,374.31 389.07,369.11 386.71,370.09 C385.058349,370.774521 383.304497,371.180036 381.52,371.29 C380.38,371.36 376.7,369.62 375.59,369.88 C374.687741,370.110696 373.822546,370.467546 373.02,370.94 C367.987908,373.752976 364.25012,378.416244 362.6,383.94 C361.1,389.06 362.15,395.47 358.29,399.15 C357.64,399.77 358.52,401.65 358,402.38 C357.496889,403.138621 357.1564,403.993247 357,404.89 C356.305255,407.948832 356.570646,411.147491 357.76,414.05 C358.979929,416.959384 361.368343,419.220755 364.34,420.28 C365.64,420.71 367.02,420.86 368.34,421.19 C374.68,422.79 379.17,428.35 384.94,431.42 C385.400246,431.70889 385.927212,431.874212 386.47,431.9 C387.066861,431.837219 387.631174,431.596864 388.09,431.21 C390.32,429.61 392.16,427.14 392.09,424.39 C391.908237,422.675146 391.406212,421.009644 390.61,419.48 C389.401761,416.613957 388.477342,413.636389 387.85,410.59 C387.649491,409.889786 387.628854,409.150307 387.79,408.44 C388.21,407.1 389.69,406.44 390.72,405.53 C392.72,403.72 392.91,400.63 392.19,398.06 C391.47,395.49 389.95,393.23 388.82,390.81 C388.429702,390.084193 388.201136,389.282504 388.15,388.46 C388.15,385.23 392.51,383.46 394.35,381.35 C396.9,378.47 393.09,380.69 396.5,379 Z" id="Shape" fill="#000000" fill-rule="nonzero"></path>
            <path d="M422.35,600.41 C432.44,599.21 445.2,598.04 450.79,598.98 C459.79,600.48 472.44,592.45 474.71,590.98 C470.03,578.09 466.24,568.11 466.24,568.11 C466.24,568.11 429.24,569.77 421.55,583.01 C418,589.04 419.59,595.35 422.35,600.41 Z" id="Shape" fill="#000000" fill-rule="nonzero" opacity="0.1"></path>
            <path d="M374.1,457.73 C376.31,477.04 398.38,504.08 398.38,504.08 C398.38,504.08 413.83,520.08 408.86,574.71 L408.31,601.19 C408.31,601.19 440.86,596.19 450.8,597.88 C460.74,599.57 475.08,589.6 475.08,589.6 C475.08,589.6 480.6,494.14 456.87,474.28 C453.945345,469.767439 450.763418,465.426929 447.34,461.28 C440.97,453.57 432.34,444.88 424.2,442.74 C423.158248,442.458305 422.08827,442.293951 421.01,442.25 C421.01,442.25 396.18,428.46 389.56,438.94 C389.55,438.97 371.89,438.42 374.1,457.73 Z" id="Shape" fill="#575988" fill-rule="nonzero"></path>
            <path d="M474.79,560.63 C474.79,560.63 466,556.78 451.07,557.87 C436.14,558.96 409.64,545.78 409.64,545.78" id="Shape" fill="#000000" fill-rule="nonzero" opacity="0.1"></path>
            <path d="M458.79,683.67 C458.79,683.67 458.24,685.33 465.41,687.53 C472.58,689.73 474.79,691.94 474.79,691.94" id="Shape" fill="#000000" fill-rule="nonzero" opacity="0.05"></path>
            <rect id="Rectangle-path" fill="#3AAA96" fill-rule="nonzero" x="440.87" y="307.3" width="79.2" height="79.2" rx="11.85"></rect>
            <path d="M436.89,378.63 C436.92901,381.236481 437.576196,383.797833 438.78,386.11 L441.97,392.24 L444.18,396.48 L457.97,397.58 C457.97,397.58 458.26,396.44 458.61,394.58 C459.61,389.06 461.26,377.14 457.97,368.91 C453.56,357.91 451.9,336.36 443.62,341.32 C437.05,345.25 436.74,368.99 436.89,378.63 Z" id="Shape" fill="#926A2D" fill-rule="nonzero"></path>
            <path d="M442,392.07 L442,392.24 L444.21,396.48 L458,397.58 C458,397.58 458.29,396.44 458.64,394.58 C453.67,392.65 447.2,390.9 442,392.07 Z" id="Shape" fill="#000000" fill-rule="nonzero" opacity="0.1"></path>
            <path d="M442,393.17 L442,403.1 L461.86,413.58 C461.86,413.58 462.09,411.78 462.51,409.46 C463.23,405.46 464.51,399.93 466.28,399.24 C466.24,399.24 451.89,390.96 442,393.17 Z" id="Shape" fill="#E6E6F0" fill-rule="nonzero"></path>
            <path d="M388.24,483.36 C393.130405,487.667508 399.597305,489.737351 406.08,489.07 C441,485.52 442,473.18 442,473.18 L447.36,461.31 C440.99,453.6 432.36,444.91 424.22,442.77 C418.43,452.1 413.3,458.83 413.3,458.83 C413.3,458.83 387.37,438.97 379.64,457.73 C375.12,468.65 381.84,477.7 388.24,483.36 Z" id="Shape" fill="#000000" fill-rule="nonzero" opacity="0.05"></path>
            <path d="M442,399.25 L442,403.1 L461.86,413.58 C461.86,413.58 462.09,411.78 462.51,409.46 C453.91,406.72 445.44,401.52 442,399.25 Z" id="Shape" fill="#000000" fill-rule="nonzero" opacity="0.1"></path>
            <path d="M439.76,399.24 C439.76,399.24 454.66,409.72 467.35,411.93 L441.42,469.31 C441.42,469.31 440.47,481.65 405.54,485.2 C399.057563,485.864875 392.591633,483.795342 387.7,479.49 C381.3,473.83 374.57,464.78 379.07,453.86 C386.79,435.1 412.73,454.96 412.73,454.96 C412.73,454.96 439.2,420.21 439.76,399.24 Z" id="Shape" fill="#575988" fill-rule="nonzero"></path>
            <polygon id="Shape" fill="#E8EAF1" fill-rule="nonzero" points="204.52 435.76 472.84 619.83 204.52 803.89"></polygon>
            <polygon id="Shape" fill="#E8EAF1" fill-rule="nonzero" points="741.15 435.76 472.84 619.83 741.15 803.89"></polygon>
            <path d="M204.52,803.89 L462.31,603.32 C468.482835,598.453427 477.187165,598.453427 483.36,603.32 L741.15,803.89 L204.52,803.89 Z" id="Shape" fill="url(#linearGradient-2)" fill-rule="nonzero"></path>
            <path d="M204.52,803.89 L462.31,612.09 C468.556752,607.44146 477.113248,607.44146 483.36,612.09 L741.15,803.89 L204.52,803.89 Z" id="Shape" fill="#E8EAF1" fill-rule="nonzero"></path>
        </g>
    </g>
</svg>