<?xml version="1.0" encoding="UTF-8"?>
<svg width="1151px" height="756px" viewBox="0 0 1151 756" version="1.1" xmlns="http://www.w3.org/2000/svg" xmlns:xlink="http://www.w3.org/1999/xlink">
    <!-- Generator: Sketch 46.2 (44496) - http://www.bohemiancoding.com/sketch -->
    <title>undraw_confirmation_2uy0</title>
    <desc>Created with Sketch.</desc>
    <defs>
        <linearGradient x1="21555%" y1="70396%" x2="21555%" y2="30997%" id="linearGradient-1">
            <stop stop-color="#808080" stop-opacity="0.25" offset="0%"></stop>
            <stop stop-color="#808080" stop-opacity="0.12" offset="54%"></stop>
            <stop stop-color="#808080" stop-opacity="0.1" offset="100%"></stop>
        </linearGradient>
    </defs>
    <g id="Page-1" stroke="none" stroke-width="1" fill="none" fill-rule="evenodd">
        <g id="undraw_confirmation_2uy0" transform="translate(-25.000000, -73.000000)">
            <path d="M1091.62,692.94 C1088.03333,696.093333 1084.36667,699.156667 1080.62,702.13 C1079.99,702.64 1079.34,703.13 1078.7,703.65 C1065.33617,714.015931 1051.30598,723.492993 1036.7,732.02 L1033.97,733.61 C1033.31,734.01 1032.66,734.38 1031.97,734.75 C1016.71,743.56 1000.88,751.67 984.86,759.35 L984.69,759.44 L983.48,760.01 C970.56,766.203333 957.446667,772.13 944.14,777.79 L943.82,777.91 C937.82,780.436667 931.82,782.896667 925.82,785.29 C923.37,786.29 920.91,787.22 918.45,788.17 C913.82,789.94 909.18,791.68 904.5,793.35 L903.92,793.57 L902.92,793.92 L901.67,794.38 C889.463333,798.74 877.093333,802.766667 864.56,806.46 L864.34,806.52 C855.6,809.066667 846.803333,811.423333 837.95,813.59 L836.74,813.89 C823.74,817.03 810.53,819.73 797.24,821.89 L794.18,822.38 C784.46,823.906667 774.673333,825.153333 764.82,826.12 C709.43,831.47 653.38,827.12 598.33,819.66 C487.17,804.58 377.48,776.31 277.44,732 C258.24,723.5 239.413333,714.4 220.96,704.7 C220.81,704.62 220.68,704.54 220.53,704.47 C209.483333,698.663333 198.586667,692.613333 187.84,686.32 C184.69,684.5 181.56,682.64 178.45,680.77 C174.623333,678.463333 170.813333,676.13 167.02,673.77 C162.02,670.65 157.02,667.45 152.02,664.18 L149.68,662.62 L148.78,662.01 C147.51,661.16 146.26,660.31 145,659.45 C98,627.45 56.09,588.67 36.29,540.14 C13.41,484.14 28.05,413.14 84.72,380.04 C104.2,368.64 126.84,362.45 149.72,357.34 L152.06,356.82 C155.93,355.97 159.8,355.15 163.65,354.33 C177.14,351.47 190.7,348.63 204.13,345.46 L204.13,345.46 C211.13,343.81 218.06,342.08 224.95,340.21 L227.77,339.43 C244.386469,334.972148 260.637284,329.248759 276.38,322.31 L276.48,322.31 C278.17,321.56 279.84,320.78 281.48,319.98 C282.54,319.48 283.6,318.98 284.66,318.43 C301.66,309.97 319.66,298.24 333.51,284.26 C334.62,283.14 335.7,282 336.75,280.86 C337.56,279.97 338.36,279.07 339.13,278.17 C348.84,266.85 355.56,254.28 356.84,240.94 L356.84,240.94 C357.270986,236.457352 357.069005,231.936356 356.24,227.51 C354.67,219.12 353.15,210.91 352.03,202.9 C349.94,187.85 349.23,173.46 352.13,159.59 L352.13,159.59 C355.08,145.45 361.77,131.84 374.54,118.64 C376.466667,116.64 378.543333,114.64 380.77,112.64 C391.097351,103.579579 402.782905,96.1963879 415.4,90.76 C416.96,90.0933333 418.53,89.4266667 420.11,88.76 C455.19,74.56 497.34,71.6 536.72,73.56 C573.511424,75.4533783 610.068838,80.5391616 645.98,88.76 C648.83,89.4 651.68,90.07 654.51,90.76 C685.058435,98.1600885 715.116566,107.454731 744.51,118.59 C820.89,147.32 892.98,187.21 960.33,231.23 C960.99,231.66 961.65,232.09 962.33,232.53 C965.143333,234.363333 967.94,236.203333 970.72,238.05 C976.1,241.616667 981.433333,245.206667 986.72,248.82 L990.29,251.25 C992.05,252.45 993.8,253.653333 995.54,254.86 L1000.9,258.57 L1000.9,258.57 C1001.15243,258.721728 1001.39311,258.892208 1001.62,259.08 L1006.18,262.24 C1008.82,264.08 1011.44,265.93 1014.07,267.79 L1014.07,267.79 L1019.71,271.79 C1020.88,272.63 1022.06,273.46 1023.23,274.31 L1029.23,278.69 L1030.57,279.69 C1030.85,279.89 1031.13,280.09 1031.4,280.31 L1031.57,280.42 C1047.83,292.35 1063.7,304.72 1078.57,317.83 L1080.49,319.53 L1080.69,319.71 C1082.31,321.15 1083.93,322.61 1085.52,324.08 C1104.94,341.76 1122.34,360.76 1136.56,381.76 C1201.88,478.76 1182.49,613.07 1091.62,692.94 Z" id="Shape" fill="#3AAA96" fill-rule="nonzero" opacity="0.1"></path>
            <path d="M837.56,426.76 C837.56,426.76 843.38,396.26 862.08,396.1 L875.76,424.24 L866.56,430.49 C866.56,430.49 846.8,431.12 837.56,426.76 Z" id="Shape" fill="#65617D" fill-rule="nonzero"></path>
            <path d="M875.72,424.2 L866.56,430.49 C866.56,430.49 852.62,430.93 842.66,428.49 C840.907137,428.082831 839.198827,427.503345 837.56,426.76 C837.56,426.76 837.56,426.59 837.66,426.27 C837.656565,426.230074 837.656565,426.189926 837.66,426.15 C838.52142,422.323349 839.70566,418.576603 841.2,414.95 C841.77,413.58 842.43,412.17 843.13,410.76 C845.87,405.49 849.72,400.32 854.99,397.76 C856.936853,396.805743 859.055263,396.251487 861.22,396.13 L861.78,396.13 L862.05,396.13 L862.36,396.75 L866.98,406.26 L875.72,424.2 Z" id="Shape" fill="#000000" fill-rule="nonzero" opacity="0.1"></path>
            <path d="M1031.04,550.91 C1031.04,550.91 1050.69,549.03 1052.42,550.44 C1054.15,551.85 1065.31,559.09 1071.92,554.53 C1078.53,549.97 1074.12,534.09 1074.12,533.46 C1074.12,532.83 1073.49,510.35 1073.49,510.35 L1061.7,494.47 L1046.92,466.65 L1016.74,463.65 L1017.52,507.83 L1017.37,530.47 L1031.04,550.91 Z" id="Shape" fill="#65617D" fill-rule="nonzero"></path>
            <path d="M1031.04,550.91 C1031.04,550.91 1050.69,549.03 1052.42,550.44 C1054.15,551.85 1065.31,559.09 1071.92,554.53 C1078.53,549.97 1074.12,534.09 1074.12,533.46 C1074.12,532.83 1073.49,510.35 1073.49,510.35 L1061.7,494.47 L1046.92,466.65 L1016.74,463.65 L1017.52,507.83 L1017.37,530.47 L1031.04,550.91 Z" id="Shape" fill="#000000" fill-rule="nonzero" opacity="0.1"></path>
            <path d="M858.11,395.28 C858.11,395.28 856.56,414.46 844.56,414.76 C844.56,414.76 841.18,412.76 836.62,409.31 C826.12,401.46 809.47,386.36 814.07,372.31 C820.67,352.19 852.74,389.31 852.74,389.31 L855.21,392.07 L858.11,395.28 Z" id="Shape" fill="#7C501A" fill-rule="nonzero"></path>
            <path d="M858.11,395.28 C858.11,395.28 856.56,414.46 844.56,414.76 C844.56,414.76 841.18,412.76 836.62,409.31 L835.62,408 C837.647272,409.062794 839.883351,409.667047 842.17,409.77 C845.17,409.83 848.55,408.77 850.72,404.38 C851.974124,401.91162 853.079432,399.370413 854.03,396.77 C854.596494,395.243749 854.998764,393.661486 855.23,392.05 L858.11,395.28 Z" id="Shape" fill="#000000" fill-rule="nonzero" opacity="0.1"></path>
            <path d="M852.92,430.02 L850.23,426.56 L841.23,414.91 L836.56,408.96 C838.584929,410.018212 840.817468,410.619018 843.1,410.72 C846.1,410.79 849.48,409.72 851.65,405.33 C852.908347,402.863611 854.013768,400.322144 854.96,397.72 C856.45,393.48 856.42,391.3 855.89,390.56 C855.36,389.82 859.23,393.41 861.09,395.18 L861.16,395.24 L862.02,396.06 L862.35,396.7 L866.9,405.81 C866.9,405.81 866.9,405.94 866.9,406.19 C867.32,409.08 868.85,427.42 852.92,430.02 Z" id="Shape" fill="#E7EFFD" fill-rule="nonzero"></path>
            <path d="M944.18,777.76 C943.893424,777.515373 943.577694,777.307126 943.24,777.14 L943.16,777.14 C941.28,776.35 943,766.6 943.32,765.34 C943.64,764.08 946.15,739.76 946.15,739.76 C946.15,739.76 945.21,732.07 946.47,728.76 C947.73,725.45 944.89,712.76 944.89,712.76 C944.89,712.76 943.95,711.19 945.68,709.3 C947.41,707.41 946.78,690.59 946.78,690.59 C946.78,690.59 946.63,682.11 946.63,679.9 C946.63,677.69 948.51,669.69 950.24,667.01 C951.97,664.33 950.87,656.01 950.87,656.01 L950.87,656.01 L950.96,655.37 C951.01,655.14 951.05,654.84 951.1,654.49 L951.25,653.65 C951.25,653.45 951.32,653.24 951.36,653.01 C951.45,652.51 951.55,652.01 951.66,651.37 C951.72,651.01 951.79,650.63 951.87,650.25 C952.1,649.05 952.37,647.73 952.66,646.38 C952.75,645.96 952.85,645.53 952.95,645.11 C953.05,644.69 953.19,644.11 953.32,643.59 C953.4,643.28 953.47,642.98 953.56,642.67 C953.79,641.75 954.04,640.86 954.31,640.01 C956.31,633.4 958.72,621.77 958.72,621.77 L973.33,583.39 L973.5,582.93 L973.96,583.82 L973.96,583.82 C975.48,586.89 980.25,597.34 980.25,607.13 C980.25,607.13 981.99,621.13 981.51,624.89 C981.03,628.65 982.93,646.43 982.93,646.43 C982.93,646.43 984.93,671.89 984.93,672.99 C984.93,674.09 987.45,693.75 989.02,696.73 C990.59,699.71 987.45,708.84 986.5,709.73 C985.55,710.62 986.82,733.79 986.82,733.79 C986.82,733.79 984.46,752.02 983.98,755.79 C983.88,756.69 983.68,758.2 983.47,760.05 L984.68,759.48 L984.85,759.39 C1000.85,751.71 1016.7,743.6 1031.96,734.79 L1032.09,710.68 C1032.09,710.68 1033.19,700.14 1031.94,695.9 C1030.69,691.66 1029.42,683.48 1031.14,681.27 C1032.86,679.06 1031.31,668.86 1031.31,668.86 C1031.31,668.86 1031.31,647.32 1033.66,641.98 C1036.01,636.64 1035.24,602.83 1035.24,602.83 L1035.86,580.67 C1035.86,580.67 1040.99,575.78 1039.78,550.26 C1039.65,547.54 1039.45,544.59 1039.17,541.37 C1038.3,531.74 1037.42,523.02 1036.62,515.47 C1036.55,514.82 1036.48,514.18 1036.41,513.56 C1036.33,512.72 1036.23,511.89 1036.15,511.08 C1035.96,509.37 1035.78,507.73 1035.6,506.17 C1035.54,505.71 1035.49,505.26 1035.44,504.81 C1035.18,502.57 1034.93667,500.503333 1034.71,498.61 C1034.63,497.87 1034.53,497.14 1034.45,496.45 C1034.32,495.45 1034.2,494.45 1034.09,493.52 C1034.09,493.3 1034.03,493.08 1034,492.86 C1034,492.46 1033.91,492.08 1033.86,491.71 C1033.34,487.63 1033.03,485.4 1033.03,485.4 L1032.89,485.4 L1017.08,485.54 L982.57,485.87 L981.56,485.87 L963.56,486.04 L962.46,486.04 L953.82,486.13 L952.35,486.13 L934.35,486.3 L933.26,486.3 L925.87,516.76 L910.78,551.35 C910.78,551.35 910.55,555.14 910.02,558.84 L910.02,559.06 C910.02,559.19 910.02,559.31 909.96,559.42 C909.9,559.53 909.9,559.8 909.87,559.98 C909.661292,561.658326 909.23435,563.302219 908.6,564.87 C908.098545,565.964464 907.761573,567.12702 907.6,568.32 C907.402164,569.586497 907.325151,570.86893 907.37,572.15 L907.37,572.15 C907.37,572.29 907.37,572.36 907.37,572.36 C907.37,572.36 906.17,577.81 905.47,582.45 C905.34,583.34 905.22,584.2 905.15,585 C905.014439,585.970387 904.967579,586.951108 905.01,587.93 C905.064959,588.931261 905.028139,589.935452 904.9,590.93 C904.9,591.29 904.82,591.66 904.77,592.03 C904.28,595.71 903.29,599.83 903.29,599.83 L900.45,627.19 C900.45218,627.21996 900.45218,627.25004 900.45,627.28 C900.45,627.39 900.45,627.59 900.45,627.85 C900.45,628.11 900.45,628.21 900.45,628.42 C900.45,628.63 900.45,628.87 900.39,629.14 C900.39,629.79 900.29,630.56 900.22,631.46 C900.22,631.78 900.2,632.113333 900.16,632.46 C900.16,632.76 900.16,633.08 900.1,633.41 C900.1,633.58 900.1,633.75 900.1,633.93 C900.1,634.11 900.1,634.45 900.05,634.72 C900,634.99 900.05,635.23 900.05,635.48 C900.05,635.73 900.05,635.95 900.05,636.19 C899.97,637.66 899.87,639.25 899.8,640.86 C899.8,641.12 899.8,641.38 899.8,641.64 L899.8,642.4 C899.8,642.91 899.8,643.4 899.73,643.94 C899.73,644.28 899.73,644.63 899.73,644.94 C899.73,645.25 899.73,645.88 899.73,646.34 L899.73,646.76 C899.73,647.06 899.73,647.36 899.73,647.64 C899.73,648.31 899.73,648.96 899.73,649.59 C899.73,649.87 899.73,650.16 899.73,650.44 C899.73,651.346667 899.73,652.206667 899.73,653.02 C899.73,653.43 899.73,653.82 899.73,654.2 C899.741479,655.3172 899.82163,656.432637 899.97,657.54 C900.07,658.28 900.15,659.04 900.2,659.82 C900.2,660.21 900.2,660.6 900.2,660.98 C900.2,661.36 900.2,661.76 900.2,662.15 C900.2,662.54 900.2,662.69 900.2,662.95 C900.2,663.37 900.2,663.78 900.2,664.19 C900.2,664.36 900.2,664.52 900.2,664.68 C900.2,664.84 900.2,665.27 900.2,665.56 L900.2,666.04 C899.95,669.48 899.48,672.27 899.41,672.71 C899.41,672.71 899.41,672.71 899.41,672.71 L899.41,672.71 C899.41,672.71 899.41,672.8 899.41,672.97 C899.41,673.14 899.41,673.12 899.41,673.21 C899.41,673.3 899.41,673.38 899.41,673.48 C899.41,673.58 899.41,673.59 899.41,673.65 C899.41,673.9 899.47,674.22 899.5,674.57 C899.5,674.73 899.5,674.89 899.5,675.07 L899.5,675.07 C899.5,675.25 899.5,675.45 899.56,675.65 C899.62,675.85 899.56,675.84 899.56,675.95 C899.56,676.31 899.62,676.68 899.66,677.07 C899.7,677.46 899.74,677.88 899.78,678.3 L899.84,679.09 C899.84,679.47 899.92,679.87 899.95,680.26 L899.95,680.66 C899.95,680.93 900.01,681.19 900.03,681.47 L900.12,682.7 C900.12,682.97 900.18,683.25 900.2,683.52 L900.2,683.94 L900.33,685.56 C900.33,685.83 900.33,686.09 900.38,686.36 C900.38,686.78 900.44,687.21 900.48,687.61 C900.52,688.01 900.48,688.53 900.55,688.95 C900.62,689.37 900.6,689.79 900.61,690.17 C900.711063,691.260998 900.711063,692.359002 900.61,693.45 C899.951886,696.054169 899.431167,698.691143 899.05,701.35 C899.05,701.66 898.96,701.97 898.93,702.29 C898.9,702.61 898.93,702.66 898.93,702.85 L898.87,703.6 C898.87,704.2 898.8,704.81 898.8,705.4 C898.775329,706.67141 898.926766,707.940117 899.25,709.17 C899.5211,710.260327 899.705014,711.370497 899.8,712.49 C899.88,713.13 899.93,713.81 899.97,714.49 C900.01,715.17 900.03,715.91 900.06,716.64 C900.06,717.12 900.06,717.64 900.06,718.09 C900.12,722.84 899.86,727.38 899.86,727.38 C899.857796,727.41997 899.857796,727.46003 899.86,727.5 L899.86,727.58 C899.96,729.58 900.86,745.35 901.86,750.65 C902.033048,751.588863 902.149922,752.537215 902.21,753.49 C902.21,753.78 902.21,754.07 902.26,754.36 C902.332904,757.439413 902.095034,760.518328 901.55,763.55 C901.55,763.55 900.08,775.76 899.61,775.76 C899.37,775.76 898.17,777.98 898.2,781.23 L898.2,781.31 C898.2,784.37 899.38,788.31 903.39,792.31 L904.51,793.43 C909.19,791.76 913.83,790.02 918.46,788.25 C920.92,787.3 923.38,786.35 925.83,785.37 C931.883333,782.976667 937.883333,780.516667 943.83,777.99 L944.18,777.76 Z" id="Shape" fill="#3F3D56" fill-rule="nonzero"></path>
            <path d="M1026.64,305.35 L1003.37,330.2 C1003.37,330.2 973.51,318.2 976.65,314.2 C977.87,312.62 977.65,307.63 976.97,302.12 C975.87,293.41 973.51,283.38 973.51,283.38 C973.51,283.38 1025.7,274.89 1021.29,283.7 C1019.69,286.91 1019.96,290.7 1020.96,294.14 C1022.24426,298.155312 1024.16176,301.939668 1026.64,305.35 Z" id="Shape" fill="#7C501A" fill-rule="nonzero"></path>
            <path d="M1021.29,283.66 C1019.69,286.87 1018.92,287.18 1019.92,290.66 C1013.1,297.98 1004.42,305.99 993.63,305.99 C987.849239,306.000688 982.145363,304.665447 976.97,302.09 C975.87,293.38 973.51,283.35 973.51,283.35 C973.51,283.35 1025.7,274.85 1021.29,283.66 Z" id="Shape" fill="#000000" fill-rule="nonzero" opacity="0.1"></path>
            <path d="M1031.05,267.62 C1031.05,288.286495 1014.2965,305.04 993.63,305.04 C972.963505,305.04 956.21,288.286495 956.21,267.62 C956.21,267.44 956.21,267.26 956.21,267.08 C956.657566,246.632439 973.439142,230.332257 993.891068,230.479845 C1014.34299,230.627434 1030.88758,247.168109 1031.04,267.62 L1031.05,267.62 Z" id="Shape" fill="#7C501A" fill-rule="nonzero"></path>
            <path d="M1036.46,514.46 C1031.46,514.46 1015,514.64 996.56,514.93 L996.33,514.93 L990.24,515.03 L990.05,515.03 C968.18,515.38 946.63,511.11 937.98,511.92 C919.58,513.65 944.58,494.92 944.58,494.92 C958.286607,498.24539 972.385069,499.67206 986.48,499.16 L991.77,498.88 C1008.48,497.94 1025.28,496.37 1034.06,493.73 C1034.67,498.61 1035.56,505.68 1036.46,514.46 Z" id="Shape" fill="#000000" fill-rule="nonzero" opacity="0.1"></path>
            <path d="M1036.46,513.52 C1031.46,513.52 1015,513.69 996.56,513.99 L996.33,513.99 L990.24,514.09 L990.05,514.09 C968.18,514.44 946.63,510.17 937.98,510.98 C919.58,512.7 944.58,493.98 944.58,493.98 C958.286538,497.305154 972.385427,498.728502 986.48,498.21 L991.77,497.94 C1008.48,497 1025.28,495.42 1034.06,492.79 C1034.67,497.67 1035.56,504.76 1036.46,513.52 Z" id="Shape" fill="#5F5D7E" fill-rule="nonzero"></path>
            <path d="M983.56,315.76 L954.63,329.28 L932.32,501.86 C932.32,501.86 945.52,495.86 953.07,499.66 C960.62,503.46 983.88,499.98 983.88,499.98 C983.88,499.98 1000.88,498.98 1003.37,500.92 C1005.86,502.86 1035.45,493.06 1035.45,493.06 C1035.45,493.06 1040.79,481.11 1036.7,479.23 C1032.61,477.35 1037.96,458.76 1037.96,458.76 L1035.45,334.25 L1030.45,318.25 L1016.93,310.08 L1003.1,321.08 L996.5,322.03 L983.56,315.76 Z" id="Shape" fill="#000000" fill-rule="nonzero" opacity="0.1"></path>
            <path d="M983.56,313.84 L954.64,327.36 L932.32,499.98 C932.32,499.98 945.52,493.98 953.07,497.78 C960.62,501.58 983.88,498.09 983.88,498.09 C983.88,498.09 1000.88,497.15 1003.37,499.03 C1005.86,500.91 1035.45,491.17 1035.45,491.17 C1035.45,491.17 1040.79,479.23 1036.7,477.34 C1032.61,475.45 1037.96,456.9 1037.96,456.9 L1035.45,332.39 L1030.45,316.39 L1016.93,308.21 L1003.1,319.21 L996.5,320.15 L983.56,313.84 Z" id="Shape" fill="#E7EFFD" fill-rule="nonzero"></path>
            <path d="M983.09,321.86 C983.09,321.86 991.43,331.76 991.27,333.81 C991.11,335.86 990.8,340.72 990.8,340.72 L984.56,353.46 C984.56,353.46 981.1,369.34 981.1,372.64 C981.1,375.94 975.6,404.55 975.6,404.55 L969,448.55 L960.66,506.25 L969.15,520.87 L979.21,512.38 L992.56,409.58 L995.39,389.3 C995.39,389.3 998.39,352.83 998.39,349.06 C998.39,345.29 996.66,335.38 996.66,335.38 C996.66,335.38 998.71,325.95 1007.2,323.75 C1015.69,321.55 1006.57,323.27 1006.57,323.27 L1001.7,319.34 L997.45,321.07 C997.45,321.07 985.61,317.46 983.09,321.86 Z" id="Shape" fill="#000000" fill-rule="nonzero" opacity="0.1"></path>
            <path d="M982.15,320.92 C982.15,320.92 990.48,330.82 990.33,332.86 C990.18,334.9 989.85,339.78 989.85,339.78 L983.56,352.52 C983.56,352.52 980.1,368.39 980.1,371.69 C980.1,374.99 974.6,403.61 974.6,403.61 L967.99,447.61 L959.66,505.3 L968.15,519.92 L978.21,511.43 L991.56,408.64 L994.39,388.36 C994.39,388.36 997.39,351.89 997.39,348.11 C997.39,344.33 995.66,334.44 995.66,334.44 C995.66,334.44 997.66,325 1006.19,322.8 C1014.72,320.6 1005.57,322.33 1005.57,322.33 L1000.69,318.4 L996.45,320.13 C996.45,320.13 984.67,316.51 982.15,320.92 Z" id="Shape" fill="#3AAA96" fill-rule="nonzero"></path>
            <path d="M976.65,304.41 C976.65,304.41 975.39,305.35 975.08,311.64 C974.77,317.93 970.36,332.08 970.36,332.08 C970.36,332.08 986.71,320.76 994.89,322.02 L976.65,304.41 Z" id="Shape" fill="#000000" fill-rule="nonzero" opacity="0.1"></path>
            <path d="M976.65,302.52 C976.65,302.52 975.39,303.47 975.08,309.75 C974.77,316.03 970.36,330.19 970.36,330.19 C970.36,330.19 986.71,318.87 994.89,320.13 L976.65,302.52 Z" id="Shape" fill="#E7EFFD" fill-rule="nonzero"></path>
            <path d="M1021.3,299.38 L995.56,322.02 C995.56,322.02 1017.26,334.91 1020.09,338.02 C1022.92,341.13 1025.75,307.21 1025.75,307.21 L1021.3,299.38 Z" id="Shape" fill="#000000" fill-rule="nonzero" opacity="0.1"></path>
            <path d="M1022.24,297.49 L996.46,320.13 C996.46,320.13 1018.15,333.02 1020.98,336.13 C1023.81,339.24 1026.64,305.31 1026.64,305.31 L1022.24,297.49 Z" id="Shape" fill="#E7EFFD" fill-rule="nonzero"></path>
            <path d="M977.56,304.41 C977.56,304.41 974.73,302.99 972.06,307.08 C969.39,311.17 964.36,313.08 964.36,313.08 C964.36,313.08 935.74,317.64 934.64,321.41 L921.28,322.19 C921.28,322.19 916.56,322.76 916.12,332.76 C915.68,342.76 913.12,343.6 913.12,343.6 C913.12,343.6 907.61,353.35 908.12,358.38 C908.63,363.41 903.87,365.93 903.87,365.93 L923.56,416.97 C923.56,416.97 924.19,438.04 920.56,445.74 C916.93,453.44 910.18,487.56 910.18,487.56 C910.18,487.56 913.01,486.93 912.85,488.82 C912.69,490.71 909.39,511.3 909.39,511.3 C909.39,511.3 908.45,519.47 906.88,522.3 C905.31,525.13 905.15,539.91 905.15,539.91 L902.56,550.6 C902.56,550.6 908.56,563.96 917.66,562.07 C926.76,560.18 943.28,524.5 943.28,524.5 L953.81,485.99 L961.99,447.94 L964.35,422.16 L968.12,365.09 L973.62,327.36 C973.62,327.36 979.79,307.08 977.56,304.41 Z" id="Shape" fill="#000000" fill-rule="nonzero" opacity="0.1"></path>
            <path d="M976.65,302.52 C976.65,302.52 973.82,301.11 971.15,305.2 C968.48,309.29 963.44,311.2 963.44,311.2 C963.44,311.2 934.83,315.76 933.73,319.53 L920.37,320.32 C920.37,320.32 915.65,320.95 915.18,330.85 C914.71,340.75 912.18,341.7 912.18,341.7 C912.18,341.7 906.68,351.45 907.18,356.48 C907.68,361.51 902.94,364.02 902.94,364.02 L922.56,415.08 C922.56,415.08 923.19,436.15 919.56,443.85 C915.93,451.55 909.19,485.67 909.19,485.67 C909.19,485.67 912.02,485.04 911.86,486.93 C911.7,488.82 908.4,509.41 908.4,509.41 C908.4,509.41 907.46,517.58 905.89,520.41 C904.32,523.24 904.16,538.02 904.16,538.02 L901.66,548.76 C901.66,548.76 907.66,562.12 916.75,560.24 C925.84,558.36 942.38,522.66 942.38,522.66 L952.91,484.15 L961.09,446.15 L963.44,420.37 L967.22,363.31 L972.72,325.58 C972.72,325.58 978.85,305.2 976.65,302.52 Z" id="Shape" fill="#65617D" fill-rule="nonzero"></path>
            <path d="M875.72,424.2 L866.56,430.49 C866.56,430.49 852.62,430.93 842.66,428.49 L837.58,426.24 L836.58,425.79 L837.63,426.12 C842.89,427.68 847,427.65 850.21,426.57 C863.12,422.23 861.69,400.92 861.21,396.1 C861.21,395.62 861.13,395.31 861.11,395.19 C861.107851,395.170058 861.107851,395.149942 861.11,395.13 L861.19,395.25 C861.361599,395.543658 861.559048,395.821425 861.78,396.08 C861.960258,396.295377 862.153979,396.499119 862.36,396.69 L862.36,396.69 L866.91,405.8 C866.91,405.8 866.91,405.93 866.91,406.18 L875.72,424.2 Z" id="Shape" fill="#000000" fill-rule="nonzero" opacity="0.1"></path>
            <path d="M907.32,362.76 L902.92,364.02 L902.29,373.02 C902.29,373.02 897.1,372.24 895.69,378.37 C894.28,384.5 891.76,387.37 891.76,387.37 C891.76,387.37 883.11,394.6 882.64,400.73 L877.29,404.03 C877.29,404.03 864.87,401.2 862.04,396.17 C862.04,396.17 867.7,436.73 837.52,426.83 C837.52,426.83 871.32,441.61 872.89,443.65 C874.46,445.69 884.84,451.65 894.27,446.65 C903.7,441.65 905.75,433.76 905.75,433.76 C905.75,433.76 914.87,421.03 915.18,419.14 C915.49,417.25 922.57,415.05 922.57,415.05 L936.09,382.36 L907.32,362.76 Z" id="Shape" fill="#65617D" fill-rule="nonzero"></path>
            <path d="M1017.68,318.24 L1022.24,297.49 C1022.24,297.49 1024.24,304.25 1026.33,305.82 C1028.42,307.39 1033.09,311.01 1033.09,311.01 C1033.09,311.01 1039.85,314.16 1042.2,314.16 C1044.55,314.16 1057.3,317.46 1058.87,319.16 C1060.44,320.86 1066.73,319.63 1066.73,319.63 C1066.73,319.63 1071.92,321.36 1076.48,322.46 C1081.04,323.56 1083.24,331.11 1082.29,334.09 C1081.5193,337.110017 1082.34963,340.314326 1084.49,342.58 C1086.38,344.47 1087.32,350.58 1087.32,350.58 C1089.63555,351.333842 1091.55883,352.973128 1092.67,355.14 C1094.24,358.6 1093.77,366.14 1093.77,366.14 L1070.35,399.14 C1070.35,399.14 1070.66,411.87 1069.72,414.7 C1068.78,417.53 1073.02,465.64 1073.02,465.64 L1077.89,548.33 C1077.89,548.33 1071.45,553.83 1070.03,554.46 C1068.61,555.09 1067.2,525.22 1067.2,524.12 C1067.2,523.02 1030.89,469.72 1030.89,469.72 C1030.89,469.72 1026.01,461.86 1026.01,460.13 C1026.01,458.4 1021.45,442.53 1021.45,442.53 L1014.56,411.94 L1017.68,318.24 Z" id="Shape" fill="#000000" fill-rule="nonzero" opacity="0.1"></path>
            <path d="M1095.72,364.39 C1095.72,365.47 1095.66,366.19 1095.66,366.19 L1072.25,399.19 L1072.25,399.19 C1072.25,399.19 1072.57,411.93 1071.63,414.76 C1071.08,416.4 1072.28,433.32 1073.39,447.21 C1074.18,457.21 1074.93,465.69 1074.93,465.69 L1076.99,500.77 L1079.79,548.39 C1079.79,548.39 1073.35,553.89 1071.94,554.52 C1070.53,555.15 1069.11,525.28 1069.11,524.17 C1069.11,523.06 1032.77,469.76 1032.77,469.76 C1032.77,469.76 1027.9,461.89 1027.9,460.16 C1027.9,458.43 1023.34,442.55 1023.34,442.55 L1016.43,411.9 L1019.57,318.2 L1022.24,297.45 C1022.24,297.45 1026.17,304.22 1028.24,305.78 C1030.31,307.34 1034.99,310.97 1034.99,310.97 C1034.99,310.97 1041.75,314.12 1044.11,314.12 C1046.47,314.12 1059.2,317.42 1060.78,319.12 C1062.36,320.82 1068.64,319.59 1068.64,319.59 C1068.64,319.59 1073.82,321.32 1078.38,322.42 C1082.94,323.52 1085.14,331.07 1084.2,334.05 C1083.42342,337.070025 1084.25449,340.277172 1086.4,342.54 C1088.28,344.42 1089.23,350.54 1089.23,350.54 C1091.54392,351.296737 1093.46623,352.935188 1094.58,355.1 C1095.65,357.58 1095.75,361.94 1095.72,364.39 Z" id="Shape" fill="#65617D" fill-rule="nonzero"></path>
            <path d="M925.83,785.29 C923.38,786.29 920.92,787.22 918.46,788.17 C910.75,785.92 903.55,783.27 903.55,783.27 C911.007931,783.536781 918.445698,784.211121 925.83,785.29 Z" id="Shape" fill="#000000" fill-rule="nonzero" opacity="0.1"></path>
            <path d="M1000.23,701.36 C1000.23,701.36 1018.94,705.76 1020.04,708.75 L1000.23,701.36 Z" id="Shape" fill="#000000" fill-rule="nonzero" opacity="0.1"></path>
            <path d="M928.07,714.88 C928.07,714.88 918.32,717.71 927.76,723.37 C937.2,729.03 928.07,714.88 928.07,714.88 Z" id="Shape" fill="#000000" fill-rule="nonzero" opacity="0.1"></path>
            <path d="M971.3,563.76 C972.4,563.76 989.54,558.1 995.51,560.62 C1001.48,563.14 1008.88,563.13 1008.88,563.13 L971.3,563.76 Z" id="Shape" fill="#000000" fill-rule="nonzero" opacity="0.1"></path>
            <path d="M973.56,581.76 L973.39,583.32 L958.73,621.66 C958.73,621.66 956.37,633.29 954.32,639.89 C953.034377,644.376355 952.012628,648.93416 951.26,653.54 L964.26,573.08 L973.56,581.76 Z" id="Shape" fill="#000000" fill-rule="nonzero" opacity="0.1"></path>
            <path d="M996.33,513.99 L990.24,514.09 L990.05,514.09 L986.48,498.24 C988.23,498.16 990,498.07 991.77,497.96 L996.33,513.99 Z" id="Shape" fill="#3F3D56" fill-rule="nonzero"></path>
            <path d="M1070.5,494.76 L1066.59,497.99 L1053.56,508.76 C1053.56,508.76 1018.19,527.63 1008.45,509.7 C999.86,493.91 1039.96,482.64 1049.62,480.18 C1050.93,479.85 1051.68,479.68 1051.68,479.68 L1070.5,494.76 Z" id="Shape" fill="#7C501A" fill-rule="nonzero"></path>
            <path d="M919.43,340.25 C919.43,340.25 926.34,343.4 927.91,347.8 C929.48,352.2 919.43,340.25 919.43,340.25 Z" id="Shape" fill="#000000" fill-rule="nonzero" opacity="0.1"></path>
            <path d="M898.04,387.42 C898.04,387.42 887.98,399.68 892.04,404.42 C896.1,409.16 898.04,387.42 898.04,387.42 Z" id="Shape" fill="#000000" fill-rule="nonzero" opacity="0.1"></path>
            <path d="M1077.89,347.17 C1077.89,347.17 1068.46,348.11 1068.14,356.29 L1077.89,347.17 Z" id="Shape" fill="#000000" fill-rule="nonzero" opacity="0.1"></path>
            <path d="M990.48,476.08 C991.48,475.14 1013.12,443.08 1018.15,445.9 L990.48,476.08 Z" id="Shape" fill="#000000" fill-rule="nonzero" opacity="0.1"></path>
            <path d="M1070.5,494.76 L1066.59,497.99 C1063.14,492.24 1048.97,480.76 1048.97,480.76 L1049.58,480.17 C1050.89,479.84 1051.64,479.67 1051.64,479.67 L1070.5,494.76 Z" id="Shape" fill="#000000" fill-rule="nonzero" opacity="0.1"></path>
            <path d="M1074.28,488.97 C1074.28,488.97 1072.87,492.47 1071.42,495.5 C1069.97,498.53 1068.42,501.27 1068.3,499.04 C1068.14,494.63 1049.91,479.85 1049.91,479.85 L1052.38,477.45 L1055.25,474.66 L1074.28,488.97 Z" id="Shape" fill="#E7EFFD" fill-rule="nonzero"></path>
            <path d="M1074.91,465.7 L1076.97,500.78 C1072.09,493.19 1058.68,473.72 1050.06,474.35 L1070.97,450.35 C1071.84355,449.382827 1072.64567,448.35345 1073.37,447.27 C1074.16,457.25 1074.91,465.7 1074.91,465.7 Z" id="Shape" fill="#000000" fill-rule="nonzero" opacity="0.1"></path>
            <path d="M1074.28,488.97 C1074.28,488.97 1072.87,492.47 1071.42,495.5 C1065.94,487.98 1058.42,479.11 1052.42,477.45 L1055.29,474.66 L1074.28,488.97 Z" id="Shape" fill="#000000" fill-rule="nonzero" opacity="0.1"></path>
            <path d="M1090,361.76 L1095.66,366.16 C1095.66,366.16 1105.09,366.32 1106.03,374.16 C1106.97,382 1115.62,385.64 1115.62,385.64 C1115.62,385.64 1122.07,392.08 1122.07,395.07 C1122.07,398.06 1126.94,403.4 1126.94,403.87 C1126.94,404.34 1131.66,413.93 1131.03,415.66 C1130.4,417.39 1136.03,424.94 1134.33,427.77 C1132.90984,430.308396 1131.65069,432.933575 1130.56,435.63 C1130.56,435.63 1123.17,449.78 1119.39,452.45 C1115.61,455.12 1098.33,477.6 1098.33,477.6 C1098.33,477.6 1079.78,498.98 1079.78,505.6 C1079.78,505.6 1061.7,475.41 1051.01,476.2 L1071.92,452.15 C1071.92,452.15 1075.53,448.22 1075.69,445.86 C1075.85,443.5 1085.75,432.65 1090.47,432.18 C1090.47,432.18 1091.25,425.73 1089.21,425.58 C1087.17,425.43 1085.44,420.39 1085.44,420.39 C1085.44,420.39 1071.6,404.04 1071.44,393.66 C1071.28,383.28 1090,361.76 1090,361.76 Z" id="Shape" fill="#65617D" fill-rule="nonzero"></path>
            <path d="M1098.33,376.76 C1098.33,376.76 1085.12,386.5 1087.95,389.65 C1090.78,392.8 1098.33,376.76 1098.33,376.76 Z" id="Shape" fill="#000000" fill-rule="nonzero" opacity="0.1"></path>
            <path d="M1098.96,416.97 C1098.96,416.97 1123.48,409.11 1125.96,416.97 L1098.96,416.97 Z" id="Shape" fill="#000000" fill-rule="nonzero" opacity="0.1"></path>
            <path d="M925.95,374.84 C925.95,374.84 925.95,410.68 922.88,414.22 C919.81,417.76 925.95,374.84 925.95,374.84 Z" id="Shape" fill="#000000" fill-rule="nonzero" opacity="0.1"></path>
            <path d="M1067.67,386.39 L1072.23,399.2 C1072.23,399.2 1074.04,386.63 1067.67,386.39 Z" id="Shape" fill="#000000" fill-rule="nonzero" opacity="0.1"></path>
            <circle id="Oval" fill="#E6E8EC" fill-rule="nonzero" cx="812.53" cy="368.97" r="1"></circle>
            <path d="M498.26,588.39 C498.26,588.39 509.26,580.5 520.69,585.39 C520.69,585.39 517.49,592.17 503.29,592.08 L498.26,588.39 Z" id="Shape" fill="#3AAA96" fill-rule="nonzero"></path>
            <path d="M496.89,588.85 C496.89,588.85 493.95,602.08 502.89,610.66 C502.89,610.66 507.89,605.06 502.22,592.03 L496.89,588.85 Z" id="Shape" fill="#3AAA96" fill-rule="nonzero"></path>
            <path d="M482.31,576.81 C482.31,576.81 482.72,565.64 508.01,568.37 C508.01,568.37 508.41,575.56 499.71,579.3 C491.01,583.04 486.86,580.33 482.31,576.81 Z" id="Shape" fill="#3AAA96" fill-rule="nonzero"></path>
            <path d="M480.76,576.76 C480.76,576.76 470.26,580.58 480.64,603.81 C480.64,603.81 487.64,601.97 488.48,592.54 C489.32,583.11 485.5,580.04 480.76,576.76 Z" id="Shape" fill="#3AAA96" fill-rule="nonzero"></path>
            <path d="M465.92,561.54 C465.92,561.54 463.78,543.27 489.56,544.16 C489.56,544.16 492.02,560.68 470.63,565.77 L465.92,561.54 Z" id="Shape" fill="#3AAA96" fill-rule="nonzero"></path>
            <path d="M448.14,541.5 C448.14,541.5 450.87,520.59 476.8,525.8 C476.8,525.8 477.58,543.8 452.52,546.29 L448.14,541.5 Z" id="Shape" fill="#3AAA96" fill-rule="nonzero"></path>
            <path d="M434.91,520.58 C434.91,520.58 440.03,500.08 465.72,505.21 C465.72,505.21 460.36,523.63 436.72,524.21 L434.91,520.58 Z" id="Shape" fill="#3AAA96" fill-rule="nonzero"></path>
            <path d="M422.32,500.14 C422.32,500.14 427.32,478.92 452.09,484.29 C452.09,484.29 444.65,504.55 424.09,503.66 L422.32,500.14 Z" id="Shape" fill="#3AAA96" fill-rule="nonzero"></path>
            <path d="M413.95,480.59 C413.95,480.59 417.4,454.76 440.56,459.54 C440.56,459.54 434.8,483.16 415.8,484.26 L413.95,480.59 Z" id="Shape" fill="#3AAA96" fill-rule="nonzero"></path>
            <path d="M405.91,456.88 C405.91,456.88 410.24,430.79 433.69,437.43 C433.69,437.43 425.54,462.24 407.69,460.43 L405.91,456.88 Z" id="Shape" fill="#3AAA96" fill-rule="nonzero"></path>
            <path d="M400.64,434.76 C400.64,434.76 408.1,408.55 426.06,408.56 C426.06,408.56 418.46,436.23 402.34,439.89 L400.64,434.76 Z" id="Shape" fill="#3AAA96" fill-rule="nonzero"></path>
            <path d="M397.01,413.07 C397.01,413.07 405.01,381.56 419.69,383.4 C419.69,383.4 414.24,407.46 397.69,417.9 L397.01,413.07 Z" id="Shape" fill="#3AAA96" fill-rule="nonzero"></path>
            <path d="M394.42,387.12 C394.42,387.12 402.04,360.82 416.42,359.24 C416.42,359.24 411.53,385.01 395.01,393.85 L394.42,387.12 Z" id="Shape" fill="#3AAA96" fill-rule="nonzero"></path>
            <path d="M391.75,362.97 C391.75,362.97 401.5,336.57 411,335.62 C411,335.62 407.31,361.39 392.86,367.2 L391.75,362.97 Z" id="Shape" fill="#3AAA96" fill-rule="nonzero"></path>
            <path d="M389.69,340.47 C389.69,340.47 395.22,311.98 404.63,309.28 C404.63,309.28 404.22,332.42 390.73,342.54 L389.69,340.47 Z" id="Shape" fill="#3AAA96" fill-rule="nonzero"></path>
            <path d="M384.98,311.1 C384.98,311.1 391.07,288.33 398.64,284.61 C398.64,284.61 398.13,311.19 386.98,316.53 L384.98,311.1 Z" id="Shape" fill="#3AAA96" fill-rule="nonzero"></path>
            <path d="M381.27,291.83 L378.35,252.2 C378.35,252.2 393.86,281.6 382.56,298.76 L381.27,291.83 Z" id="Shape" fill="#3AAA96" fill-rule="nonzero"></path>
            <path d="M368.64,252.82 C368.64,252.82 357.18,224.25 354.64,222.73 C354.64,222.73 375.64,240.73 374.64,265 L368.64,252.82 Z" id="Shape" fill="#3AAA96" fill-rule="nonzero"></path>
            <path d="M465.21,561.43 C465.21,561.43 446.89,559.75 448.42,585.49 C448.42,585.49 465,587.49 469.56,566.03 L465.21,561.43 Z" id="Shape" fill="#3AAA96" fill-rule="nonzero"></path>
            <path d="M447.25,540.84 C447.25,540.84 426.18,541.58 428.91,567.84 C428.91,567.84 446.71,570.32 451.6,545.62 L447.25,540.84 Z" id="Shape" fill="#3AAA96" fill-rule="nonzero"></path>
            <path d="M434.77,522.3 C434.77,522.3 415.3,514.06 403.95,537.67 C403.95,537.67 421.9,544.47 436.6,525.97 L434.77,522.3 Z" id="Shape" fill="#3AAA96" fill-rule="nonzero"></path>
            <path d="M421.9,500.35 C421.9,500.35 401.95,491.56 391.32,514.61 C391.32,514.61 411.99,520.85 423.65,503.87 L421.9,500.35 Z" id="Shape" fill="#3AAA96" fill-rule="nonzero"></path>
            <path d="M414.22,481.14 C414.22,481.14 394.69,463.86 380.35,482.64 C380.35,482.64 400.17,496.71 415.24,485.11 L414.22,481.14 Z" id="Shape" fill="#3AAA96" fill-rule="nonzero"></path>
            <path d="M406.96,456.23 C406.96,456.23 387.29,438.54 373.11,458.37 C373.11,458.37 394.97,472.66 407.78,460.06 L406.96,456.23 Z" id="Shape" fill="#3AAA96" fill-rule="nonzero"></path>
            <path d="M402.56,433.93 C402.56,433.93 387.07,411.51 370.08,417.29 C370.08,417.29 386.16,441.05 402.6,439.29 L402.56,433.93 Z" id="Shape" fill="#3AAA96" fill-rule="nonzero"></path>
            <path d="M397.43,412.91 C397.43,412.91 381.6,384.51 367.88,390.07 C367.88,390.07 379.34,411.92 398,417.76 L397.43,412.91 Z" id="Shape" fill="#3AAA96" fill-rule="nonzero"></path>
            <path d="M395.37,385.6 C395.37,385.6 379.37,363.39 365.31,366.72 C365.31,366.72 378.55,389.35 397.09,392.14 L395.37,385.6 Z" id="Shape" fill="#3AAA96" fill-rule="nonzero"></path>
            <path d="M393.33,362.4 C393.33,362.4 380.63,337.28 371.08,337.4 C371.08,337.4 377.69,362.58 392.7,366.71 L393.33,362.4 Z" id="Shape" fill="#3AAA96" fill-rule="nonzero"></path>
            <path d="M390.14,339.89 C390.14,339.89 376.14,314.49 366.32,314.82 C366.32,314.82 373.84,336.71 389.79,342.19 L390.14,339.89 Z" id="Shape" fill="#3AAA96" fill-rule="nonzero"></path>
            <path d="M387.13,312.6 C387.13,312.6 376.56,291.54 368.4,289.43 C368.4,289.43 374.27,315.36 386.28,318.33 L387.13,312.6 Z" id="Shape" fill="#3AAA96" fill-rule="nonzero"></path>
            <path d="M380.08,291.12 L357.02,258.76 C357.02,258.76 363.86,291.28 383.5,297.31 L380.08,291.12 Z" id="Shape" fill="#3AAA96" fill-rule="nonzero"></path>
            <path d="M363.75,255.68 C363.75,255.68 337.75,239.17 336.75,236.39 C336.75,236.39 350.61,260.39 374.65,263.78 L363.75,255.68 Z" id="Shape" fill="#3AAA96" fill-rule="nonzero"></path>
            <path d="M361.93,247.88 C361.93,247.88 331.79,221.05 324.37,221.36 C324.37,221.36 348.37,221.54 362.57,246.36 L361.93,247.88 Z" id="Shape" fill="#3AAA96" fill-rule="nonzero"></path>
            <path d="M387.01,316.76 L385.95,316.94 C378.85,274.39 369.95,249.42 360.8,246.64 L361.11,245.64 C370.78,248.56 379.73,273.17 387.01,316.76 Z" id="Shape" fill="#444053" fill-rule="nonzero"></path>
            <path d="M398.95,418.7 L397.36,418.9 C396.87,414.9 396.46,410.84 396.12,406.78 C393.24,371.44 389.63,339.03 385.59,314.78 L386.47,313.6 C390.47,337.89 394.84,371.26 397.73,406.6 C398.05,410.69 398.47,414.76 398.95,418.7 Z" id="Shape" fill="#444053" fill-rule="nonzero"></path>
            <path d="M528.9,607.61 C528.61,607.49 499.96,596 469.57,567.11 C451.777132,550.205513 436.774534,530.589067 425.12,508.99 C410.55,481.99 401.01,448.47 396.99,415.71 L398.69,416.43 C407.69,489.95 443.23,539.09 470.98,565.49 C501.07,594.12 529.4,605.49 529.68,605.62 L528.9,607.61 Z" id="Shape" fill="#444053" fill-rule="nonzero"></path>
            <g id="Group" opacity="0.7" transform="translate(467.000000, 172.000000)" fill-rule="nonzero">
                <path d="M81.81,402.99 C81.81,402.99 94.67,398.74 104.11,406.78 C104.11,406.78 99.04,412.31 85.51,407.99 L81.81,402.99 Z" id="Shape" fill="#3AAA96"></path>
                <path d="M80.36,403.01 C80.36,403.01 73.62,414.77 79.62,425.63 C79.62,425.63 86.05,421.76 84.52,407.63 L80.36,403.01 Z" id="Shape" fill="#3AAA96"></path>
                <path d="M70.02,387.19 C70.02,387.19 73.74,376.64 97.02,386.78 C97.02,386.78 95.26,393.78 85.84,394.78 C76.42,395.78 73.32,391.9 70.02,387.19 Z" id="Shape" fill="#3AAA96"></path>
                <path d="M68.56,386.76 C68.56,386.76 57.39,387.29 60.4,412.55 C60.4,412.55 67.58,412.87 71.23,404.13 C74.88,395.39 72.11,391.22 68.56,386.76 Z" id="Shape" fill="#3AAA96"></path>
                <path d="M58.91,367.76 C58.91,367.76 62.31,349.68 86.65,358.2 C86.65,358.2 84.08,374.7 62.15,373.2 L58.91,367.76 Z" id="Shape" fill="#3AAA96"></path>
                <path d="M47.9,343.31 C47.9,343.31 56.73,324.16 79.9,336.85 C79.9,336.85 75.31,354.22 50.63,349.18 L47.9,343.31 Z" id="Shape" fill="#3AAA96"></path>
                <path d="M41.49,319.4 C41.49,319.4 52.49,301.35 75.49,313.89 C75.49,313.89 64.89,329.89 42.15,323.45 L41.49,319.4 Z" id="Shape" fill="#3AAA96"></path>
                <path d="M35.56,296.14 C35.56,296.14 46.62,277.36 68.71,289.86 C68.71,289.86 55.58,306.99 36.19,300.02 L35.56,296.14 Z" id="Shape" fill="#3AAA96"></path>
                <path d="M33.39,274.98 C33.39,274.98 44.39,251.33 65.03,262.8 C65.03,262.8 52.5,283.63 34.03,279.03 L33.39,274.98 Z" id="Shape" fill="#3AAA96"></path>
                <path d="M32.76,249.96 C32.76,249.96 44.66,226.34 65.07,239.66 C65.07,239.66 49.9,260.92 33.39,253.83 L32.76,249.96 Z" id="Shape" fill="#3AAA96"></path>
                <path d="M34.32,227.25 C34.32,227.25 49.24,204.45 66.38,209.8 C66.38,209.8 50.89,233.96 34.38,232.66 L34.32,227.25 Z" id="Shape" fill="#3AAA96"></path>
                <path d="M37.3,205.48 C37.3,205.48 54.3,177.77 67.78,183.91 C67.78,183.91 55.41,205.25 36.53,210.3 L37.3,205.48 Z" id="Shape" fill="#3AAA96"></path>
                <path d="M42.56,179.93 C42.56,179.93 57.66,157.1 71.84,159.86 C71.84,159.86 59.51,183.01 41.1,186.54 L42.56,179.93 Z" id="Shape" fill="#3AAA96"></path>
                <path d="M47.18,156.09 C47.18,156.09 64.35,133.78 73.7,135.7 C73.7,135.7 62.51,159.2 46.99,160.46 L47.18,156.09 Z" id="Shape" fill="#3AAA96"></path>
                <path d="M51.91,133.99 C51.91,133.99 65.66,108.44 75.46,108.66 C75.46,108.66 68.18,130.66 52.28,136.28 L51.91,133.99 Z" id="Shape" fill="#3AAA96"></path>
                <path d="M56.16,104.55 C56.16,104.55 68.74,84.63 77.08,83.32 C77.08,83.32 68.68,108.55 56.45,110.32 L56.16,104.55 Z" id="Shape" fill="#3AAA96"></path>
                <path d="M58.34,85.04 L67.34,46.35 C67.34,46.35 73.41,79.02 57.54,92.08 L58.34,85.04 Z" id="Shape" fill="#3AAA96"></path>
                <path d="M57.89,44.05 C57.89,44.05 55.45,13.36 53.46,11.15 C53.46,11.15 68.19,34.61 59.96,57.45 L57.89,44.05 Z" id="Shape" fill="#3AAA96"></path>
                <path d="M58.27,367.42 C58.27,367.42 41.27,360.35 35.09,385.42 C35.09,385.42 50.3,392.31 61.09,373.13 L58.27,367.42 Z" id="Shape" fill="#3AAA96"></path>
                <path d="M47.25,342.41 C47.25,342.41 26.92,336.85 21.7,362.77 C21.7,362.77 37.95,370.44 49.98,348.31 L47.25,342.41 Z" id="Shape" fill="#3AAA96"></path>
                <path d="M40.85,321 C40.85,321 24.72,307.34 6.85,326.51 C6.85,326.51 21.96,338.34 41.5,325.05 L40.85,321 Z" id="Shape" fill="#3AAA96"></path>
                <path d="M35.09,296.22 C35.09,296.22 18.67,281.89 1.66,300.76 C1.66,300.76 19.53,312.86 35.72,300.11 L35.09,296.22 Z" id="Shape" fill="#3AAA96"></path>
                <path d="M33.48,275.59 C33.48,275.59 19.97,253.28 0.7,266.94 C0.7,266.94 15.43,286.28 33.27,279.68 L33.48,275.59 Z" id="Shape" fill="#3AAA96"></path>
                <path d="M33.96,249.64 C33.96,249.64 20.44,226.91 0.96,241.64 C0.96,241.64 17.58,261.79 33.56,253.57 L33.96,249.64 Z" id="Shape" fill="#3AAA96"></path>
                <path d="M36.38,227.04 C36.38,227.04 28.27,201.04 10.32,201.49 C10.32,201.49 18.61,228.97 34.82,232.22 L36.38,227.04 Z" id="Shape" fill="#3AAA96"></path>
                <path d="M37.75,205.45 C37.75,205.45 31.08,173.63 16.33,174.86 C16.33,174.86 20.77,199.13 36.85,210.25 L37.75,205.45 Z" id="Shape" fill="#3AAA96"></path>
                <path d="M43.91,178.76 C43.91,178.76 35.24,152.76 20.82,151.76 C20.82,151.76 26.74,177.32 43.6,185.49 L43.91,178.76 Z" id="Shape" fill="#3AAA96"></path>
                <path d="M48.86,156.01 C48.86,156.01 44.21,128.25 35.05,125.54 C35.05,125.54 33.87,151.54 46.98,159.96 L48.86,156.01 Z" id="Shape" fill="#3AAA96"></path>
                <path d="M52.56,133.57 C52.56,133.57 46.73,105.15 37.28,102.57 C37.28,102.57 37.94,125.7 51.55,135.68 L52.56,133.57 Z" id="Shape" fill="#3AAA96"></path>
                <path d="M57.76,106.63 C57.76,106.63 53.93,83.38 46.76,78.92 C46.76,78.92 44.65,105.43 55.23,111.84 L57.76,106.63 Z" id="Shape" fill="#3AAA96"></path>
                <path d="M57.42,84.02 L45.03,46.27 C45.03,46.27 41.88,79.36 58.84,90.96 L57.42,84.02 Z" id="Shape" fill="#3AAA96"></path>
                <path d="M52.37,45.33 C52.37,45.33 32.46,21.83 32.37,18.87 C32.37,18.87 38.46,45.87 60.37,56.29 L52.37,45.33 Z" id="Shape" fill="#3AAA96"></path>
                <path d="M52.95,37.34 C52.95,37.34 32.16,2.75 24.95,0.84 C24.95,0.84 47.83,8.16 53.95,36.08 L52.95,37.34 Z" id="Shape" fill="#3AAA96"></path>
                <path d="M56.4,110.56 L55.34,110.41 C61.22,67.68 60.12,41.18 52.24,35.81 L52.85,34.93 C61.2,40.62 62.43,66.76 56.4,110.56 Z" id="Shape" fill="#444053"></path>
                <path d="M37.48,211.44 L35.9,211.15 C36.62,207.2 37.43,203.15 38.33,199.21 C46.09,164.62 52.33,132.6 55.64,108.21 L56.83,107.35 C53.47,131.74 47.67,164.89 39.89,199.52 C39.01,203.52 38.19,207.51 37.48,211.44 Z" id="Shape" fill="#444053"></path>
                <path d="M105.34,430.45 C105.1,430.26 81.16,410.75 60.75,374.14 C48.7713992,352.709892 40.2690236,329.514844 35.56,305.42 C29.68,275.3 30.56,240.42 36.45,208 L37.86,209.19 C24.61,282.07 43.86,339.55 62.53,373.01 C82.74,409.29 106.4,428.59 106.64,428.78 L105.34,430.45 Z" id="Shape" fill="#444053"></path>
            </g>
            <path d="M333.36,510.33 C331.009056,511.298736 328.566816,512.029063 326.07,512.51 C321.706967,513.326551 317.278759,513.744938 312.84,513.76 C312.97,514.93 313.07,516.02 313.17,517.01 C313.41,519.73 313.55,521.6 313.55,521.6 L308.86,521.28 L270.18,518.64 L247.56,515.29 C248.651797,516.755397 249.837627,518.14833 251.11,519.46 C252.42776,520.854862 253.952256,522.038707 255.63,522.97 C255.63,522.97 276.04,539.5 279.57,539.65 C280.07,539.65 280.23,540.15 280.15,540.94 C288.74,540.94 315.45,542.19 308.04,557.06 C306.814057,559.710674 304.652469,561.815285 301.97,562.97 C293.4,566.6 280.47,560.07 273.81,556.06 C273.16,557.33 272.54,558.51 271.99,559.52 C270.86,561.65 270.07,563.06 270.07,563.06 L269.4,562.58 L235.08,538.14 L227.56,531.76 C225.351056,531.659137 223.163719,531.279461 221.05,530.63 L221.05,530.63 L220.05,530.31 C220.006543,530.397082 219.969771,530.487342 219.94,530.58 C219.666175,531.360412 219.462044,532.163552 219.33,532.98 C219.33,533.1 219.33,533.22 219.33,533.34 C219.189647,534.271384 219.096196,535.209234 219.05,536.15 C219.05,536.79 219,537.47 219,538.15 C218.94,551.77 224.4,573.66 224.4,573.66 C224.4,573.66 238.55,609.75 233.53,618.08 L233.53,618.08 C233.271283,618.502524 232.931404,618.869593 232.53,619.16 C230.76,620.44 229.7,622.72 229.15,625.43 C227.28,634.27 230.56,647.76 230.56,647.76 C230.56,647.76 230.26,648.26 229.75,649.04 C228.646538,650.804034 227.402499,652.476129 226.03,654.04 C225.82,654.28 225.6,654.53 225.37,654.76 C224.750766,655.410696 224.082103,656.012492 223.37,656.56 C223.5,656.95 223.64,657.35 223.78,657.78 C223.92,658.21 224.1,658.88 224.24,659.48 C225.353601,664.394682 224.916908,669.533689 222.99,674.19 C221.679357,677.584247 220.831741,681.139525 220.47,684.76 L220.47,684.76 C219.81972,691.38902 219.991018,698.072991 220.98,704.66 C220.83,704.58 220.7,704.5 220.55,704.43 C209.49,698.65 198.586667,692.613333 187.84,686.32 C184.69,684.5 181.56,682.64 178.45,680.77 C174.623333,678.463333 170.813333,676.13 167.02,673.77 C162.02,670.65 157.02,667.45 152.02,664.18 L149.68,662.62 L148.78,662.01 C147.51,661.16 146.26,660.31 145,659.45 C139.829958,652.768588 135.106366,645.753353 130.86,638.45 C130.15,637.18 129.51,635.97 128.98,634.86 L128.98,634.8 L128.64,634.07 L127.23,633.57 L127.23,633.57 C124.58,632.64 122.9,631.99 122.9,631.99 L122.9,631.99 C124.123057,627.528217 124.708859,622.915865 124.64,618.29 C124.56,609.29 122.07,597.29 111.81,587.67 C96.65,573.34 94.56,559.19 94.34,553.76 C94.34,553.38 94.34,553.04 94.34,552.76 C94.3349769,552.30258 94.3550069,551.845229 94.4,551.39 L95.56,550.28 C92.62,549.69 89.86,549.42 89.86,549.42 C89.86,549.42 99.92,513.02 116.86,500.87 C125.26,494.87 132.25,484.87 137.19,476.29 C146.20167,460.783758 156.32132,445.948512 167.47,431.9 L170.52,428.05 L171.41,426.92 L171.6,426.69 L171.84,426.37 C171.426667,425.743333 171.006667,425.123333 170.58,424.51 L170.3,424.1 C168.97,422.1 167.83,420.1 168.01,417.71 C168.01,417.71 168.01,417.66 168.01,417.64 C168.01,417.47 168.01,417.31 168.01,417.13 C168.052436,416.731529 168.125994,416.336991 168.23,415.95 C168.264151,416.0137 168.304335,416.073976 168.35,416.13 C169.78,411.97 175.29,410.13 179.35,407.83 C188.92,402.45 193,390.68 195.05,379.73 C196.64,371.21 197.96,361.66 204.56,356.19 C208.82,352.67 214.56,351.51 218.87,348.02 C221.36364,345.816408 223.425408,343.167986 224.95,340.21 C225.95,338.51 226.81,336.75 227.74,335.05 C232,327.35 237.6,320.19 245.01,315.58 C252.42,310.97 261.82,309.18 269.94,312.28 C273.07,313.47 275.94,315.28 278.94,316.61 C280.792392,317.365437 282.706042,317.960944 284.66,318.39 C290.77,319.82 297.2,320.19 302.94,322.74 C312.27,326.88 318.34,336.04 323.88,344.74 C326.75,349.24 331.26,355.82 333.82,362.44 C333.82,362.2 333.82,361.98 333.82,361.75 C335.054385,364.665165 335.732712,367.785466 335.82,370.95 C335.869987,372.297082 335.725159,373.644322 335.39,374.95 C334.47,378.35 332.12,380.5 329.17,382.08 L328.7,382.31 C328.069216,382.634192 327.421635,382.924602 326.76,383.18 C326.66,383.73 326.55,384.29 326.43,384.83 C326.38,385.06 326.32,385.3 326.26,385.53 C326.13,386.09 325.98,386.64 325.82,387.19 C323.682358,394.337307 319.513223,400.709136 313.82,405.53 C309.877213,408.903033 305.320579,411.483541 300.4,413.13 C300.05,413.25 299.68,413.34 299.33,413.45 C299.032553,414.286945 298.607536,415.072889 298.07,415.78 C297.680484,416.278411 297.222645,416.719418 296.71,417.09 C296.390639,417.306478 296.056485,417.500287 295.71,417.67 C295.625144,417.723292 295.534578,417.766898 295.44,417.8 C291.84,419.42 286.91,418.15 283.44,415.73 C283.26,415.61 283.09,415.47 282.92,415.34 C282.92,415.91 282.83,416.51 282.73,417.13 C282.63,417.75 282.56,418.13 282.45,418.65 C282.34,419.17 282.3,419.42 282.23,419.79 C282.16,420.16 282.11,420.41 282.05,420.7 L281.93,421.21 C279.949001,430.862005 276.169952,440.055203 270.79,448.31 C270.009804,449.492178 269.165196,450.630563 268.26,451.72 L265.78,455.5 L265.78,456.01 C266.25,464.71 263.39,472.82 259.35,479.8 C257.997186,482.114115 256.51136,484.347862 254.9,486.49 L255.46,486.82 C261.06,490.01 272.1,495.68 279.08,495.2 C279.08,495.2 305.48,498.61 308.54,496.9 C308.96,496.66 309.37,496.99 309.75,497.7 C314.02,495.1 323.84,489.59 331.59,488.86 C337.01,488.34 341.42,490.15 342.24,496.86 C343.06,503.57 339.02,507.9 333.36,510.33 Z" id="Shape" fill="url(#linearGradient-1)" fill-rule="nonzero"></path>
            <path d="M188.85,647.84 C192.275207,653.683266 192.806765,660.781781 190.29,667.07 C187.86,673.16 187.59,680.75 187.84,686.32 C184.69,684.5 181.56,682.64 178.45,680.77 C174.623333,678.463333 170.813333,676.13 167.02,673.77 C162.02,670.65 157.02,667.45 152.02,664.18 L149.68,662.62 L148.78,662.01 C148.701351,661.86449 148.603842,661.729995 148.49,661.61 C147.15,660.19 139.34,648.99 134.7,640.49 C133.86,638.93 133.13,637.49 132.55,636.17 L132.55,636.1 C131.55,633.88 131.08,632.1 131.38,631.29 C132.114621,628.714272 133.865497,626.54824 136.23,625.29 C141.99,622.29 151.23,625.06 160.37,629.47 C168.233923,633.444614 175.770806,638.035626 182.91,643.2 L183.72,643.79 L183.8,643.85 C186.8,645.98 188.54,647.39 188.54,647.39 C188.54,647.39 188.67,647.55 188.85,647.84 Z" id="Shape" fill="#926A2D" fill-rule="nonzero"></path>
            <path d="M187.33,646.51 C190.761663,652.358524 191.29334,659.46601 188.77,665.76 C186.34,671.85 186.07,679.44 186.32,685.02 C183.173333,683.186667 180.043333,681.333333 176.93,679.46 C173.096667,677.153333 169.286667,674.82 165.5,672.46 C160.5,669.33 155.5,666.13 150.55,662.86 L148.21,661.3 L147.31,660.69 C147.228877,660.546061 147.13158,660.411858 147.02,660.29 C145.68,658.88 137.87,647.68 133.23,639.17 C132.39,637.61 131.66,636.17 131.08,634.85 L131.08,634.79 C130.08,632.56 129.61,630.79 129.91,629.97 C130.647747,627.395896 132.39774,625.230956 134.76,623.97 C140.52,620.97 149.76,623.74 158.9,628.15 C166.763923,632.124614 174.300806,636.715626 181.44,641.88 L182.25,642.47 L182.33,642.53 C185.33,644.66 187.07,646.07 187.07,646.07 C187.07,646.07 187.15,646.22 187.33,646.51 Z" id="Shape" fill="#000000" fill-rule="nonzero" opacity="0.05"></path>
            <path d="M224.15,670.76 C223.859121,672.472061 223.386447,674.14821 222.74,675.76 C221.632617,678.660476 220.870702,681.681284 220.47,684.76 L220.47,684.76 C219.682506,691.29471 219.709378,697.901912 220.55,704.43 C209.49,698.65 198.586667,692.613333 187.84,686.32 C184.69,684.5 181.56,682.64 178.45,680.77 C177.75,675.45 176.75,670.77 175.62,669.62 C174.14,668.06 165.69,655.98 160.44,646.45 C159.76,645.25 159.17,644.09 158.62,642.99 L158.62,642.94 C158.41,642.5 158.21,642.08 158.02,641.66 C156.67,638.76 155.95,636.5 156.31,635.41 C157.011722,633.039852 158.455942,630.957652 160.43,629.47 C169.3,622.99 187.74,631.76 201.9,640.47 L202.25,640.68 C204.93,642.35 207.47,644 209.75,645.54 L211.08,646.44 C216.94,650.44 220.83,653.55 220.83,653.55 C221.79642,655.040712 222.572452,656.646527 223.14,658.33 C223.474008,659.279327 223.751165,660.247709 223.97,661.23 C224.661991,664.363226 224.723181,667.602878 224.15,670.76 L224.15,670.76 Z" id="Shape" fill="#926A2D" fill-rule="nonzero"></path>
            <path d="M134.75,640.49 C142.02,643.03 152.75,646.4 158.59,646.49 C159.19477,646.508549 159.800053,646.478452 160.4,646.4 L160.4,646.4 C164.51,645.84 177.18,646.74 188.81,647.79 C193.47,648.2 197.96,648.63 201.67,649.01 L210.99,650.01 L210.99,646.41 C208.4,644.63 205.39,642.65 202.17,640.65 C187.96,631.87 169.29,622.9 160.35,629.43 C147.76,623.35 134.98,620.43 131.35,631.25 C130.93,632.66 132.46,636.24 134.75,640.49 Z" id="Shape" fill="#000000" fill-rule="nonzero" opacity="0.1"></path>
            <path d="M99.82,556.68 C100.02,562.07 102.04,576.06 116.51,590.19 C134.97,608.19 127.1,634.07 127.1,634.07 C127.1,634.07 149.1,642.71 158.59,642.94 C159.19477,642.958549 159.800053,642.928452 160.4,642.85 C166.09,642.06 188.71,644.15 201.71,645.46 L211.03,646.46 L211.03,569.94 L109.09,545.18 L99.86,554.38 C99.7976413,555.14503 99.7842807,555.913265 99.82,556.68 Z" id="Shape" fill="#5C5C8E" fill-rule="nonzero"></path>
            <g id="Group" transform="translate(0.560000, 0.760000)"></g>
            <g id="Group" opacity="0.1" transform="translate(99.000000, 545.000000)" fill-rule="nonzero" fill="#000000">
                <path d="M110.36,100.51 L112.03,100.68 L112.03,101.5 L102.71,100.5 C93.38,99.56 79.12,98.22 69.71,97.83 C76.22,97.25 97.77,99.24 110.36,100.51 Z" id="Shape"></path>
                <path d="M0.86,9.43 L10.09,0.23 L16.25,1.72 L8.56,9.43 C8.51096843,10.1958827 8.51096843,10.9641173 8.56,11.73 C8.76,17.12 10.78,31.1 25.25,45.24 C43.71,63.24 35.84,89.11 35.84,89.11 C35.84,89.11 54.04,96.26 64.47,97.73 C63.4674786,97.7258057 62.4656298,97.7825772 61.47,97.9 C60.870053,97.9784524 60.2647703,98.0085493 59.66,97.99 C50.17,97.75 28.17,89.11 28.17,89.11 C28.17,89.11 36.04,63.24 17.58,45.24 C3.04,31.1 1.02,17.12 0.82,11.76 C0.782991561,10.9832846 0.796352888,10.2049874 0.86,9.43 Z" id="Shape"></path>
            </g>
            <path d="M303.56,502.64 C303.56,502.64 334.39,481.26 336.64,500.5 C338.89,519.74 303.56,517.04 303.56,517.04 L303.56,502.64 Z" id="Shape" fill="#926A2D" fill-rule="nonzero"></path>
            <path d="M250.4,488.46 C250.4,488.46 267.07,499.46 276.3,498.81 C276.3,498.81 301.5,502.19 304.43,500.5 C307.36,498.81 309.16,524.92 309.16,524.92 L267.75,521.99 L241.19,517.94 C241.19,517.94 227.91,509.84 227.91,502.86 C227.91,495.88 250.4,488.46 250.4,488.46 Z" id="Shape" fill="#F7CDDD" fill-rule="nonzero"></path>
            <path d="M250.4,488.46 C250.4,488.46 267.07,499.46 276.3,498.81 C276.3,498.81 301.5,502.19 304.43,500.5 C307.36,498.81 309.16,524.92 309.16,524.92 L267.75,521.99 L241.19,517.94 C241.19,517.94 227.91,509.84 227.91,502.86 C227.91,495.88 250.4,488.46 250.4,488.46 Z" id="Shape" fill="#3AAA96" fill-rule="nonzero"></path>
            <path d="M274.84,544.1 C274.84,544.1 312.33,542.55 303.93,560.01 C295.53,577.47 267.13,556.27 267.13,556.27 L274.84,544.1 Z" id="Shape" fill="#926A2D" fill-rule="nonzero"></path>
            <path d="M237.14,506.91 C237.14,506.91 267.52,484.18 263.25,456.5 C258.98,428.82 237.14,477.66 237.14,477.66 L237.14,506.91 Z" id="Shape" fill="#5C5C8E" fill-rule="nonzero"></path>
            <path d="M245.56,381.42 C245.565798,391.377005 249.437958,400.942674 256.36,408.1 C260.093386,411.954585 264.588904,414.98906 269.56,417.01 C271.162966,417.680426 272.814343,418.228656 274.5,418.65 C276.29066,419.112128 278.111922,419.446304 279.95,419.65 C281.27,419.78 282.6,419.85 283.95,419.85 C288.247175,419.841112 292.51146,419.100526 296.56,417.66 C315.036609,411.242019 325.736691,391.961602 321.407663,372.887141 C317.078635,353.81268 299.103993,341.040112 279.667067,343.226765 C260.230141,345.413418 245.542706,361.860469 245.56,381.42 Z" id="Shape" fill="#926A2D" fill-rule="nonzero"></path>
            <path d="M99.82,556.68 C103.26,557.31 107.51,558.47 107.51,560.25 C107.51,563.25 155.51,579.46 155.51,579.46 C155.51,579.46 153.71,583.65 158.51,590.86 C163.31,598.07 202.34,639.47 202.34,639.47 L202.21,640.69 L201.71,645.46 L199.33,668.27 C199.33,668.27 214.33,662.87 219.13,663.47 C220.68,663.66 222.37,662.67 223.92,661.23 C223.349487,658.504965 222.288955,655.906153 220.79,653.56 C220.79,653.56 216.9,650.5 211.03,646.45 L211.03,569.94 L109.09,545.18 L99.86,554.38 C99.7976413,555.14503 99.7842807,555.913265 99.82,556.68 Z" id="Shape" fill="#000000" fill-rule="nonzero" opacity="0.1"></path>
            <path d="M95.5,571.45 C95.5,571.45 107.5,572.64 107.5,575.65 C107.5,578.66 155.5,594.86 155.5,594.86 C155.5,594.86 153.7,599.05 158.5,606.26 C163.3,613.47 202.33,654.87 202.33,654.87 L199.33,683.67 C199.33,683.67 214.33,678.27 219.13,678.87 C221.28,679.14 223.65,677.15 225.61,674.87 C227.23586,672.947667 228.685061,670.882639 229.94,668.7 C229.94,668.7 224.53,645.88 231.74,640.48 C238.95,635.08 223.94,595.48 223.94,595.48 C223.94,595.48 217.15,567.32 219.15,555.24 C219.277278,554.435283 219.47128,553.642549 219.73,552.87 C219.73,552.78 219.78,552.69 219.82,552.6 C224.1,541.06 270.14,444.25 270.14,444.25 C270.110416,441.504222 269.916737,438.762666 269.56,436.04 C269.47,435.28 269.35,434.49 269.2,433.7 C268.967651,432.260857 268.657193,430.835418 268.27,429.43 C268.01,428.51 267.73,427.63 267.4,426.79 C265.98,423.13 263.8,420.32 260.54,420.25 C260.54,420.25 256.94,416.25 248.54,415.19 C242.34,414.38 233.54,415.19 221.54,420.25 C193.34,432.25 186.74,432.85 186.74,432.85 L172.56,451.42 L169.64,455.24 C158.967644,469.160886 149.30625,483.828425 140.73,499.13 C136.01,507.61 129.33,517.5 121.32,523.44 C105.11,535.45 95.5,571.45 95.5,571.45 Z" id="Shape" fill="#3AAA96" fill-rule="nonzero"></path>
            <path d="M200.68,483.06 C200.68,483.06 160.62,492.96 145.09,517.94 L200.68,483.06 Z" id="Shape" fill="#000000" fill-rule="nonzero" opacity="0.1"></path>
            <path d="M188.3,526.94 C188.3,526.94 180.73,577.8 182.83,581.63 C184.93,585.46 188.3,526.94 188.3,526.94 Z" id="Shape" fill="#000000" fill-rule="nonzero" opacity="0.1"></path>
            <path d="M191.01,553.05 C193.93,556.87 205.76,586.36 205.76,586.36 L202.34,635.87 L199.34,664.67 C199.34,664.67 214.34,659.27 219.15,659.87 C221.29,660.14 223.67,658.16 225.63,655.87 C222.51,639 215.85,603.71 214.63,603.03 C213.04,602.13 204.94,573.77 204.51,565.89 C204.08,558.01 192.8,540.25 192.8,540.25 C192.8,540.25 188.08,549.23 191.01,553.05 Z" id="Shape" fill="#000000" fill-rule="nonzero" opacity="0.1"></path>
            <path d="M202.34,504.44 C203.07,506.69 204.23,519.74 204.23,519.74 C205.05,531.25 213.75,535.01 219.15,536.21 C219.277278,535.405283 219.47128,534.612549 219.73,533.84 C223.33,523.65 270.14,425.22 270.14,425.22 C270.091556,420.224328 269.464032,415.251121 268.27,410.4 C258.08,407.4 241.94,412.02 241.94,412.02 C237.28,411.41 222.07,441.66 222.07,441.66 C222.07,441.66 211.93,464.83 210.82,467.98 C209.71,471.13 210.82,476.32 210.37,478.12 C209.92,479.92 205.18,481.48 204.51,483.97 C203.84,486.46 204.28,491.38 203.83,492.28 C203.38,493.18 201.56,502.19 202.34,504.44 Z" id="Shape" fill="#000000" fill-rule="nonzero" opacity="0.1"></path>
            <path d="M205.94,502.64 C206.68,504.89 207.83,517.94 207.83,517.94 C208.51,527.52 214.67,531.73 219.83,533.57 C222.147207,534.397564 224.572745,534.882672 227.03,535.01 L234.27,541.29 L267.68,565.94 C267.68,565.94 280.14,542.94 276.76,542.79 C273.38,542.64 253.89,526.29 253.89,526.29 C247.89,523.11 241.95,512.47 239.18,507.01 C239.343508,506.351902 239.463765,505.683807 239.54,505.01 C240.75,494.82 265.95,455.81 265.95,455.81 C265.95,455.81 275.69,444.34 279.49,423.09 C279.6,422.61 279.67,422.09 279.76,421.6 C279.867721,420.938079 279.934514,420.270144 279.96,419.6 C280.41,411.43 274.47,408.46 267.41,407.75 L267.41,407.75 C263.741836,407.464814 260.053549,407.578815 256.41,408.09 C252.765205,408.545434 249.156498,409.25381 245.61,410.21 C242.61,409.82 235.15,422.37 230.27,431.26 L230.27,431.26 C227.64,436.08 225.75,439.85 225.75,439.85 C225.75,439.85 215.56,463.03 214.42,466.18 C213.28,469.33 214.42,474.51 213.97,476.32 C213.52,478.13 208.78,479.68 208.12,482.17 C207.46,484.66 207.88,489.58 207.43,490.48 C206.98,491.38 205.18,500.39 205.94,502.64 Z" id="Shape" fill="#3AAA96" fill-rule="nonzero"></path>
            <path d="M167.17,450.76 C173.51,457.28 183.85,457.3 192.11,453.99 C200.37,450.68 207.38,444.64 215.05,439.99 C220.05,436.99 225.29,434.46 230.19,431.33 L230.19,431.33 C230.91,430.86 231.61,430.39 232.29,429.91 C237.95,425.91 242.84,420.78 248.69,417.11 C252.610787,414.516227 257.171839,413.05586 261.87,412.89 C264.037632,412.868148 266.184024,413.318583 268.16,414.21 C268.504962,414.359991 268.839098,414.533741 269.16,414.73 C271.082729,415.842884 272.862538,417.186136 274.46,418.73 C276.11,420.22 277.7,421.81 279.46,423.19 C279.57,422.71 279.64,422.19 279.73,421.7 C279.837721,421.038079 279.904514,420.370144 279.93,419.7 C281.25,419.83 282.58,419.9 283.93,419.9 C288.23678,419.877337 292.508103,419.119794 296.56,417.66 C296.56,417.5 296.62,417.33 296.65,417.17 C298.09,409.61 300.65,401.6 306.77,397.35 C310.3,394.88 315.94,393.88 320.82,392 C325.470563,375.802549 319.017181,358.465672 304.90751,349.251425 C290.797839,340.037178 272.329323,341.098939 259.368583,351.869472 C246.407844,362.640006 241.983819,380.602229 248.46,396.16 C242.26,395.35 233.46,396.16 221.46,401.22 C193.26,413.22 186.66,413.82 186.66,413.82 L172.56,432.42 C174.09,434.76 175.82,437.07 175.98,439.8 C176.3,444.86 171.42,448.35 167.17,450.76 Z" id="Shape" fill="#000000" fill-rule="nonzero" opacity="0.1"></path>
            <path d="M306.82,393.76 C300.73,398.02 298.14,406.02 296.7,413.57 C296.25,415.93 295.82,418.42 294.38,420.29 C291.15,424.48 284.65,423.29 280.43,420.29 C276.21,417.29 272.89,412.73 268.18,410.6 C261.92,407.78 254.57,409.84 248.72,413.51 C242.87,417.18 237.97,422.31 232.31,426.3 C226.84,430.16 220.74,432.91 215.04,436.38 C207.38,441.05 200.38,447.08 192.11,450.38 C183.84,453.68 173.51,453.68 167.18,447.16 C171.43,444.8 176.31,441.31 175.98,436.26 C175.65,431.21 169.76,427.42 170.16,422.26 C170.56,417.1 176.65,415.04 181.02,412.5 C190.17,407.18 194.02,395.5 196.02,384.7 C197.54,376.27 198.79,366.84 205.1,361.43 C209.16,357.94 214.67,356.8 218.76,353.35 C222.64,350.07 224.76,345.1 227.24,340.53 C231.31,332.9 236.65,325.82 243.72,321.26 C250.79,316.7 259.78,314.94 267.54,318.01 C270.54,319.18 273.22,321.01 276.16,322.28 C283.46,325.44 291.83,325.02 299.07,328.34 C307.98,332.44 313.77,341.5 319.07,350.1 C323.6,357.45 332.46,370.46 329.98,379.96 C327.45,389.65 313.43,389.13 306.82,393.76 Z" id="Shape" fill="#7C5C5C" fill-rule="nonzero"></path>
            <g id="Group" opacity="0.1" transform="translate(167.000000, 366.000000)" fill-rule="nonzero" fill="#000000">
                <path d="M3.16,55.63 C3.19242686,55.2341822 3.26274894,54.8423878 3.37,54.46 C4.98,57 6.99,59.46 7.18,62.46 C7.22593108,63.1479878 7.16862965,63.8389757 7.01,64.51 C5.22,61.63 2.91,58.94 3.16,55.63 Z" id="Shape"></path>
                <path d="M23.31,76.57 C31.58,73.25 38.58,67.22 46.24,62.57 C51.94,59.1 58.04,56.35 63.51,52.49 C69.17,48.49 74.07,43.36 79.92,39.7 C85.77,36.04 93.12,33.97 99.38,36.79 C104.09,38.92 107.38,43.43 111.63,46.48 C115.88,49.53 122.35,50.72 125.58,46.53 C127.03,44.66 127.45,42.18 127.9,39.82 C129.34,32.26 131.9,24.26 138.02,20 C144.64,15.38 158.65,15.9 161.19,6.15 C161.613137,4.42023452 161.724881,2.62894236 161.52,0.86 C163.15,5.19 163.98,9.55 163,13.35 C160.45,23.1 146.44,22.58 139.82,27.2 C133.74,31.46 131.14,39.46 129.7,47.02 C129.25,49.38 128.83,51.87 127.39,53.73 C124.15,57.92 117.65,56.73 113.39,53.68 C109.13,50.63 105.85,46.12 101.14,43.99 C94.88,41.17 87.53,43.24 81.68,46.9 C75.83,50.56 70.93,55.7 65.27,59.69 C59.8,63.56 53.7,66.3 48,69.77 C40.34,74.45 33.34,80.47 25.07,83.77 C16.8,87.07 6.47,87.06 0.14,80.54 C1.77563623,79.6541157 3.32852357,78.6233198 4.78,77.46 C10.56,79.57 17.46,78.91 23.31,76.57 Z" id="Shape"></path>
            </g>
            <path d="M841.56,344.4 L800.56,303.17 C796.500137,299.018742 790.950125,296.661367 785.14376,296.621932 C779.337394,296.582496 773.755874,298.864269 769.64,302.96 L512.18,558.24 L403.32,448.53 C394.902886,439.992374 381.158606,439.893881 372.62,448.31 L331.18,489.31 C322.657668,497.821432 322.564064,511.603595 330.97,520.23 L496.29,686.85 C504.798684,695.37513 518.580869,695.473192 527.21,687.07 L841.33,375.31 C845.480853,371.253193 847.839882,365.706818 847.883069,359.902905 C847.926255,354.098993 845.650024,348.518127 841.56,344.4 Z" id="Shape" fill="#3ACC6C" fill-rule="nonzero"></path>
            <g id="Group" opacity="0.5" transform="translate(752.000000, 674.000000)" fill-rule="nonzero" fill="#3AAA96">
                <path d="M27.78,1.01 C27.78,1.01 -2.8,-0.83 0.78,20.6 C0.403020394,22.8284661 1.50017283,25.0469729 3.5,26.1 C3.5,26.1 3.5,24.51 6.63,25.05 C7.72945543,25.2377084 8.84761281,25.2914337 9.96,25.21 C11.4595567,25.1123541 12.8857363,24.5257236 14.02,23.54 L14.02,23.54 C14.02,23.54 22.61,19.99 25.96,5.93 C25.96,5.93 28.43,2.87 28.33,2.08 L23.17,4.29 C23.17,4.29 24.94,8.01 23.55,11.1 C23.55,11.1 23.38,4.42 22.39,4.58 C22.19,4.58 19.71,5.87 19.71,5.87 C19.71,5.87 22.71,12.35 20.45,17.07 C20.45,17.07 21.32,9.07 18.76,6.34 L15.13,8.46 C15.13,8.46 18.67,15.16 16.27,20.62 C16.27,20.62 16.89,12.24 14.36,8.98 L11.07,11.54 C11.07,11.54 14.4,18.14 12.37,22.68 C12.37,22.68 12.11,12.92 10.37,12.18 C10.37,12.18 7.49,14.72 7.05,15.77 C7.05,15.77 9.33,20.56 7.92,23.09 C7.92,23.09 7.05,16.58 6.34,16.56 C6.34,16.56 3.47,20.86 3.17,23.81 C3.30835948,21.0813121 4.1600321,18.4366445 5.64,16.14 C3.98611121,16.4570024 2.46052756,17.2493328 1.25,18.42 C1.25,18.42 1.69,15.42 6.35,15.1 C6.35,15.1 8.72,11.84 9.35,11.64 C9.35,11.64 4.72,11.25 1.91,12.5 C1.91,12.5 4.38,9.62 10.19,10.93 L13.44,8.28 C13.44,8.28 7.35,7.44 4.76,8.36 C4.76,8.36 7.76,5.82 14.32,7.67 L17.86,5.56 C17.86,5.56 12.66,4.44 9.56,4.84 C9.56,4.84 12.83,3.08 18.9,4.99 L21.43,3.85 C21.43,3.85 17.62,3.1 16.5,2.99 C15.38,2.88 15.33,2.56 15.33,2.56 C17.7414743,2.16106344 20.2163262,2.43796994 22.48,3.36 C22.48,3.36 27.87,1.35 27.78,1.01 Z" id="Shape"></path>
            </g>
            <g id="Group" opacity="0.5" transform="translate(719.000000, 525.000000)" fill-rule="nonzero" fill="#3AAA96">
                <path d="M5.91,0.35 C5.91,0.35 -9.62,26.76 11.12,33.28 C12.9350157,34.6286885 15.4104614,34.6609419 17.26,33.36 C17.26,33.36 15.87,32.59 17.74,30.09 C18.403932,29.1945609 18.9610374,28.2246603 19.4,27.2 C19.9837471,25.8154076 20.1064616,24.2797233 19.75,22.82 L19.75,22.82 C19.75,22.82 20.48,13.55 9.48,4.19 C9.48,4.19 7.87,0.59 7.13,0.32 L6.75,5.92 C6.75,5.92 10.86,6.04 12.99,8.68 C12.99,8.68 6.99,5.8 6.65,6.75 C6.59,6.95 6.58,9.75 6.58,9.75 C6.58,9.75 13.74,9.99 16.9,14.17 C16.9,14.17 10.18,9.77 6.57,10.81 L6.81,15.01 C6.81,15.01 14.39,14.89 18.17,19.51 C18.17,19.51 10.98,15.15 6.93,15.92 L7.72,20.02 C7.72,20.02 15.12,20.02 18.23,23.91 C18.23,23.91 9.42,19.72 7.97,20.91 C7.97,20.91 8.97,24.63 9.65,25.5 C9.65,25.5 14.96,25.64 16.57,28.05 C16.57,28.05 10.38,25.87 10.03,26.49 C10.03,26.49 12.57,31 15.03,32.61 C12.6624704,31.2444675 10.6938312,29.2827237 9.32,26.92 C8.8260121,28.5500631 8.8260121,30.2899369 9.32,31.92 C9.32,31.92 6.81,30.14 8.69,25.92 C8.69,25.92 6.85,22.33 6.96,21.67 C6.96,21.67 4.52,25.62 4.35,28.67 C4.35,28.67 2.91,25.16 6.71,20.57 L5.83,16.47 C5.83,16.47 2.32,21.53 1.96,24.25 C1.96,24.25 1.05,20.44 5.69,15.42 L5.41,11.31 C5.41,11.31 2.05,15.43 1.01,18.37 C1.01,18.37 0.92,14.66 5.37,10.12 L5.51,7.35 C5.51,7.35 3.11,10.41 2.51,11.35 C1.91,12.29 1.6,12.2 1.6,12.2 C2.33428852,9.8721621 3.70199135,7.79463881 5.55,6.2 C5.55,6.2 6.25,0.42 5.91,0.35 Z" id="Shape"></path>
            </g>
            <g id="Group" opacity="0.5" transform="translate(622.000000, 314.000000)" fill-rule="nonzero" fill="#3AAA96">
                <path d="M5.78,0.64 C5.78,0.64 -9.74,27.06 10.99,33.57 C12.802899,34.9249349 15.2824147,34.9572413 17.13,33.65 C17.13,33.65 15.74,32.88 17.62,30.38 C18.2810609,29.4844652 18.8348415,28.5145101 19.27,27.49 C19.8586877,26.1066177 19.9815317,24.5693131 19.62,23.11 L19.62,23.11 C19.62,23.11 20.36,13.84 9.35,4.48 C9.35,4.48 7.74,0.89 7,0.62 L6.62,6.21 C6.62,6.21 10.74,6.33 12.86,8.97 C12.86,8.97 6.86,6.09 6.53,7.04 C6.46,7.24 6.46,10.04 6.46,10.04 C6.46,10.04 13.61,10.28 16.77,14.46 C16.77,14.46 10.05,10.06 6.44,11.1 L6.69,15.3 C6.69,15.3 14.26,15.18 18.04,19.8 C18.04,19.8 10.85,15.45 6.8,16.21 L7.59,20.31 C7.59,20.31 14.99,20.31 18.11,24.21 C18.11,24.21 9.29,20.01 7.84,21.21 C7.84,21.21 8.84,24.92 9.53,25.79 C9.53,25.79 14.83,25.93 16.44,28.34 C16.44,28.34 10.25,26.16 9.91,26.78 C9.91,26.78 12.44,31.3 14.91,32.9 C12.5403499,31.5382466 10.5683488,29.5800357 9.19,27.22 C8.71153034,28.8319096 8.71153034,30.5480904 9.19,32.16 C9.19,32.16 6.68,30.38 8.56,26.11 C8.56,26.11 6.72,22.52 6.83,21.86 C6.83,21.86 4.39,25.81 4.22,28.86 C4.22,28.86 2.78,25.35 6.59,20.76 L5.7,16.66 C5.7,16.66 2.19,21.72 1.84,24.44 C1.84,24.44 0.92,20.63 5.56,15.61 L5.28,11.5 C5.28,11.5 1.92,15.62 0.88,18.56 C0.88,18.56 0.79,14.85 5.24,10.32 L5.38,7.54 C5.38,7.54 2.98,10.6 2.38,11.54 C1.78,12.48 1.47,12.39 1.47,12.39 C2.2215627,10.0579708 3.60642028,7.98068448 5.47,6.39 C5.47,6.39 6.12,0.76 5.78,0.64 Z" id="Shape"></path>
            </g>
            <g id="Group" opacity="0.5" transform="translate(260.000000, 114.000000)" fill-rule="nonzero" fill="#3AAA96">
                <path d="M33.42,0.55 C33.42,0.55 -24.38,42.55 13.88,75.82 C13.88,75.82 18.21,83.7 26.94,81.71 C26.94,81.71 24.68,78.77 31.03,75.17 C33.2808351,73.8767356 35.3689857,72.3190155 37.25,70.53 C39.7941778,68.1337651 41.4895295,64.9747245 42.08,61.53 L42.08,61.53 C42.08,61.53 52.3,42.39 37.49,12.13 C37.49,12.13 37.4,2.94 36.05,1.67 L30.05,13.29 C30.05,13.29 38.74,17.38 40.83,25.01 C40.83,25.01 30.62,13.22 29.07,15.01 C28.76,15.36 26.15,21.31 26.15,21.31 C26.15,21.31 41.24,28.49 44.1,40.37 C44.1,40.37 33.82,24.69 25.1,23.55 L21.71,32.76 C21.71,32.76 38.02,39.57 41.8,52.97 C41.8,52.97 30.48,36.97 21.1,34.82 L18.98,44.33 C18.98,44.33 34.76,51.28 37.83,62.45 C37.83,62.45 22.83,45.27 18.64,46.54 C18.64,46.54 17.22,55.38 17.97,57.91 C17.97,57.91 29.19,63.16 30.39,69.81 C30.39,69.81 19.18,59.39 17.86,60.39 C17.86,60.39 19.08,72.39 22.92,78.16 C22.92,78.16 16.63,70.07 15.99,60.68 C15.99,60.68 11.7,65.68 11.46,71.29 C11.46,71.29 7.74,65.14 15.73,57.76 C15.73,57.76 15.16,48.36 16.01,47.06 C16.01,47.06 7.09,53.23 3.88,59.63 C3.88,59.63 4.07,50.79 16.48,44.52 L18.4,34.93 C18.4,34.93 6.19,42.46 2.9,47.93 C2.9,47.93 4.49,38.93 19.08,32.51 L22.32,23.46 C22.32,23.46 11.32,29.15 6.32,34.46 C6.32,34.46 9.59,26.46 23.32,20.89 L26.19,15.09 C26.19,15.09 18.19,19.39 16.04,20.83 C13.89,22.27 13.29,21.83 13.29,21.83 C17.0358708,17.528933 21.9038123,14.354038 27.35,12.66 C27.35,12.66 34.09,1.02 33.42,0.55 Z" id="Shape"></path>
            </g>
            <g id="Group" opacity="0.5" transform="translate(150.000000, 244.000000)" fill-rule="nonzero" fill="#3AAA96">
                <path d="M87.27,9.14 C87.27,9.14 12.5,-22.3 2.7,34.39 C2.7,34.39 -2.41,43.23 4.7,50.53 C4.7,50.53 6.23,46.61 13.46,50.66 C16.0387757,52.0862227 18.7780095,53.2007149 21.62,53.98 C25.4581007,55.0387239 29.536349,54.8211238 33.24,53.36 L33.24,53.36 C33.24,53.36 57.82,52.03 78.51,19.86 C78.51,19.86 87.37,14.38 87.82,12.32 L72.99,13.32 C72.99,13.32 74.13,24.17 67.99,30.68 C67.99,30.68 73.44,13.84 70.82,13.37 C70.29,13.27 62.99,14.23 62.99,14.23 C62.99,14.23 64.88,33.1 54.99,42.86 C54.99,42.86 64.17,23.67 60.17,14.57 L49.24,16.68 C49.24,16.68 52.24,36.53 41.42,48.07 C41.42,48.07 50.31,27.67 46.88,17.31 L36.4,20.83 C36.4,20.83 38.93,40.24 29.88,49.83 C29.88,49.83 37.78,25.22 34.06,21.83 C34.06,21.83 24.64,25.65 22.62,27.83 C22.62,27.83 24.12,41.83 18.36,46.88 C18.36,46.88 21.9,29.88 20.15,29.18 C20.15,29.18 9.2,37.42 5.86,44.53 C5.86,44.53 10.03,33.67 18.77,27.53 C18.77,27.53 11.43,26.28 5.77,29.36 C5.77,29.36 9.56,22.15 21.42,25.57 C21.42,25.57 30.21,19.48 31.97,19.57 C31.97,19.57 20.75,14.57 12.64,15.19 C12.64,15.19 21.33,10.19 34.71,18.54 L45.14,14.76 C45.14,14.76 30.65,7.33 23.38,7.36 C23.38,7.36 33.04,3.62 47.86,14.02 L58.56,11.81 C58.56,11.81 46.56,4.46 38.46,2.76 C38.46,2.76 48.17,1.22 61.64,11.31 L68.96,10.7 C68.96,10.7 60.1,5.48 57.42,4.21 C54.74,2.94 54.86,2.12 54.86,2.12 C61.2386823,3.22748093 67.1835856,6.08740529 72.03,10.38 C72.03,10.38 87.2,10.07 87.27,9.14 Z" id="Shape"></path>
            </g>
            <g id="Group" opacity="0.5" transform="translate(119.000000, 133.000000)" fill-rule="nonzero" fill="#3AAA96">
                <path d="M73.5,40.76 C73.5,40.76 46.99,-20.51 8.88,7.59 C8.88,7.59 0.81,9.93 0.88,18.29 C0.88,18.29 4.02,16.83 6,23.36 C6.73821089,25.6730151 7.74508526,27.891495 9,29.97 C10.6752283,32.7879992 13.224239,34.9823955 16.26,36.22 L16.26,36.22 C16.26,36.22 31.62,49.44 62.26,42.11 C62.26,42.11 70.65,43.9 72.09,42.94 L62.72,35.07 C62.72,35.07 57.22,42.17 49.84,42.51 C49.84,42.51 62.67,35.61 61.38,33.84 C61.12,33.48 56.24,29.9 56.24,29.9 C56.24,29.9 46.61,42.18 35.24,42.37 C35.24,42.37 51.63,36.19 54.43,28.52 L46.73,23.52 C46.73,23.52 37.06,37.05 24.07,37.76 C24.07,37.76 40.97,30.71 44.84,22.59 L36.61,18.76 C36.61,18.76 27.05,31.76 16.24,32.25 C16.24,32.25 34.95,22.13 34.66,18 C34.66,18 26.89,14.9 24.43,15.08 C24.43,15.08 17.36,24.23 11.05,23.97 C11.05,23.97 22.84,15.88 22.19,14.47 C22.19,14.47 10.99,13.13 4.96,15.47 C4.96,15.47 13.62,11.39 22.31,12.73 C22.31,12.73 18.66,7.8 13.56,6.43 C13.56,6.43 19.93,4.3 25.02,13.08 C25.02,13.08 33.71,14.48 34.72,15.52 C34.72,15.52 30.92,6.13 25.72,1.9 C25.72,1.9 33.72,3.9 36.93,16.47 L45.28,20.18 C45.28,20.18 40.91,7.5 36.57,3.39 C36.57,3.39 44.44,6.67 47.32,21.29 L54.91,26.08 C54.91,26.08 51.97,14.88 48.14,9.25 C48.14,9.25 54.78,13.87 57.04,27.54 L61.74,31.34 C61.74,31.34 59.44,23.2 58.57,20.92 C57.7,18.64 58.25,18.22 58.25,18.22 C61.4042181,22.5104665 63.3048484,27.5926619 63.74,32.9 C63.74,32.9 72.94,41.29 73.5,40.76 Z" id="Shape"></path>
            </g>
            <g id="Group" opacity="0.5" transform="translate(678.000000, 183.000000)" fill-rule="nonzero" fill="#3AAA96">
                <path d="M31.18,22.64 C31.18,22.64 24.93,-7.36 5.18,1.75 C2.92630229,1.96557606 1.06848364,3.60934169 0.58,5.82 C0.58,5.82 2.13,5.45 2.42,8.57 C2.52978173,9.67720918 2.76805127,10.7678796 3.13,11.82 C3.62946467,13.2388975 4.57271366,14.4591601 5.82,15.3 L5.82,15.3 C5.82,15.3 11.5,22.66 25.93,22.2 C25.93,22.2 29.54,23.78 30.28,23.48 L26.79,19.08 C26.79,19.08 23.66,21.76 20.32,21.23 C20.32,21.23 26.72,19.32 26.32,18.4 C26.23,18.21 24.37,16.15 24.37,16.15 C24.37,16.15 18.91,20.78 13.76,19.81 C13.76,19.81 21.69,18.55 23.67,15.36 L20.67,12.41 C20.67,12.41 15.13,17.59 9.23,16.7 C9.23,16.7 17.48,15.1 19.97,11.81 L16.63,9.31 C16.63,9.31 11.13,14.25 6.22,13.48 C6.22,13.48 15.57,10.66 15.82,8.78 C15.82,8.78 12.62,6.67 11.49,6.52 C11.49,6.52 7.49,9.98 4.66,9.28 C4.66,9.28 10.66,6.74 10.55,6.04 C10.55,6.04 5.64,4.4 2.71,4.89 C5.37986195,4.31131699 8.15447838,4.43884594 10.76,5.26 C10.02492,3.74408395 8.85981755,2.47812186 7.41,1.62 C7.41,1.62 10.47,1.25 11.95,5.62 C11.95,5.62 15.72,7.05 16.08,7.62 C16.08,7.62 15.24,3.05 13.3,0.62 C13.3,0.62 16.72,2.25 16.99,8.21 L20.4,10.65 C20.4,10.65 19.61,4.55 18.04,2.29 C18.04,2.29 21.27,4.5 21.21,11.29 L24.21,14.15 C24.21,14.15 23.93,8.84 22.73,5.96 C22.73,5.96 25.28,8.65 25.03,14.96 L26.79,17.11 C26.79,17.11 26.52,13.24 26.34,12.11 C26.16,10.98 26.44,10.86 26.44,10.86 C27.4621735,13.0847581 27.8464504,15.5496699 27.55,17.98 C27.55,17.98 30.88,22.82 31.18,22.64 Z" id="Shape"></path>
            </g>
            <g id="Group" opacity="0.5" transform="translate(570.000000, 739.000000)" fill-rule="nonzero" fill="#3AAA96">
                <path d="M31.56,22.76 C31.56,22.76 25.32,-7.24 5.56,1.87 C3.30380035,2.0845122 1.44250112,3.72778505 0.95,5.94 C0.95,5.94 2.5,5.57 2.79,8.69 C2.89807974,9.79840146 3.13983556,10.8896604 3.51,11.94 C4.00683268,13.3574899 4.9464395,14.5775764 6.19,15.42 L6.19,15.42 C6.19,15.42 11.87,22.78 26.31,22.32 C26.31,22.32 29.92,23.9 30.65,23.6 L27.17,19.2 C27.17,19.2 24.04,21.88 20.69,21.35 C20.69,21.35 27.09,19.44 26.69,18.52 C26.61,18.33 24.74,16.27 24.74,16.27 C24.74,16.27 19.28,20.9 14.13,19.93 C14.13,19.93 22.07,18.67 24.04,15.48 L21.04,12.48 C21.04,12.48 15.56,17.68 9.64,16.76 C9.64,16.76 17.89,15.16 20.38,11.87 L17.04,9.37 C17.04,9.37 11.55,14.31 6.64,13.54 C6.64,13.54 15.99,10.73 16.24,8.84 C16.24,8.84 13.03,6.73 11.91,6.58 C11.91,6.58 7.91,10.04 5.07,9.34 C5.07,9.34 11.07,6.8 10.96,6.1 C10.96,6.1 6.05,4.46 3.12,4.95 C5.79317954,4.37093526 8.57111628,4.49845841 11.18,5.32 C10.441494,3.80641937 9.27720636,2.54134261 7.83,1.68 C7.83,1.68 10.88,1.31 12.36,5.68 C12.36,5.68 16.14,7.11 16.5,7.68 C16.5,7.68 15.66,3.11 13.72,0.68 C13.72,0.68 17.14,2.31 17.4,8.27 L20.82,10.71 C20.82,10.71 20.02,4.61 18.45,2.35 C18.45,2.35 21.69,4.56 21.63,11.35 L24.63,14.21 C24.63,14.21 24.35,8.9 23.14,6.02 C23.14,6.02 25.7,8.71 25.45,15.02 L27.21,17.17 C27.21,17.17 26.93,13.3 26.75,12.17 C26.57,11.04 26.85,10.93 26.85,10.93 C27.8728678,13.1510002 28.2572167,15.6129107 27.96,18.04 C27.96,18.04 31.28,22.91 31.56,22.76 Z" id="Shape"></path>
            </g>
            <path d="M989,256.16 C989.68,257.3 989.86,258.78 990.77,259.72 C992.27,261.27 994.69,260.47 996.77,260.51 C1001.59,260.59 1005.11,265.7 1006.28,270.74 C1007.45,275.78 1007.07,281.14 1008.28,286.17 C1008.02643,282.909406 1009.64205,279.786653 1012.45,278.11 C1015.23972,276.649087 1018.65013,277.12767 1020.93,279.3 C1022.74,281.02 1023.93,283.78 1026.35,284.3 C1028.77,284.82 1031.01,282.52 1031.87,280.02 C1032.73,277.52 1032.66,274.78 1033.22,272.19 C1034.29,267.28 1037.49,263.26 1039.22,258.6 C1041.32883,252.926318 1041.27187,246.674313 1039.06,241.04 C1037.88,238.04 1036.13,235.43 1034.93,232.48 C1033.13,228 1032.65,222.95 1030.45,218.68 C1026.75,211.53 1018.03,207.96 1010.87,210.68 C1007.45,211.97 1004.48,214.46 1001.01,215.57 C996.37,217.06 991.4,215.94 986.59,215.27 C981.78,214.6 976.46,214.54 972.59,217.7 C968.14,221.34 966.92,228.18 962.74,232.18 C960.98,233.86 958.8,234.93 956.95,236.48 C955.1,238.03 953.5,240.34 953.71,242.86 C953.99,246.12 957.18,249.08 956,252.09 C955.576005,252.965772 968.007481,253.755747 966.5,258.6 C964.992519,263.444253 964.16,260.69 970.75,256.34 C975.08,253.41 985.56,250.58 989,256.16 Z" id="Shape" fill="#000000" fill-rule="nonzero"></path>
        </g>
    </g>
</svg>