<?xml version="1.0" standalone="no"?>
<!DOCTYPE svg PUBLIC "-//W3C//DTD SVG 20010904//EN"
 "http://www.w3.org/TR/2001/REC-SVG-20010904/DTD/svg10.dtd">
<svg version="1.0" xmlns="http://www.w3.org/2000/svg"
 width="801.000000pt" height="801.000000pt" viewBox="0 0 801.000000 801.000000"
 preserveAspectRatio="xMidYMid meet">
<metadata>
Created by potrace 1.11, written by Peter Selinger 2001-2013
</metadata>
<g transform="translate(0.000000,801.000000) scale(0.100000,-0.100000)"
fill="#000000" stroke="none">
<path d="M3768 7055 c-2 -2 -38 -6 -80 -10 -43 -3 -88 -8 -100 -10 -13 -2 -68
-11 -123 -20 -55 -9 -136 -25 -180 -36 -44 -11 -89 -21 -100 -23 -11 -2 -33
-9 -50 -16 -16 -6 -31 -11 -33 -10 -1 0 -33 -9 -70 -20 -351 -107 -755 -331
-1059 -586 -101 -84 -335 -325 -423 -434 -386 -481 -623 -1067 -677 -1680 -10
-109 -10 -472 0 -570 15 -147 17 -157 41 -290 186 -1016 895 -1895 1857 -2303
125 -53 364 -134 445 -152 364 -78 465 -90 774 -90 186 1 384 10 400 20 3 2
34 6 70 10 36 4 68 9 71 11 4 2 24 6 45 9 121 18 427 108 594 175 107 42 336
158 445 225 445 272 827 662 1090 1115 122 210 276 589 320 789 35 154 45 209
55 276 6 44 13 91 15 104 27 165 27 603 -1 801 -80 571 -291 1069 -648 1530
-104 135 -360 391 -501 503 -358 284 -757 483 -1185 592 -36 9 -209 45 -244
51 -21 3 -48 7 -59 10 -12 2 -51 6 -87 10 -36 3 -76 8 -90 11 -26 6 -506 13
-512 8z"/>
</g>
</svg>
